<?xml version="1.0" encoding="utf-8"?>
<!-- Generator: Adobe Illustrator 25.1.0, SVG Export Plug-In . SVG Version: 6.00 Build 0)  -->
<svg version="1.1" id="レイヤー_1" xmlns="http://www.w3.org/2000/svg" xmlns:xlink="http://www.w3.org/1999/xlink" x="0px"
	 y="0px" viewBox="0 0 172 8" style="enable-background:new 0 0 172 8;" xml:space="preserve">
<text transform="matrix(1 0 0 1 55.2607 41.3477)" style="font-family:'Century'; font-size:12px;">ANNIVERSARY PLANNER</text>
<g>
	<path d="M3.2,0.8h0.3l2.3,5.9C5.9,7,6.1,7.1,6.4,7.1h0.2v0.3H4V7.1h0.2c0.3,0,0.5,0,0.6-0.1c0.1,0,0.1-0.1,0.1-0.2c0,0,0-0.1,0-0.2
		L4.3,5.3H1.7L1.4,6.1C1.4,6.3,1.3,6.4,1.3,6.6c0,0.1,0.1,0.3,0.2,0.4s0.3,0.2,0.6,0.2h0.2v0.3H0V7.1c0.3,0,0.5-0.1,0.6-0.2
		C0.7,6.8,0.8,6.6,1,6.3L3.2,0.8z M3,2L1.9,4.9h2.3L3,2z"/>
	<path d="M9.5,0.9H11L14.9,6V2.3c0-0.4-0.1-0.6-0.3-0.8c-0.2-0.2-0.4-0.2-0.7-0.3V0.9h2.3v0.3c-0.2,0-0.4,0-0.5,0.1
		s-0.2,0.2-0.3,0.4S15.3,2,15.3,2.2v5.2h-0.4l-4.1-5.3V6c0,0.4,0.1,0.6,0.3,0.8c0.2,0.2,0.5,0.3,0.8,0.3v0.3H9.5V7.1
		c0.3,0,0.6-0.1,0.7-0.3s0.3-0.4,0.3-0.7V1.7l-0.1-0.1c-0.1-0.2-0.3-0.3-0.3-0.3c-0.1,0-0.2-0.1-0.3-0.1H9.5V0.9z"/>
	<path d="M19.4,0.9h1.6L24.8,6V2.3c0-0.4-0.1-0.6-0.3-0.8c-0.2-0.2-0.4-0.2-0.7-0.3V0.9h2.3v0.3c-0.2,0-0.4,0-0.5,0.1
		s-0.2,0.2-0.3,0.4S25.2,2,25.2,2.2v5.2h-0.4l-4.1-5.3V6c0,0.4,0.1,0.6,0.3,0.8c0.2,0.2,0.5,0.3,0.8,0.3v0.3h-2.5V7.1
		c0.3,0,0.6-0.1,0.7-0.3s0.3-0.4,0.3-0.7V1.7l-0.1-0.1C20.2,1.4,20,1.3,20,1.3c-0.1,0-0.2-0.1-0.3-0.1h-0.3V0.9z"/>
	<path d="M29.2,0.9h3v0.3h-0.5c-0.2,0-0.4,0-0.4,0.1c-0.1,0.1-0.1,0.2-0.1,0.4v4.9c0,0.2,0,0.3,0.1,0.4c0.1,0.1,0.2,0.1,0.4,0.1h0.6
		v0.3h-3V7.1h0.6c0.2,0,0.3,0,0.4-0.1c0.1-0.1,0.1-0.2,0.1-0.4V1.7c0-0.2,0-0.3-0.1-0.3c-0.1-0.1-0.2-0.1-0.5-0.1h-0.5V0.9z"/>
	<path d="M35.1,0.9h2.7v0.3h-0.5c-0.2,0-0.3,0-0.4,0.1s-0.1,0.1-0.1,0.2c0,0.1,0,0.2,0.1,0.3l0,0.1l1.7,4.4l1.5-4.2
		c0-0.1,0-0.2,0-0.3c0-0.2,0-0.3-0.1-0.4c-0.1-0.1-0.2-0.1-0.4-0.1h-0.4V0.9h2.4v0.3h-0.2c-0.1,0-0.3,0.1-0.4,0.2
		c-0.1,0.1-0.3,0.4-0.4,0.7l-2,5.4h-0.3L36,1.8c-0.1-0.2-0.2-0.3-0.3-0.4c-0.1-0.1-0.2-0.1-0.4-0.1h-0.2V0.9z"/>
	<path d="M44.8,0.9h5.2l0.1,2.2h-0.3c-0.1-0.7-0.3-1.2-0.6-1.5s-0.6-0.4-1-0.4h-1.3c-0.1,0-0.2,0-0.2,0.1s-0.1,0.1-0.1,0.3v2.3h0.6
		c0.3,0,0.5-0.1,0.7-0.3s0.3-0.5,0.3-1h0.3v3h-0.3c0-0.5-0.1-0.9-0.3-1.1c-0.2-0.2-0.4-0.3-0.8-0.3h-0.5v2.6c0,0.1,0,0.2,0.1,0.2
		c0.1,0,0.2,0.1,0.3,0.1h1c1.1,0,1.7-0.7,1.9-2.1h0.3l-0.1,2.4h-5.4V7.1h0.4c0.2,0,0.3,0,0.4-0.1c0.1-0.1,0.1-0.1,0.1-0.3V1.6
		c0-0.1,0-0.2-0.1-0.3c-0.1-0.1-0.2-0.1-0.3-0.1h-0.5V0.9z"/>
	<path d="M53.5,0.9h3.4c0.7,0,1.2,0.1,1.5,0.4c0.4,0.3,0.5,0.7,0.5,1.2c0,0.3-0.1,0.5-0.2,0.8c-0.1,0.2-0.3,0.4-0.6,0.5
		c-0.3,0.1-0.7,0.2-1.3,0.3c0.4,0.1,0.7,0.2,0.9,0.3c0.2,0.1,0.3,0.3,0.4,0.4c0.1,0.2,0.2,0.5,0.3,1.1c0.1,0.4,0.2,0.6,0.3,0.8
		c0.1,0.1,0.2,0.2,0.2,0.2c0.1,0,0.2-0.1,0.3-0.2c0.1-0.1,0.1-0.4,0.1-0.7h0.3c-0.1,1-0.4,1.5-1.1,1.5c-0.2,0-0.4-0.1-0.6-0.2
		c-0.2-0.1-0.3-0.3-0.4-0.5c-0.1-0.2-0.1-0.6-0.2-1.2c0-0.4-0.1-0.7-0.2-0.8c-0.1-0.2-0.2-0.3-0.4-0.4c-0.2-0.1-0.4-0.2-0.7-0.2
		h-0.5v2.6c0,0.1,0,0.2,0.1,0.2c0.1,0.1,0.2,0.1,0.3,0.1h0.6v0.3h-3V7.1h0.6c0.1,0,0.2,0,0.3-0.1c0.1-0.1,0.1-0.1,0.1-0.2V1.6
		c0-0.1,0-0.2-0.1-0.3c-0.1-0.1-0.2-0.1-0.3-0.1h-0.6V0.9z M55.5,3.9h0.8c0.5,0,0.9-0.1,1.2-0.3c0.3-0.2,0.4-0.5,0.4-1
		c0-0.3-0.1-0.6-0.2-0.8c-0.1-0.2-0.3-0.3-0.4-0.4s-0.5-0.1-1.1-0.1c-0.3,0-0.6,0-0.6,0.1c-0.1,0-0.1,0.1-0.1,0.2V3.9z"/>
	<path d="M66.5,1.4l0.4-0.6h0.3l0,2.4h-0.3c-0.2-0.7-0.5-1.3-0.8-1.6c-0.4-0.3-0.8-0.5-1.2-0.5c-0.4,0-0.7,0.1-0.9,0.3
		c-0.2,0.2-0.4,0.5-0.4,0.8c0,0.2,0,0.4,0.1,0.5C63.8,3,64,3.1,64.1,3.2c0.2,0.1,0.5,0.2,1.1,0.3c0.7,0.2,1.2,0.3,1.5,0.5
		c0.3,0.2,0.5,0.4,0.7,0.6c0.1,0.2,0.2,0.5,0.2,0.9c0,0.6-0.2,1.1-0.6,1.5c-0.4,0.4-0.9,0.6-1.5,0.6c-0.7,0-1.3-0.2-1.7-0.7
		l-0.5,0.6h-0.3V5h0.3c0.1,0.7,0.4,1.2,0.8,1.6s0.9,0.6,1.4,0.6c0.4,0,0.8-0.1,1.1-0.4C66.8,6.6,67,6.3,67,5.9
		c0-0.2-0.1-0.4-0.2-0.5c-0.1-0.2-0.3-0.3-0.5-0.4c-0.2-0.1-0.7-0.2-1.3-0.4c-0.7-0.2-1.2-0.4-1.5-0.6C63.2,3.7,63,3.3,63,2.7
		c0-0.6,0.2-1,0.5-1.4c0.4-0.4,0.8-0.5,1.4-0.5c0.3,0,0.5,0,0.8,0.1C66,1,66.2,1.2,66.5,1.4z"/>
	<path d="M73.7,0.8H74l2.3,5.9c0.1,0.2,0.3,0.4,0.6,0.4h0.2v0.3h-2.6V7.1h0.2c0.3,0,0.5,0,0.6-0.1c0.1,0,0.1-0.1,0.1-0.2
		c0,0,0-0.1,0-0.2l-0.5-1.4h-2.6L72,6.1c-0.1,0.2-0.1,0.4-0.1,0.5c0,0.1,0.1,0.3,0.2,0.4c0.1,0.1,0.3,0.2,0.6,0.2h0.2v0.3h-2.4V7.1
		c0.3,0,0.5-0.1,0.6-0.2c0.1-0.1,0.3-0.3,0.4-0.6L73.7,0.8z M73.6,2l-1.2,2.9h2.3L73.6,2z"/>
	<path d="M79.8,0.9h3.4c0.7,0,1.2,0.1,1.5,0.4c0.4,0.3,0.5,0.7,0.5,1.2c0,0.3-0.1,0.5-0.2,0.8c-0.1,0.2-0.3,0.4-0.6,0.5
		c-0.3,0.1-0.7,0.2-1.3,0.3c0.4,0.1,0.7,0.2,0.9,0.3c0.2,0.1,0.3,0.3,0.4,0.4c0.1,0.2,0.2,0.5,0.3,1.1c0.1,0.4,0.2,0.6,0.3,0.8
		c0.1,0.1,0.2,0.2,0.2,0.2c0.1,0,0.2-0.1,0.3-0.2c0.1-0.1,0.1-0.4,0.1-0.7H86c-0.1,1-0.4,1.5-1.1,1.5c-0.2,0-0.4-0.1-0.6-0.2
		C84.1,7.2,84,7,83.9,6.8c-0.1-0.2-0.1-0.6-0.2-1.2c0-0.4-0.1-0.7-0.2-0.8c-0.1-0.2-0.2-0.3-0.4-0.4c-0.2-0.1-0.4-0.2-0.7-0.2h-0.5
		v2.6c0,0.1,0,0.2,0.1,0.2c0.1,0.1,0.2,0.1,0.3,0.1h0.6v0.3h-3V7.1h0.6c0.1,0,0.2,0,0.3-0.1c0.1-0.1,0.1-0.1,0.1-0.2V1.6
		c0-0.1,0-0.2-0.1-0.3c-0.1-0.1-0.2-0.1-0.3-0.1h-0.6V0.9z M81.8,3.9h0.8c0.5,0,0.9-0.1,1.2-0.3c0.3-0.2,0.4-0.5,0.4-1
		c0-0.3-0.1-0.6-0.2-0.8c-0.1-0.2-0.3-0.3-0.4-0.4s-0.5-0.1-1.1-0.1c-0.3,0-0.6,0-0.6,0.1c-0.1,0-0.1,0.1-0.1,0.2V3.9z"/>
	<path d="M88.3,0.9h2.8v0.3h-0.3c-0.3,0-0.4,0-0.5,0.1s-0.1,0.1-0.1,0.2c0,0.1,0,0.1,0.1,0.2l1.6,2.6l1.2-2.2
		c0.1-0.1,0.1-0.2,0.1-0.3c0-0.2,0-0.3-0.1-0.4s-0.2-0.1-0.4-0.1h-0.3V0.9h2.5v0.3c-0.3,0-0.5,0-0.7,0.1c-0.2,0.1-0.3,0.3-0.5,0.6
		l-1.5,2.7v2.1c0,0.1,0,0.2,0.1,0.2c0.1,0.1,0.2,0.1,0.4,0.1h0.6v0.3h-3V7.1h0.6c0.2,0,0.3,0,0.3-0.1c0.1-0.1,0.1-0.1,0.1-0.2v-2
		l-2-3.1c-0.1-0.1-0.2-0.2-0.3-0.3c-0.1-0.1-0.3-0.1-0.6-0.1V0.9z"/>
	<path d="M102.7,0.9h3.2c0.7,0,1.3,0.2,1.7,0.5c0.4,0.3,0.6,0.8,0.6,1.3s-0.2,0.9-0.5,1.2c-0.5,0.4-1.1,0.6-1.8,0.6h-1.2v2.2
		c0,0.1,0,0.2,0.1,0.3c0.1,0.1,0.2,0.1,0.3,0.1h0.7v0.3h-3.1V7.1h0.7c0.1,0,0.2,0,0.3-0.1c0.1-0.1,0.1-0.1,0.1-0.2V1.6
		c0-0.1,0-0.2-0.1-0.3s-0.2-0.1-0.4-0.1h-0.5V0.9z M104.6,4.2h0.9c0.6,0,1-0.1,1.2-0.3c0.2-0.2,0.4-0.6,0.4-1.2
		c0-0.4-0.1-0.7-0.2-0.9c-0.1-0.2-0.3-0.3-0.5-0.4c-0.2-0.1-0.6-0.1-1.1-0.1c-0.3,0-0.5,0-0.6,0.1c-0.1,0.1-0.1,0.2-0.1,0.3V4.2z"/>
	<path d="M111.2,0.9h3v0.3h-0.7c-0.1,0-0.2,0-0.3,0.1c-0.1,0.1-0.1,0.2-0.1,0.3v5.1c0,0.1,0,0.2,0.1,0.3c0.1,0.1,0.2,0.1,0.4,0.1
		h0.9c0.5,0,0.9-0.2,1.2-0.5c0.3-0.3,0.5-0.9,0.7-1.7h0.3l-0.1,2.5h-5.4V7.1h0.5c0.2,0,0.3,0,0.4-0.1c0.1-0.1,0.1-0.2,0.1-0.3V1.6
		c0-0.1,0-0.2-0.1-0.2s-0.2-0.1-0.3-0.1h-0.7V0.9z"/>
	<path d="M122.6,0.8h0.3l2.3,5.9c0.1,0.2,0.3,0.4,0.6,0.4h0.2v0.3h-2.6V7.1h0.2c0.3,0,0.5,0,0.6-0.1c0.1,0,0.1-0.1,0.1-0.2
		c0,0,0-0.1,0-0.2l-0.5-1.4h-2.6l-0.3,0.8c-0.1,0.2-0.1,0.4-0.1,0.5c0,0.1,0.1,0.3,0.2,0.4c0.1,0.1,0.3,0.2,0.6,0.2h0.2v0.3h-2.4
		V7.1c0.3,0,0.5-0.1,0.6-0.2c0.1-0.1,0.3-0.3,0.4-0.6L122.6,0.8z M122.5,2l-1.2,2.9h2.3L122.5,2z"/>
	<path d="M128.9,0.9h1.6l3.9,5.1V2.3c0-0.4-0.1-0.6-0.3-0.8c-0.2-0.2-0.4-0.2-0.7-0.3V0.9h2.3v0.3c-0.2,0-0.4,0-0.5,0.1
		s-0.2,0.2-0.3,0.4c-0.1,0.2-0.1,0.4-0.1,0.6v5.2h-0.4l-4.1-5.3V6c0,0.4,0.1,0.6,0.3,0.8c0.2,0.2,0.5,0.3,0.8,0.3v0.3h-2.5V7.1
		c0.3,0,0.6-0.1,0.7-0.3s0.3-0.4,0.3-0.7V1.7l-0.1-0.1c-0.1-0.2-0.3-0.3-0.3-0.3c-0.1,0-0.2-0.1-0.3-0.1h-0.3V0.9z"/>
	<path d="M138.8,0.9h1.6l3.9,5.1V2.3c0-0.4-0.1-0.6-0.3-0.8c-0.2-0.2-0.4-0.2-0.7-0.3V0.9h2.3v0.3c-0.2,0-0.4,0-0.5,0.1
		s-0.2,0.2-0.3,0.4c-0.1,0.2-0.1,0.4-0.1,0.6v5.2h-0.4l-4.1-5.3V6c0,0.4,0.1,0.6,0.3,0.8c0.2,0.2,0.5,0.3,0.8,0.3v0.3h-2.5V7.1
		c0.3,0,0.6-0.1,0.7-0.3s0.3-0.4,0.3-0.7V1.7l-0.1-0.1c-0.1-0.2-0.3-0.3-0.3-0.3c-0.1,0-0.2-0.1-0.3-0.1h-0.3V0.9z"/>
	<path d="M148.6,0.9h3v0.3h-0.5c-0.2,0-0.4,0-0.4,0.1c-0.1,0.1-0.1,0.2-0.1,0.4v4.9c0,0.2,0,0.3,0.1,0.4c0.1,0.1,0.2,0.1,0.4,0.1
		h0.6v0.3h-3V7.1h0.6c0.2,0,0.3,0,0.4-0.1c0.1-0.1,0.1-0.2,0.1-0.4V1.7c0-0.2,0-0.3-0.1-0.3c-0.1-0.1-0.2-0.1-0.5-0.1h-0.5V0.9z"/>
	<path d="M154.9,0.9h1.6l3.9,5.1V2.3c0-0.4-0.1-0.6-0.3-0.8c-0.2-0.2-0.4-0.2-0.7-0.3V0.9h2.3v0.3c-0.2,0-0.4,0-0.5,0.1
		s-0.2,0.2-0.3,0.4c-0.1,0.2-0.1,0.4-0.1,0.6v5.2h-0.4l-4.1-5.3V6c0,0.4,0.1,0.6,0.3,0.8c0.2,0.2,0.5,0.3,0.8,0.3v0.3h-2.5V7.1
		c0.3,0,0.6-0.1,0.7-0.3s0.3-0.4,0.3-0.7V1.7l-0.1-0.1c-0.1-0.2-0.3-0.3-0.3-0.3c-0.1,0-0.2-0.1-0.3-0.1h-0.3V0.9z"/>
	<path d="M169.5,1.4l0.4-0.6h0.3l0.2,2.6H170c-0.2-0.7-0.5-1.3-0.8-1.6c-0.4-0.4-0.8-0.6-1.3-0.6c-0.4,0-0.7,0.1-1,0.3
		c-0.3,0.2-0.5,0.5-0.7,1c-0.2,0.4-0.2,1-0.2,1.8c0,0.8,0.1,1.3,0.2,1.8c0.2,0.4,0.4,0.7,0.7,0.9c0.3,0.2,0.6,0.3,1,0.3
		c0.5,0,0.9-0.1,1.2-0.4s0.4-0.7,0.4-1.1V5.1c0-0.1,0-0.2-0.1-0.2c-0.1-0.1-0.2-0.1-0.4-0.1h-0.5V4.4h2.7v0.3h-0.4
		c-0.2,0-0.3,0-0.4,0.1c-0.1,0.1-0.1,0.1-0.1,0.2v2.5h-0.3c-0.1-0.4-0.2-0.8-0.3-1.1c-0.2,0.4-0.5,0.6-0.8,0.8
		c-0.3,0.2-0.6,0.3-1,0.3c-0.5,0-1.1-0.1-1.5-0.4c-0.5-0.3-0.8-0.7-1.1-1.2c-0.3-0.5-0.4-1.1-0.4-1.7c0-0.6,0.1-1.2,0.4-1.7
		c0.3-0.5,0.6-0.9,1.1-1.2c0.5-0.3,1-0.5,1.4-0.5c0.3,0,0.5,0,0.8,0.1C168.9,1,169.2,1.2,169.5,1.4z"/>
</g>
</svg>
