<?xml version="1.0" encoding="utf-8"?>
<!-- Generator: Adobe Illustrator 25.1.0, SVG Export Plug-In . SVG Version: 6.00 Build 0)  -->
<svg version="1.1" id="レイヤー_1" xmlns="http://www.w3.org/2000/svg" xmlns:xlink="http://www.w3.org/1999/xlink" x="0px"
	 y="0px" viewBox="0 0 173.3 70.2" style="enable-background:new 0 0 173.3 70.2;" xml:space="preserve">
<g>
	<path d="M11.9,39.2c-0.2,3-0.5,5.2-0.7,6.6c-0.5,4.2-1.3,7.4-2.4,9.7c-1.4,3-3.2,3.6-5.6,1.7c-0.7-2.5-0.9-4.9-0.7-7
		c0-1.4,0.3-2.4,1-3.1c3.5-4.9,5.6-8.9,6.3-12.2c0.5-1.2,0.9-1.5,1.4-1C11.9,34.9,12.2,36.7,11.9,39.2z M35.9,47.9
		c8.1,4.4,17.6,6.3,28.5,5.6c1.2,0,2-0.5,2.4-1.4c-0.2-1.4-0.7-3.1-1.4-5.2c-0.7-2.3-1.7-5.1-3.1-8.3c0-0.7,0.5-0.7,1.4,0
		c2.5,3.2,4.4,5.6,5.6,7c1.9,2.1,3.9,4.1,6.3,5.9c2.5,1.6,3.8,2.7,3.8,3.1c0.7,1.4,0.1,2.6-1.7,3.5c-3.2,1.4-6,2.2-8.3,2.4
		c-2.3,0.2-5.2,0.3-8.7,0.3c-10.7-0.5-19.4-3.1-26.1-8c-7.9-5.6-13.4-13.3-16.7-23.3c0-0.2,0.3-0.2,1,0
		C23.8,37.6,29.4,43.8,35.9,47.9z M37.7,21.9c0.9,1.2,2,1.9,3.1,2.1c0.7-0.5,1.4-1.2,2.1-2.1c0.7-1.4,1-0.1,1,3.8
		c0,2.3-0.2,4.5-0.7,6.6c-0.5,1.4-1.4,1.6-2.8,0.7c-1.9-0.5-3.7-2.2-5.6-5.2c-1.2-1.9-1.9-3.8-2.1-5.9c0-1.9,0.1-3.8,0.3-5.9
		c0.2-0.5,0.6-0.5,1,0C34.9,17.8,36.1,19.8,37.7,21.9z M74.5,22.5c1.6,1.4,3,4.2,4.2,8.3c0,1.6-0.6,2.6-1.7,2.8
		c-1.2,0.2-2.1,0-2.8-0.7c-4.6-4.6-9.3-9.3-13.9-13.9c-0.5-0.5-0.3-0.8,0.3-1C66.2,19.4,70.8,20.9,74.5,22.5z"/>
	<path d="M124.6,16.3l-1,1.7l-3.8,10.4c3.9-0.9,6.5-1.4,7.6-1.4c3,0,5.6,1.2,7.6,3.5c1.4,1.9,2.1,4.2,2.1,7
		c-0.2,5.6-3,13.2-8.3,22.9c-3.7,6-7.2,9-10.4,9c-0.9,0-1.5-0.6-1.7-1.7c-0.9-3.2-2.6-6.1-4.9-8.7c-0.7-1.2-0.3-1.4,1-0.7
		c3.2,1.9,5.4,2.8,6.6,2.8c1.6,0,4.2-2.9,7.6-8.7c3.5-5.8,5.2-10.8,5.2-14.9c0-4.6-1.9-7-5.6-7c-2.1,0-5,0.7-8.7,2.1
		c-4.2,9.7-8.2,18.1-12.2,25c-1.2,1.9-2.2,3.1-3.1,3.8c-0.9,0.5-1.7,0.3-2.4-0.3c-1.2-2.3-1.2-4.7,0-7.3c0.9-0.9,1.9-1.9,2.8-2.8
		c2.1-2.3,5.1-7.6,9-16c-2.3,0.9-4.3,1.7-5.9,2.4c-0.9,0.2-2.4-0.2-4.5-1.4c-1.9-1.2-2.1-1.9-0.7-2.1c2.5-0.2,4.4-0.6,5.6-1
		c2.5-0.7,5.2-1.7,8-3.1c3.5-9.3,5.1-14.7,4.9-16.3c-0.2-2.1-0.7-3.6-1.4-4.5c-0.5-0.9-0.1-1.4,1-1.4C123,9.7,124.8,12.6,124.6,16.3
		z M162.5,30.9c2.5,2.8,3.8,5.4,3.8,8c-0.2,2.3-1.3,3-3.1,2.1c-1.6-1.2-3-2-4.2-2.4c-0.9-0.5-3.4-0.8-7.3-1c-1.2-0.5-1-0.9,0.3-1.4
		l4.9-1c0.9-0.5,1-1.3,0.3-2.4c-1.9-3.2-4.1-6-6.6-8.3c-0.7-0.9-0.6-1.4,0.3-1.4C155,24.3,158.8,27,162.5,30.9z M161.8,12.1
		c0.7,0.5,1.4,1.2,2.1,2.1c0.9,1.4,1.4,2.7,1.4,3.8c-0.2,1.9-1.3,2.3-3.1,1.4c-2.3-1.6-4.5-4.2-6.6-7.6c-0.7-0.9-0.6-1.4,0.3-1.4
		C158,10.8,159.9,11.4,161.8,12.1z M167.4,6.2c1.2,0.7,2.1,1.4,2.8,2.1c1.2,1.4,1.6,2.9,1.4,4.5c-0.9,1.9-2.4,1.9-4.5,0
		c-2.3-2.1-4.4-4.5-6.3-7.3c-0.2-0.7,0.1-0.9,1-0.7C164.1,5.3,166,5.7,167.4,6.2z"/>
</g>
</svg>
