<?xml version="1.0" encoding="utf-8"?>
<!-- Generator: Adobe Illustrator 25.1.0, SVG Export Plug-In . SVG Version: 6.00 Build 0)  -->
<svg version="1.1" id="レイヤー_1" xmlns="http://www.w3.org/2000/svg" xmlns:xlink="http://www.w3.org/1999/xlink" x="0px"
	 y="0px" viewBox="0 0 303.6 27" style="enable-background:new 0 0 303.6 27;" xml:space="preserve">
<g>
	<path d="M8.4,4.3c0.2,0,0.7,0.1,1.6,0.4c0.9,0.3,0.9,0.7,0.2,1.2C9.2,6,8.1,6.3,7,6.5C7.7,7,8,7.5,8,7.8c0,0.2-0.1,0.4-0.2,0.7
		c-0.1,1.6-0.1,2.6-0.1,2.9c0.3-0.2,0.6-0.3,0.9-0.5c0.2-0.2,0.4-0.2,0.6-0.2c0.2,0,0.4,0,0.7,0.1c0.5,0.2,0.7,0.4,0.7,0.7
		c0,0.2-0.2,0.3-0.5,0.5c-1,0.2-1.9,0.5-2.6,0.7c-0.1,2-0.2,3.9-0.2,5.7c1.3-0.6,2.6-1.3,3.9-2c0.4-0.2,0.5-0.1,0.4,0.2
		c-1.7,1.4-3.3,2.7-4.8,3.8c-2.1,1.6-3.3,2.5-3.5,2.5c-0.2,0-0.5-0.2-1.2-0.5c-0.4-0.2-0.7-0.5-0.9-0.7C0.4,21.3,0.5,21,1.2,21
		c0.3,0,0.6,0,0.8-0.1c0.9-0.4,2.1-1,3.9-1.8c0.1-2.3,0.1-4.3,0.1-6c-0.6,0.2-1.2,0.3-1.8,0.5c-0.4,0.1-0.6,0.1-0.7,0.1
		c-0.3-0.1-0.7-0.2-1.1-0.4C2,13.2,2,13.1,2.5,13c0.9-0.2,2-0.5,3.5-0.9c0-1.2,0-2.5,0-3.8C6,8,5.9,7.7,5.7,7.3
		c0-0.2-0.2-0.3-0.5-0.5C4.6,7,4.2,7.1,4,7.2C3.7,7.1,3.2,7,2.7,7C2.1,6.7,2.1,6.6,2.6,6.5c0.5-0.1,1.5-0.3,2.8-0.7
		c0.9-0.2,1.5-0.5,2-0.7C7.9,4.5,8.2,4.3,8.4,4.3z M26.6,4C27,4.3,27,4.6,26.7,5c-0.1,0.2-0.2,0.4-0.4,0.8c-0.2,0.5-0.4,1.6-0.8,3.2
		c-0.3,1.3-0.6,2.3-0.8,3c-0.2,0.6-0.4,1.1-0.8,1.4c-0.2,0.2-0.5,0.2-0.7,0s-0.4-0.5-0.5-0.8c-0.3,0.1-1.3,0.3-3,0.6
		c0,0.9,0,2.1-0.1,3.8c0.9-0.2,1.6-0.3,1.9-0.4c0.5-0.4,0.8-0.6,1.1-0.6c0.4,0,0.9,0.1,1.4,0.4c0.5,0.2,0.8,0.5,0.9,0.7
		c0.2,0.3,0.2,0.5-0.1,0.7c-0.5,0.2-1,0.2-1.6,0.2c-1.1,0-2.3,0-3.5,0.1c0,1.5,0,2.9-0.1,4.3c1.7-0.2,3.4-0.4,5-0.6
		c0.8-0.5,1.2-0.7,1.4-0.7c0.5,0.1,1,0.2,1.5,0.5c0.5,0.2,0.9,0.5,1.2,0.7c0.5,0.5,0.4,0.9-0.4,1.1c-4.9,0.1-8.2,0.2-9.8,0.4
		c-2.3,0.3-4.3,0.7-6.2,1.1c-0.4,0.1-0.8,0.2-1.2,0.2c-0.2,0-0.5-0.2-1.2-0.5c-0.3-0.2-0.3-0.4,0.1-0.5c2.3-0.4,5-0.9,7.9-1.4
		c0-1.4,0-2.8,0-4.2C17,18.6,16,18.8,14.9,19c-0.8,0.2-1.2,0.4-1.3,0.4c-0.2,0-0.5-0.2-1.1-0.5c-0.5-0.2-0.5-0.4,0-0.5
		c1.8-0.3,3.6-0.7,5.3-1.1c0.1-1.9,0.1-3.1,0.1-3.8c-0.9,0.2-1.8,0.4-2.9,0.6c-0.2,0.3-0.4,0.5-0.6,0.5s-0.5-0.2-0.8-0.6
		c-0.3-0.5-0.5-0.9-0.5-1.2c-0.2-1.5-0.3-2.8-0.5-3.9c-0.2-1-0.3-1.8-0.5-2.5c-0.2-0.6-0.3-1-0.4-1.2c-0.3-0.3-0.3-0.5,0.1-0.6
		c0.4,0.1,0.9,0.2,1.4,0.4c0.6,0,1.3-0.1,2-0.2c1.2-0.3,3-0.7,5.4-1.1c1.3-0.2,2.2-0.4,2.6-0.6c0.5-0.2,0.8-0.3,0.9-0.5
		c0.2,0,0.6,0.2,1.4,0.6C26.1,3.7,26.4,3.9,26.6,4z M13.8,6c0.3,1.3,0.7,3.8,1.2,7.3c0.6-0.1,1.6-0.3,2.9-0.6c0-1,0-2.1,0-3.2
		c-0.8,0.2-1.4,0.3-1.8,0.5c-0.2-0.1-0.5-0.2-0.7-0.2c-0.5-0.2-0.5-0.4,0-0.5c0.9-0.2,1.7-0.5,2.5-0.7c0-0.7,0-1.4,0-2.1
		c-0.1-0.5-0.3-0.9-0.7-1.2C16.1,5.5,15,5.8,13.8,6z M19.2,5c0.5,0.3,0.7,0.7,0.7,1.3c-0.1,0.5-0.2,1.1-0.2,1.5
		c0.2-0.1,0.5-0.2,0.8-0.4c0.6,0.2,1.1,0.3,1.5,0.5c0.5,0.3,0.5,0.6,0,0.8c-0.3,0.1-1.1,0.2-2.3,0.4c0,1,0,2.1,0,3.2
		c0.6-0.2,1.3-0.4,2-0.6c0.2,0,0.6,0.1,1.2,0.4c0.4-2.2,0.7-4.4,1.1-6.6c0.1-0.8-0.2-1.2-0.7-1.2C21.5,4.6,20.2,4.8,19.2,5z"/>
	<path d="M39.8,1.8C40,2,40,2.2,39.8,2.5c-0.1,1-0.1,2.1-0.1,3.2c0.4-0.2,0.8-0.4,1.3-0.6c0.2-0.2,0.4-0.3,0.6-0.5
		c0.5,0,1.1,0.1,1.6,0.2c0.4,0.2,0.6,0.4,0.6,0.7c0,0.3-0.2,0.5-0.7,0.6l-3.4,0.6l-0.1,2c1.2,0.2,2.1,0.4,2.5,0.7
		c0.3,0.7,0.5,1.4,0.5,2c-0.1,0.5-0.3,0.6-0.7,0.4c-0.4-0.3-0.8-0.7-1.2-1.3c-0.3-0.4-0.7-0.8-1.1-1.3V15c0,0.4,0,1.1-0.1,2.2
		c0,0.4-0.1,0.6-0.4,0.7c-0.3,0.1-0.7-0.2-1.1-0.8c-0.3-0.5-0.5-0.8-0.5-1.1l0.1-0.6c0.2-1.7,0.4-3.5,0.5-5.4
		c-1,1.3-1.7,2.1-2.1,2.5c-1,1-2.1,2-3.4,3c-0.2,0.2-0.4,0.1-0.4-0.1c1.2-1.3,2.3-2.8,3.4-4.5c0.8-1.2,1.6-2.5,2.3-4
		c-1.7,0.4-3.2,0.8-4.3,1.2c-1-0.5-1.3-0.7-0.8-0.8C34.4,7,36.2,6.6,38.3,6V4.6c0-0.9,0-1.6-0.1-1.9C38.1,2.4,38,2,37.7,1.3
		c0-0.3,0.2-0.4,0.6-0.4C38.9,1.1,39.4,1.4,39.8,1.8z M35.9,20.1c0.2-0.1,0.2,0,0.2,0.2c0,1.6-0.2,3-0.5,4.2
		c-0.3,0.8-0.7,1.4-1.3,1.8c-0.2,0-0.5-0.2-0.7-0.6c-0.2-1-0.2-1.7,0-2.1C34.6,22.4,35.3,21.3,35.9,20.1z M44.5,24.3
		c2.2,0.9,4.6,1.2,7.4,1.2c0.4,0,0.5-0.2,0.4-0.7l-1.4-2.6c-0.2-0.3-0.1-0.5,0.1-0.5c1.6,1.6,3.1,2.7,4.3,3.4
		c0.8,0.7,0.8,1.3,0.1,1.8c-0.5,0.2-1.3,0.4-2.6,0.5h-2.3c-2.5-0.1-4.8-0.6-6.8-1.5c-2.3-1.2-4.1-3.2-5.3-6c-0.1-0.2,0-0.4,0.2-0.4
		C40.1,21.8,42,23.4,44.5,24.3z M45.1,19.5c0.5,0,1-0.3,1.5-0.8c0.2-0.2,0.4-0.2,0.5,0.1c-0.3,0.8-0.5,1.7-0.6,2.8
		c-0.1,0.6-0.4,0.8-0.9,0.5c-0.9-0.5-1.6-1.6-2.2-3c-0.1-0.5,0-0.6,0.2-0.5C44.2,19.2,44.7,19.5,45.1,19.5z M53.9,3
		c0.2,0.3,0.2,0.6-0.2,0.8C53.5,5,53.4,6,53.4,6.6v7.7c0,0.4-0.3,1.2-0.8,2.5c-0.2,0.5-0.5,0.5-0.7,0.1l-0.8-1.5
		c-0.3-0.2-0.6-0.4-0.9-0.4l-4.2,0.8c-0.2,0.9-0.4,1.3-0.6,1.3c-0.7,0.1-1.1-0.7-1.3-2.2c0.2-2,0.4-4.5,0.4-7.4V4.4
		c-0.2-0.5-0.3-0.8-0.5-1.1c-0.2-0.3-0.1-0.4,0.2-0.2c0.7,0.3,1.2,0.5,1.5,0.5c1,0,3-0.5,5.9-1.4c0.2-0.2,0.4-0.3,0.6-0.2
		C52.7,2.1,53.3,2.4,53.9,3z M45.8,4.3l0.1,3c1.1-0.3,2-0.6,2.6-0.9c0.3-0.2,0.6-0.4,0.8-0.5c0.8,0,1.3,0.2,1.5,0.5
		c0.1,0.3-0.1,0.5-0.5,0.7l-3.8,0.8h-0.7v2.9l1.8-0.5c0.3-0.2,0.6-0.5,0.8-0.7c0.7,0,1.1,0,1.3,0.1c0.5,0.2,0.7,0.4,0.8,0.6
		c0.1,0.3-0.2,0.5-0.8,0.6c-0.5,0.1-1.8,0.3-3.9,0.7L45.8,15l4.3-1.1c0.3,0.1,0.7,0.3,1.3,0.6V3.7c0-0.2-0.2-0.3-0.6-0.2l-4.5,0.9
		L45.8,4.3z M56.6,19.5c0.7,0.9,1,1.6,0.9,2.3c0,0.4-0.2,0.6-0.7,0.6s-1-0.3-1.5-0.8c-0.6-0.5-1.6-1.6-2.8-3.2
		c-0.2-0.3-0.1-0.4,0.2-0.2C54.7,18.8,56,19.3,56.6,19.5z"/>
	<path d="M75.4,14.1c0.9,0.9,1.3,2.1,1.3,3.7c0,1.3-0.5,2.4-1.5,3.5c-0.8,0.9-2.1,1.8-3.7,2.5c-0.3,0.1-0.3,0.1-0.2-0.2
		c1.3-1,2.3-2,2.9-2.8c0.7-0.9,1-2,1-3.4c0-1.3-0.4-2.3-1.2-3c-0.8-0.8-1.8-1.3-2.8-1.3c-0.6,0-1,0-1.3,0.1c0.1,0.3,0.2,0.6,0.2,0.9
		c0,0.5-0.2,1.1-0.5,2c-0.4,1-0.9,1.9-1.3,2.7c-1.1,1.8-2,3-2.5,3.4c-0.5,0.4-0.9,0.6-1.2,0.6c-0.6,0-1-0.8-1.3-2.3
		c-0.2-0.8-0.3-1.6-0.4-2.3c0-1.3,0.9-2.6,2.6-4c1.7-1.4,3.7-2,5.9-2C73,12.4,74.3,13,75.4,14.1z M65.4,15.8c-1,1-1.5,2.1-1.5,3.4
		c0,1.4,0.3,2.1,1,2.1c0.2,0,0.3-0.1,0.5-0.2c1-1,2.1-2.5,3-4.3c0.7-1.3,1-2.4,1-3.4C67.8,13.9,66.5,14.7,65.4,15.8z"/>
	<path d="M83.4,7V6.3h0.8c2.9,0,4.8-0.7,5.9-2.2h0.4v18c0,1.3,0.7,2,2,2h2.3v0.7H83.9v-0.7h2.3c1.3,0,2-0.7,2-2V8.9
		c0-0.6-0.2-1.1-0.5-1.4C87.3,7.1,86.9,7,86.4,7H83.4z"/>
	<path d="M117.5,3.2c0.8,0.4,1.5,0.8,2.2,1.3c0.4,0.3,0.4,0.6,0.1,0.9c-0.2,0.6-0.3,1.3-0.2,2c0,3.3-0.1,6.6-0.2,10.1
		c0,1.6-0.1,3-0.4,4.2c-0.2,1-0.6,1.8-1.1,2.2c-0.5,0.5-0.9,0.4-1.2-0.4c-0.2-0.5-0.5-1-0.9-1.6c-0.3-0.5-0.7-1-1.2-1.5
		c-2.2,0.2-4.3,0.5-6.4,0.9c-0.2,1.5-0.6,1.8-1.4,1.1c-0.5-0.9-0.9-1.7-1.1-2.6c0.2-0.7,0.2-1.6,0.1-2.6V8.1c0.1-0.7,0-1.3-0.4-1.9
		c-0.4-0.5-0.4-0.8,0.1-0.8c0.3,0.1,0.6,0.2,0.9,0.4c3-0.6,6-1.3,9-2c0.3-0.2,0.7-0.4,1.2-0.6C117,3,117.3,3,117.5,3.2z M107.4,6.8
		c0.2,0.3,0.4,0.6,0.5,0.8v5h0.5c1.2-0.3,2.2-0.6,3.2-0.9c0.4-0.5,0.7-0.7,1.1-0.8c0.7,0.1,1.4,0.3,2.1,0.6c0.4,0.4,0.3,0.7-0.2,1.1
		c-2.2,0.4-4.2,0.8-6,1.2h-0.6c0.1,2.7,0.2,4.8,0.2,6.6c1.2-0.3,2.5-0.6,4.1-0.9c0.4-0.4,0.7-0.6,1.1-0.6c0.6,0,1.2,0.2,1.8,0.6
		c0.4,0.2,0.5,0.5,0.4,0.8c0.5,0.2,0.9,0.4,1.2,0.4c0.2,0,0.4-0.4,0.4-1.3V5.4c0.1-0.3-0.1-0.5-0.5-0.5
		C113.5,5.6,110.5,6.2,107.4,6.8z"/>
	<path d="M137.5,10.1c0.3,0.2,0.6,0.5,0.8,0.9c0.2,0.2,0.2,0.4,0,0.7l-0.5,0.8c0.4-0.1,0.8-0.2,1.2-0.4c0.1-0.1,0.2-0.1,0.4,0
		c0.2,0.2,0.4,0.3,0.5,0.5c0.1,0.2,0,0.4-0.3,0.5c-0.8,0.3-1.7,0.5-2.5,0.8c-0.7,1-1.5,2.1-2.2,3c0.4-0.2,0.9-0.2,1.4-0.2
		c0.5,0,0.9,0.2,1.3,0.5c0.4,0.4,0.6,1.1,0.8,2.3c1-0.4,2-0.8,3.1-1.3c0.4-0.2,0.5-0.5,0.3-0.9c-0.3-0.3-0.2-0.3,0.3-0.2
		c0.6,0.4,1.1,0.9,1.5,1.7c0.1,0.2,0,0.3-0.3,0.4c-0.8,0.1-1.6,0.2-2.3,0.4c-0.7,0.2-1.6,0.5-2.6,0.9v1.2c-0.1,0.5-0.3,0.8-0.7,0.9
		c-0.2-0.1-0.4-0.2-0.5-0.3c-0.1-0.2-0.2-0.5-0.2-1c-1.3,0.7-1.9,1.4-1.9,2.1c0,0.4,0.2,0.7,0.5,0.9c0.3,0.1,0.7,0.2,1.2,0.2
		c0.7,0,1.3-0.1,1.8-0.2c0.5-0.2,0.8-0.2,0.9-0.2c0.5,0.2,1,0.4,1.3,0.6c0.2,0.2,0.3,0.3,0.2,0.5c-0.1,0.2-0.5,0.4-1.3,0.5
		c-0.6,0.1-1.1,0.1-1.5,0.1c-1.1,0-2.1-0.2-2.8-0.6c-0.6-0.5-0.9-1.1-0.9-1.7c0-0.5,0.2-0.9,0.6-1.4c0.5-0.6,1.1-1.1,2-1.6
		c0.1-1.9-0.3-2.8-1.1-2.8c-0.7,0-1.4,0.5-2,1.4c-0.3,0.5-0.6,0.5-0.9,0.2c-0.2-0.3-0.2-0.6-0.2-0.9c0-0.2,0.1-0.4,0.2-0.6
		c0.5-0.4,1.4-1.5,2.5-3.1c-0.7,0.2-1.1,0.2-1.3,0.2s-0.4-0.1-0.8-0.2c-0.4-0.2-0.6-0.5-0.8-0.8c-0.1-0.2,0-0.3,0.2-0.3
		c0.6,0.2,1.1,0.3,1.5,0.2c0.5-0.1,1.1-0.2,1.7-0.3l0.5-1c0.1-0.3,0.2-0.5,0.2-0.7c0-0.2-0.1-0.4-0.2-0.5c-0.2-0.2-0.3-0.3-0.4-0.5
		c-0.1-0.2,0.1-0.3,0.3-0.2C136.9,10,137.2,10,137.5,10.1z"/>
	<path d="M172.5,10.1c0.5,0.3,0.5,0.7,0.1,1.1c-0.2,0.2-0.8,0.2-1.6,0.2c-2.1,0-4.8,0.2-8,0.7c0.8,0.6,1.3,1.1,1.5,1.4
		c0.2,0.3,0.2,0.6-0.1,0.9c-0.7,2.6-1.7,4.8-2.9,6.6c-0.9,1.6-2.8,3.3-5.6,5.2c-0.2,0-0.3-0.1-0.2-0.4c2.1-2,3.8-4.3,4.9-7
		c1.1-2.7,1.6-4.6,1.6-5.5c-0.2-0.3-0.4-0.6-0.7-0.8c-2.1,0.5-4.3,0.9-6.4,1.4c-0.3,0.1-0.6,0.1-0.9,0.1c-0.9-0.2-1.5-0.5-2-1.2
		c-0.2-0.3-0.1-0.5,0.2-0.5c0.2,0.1,0.5,0.1,0.9,0.1c3.2-0.2,8.5-1.1,15.8-2.7c0.2-0.1,0.5-0.2,0.8-0.4c0.1-0.1,0.2-0.1,0.5,0
		C171.3,9.6,172,9.8,172.5,10.1z M165.9,4.1c0.6,0.2,1.2,0.3,1.6,0.5c0.3,0.2,0.3,0.5,0,0.8c-0.2,0.2-0.5,0.3-1.1,0.5
		c-1.6,0.4-4,0.9-7.4,1.4c-0.4,0.1-0.8,0.1-1.2,0.1c-0.8-0.1-1.4-0.5-1.9-1.2c-0.1-0.2,0-0.4,0.2-0.4c0.5,0.2,0.9,0.3,1.4,0.2
		c2.3-0.4,4.2-0.8,5.9-1.2c0.4-0.2,0.8-0.4,1.2-0.7C165,4,165.4,4,165.9,4.1z M171.6,5.5c0.9,0.9,1.4,1.6,1.5,2.1
		c0,0.9-0.3,1.2-0.9,1.1l-0.5-0.4l-2.2-2.8c-0.2-0.4-0.1-0.5,0.2-0.4C170.6,5.4,171.2,5.5,171.6,5.5z M174.2,4.6
		c0.5,0.2,1,0.8,1.3,2c0.1,0.5-0.1,0.7-0.5,0.8c-0.2,0.1-0.5-0.1-0.9-0.5c-0.4-0.4-1-1.2-1.8-2.6c-0.2-0.3-0.1-0.4,0.2-0.4
		C173.2,4.3,173.7,4.5,174.2,4.6z"/>
	<path d="M196.3,3.7c0.5,0.2,0.9,0.4,1.3,0.8c0.3,0.3,0.4,0.6,0.1,0.9c-0.1,0.4-0.1,0.7-0.1,0.8l-0.2,3.8l2.8-0.2
		c0.5-0.3,0.9-0.5,1.2-0.5c0.7,0.2,1.4,0.4,2.2,0.8c0.2,0.2,0.4,0.3,0.5,0.5c0.2,0.5,0,0.7-0.5,0.7c-1-0.1-1.7-0.1-2-0.1
		c-1.3,0-2.7,0-4.2,0.1c-0.3,4.2-1.1,7.3-2.3,9.1c-1,1.9-2.7,3.7-5.2,5.4c-0.3,0.2-0.4,0.1-0.2-0.2c3.5-3.1,5.4-7.9,5.6-14.2
		c-2.7,0.2-4.7,0.5-6.2,0.8l0.4,5.3v0.7c0,0.3-0.2,0.5-0.5,0.5c-0.3,0-0.6-0.1-0.8-0.4c-0.2-0.3-0.5-0.8-0.7-1.4
		c-0.1-0.2-0.1-0.4,0-0.6c0-1.6,0-2.8-0.1-3.8l-3.6,0.7c-0.4,0.2-0.8,0.2-1.2,0c-0.5-0.2-1.1-0.5-1.8-0.9c-0.2-0.2,0-0.4,0.4-0.4
		c0.5,0,1.2,0,2.1-0.1l4.1-0.6l-0.1-4c0-0.5,0-0.9-0.1-1.2c-0.2-0.2-0.4-0.5-0.6-0.8c-0.3-0.4-0.1-0.5,0.6-0.5
		c0.4,0.1,0.8,0.2,1.3,0.5c0.3,0.2,0.6,0.5,0.9,1.1c0.1,0.2,0,0.4-0.1,0.6c-0.1,0.4-0.1,0.8-0.1,1.2v2.9l6.3-0.8V5.9
		c0-0.6-0.1-1.1-0.4-1.3c-0.4-0.2-0.7-0.4-0.9-0.6c-0.2-0.2-0.1-0.4,0.2-0.5c0.5-0.1,0.9-0.1,1.2-0.1C195.7,3.4,196,3.5,196.3,3.7z
		 M201.5,4.6c0.6,0.7,0.9,1.5,0.9,2.3c0,0.3-0.2,0.5-0.6,0.5c-0.3-0.1-0.6-0.3-0.9-0.6L199,4.4c-0.1-0.3,0-0.4,0.4-0.4
		C200.4,4.3,201.1,4.5,201.5,4.6z M204.2,3c0.3,0.4,0.6,0.9,0.8,1.6c0.1,0.5,0,0.8-0.1,0.9c-0.2,0.2-0.4,0.2-0.7,0.1
		c-0.5-0.3-1.4-1.3-2.7-2.9c-0.2-0.3-0.1-0.4,0.2-0.4C202.2,2.6,203,2.8,204.2,3z"/>
	<path d="M225.4,3.6c0.6,0.3,1.2,0.6,1.8,0.9c0.3,0.5,0.5,1,0.6,1.4c0,0.3-0.2,0.6-0.6,0.9l-3.6,4.2c0.2,0.2,0.5,0.4,0.7,0.6
		c0.3,0.3,0.5,0.7,0.5,1.3c0,5.1,0,9,0.1,11.7V25c-0.1,0.9-0.4,1.3-0.8,1.3c-0.4,0-0.8-0.3-1.2-0.8c-0.4-0.6-0.6-1.1-0.6-1.5
		c0-0.1,0-0.3,0.1-0.6c0.2-0.9,0.5-4,0.8-9.3v-0.8c0-0.6-0.2-1.1-0.5-1.4c-2.7,2.4-5.2,4.3-7.4,5.5c-0.4,0.2-0.5,0.1-0.4-0.2
		c1.9-1.6,3.7-3.4,5.4-5.4c1.6-2,3.1-4,4.6-6.2c0.2-0.3,0.3-0.7,0.2-1.1c-0.1-0.2-0.2-0.4-0.2-0.6C224.8,3.6,225,3.5,225.4,3.6z"/>
	<path d="M262,9.4c-1.3,2.3-2.5,3.9-3.5,5c-3.2,4-6.6,7-10.2,9.1c-0.1,0.2-0.3,0.3-0.6,0.4c-0.3-0.1-0.6-0.2-0.9-0.5
		c-0.8-0.5-1.3-1.3-1.4-2.5c0.2-0.4,0.3-0.5,0.5-0.4c0.3,0.3,0.7,0.5,1.1,0.5c0.9,0,3-1.2,6.3-3.8c3.3-2.5,6.1-5.3,8.6-8.3
		C262,9,262.1,9.1,262,9.4z M248.1,6.3c0.5,0.2,1.1,0.4,1.6,0.6c0.9,0.9,1.3,1.6,1.4,2.2c-0.2,0.6-0.5,0.9-0.9,0.9
		c-0.2,0-0.5-0.1-0.7-0.2c-1.8-1.2-3.2-2.3-4.1-3.5c-0.1-0.3,0-0.4,0.4-0.4C246.3,6.1,247,6.2,248.1,6.3z"/>
	<path d="M279.2,10.4c0.4,0.3,0.5,0.6,0.4,0.9c-0.1,0.5-0.2,0.8-0.2,1l-0.1,1.2L282,13c0.4-0.3,0.6-0.4,0.7-0.4c0.5,0,1,0.2,1.6,0.5
		c0.5,0.3,0.7,0.5,0.6,0.9c-0.1,0.3-0.4,0.4-0.9,0.3c-0.9-0.2-2.5-0.2-4.6,0V18c0.1,0.2,0.2,0.3,0.3,0.5c0.1,0.2,0.1,0.4,0.1,0.7
		c0,1.7-0.4,3.1-1.3,4.2c-0.8,1.1-2.1,2-3.7,2.7c-0.3,0.1-0.3,0.1-0.2-0.2c1.4-0.9,2.3-1.9,3-3c0.4-0.8,0.6-1.6,0.6-2.5
		c-0.5,0.9-0.9,1.3-1.4,1.3c-0.4,0-0.8-0.3-1.1-0.9c-0.4-0.7-0.6-1.5-0.6-2.3c0-0.7,0.2-1.3,0.6-1.8c0.3-0.4,0.7-0.5,1.3-0.5
		c0.5,0,0.9,0.1,1.2,0.4v-2.3c-2.7,0.3-4.8,0.8-6.3,1.3c-0.2,0.1-0.4,0.1-0.6-0.1c-0.2-0.1-0.4-0.2-0.7-0.4
		c-0.2-0.2-0.2-0.3,0.2-0.3c0.5,0,0.9-0.1,1.3-0.2c1.7-0.4,3.8-0.8,6.3-1.3l-0.1-2.2c-0.1-0.4-0.3-0.7-0.8-1.1
		c-0.2-0.3-0.1-0.5,0.2-0.5C278.1,9.8,278.7,10,279.2,10.4z M276,18.4c0,0.4,0.1,0.9,0.4,1.5c0.2,0.4,0.4,0.5,0.7,0.5s0.7-0.2,1-0.7
		c0.1-0.2,0.1-0.4,0.1-0.7s-0.1-0.7-0.4-1.2c-0.3-0.5-0.5-0.8-0.9-0.9c-0.3-0.1-0.6-0.1-0.8,0.2C276,17.4,275.9,17.8,276,18.4z"/>
	<path d="M299.2,10.6c0.7,0.4,1.2,0.6,1.4,0.8c0.2,0.2,0.1,0.4-0.2,0.6c-0.9,0.9-1.9,1.9-2.9,3.1c-0.9,1-2,2.4-3.2,4.1h0.2
		c1.9-1.1,3.6-1.7,5-1.7c1,0,1.8,0.3,2.6,0.9c0.7,0.6,1,1.3,1,2.3c0,1.3-0.6,2.3-1.7,3.3c-1.1,0.8-2.4,1.2-3.8,1.3
		c-0.6,0-1.1-0.1-1.5-0.4c-0.4-0.3-0.5-0.6-0.5-1.1c0-0.3,0.1-0.6,0.3-0.9c0.4-0.4,0.9-0.5,1.5-0.5c0.5,0,1,0.2,1.3,0.5
		c0.3,0.2,0.4,0.4,0.5,0.7c0.1,0.1,0.1,0.3,0.1,0.5c0.7-0.4,1.3-0.9,1.8-1.6c0.5-0.7,0.7-1.4,0.7-2.1c0-0.6-0.2-1.1-0.6-1.5
		c-0.5-0.5-1.2-0.7-2-0.5c-1.8,0-3.5,0.9-5.2,2.6c-0.5,0.5-0.9,0.8-1.2,1.1c-0.2,0.1-0.3,0.1-0.4-0.1c-0.2-0.4-0.2-0.9-0.1-1.5
		c2.9-3.6,4.9-6.5,6.2-8.6c0.1-0.2,0-0.3-0.2-0.2l-2,0.6l-1,0.4c-0.4,0.2-0.7,0.3-0.9,0.2l-0.9-0.5c-0.1-0.1,0-0.2,0.1-0.2
		c0.7,0,1.3-0.1,1.7-0.2c0.5-0.2,1.5-0.5,3-0.9C298.8,10.8,299.1,10.7,299.2,10.6z M296.1,23.8c0,0.3,0.1,0.5,0.3,0.6
		c0.2,0.2,0.5,0.3,0.9,0.3c0.4,0,0.8-0.1,1-0.2c-0.1-0.1-0.2-0.1-0.2-0.2c-0.4-0.8-0.8-1.2-1.4-1.2C296.3,23,296.1,23.3,296.1,23.8z
		"/>
</g>
</svg>
