<?xml version="1.0" encoding="utf-8"?>
<!-- Generator: Adobe Illustrator 25.1.0, SVG Export Plug-In . SVG Version: 6.00 Build 0)  -->
<svg version="1.1" id="レイヤー_1" xmlns="http://www.w3.org/2000/svg" xmlns:xlink="http://www.w3.org/1999/xlink" x="0px"
	 y="0px" viewBox="0 0 199.7 74" style="enable-background:new 0 0 199.7 74;" xml:space="preserve">
<g>
	<path d="M19.9,8.8c1.4,0.8,2.3,1.4,2.9,1.8c0.6,0.6,0.8,1.3,0.6,2.1c-0.4,2.7-0.6,6.8-0.6,12.3c0.8-0.4,1.7-0.9,2.6-1.5
		c0.4-0.6,0.9-1.3,1.5-2.1c1.8-0.2,3.3,0,4.7,0.6c1.4,0.8,1.5,1.6,0.3,2.3c-2.2,1-5.2,2.1-9.1,3.2c-0.4,7.2-1.1,12.8-2.1,16.7
		c2.5,0.8,5.4,1.7,8.5,2.6c1.2,0,2.1,1.4,2.9,4.1c0,2.5-1,3.3-2.9,2.3c-2.9-2-5.9-4.7-8.8-8.2c-2.7,7.8-7.3,14.1-13.8,18.8
		c-0.6,0.2-0.8,0-0.6-0.6c7.8-8.2,11.8-19.5,12-34l-2.1,0.3c-1,0-1.2-0.3-0.6-0.9l2.6-1.5c0-4.5-0.1-9.4-0.3-14.6
		c-1-0.8-1.9-1.6-2.6-2.3c-0.6-1.6-0.5-2.3,0.3-2.3C17.3,7.9,18.8,8.2,19.9,8.8z M12,38.1c-0.6,1.4-1.4,1.6-2.3,0.6
		c-2.3-3.3-3.1-5.5-2.3-6.4c1.4-1.8,2.1-4.7,2.3-8.8c0.2-0.6,0.6-0.6,1.2,0C12.8,28.9,13.2,33.8,12,38.1z M60.9,37.5
		c1,0.6,1.3,1.2,0.9,1.8l-2.9,0.6c-2.3,0.2-5.4,0.5-9.1,0.9l1.2,1.8l-0.3,4.7l2.9-0.6c0.4-0.2,0.8-0.5,1.2-0.9
		c0.8-0.6,2.5-0.3,5.3,0.9c0.8,1,0.7,1.8-0.3,2.3c-2.2,0.2-5.2,0.5-9.1,0.9l-0.3,8.8c2.7-0.4,5.6-0.8,8.5-1.2
		c1.2-0.6,2.1-1.1,2.9-1.5c0.8-0.4,2.9,0,6.4,1.2c1.8,0.6,2.6,1.5,2.6,2.6c0,0.8-0.7,1.3-2.1,1.5c-13.5-0.6-25,0.2-34.6,2.3
		c-1.2,0.4-2.1,0.6-2.6,0.6c-0.8-0.2-2.1-0.7-3.8-1.5c-0.6-0.6-0.6-1,0-1.2c2,0,3.3-0.1,4.1-0.3c5.9-1,10.5-1.7,14.1-2.1l0.3-8.5
		c-2.5,0.4-4.6,0.8-6.2,1.2c-1-0.2-2-0.5-2.9-0.9c-0.6-0.4-0.5-0.7,0.3-0.9l8.8-1.8v-5.3c0-1.2-0.8-1.7-2.3-1.5
		c-2,0.4-3.6,0.8-5,1.2c-0.8,0-1.6-0.2-2.3-0.6c-0.8-0.6-1-1-0.6-1.2c7-1.4,12.9-2.7,17.6-4.1c0.8-1,1.8-1.4,2.9-1.2
		C58.5,36.1,60,36.7,60.9,37.5z M47.2,2.9c1.2,0.8,2,1.9,2.3,3.2c0.4,1.2-0.1,2.2-1.5,2.9l-6.2,6.7c3.3-0.8,7.5-2.1,12.6-3.8
		c1-0.4,1.7-0.7,2.1-0.9c0.8-0.4,1.7-0.3,2.6,0.3c1.4,0.8,2.7,1.6,4.1,2.3c0.8,0.6,0.9,1.1,0.3,1.5c-0.4,0.6-0.7,1.3-0.9,2.1
		c-0.8,4.1-2.1,8.7-3.8,13.8c-0.8,1.4-1.9,1.7-3.2,0.9c-1.2-0.8-2.2-1.1-2.9-0.9c-4.3,1-7.6,1.8-10,2.3c-0.8,0.8-1.7,0.8-2.6,0
		c-1.4-1.6-2.1-2.6-2.1-3.2c-0.8-4.1-1.5-7.5-2.1-10.3c-0.2-1-0.7-1.9-1.5-2.6c-0.6-1.2-0.3-1.8,0.9-1.8c1.6,0.4,2.8,0.6,3.8,0.6
		c1.8-2.9,3.2-6.1,4.4-9.4c0.4-1.2,0.3-2.1-0.3-2.6c-0.6-0.8-0.5-1.3,0.3-1.5C45.2,2.5,46.4,2.6,47.2,2.9z M41.9,17.9l-2.3,0.3
		l1.2,5.3c4.1-1,6.7-2.1,7.9-3.2c1.6,0,2.7,0.2,3.5,0.6c1,0.6,0.9,1.3-0.3,2.1c-2.7,1-6.3,2-10.5,2.9c0.4,1.8,0.8,3.6,1.2,5.6
		c4.1-1.2,8.4-2.3,12.9-3.5c0.8-4.3,1.4-8.3,1.8-12c0-0.8-0.5-1.2-1.5-1.2C51.6,15.4,47,16.5,41.9,17.9z"/>
	<path d="M117.5,8.8c1.2,0.8,2.3,1.9,3.5,3.2c0.4,0.8,0.3,1.5-0.3,2.1c-1.2,3.5-2.3,6.9-3.5,10.3c1.6-0.2,3.1-0.3,4.7-0.3
		c5.9,0,10.5,1.9,14.1,5.6c2.7,2.7,4.1,6.1,4.1,10c0,4.5-1.9,8.7-5.6,12.6c-3.5,3.3-8.3,6-14.4,7.9c-1,0.2-1.3,0-0.9-0.6
		c10-5.7,14.9-12.4,14.9-20.2c0-3.9-1.2-6.9-3.5-9.1c-2.2-2.1-5.6-3.2-10.3-3.2c-1,0-2.3,0.1-4.1,0.3c-3.1,7.8-6.7,14.2-10.8,19
		c1.2,1.8,2.4,3.4,3.8,5c0.2,0.4,0.3,1.2,0.3,2.3c-0.2,1.4-1,1.8-2.3,1.2c-1.6-1.2-3-3-4.4-5.6c-3.5,3.3-6.5,5.7-9.1,7
		c-0.6,0.6-1.6,1-2.9,1.2c-0.8-0.2-1.4-0.7-1.8-1.5c-0.2-2.1-0.4-3.9-0.6-5.3c-0.6-1.8-0.9-3.2-0.9-4.4c0.6-4.1,3.5-8.4,8.8-12.9
		c-0.6-3.3-1.3-6.6-2.1-10c-0.4-1.4-1.1-2.5-2.1-3.5c-1-1.2-0.9-1.8,0.3-1.8c1.2,0.2,2.4,0.6,3.8,1.2c1,0.6,1.8,1.3,2.3,2.1
		c0.2,0.6,0.3,1.3,0.3,2.1c0.4,2.9,0.8,5.5,1.2,7.6c3.9-2.5,7.8-4.4,11.7-5.6c1-3.5,2-7.2,2.9-11.1c0.2-0.8,0.3-1.6,0.3-2.3
		c-0.8-1-1.3-1.9-1.5-2.6c-0.4-1-0.1-1.4,0.9-1.2C115.7,8.4,116.7,8.6,117.5,8.8z M92.3,41.3c-1,1.8-1.6,3.7-1.8,5.9
		c0.2,1.8,0.4,3,0.6,3.8c0.4,1.2,0.9,1.9,1.5,2.1c3.1-1.2,6.1-3.3,8.8-6.4c-1.8-3.7-3.1-7.2-4.1-10.5C94.9,37.8,93.3,39.6,92.3,41.3
		z M100.8,33.4c0.8,3.3,1.9,6.5,3.2,9.7c2.9-4.5,5.3-9.4,7-14.6C107.7,29.6,104.3,31.3,100.8,33.4z"/>
	<path d="M192.2,7.6c1.2,1.8,1.8,3.4,1.8,5c0,1.2-0.4,2.1-1.2,2.6c-4.5,5.3-9.1,11-13.8,17.3c-0.4,0.8-0.6,1.5-0.6,2.1
		c0,1,0.6,2.2,1.8,3.5c9.4,10.2,14.2,17.7,14.4,22.6c0,1.2-0.3,2.1-0.9,2.9c-0.4,0.6-1.1,0.9-2.1,0.9c-0.8,0-1.5-0.4-2.1-1.2
		c-3.1-9.2-7.3-18-12.6-26.4c-0.4-1-0.5-2-0.3-2.9c0-1.6,1.3-4.4,3.8-8.5c5.1-8.4,7.6-13.5,7.6-15.2s-0.3-3-0.9-3.8
		c-0.4-0.8-0.2-1.2,0.6-1.2C189.4,5.9,190.8,6.7,192.2,7.6z"/>
</g>
</svg>
