<?xml version="1.0" encoding="utf-8"?>
<!-- Generator: Adobe Illustrator 25.1.0, SVG Export Plug-In . SVG Version: 6.00 Build 0)  -->
<svg version="1.1" id="レイヤー_1" xmlns="http://www.w3.org/2000/svg" xmlns:xlink="http://www.w3.org/1999/xlink" x="0px"
	 y="0px" viewBox="0 0 79.1 23" style="enable-background:new 0 0 79.1 23;" xml:space="preserve">
<g>
	<path d="M7.8,14.4c0.1,0.2,0.1,0.3-0.1,0.3c-0.4,0-0.8,0-1.3,0c0.1,0.1,0.2,0.2,0.3,0.3v3.2c0,0.1,0,0.2-0.1,0.3
		c-0.1,0.2-0.1,0.4-0.2,0.5c-0.1,0.2-0.2,0.2-0.3,0C6,19,5.9,18.9,5.7,18.7c-0.2-0.2-0.5-0.4-0.7-0.6c-0.1-0.1-0.1-0.1,0-0.1
		c0.2,0.1,0.5,0.1,0.8,0.2c0.2,0,0.3-0.1,0.3-0.5v-2.6c0-0.2-0.1-0.4-0.3-0.4c-0.8,0.1-1.5,0.2-2.1,0.4l-0.2,0.1
		c-0.7,0.7-1.4,1.3-2.1,1.9c-0.2,0-0.5-0.1-0.8-0.4c-0.1-0.1,0-0.1,0.1-0.1c0.1,0,0.2,0.1,0.3,0c0.2-0.1,0.6-0.2,1-0.5
		c0-0.8,0-1.3,0-1.7c-0.2,0.1-0.4,0.1-0.6,0.2c-0.2,0-0.4-0.1-0.5-0.1c0,0,0,0,0-0.1c0.3-0.1,0.6-0.2,1.1-0.3v-1.4
		c0-0.2-0.1-0.3-0.2-0.4c-0.1-0.2,0-0.2,0.1-0.3c0.2,0.1,0.4,0.2,0.5,0.3c0.2,0.1,0.2,0.2,0.1,0.3c0,0.2,0,0.3-0.1,0.5v0.7
		c0.2-0.1,0.3-0.1,0.4-0.2c0.2,0,0.4,0,0.5,0.1C3.5,14,3.5,14,3.3,14.1c-0.3,0.1-0.6,0.1-0.8,0.2c0,0.4-0.1,0.9-0.1,1.6
		c0.4-0.2,0.8-0.5,1-0.7L3,15.2c0-0.1,0-0.1,0-0.1c1.9-0.4,3.2-0.6,3.7-0.7c0.1-0.1,0.2-0.2,0.3-0.2C7.4,14.2,7.7,14.3,7.8,14.4z
		 M5.3,11.9c0.1,0.1,0.2,0.2,0.1,0.3c0,0.1-0.1,0.2-0.2,0.4c0.3,0,0.6-0.1,0.8-0.2c0.1-0.1,0.1-0.1,0.2-0.1c0.2,0,0.3,0.1,0.6,0.3
		C7,12.6,7,12.7,6.8,12.8c-0.1,0-0.3,0-0.6,0.1C5.7,12.9,5.3,13,5.1,13L5,13.2c0.3,0.1,0.7,0.1,1,0.2c0.3,0.1,0.5,0.3,0.6,0.5
		c0,0.2-0.1,0.3-0.4,0.2C6,14,5.6,13.7,4.9,13.4c-0.4,0.6-0.9,1.2-1.5,1.5c-0.1,0-0.1,0-0.1-0.1c0.5-0.5,0.9-1.1,1.2-1.7
		c-0.2,0.1-0.5,0.2-0.8,0.3l-0.2-0.1c0,0-0.1-0.1,0-0.1l1.2-0.3c0.1-0.3,0.2-0.5,0.2-0.8c0,0,0-0.1-0.1-0.2c0-0.1,0-0.2,0.2-0.2
		C5,11.7,5.2,11.8,5.3,11.9z M5.7,15.7c0.1,0,0.1,0.1-0.1,0.3c-0.1,0.2-0.2,0.5-0.4,0.9C5.1,17,5,17,4.9,16.8l-0.6,0.1
		C4.3,17,4.2,17,4.1,17c-0.1,0-0.2-0.2-0.2-0.4c-0.1-0.3-0.2-0.6-0.3-0.8c-0.1-0.1-0.1-0.1,0-0.2c0.1,0,0.2,0.1,0.4,0.1
		c0.4-0.1,0.8-0.2,1.1-0.3c0,0,0.1-0.1,0.1-0.1C5.4,15.5,5.6,15.6,5.7,15.7z M4.1,16l0.2,0.7c0.1,0,0.3-0.1,0.6-0.1L5,16
		c0-0.1,0-0.1-0.1-0.1C4.5,16,4.2,16,4.1,16z"/>
	<path d="M14.9,12.7c0,0.1-0.1,0.2-0.2,0.2L13,12.9c0.2,0.2,0.3,0.3,0.3,0.4c0,0.1,0,0.2,0,0.3c0,0.2,0,0.4,0,0.6v0.6
		c0.2,0,0.4-0.1,0.5-0.1l0.2-0.2c0.2-0.1,0.4,0,0.8,0.2c0.1,0.1,0.2,0.2,0.2,0.2c0,0.1-0.1,0.2-0.2,0.2c-0.5,0-0.9,0.1-1.4,0.1v2.3
		c0.8-0.1,1.4-0.2,1.9-0.2l0.3-0.2c0.2-0.1,0.6,0,1.1,0.3c0.1,0.1,0.2,0.2,0.2,0.3c0,0.1-0.1,0.2-0.3,0.2c-0.9-0.1-1.8-0.1-2.6,0
		c-1.1,0-2.4,0.3-3.8,0.6c-0.1,0-0.2-0.1-0.4-0.2c-0.2-0.1-0.1-0.2,0-0.2c1.2-0.2,2.2-0.4,3-0.6v-2.3c-0.4,0.1-0.9,0.2-1.3,0.3
		c-0.1,0-0.2-0.1-0.3-0.1c-0.1-0.1-0.1-0.1,0-0.2l1.6-0.4v-0.8c0-0.4,0-0.7,0-0.8c0-0.1-0.1-0.2-0.2-0.3c-0.6,0.1-1,0.2-1.2,0.3
		c-0.1,0-0.2,0-0.3-0.2c-0.1-0.1,0-0.1,0.1-0.1l2.6-0.6l0.2-0.1c0.2-0.1,0.3-0.2,0.4-0.1C14.7,12.3,14.9,12.5,14.9,12.7z M15.5,16.3
		c0,0.2,0,0.3,0,0.3c-0.1,0.1-0.2,0.1-0.5,0c-0.2-0.2-0.5-0.4-0.9-0.8c-0.1-0.1,0-0.1,0.1-0.1l0.9,0.2C15.3,15.9,15.4,16,15.5,16.3z
		"/>
	<path d="M19.5,14c0,0.1,0,0.3-0.1,0.5c0,0.4,0,0.9,0,1.5c0,0,0.1,0.1,0.1,0c1.1-0.1,2.2-0.3,3.2-0.5c0.2,0,0.5-0.1,0.6-0.1
		c0.1,0,0.2-0.1,0.3-0.1c0-0.1,0.1-0.1,0.2-0.1c0.3,0,0.5,0.1,0.7,0.2c0.3,0.2,0.2,0.4-0.2,0.4h-0.3c-0.7,0-1.5,0.1-2.4,0.2
		c0.1,0,0.2,0.1,0.2,0.2c0,0.7,0.1,1.4,0.1,2c0,0.3-0.1,0.6-0.2,0.8c-0.1,0.3-0.2,0.3-0.4,0c-0.2-0.3-0.5-0.5-0.9-0.7
		c0-0.1,0-0.1,0.1-0.1c0.2,0,0.3,0,0.4,0c0.2,0,0.3,0,0.3-0.1c0-0.1,0.1-0.2,0.1-0.4v-1.3c0-0.2-0.1-0.4-0.2-0.5
		c-0.6,0.1-1.3,0.3-1.9,0.4c-0.1,0.1-0.2,0.2-0.3,0.1c-0.2-0.1-0.3-0.3-0.3-0.4c0-0.4,0.1-0.9,0.1-1.4c0-0.2,0-0.4,0-0.6
		c0-0.1-0.1-0.3-0.2-0.4c0-0.1,0-0.2,0.1-0.1C19.2,13.6,19.4,13.7,19.5,14z M19.6,18.1c-0.1,0.2-0.2,0.4-0.3,0.5
		c-0.1,0.1-0.2,0-0.3-0.1c0-0.1-0.1-0.3-0.1-0.4v-0.2c0.4-0.3,0.6-0.7,0.8-1c0.1-0.1,0.1-0.1,0.1,0C19.9,17.3,19.8,17.7,19.6,18.1z
		 M23.2,12c0.1,0.1,0.1,0.2,0,0.3c0,0.4,0,0.9,0,1.5c0,0.7-0.1,1.1-0.1,1.4c-0.1,0.2-0.2,0.2-0.3,0c0-0.1-0.1-0.2-0.1-0.3
		c-0.1,0-0.1,0-0.2,0c-0.1,0-0.2,0-0.4,0c-0.4,0.1-0.8,0.2-1.2,0.3c0,0.2-0.1,0.3-0.3,0.1c-0.2-0.2-0.3-0.5-0.2-0.6
		c0-0.2,0-0.4,0.1-0.7v-1.3c0-0.2-0.1-0.3-0.2-0.4c0-0.1,0-0.1,0.1-0.1c0.2,0.1,0.3,0.2,0.4,0.2c0.6-0.1,1.2-0.3,1.8-0.5
		c0.1-0.1,0.2-0.1,0.3-0.1C22.9,11.8,23,11.9,23.2,12z M20.8,12.8v0.4c0.2-0.1,0.4-0.1,0.6-0.2c0.1-0.1,0.2-0.1,0.2-0.2
		c0,0,0.1-0.1,0.2,0c0.1,0,0.2,0,0.3,0.1c0.1,0.1,0.1,0.2,0,0.3c-0.6,0.1-1,0.2-1.4,0.3v0.6c0.3-0.1,0.6-0.2,0.8-0.3
		c0.1-0.1,0.2-0.2,0.3-0.2c0.1,0,0.3,0.1,0.4,0.1c0.1,0.1,0.1,0.2-0.1,0.3c-0.4,0.1-0.9,0.2-1.4,0.3c0,0.2,0,0.4,0,0.6
		c0.5-0.1,1.1-0.3,1.8-0.5v-1.9c0-0.3-0.1-0.5-0.2-0.4c-0.5,0.1-1,0.3-1.6,0.4C20.8,12.7,20.8,12.8,20.8,12.8z M24.5,17.2
		c0.2,0.3,0.3,0.5,0.3,0.7c0,0.5-0.2,0.5-0.6,0.2c-0.4-0.4-0.7-0.8-1.1-1.3c-0.1-0.1,0-0.1,0.1-0.1C23.6,16.8,24,17,24.5,17.2z"/>
	<path d="M31.2,5.2c0.3,0.1,0.4,0.2,0.5,0.4c0,0.3,0,0.5-0.1,0.7C31.6,7,31.5,8,31.5,9.2c0,0.9-0.2,2.2-0.7,3.8
		c-0.6,1.8-1.6,3.4-3.2,5c-0.2,0.1-0.2,0-0.2-0.2c1.2-1.6,1.9-3.2,2.2-4.8c0.5-1.7,0.7-3.8,0.5-6.3c0-0.3-0.1-0.5-0.2-0.7
		c-0.3-0.3-0.6-0.5-0.7-0.8c-0.1-0.2,0-0.3,0.3-0.2C30.1,4.8,30.7,5,31.2,5.2z M35.2,4.2c0.8,0.3,1.3,0.6,1.3,0.9
		c-0.1,0.3-0.1,0.8-0.1,1.5c0,1.4,0,2.7,0,4c0.1,1.3,0.1,2.5,0.2,3.5c-0.1,0.4-0.1,0.7-0.2,1c-0.3,0.5-0.7,0.4-1.1-0.4
		c-0.2-0.4-0.3-0.8-0.3-1.2c0.1-0.3,0.2-0.9,0.2-1.6c0-2.5,0-3.9-0.1-4.4V5.3c-0.2-0.2-0.3-0.4-0.5-0.7c-0.3-0.3-0.2-0.4,0.2-0.4
		H35.2z M39.9,2.4c0.9,0.1,1.6,0.4,2.1,1c0,0.2,0,0.3,0,0.4c-0.1,0.3-0.2,0.7-0.2,1c0,1,0,2.4,0.1,4.4c0.1,2.9,0.1,5.3,0.2,7.2
		c0.1,1.4,0.1,2.4-0.1,2.9c-0.4,0.3-0.7,0.2-1-0.3c-0.2-0.5-0.4-1.1-0.6-1.8c0.1-0.6,0.2-1.2,0.2-1.7c-0.1-3.5-0.2-7.1-0.2-10.9
		c-0.1-0.4-0.1-0.7-0.2-0.8C40,3.4,39.8,3.2,39.6,3C39.3,2.6,39.4,2.4,39.9,2.4z"/>
	<path d="M59.5,7.5c0.5,0.3,0.4,0.6-0.2,1c-0.7,2-1.3,4.1-2.1,6.1c0.1,0.7-0.3,0.9-1,0.6c-1.6-0.1-4.2,0.1-7.6,0.7
		c-0.2,0.7-0.5,0.9-0.9,0.6c-0.4-0.3-0.8-0.7-1-1.3c-0.1-0.8-0.2-1.5-0.4-2.3c-0.3-1.4-0.5-2.4-0.7-3c-0.2-0.7-0.5-1.2-0.7-1.6
		c-0.4-0.4-0.4-0.7,0-0.7c0.4,0.1,0.8,0.2,1.2,0.5c3.1-0.4,6.3-0.8,9.6-1.2c0.4-0.1,0.8-0.2,1.2-0.3c0.2-0.3,0.4-0.3,0.7-0.2
		C58.2,6.7,58.8,7,59.5,7.5z M53.6,8c-2.7,0.3-4.8,0.6-6.3,0.9c-0.2,0-0.4,0-0.6,0l0.1,0.3c0.5,2.2,1,4.2,1.5,6
		c2.5-0.4,5.1-0.8,7.6-1.2c0.7-2.6,1.1-4.6,1.3-5.9c0-0.3-0.1-0.4-0.4-0.5C56,7.7,54.9,7.8,53.6,8z"/>
	<path d="M77.8,4.5c0.5,0.5,0.4,0.8-0.2,1C76.8,5.4,76,5.4,75,5.4c-1.5,0.1-3.2,0.2-4.9,0.3c0.2,0.2,0.4,0.4,0.6,0.6
		c-0.1,0.6-0.1,1.3-0.2,2.2c1.3-0.2,2.4-0.4,3.2-0.6c0.2-0.2,0.4-0.3,0.7-0.3c0.5,0.4,1,0.7,1.5,1c0.2,0.2,0.2,0.3,0,0.5
		c-0.1,0.2-0.2,0.4-0.2,0.7c-0.2,2-0.4,3.4-0.6,4.2c-0.2,1-0.6,1.8-1,2.4c-0.2,0.2-0.4,0.2-0.6-0.1c-0.2-0.4-0.5-0.7-0.7-0.9
		c-0.2-0.2-0.7-0.6-1.5-1.2c-0.1-0.2,0-0.3,0.2-0.2c0.3,0.1,0.7,0.1,1.2,0.2c0.3,0,0.6-0.2,0.7-0.5c0.3-1.4,0.5-2.9,0.5-4.5
		c0-0.2-0.1-0.3-0.2-0.3c-1.2,0.2-2.2,0.3-3.2,0.4v2.1c-0.1,2-0.2,3.8-0.2,5.3c0,0.7-0.1,1.7-0.2,2.9C70,20,70,20.4,69.9,20.7
		c-0.3,0.7-0.6,0.6-0.8-0.1c-0.1-0.6-0.1-1.2-0.1-1.8c0-1.3,0-2.7,0-4.2C69,13.1,69,11.4,69,9.4c-1.1,0.2-2.2,0.4-3.3,0.7
		c0.2,1.9,0.4,3.6,0.6,4.9c-0.4,1.4-0.9,1.2-1.6-0.7c0-0.9,0-1.7-0.1-2.3c-0.1-1-0.1-1.9-0.2-2.5C64,9.1,64,8.8,64.2,8.8
		c0.4,0.3,0.8,0.5,1.2,0.7c1.2-0.2,2.3-0.4,3.5-0.6c0-0.6,0-1.2-0.1-1.9c-0.1-0.4-0.3-0.8-0.6-1c-3.1,0.5-5.2,0.9-6.3,1.2
		c-0.6-0.2-1-0.4-1.5-0.6c-0.2-0.1-0.1-0.2,0.2-0.3c1.5-0.1,3.4-0.4,5.7-0.7c2.1-0.4,4.6-0.7,7.4-1.1c0.5-0.1,0.8-0.2,1-0.4
		c0.3-0.3,0.5-0.4,0.6-0.3C76.7,4,77.4,4.3,77.8,4.5z M68.9,1.4c0.4,0.1,0.8,0.3,1.3,0.7c0.2,0.2,0.2,0.4,0,0.7
		c0,0.8-0.1,1.4-0.2,1.8c-0.4,0.2-0.7,0.1-0.9-0.1c-0.4-1.3-1-2.2-1.6-2.7c-0.3-0.3-0.2-0.4,0.2-0.5C67.9,1.3,68.3,1.3,68.9,1.4z"/>
</g>
</svg>
