<?xml version="1.0" encoding="utf-8"?>
<!-- Generator: Adobe Illustrator 25.1.0, SVG Export Plug-In . SVG Version: 6.00 Build 0)  -->
<svg version="1.1" id="レイヤー_1" xmlns="http://www.w3.org/2000/svg" xmlns:xlink="http://www.w3.org/1999/xlink" x="0px"
	 y="0px" viewBox="0 0 60 96" style="enable-background:new 0 0 60 96;" xml:space="preserve">
<style type="text/css">
	.st0{fill:url(#SVGID_1_);}
</style>
<g>
	<path d="M7,10.9c0.3,0.1,0.5,0.1,0.8,0.2c0.3,0.1,0.6,0.2,0.9,0.3l0,0c0.1,0,0.2,0,0.2-0.1c0-0.1-0.1-0.2-0.2-0.3
		C8.3,11,8,10.9,7.7,10.7c-0.3-0.1-0.6-0.2-0.9-0.3c-0.6-0.2-1.1-0.2-1.7-0.3c-0.5,0-1,0-1.5,0.1c-0.5,0.1-0.9,0.2-1.3,0.3
		c-0.1,0-0.1,0.1,0,0.2C2.5,10.9,2.6,11,2.6,11l0,0c0.2-0.1,0.4-0.1,0.6-0.1c0.2,0,0.4-0.1,0.7-0.1c0.5,0,0.9-0.1,1.4,0
		C5.9,10.7,6.4,10.8,7,10.9z"/>
	<path d="M6.6,8.8c0,0-0.3-0.3-0.6-0.6C5.7,8,5.4,7.7,5.4,7.6c0-0.2,0.4,0.1,0.5,0.3C5.7,7.7,5.4,7.3,5.3,7.1
		C5.3,6.9,5.7,7.4,5.8,7.4c0,0-0.5-0.6-0.3-0.5C5.7,7,6,7.4,6.1,7.6C6,7.4,5.7,7,5.9,7C6,7,6.2,7.4,6.5,7.7C6.8,8.1,7,8.4,7,8.4
		c0,0,0.2-0.3,0-0.7c0.2,0.1,0.7,0.5,0.7,0.5c0,0-0.2-0.2-0.4-0.4c-0.2-0.2-0.8-1-0.7-1.4c0.1-0.4,0.2-0.8,0-0.9
		c-0.1,0-0.3-0.2-0.4-0.2c-0.2,0-0.3,0.1-0.3,0.4c0,0.7,0.9,1.8,0.9,1.8c0,0-0.5-0.4-0.7-0.8C6,6.5,5.6,5.7,5.3,5.5
		c-0.3,0.2,0,0.8,0,0.8c0,0-0.6-0.6-0.9-0.4c-0.2,0.3,0.4,1,0.4,1c0,0-0.5-0.4-0.7,0c0.1,0.4,0.8,0.8,1.2,1c0.3,0.2,0.7,0.8,0.7,0.8
		c0,0-1-1-1.6-1C4,7.6,4,7.8,4,7.9c0,0.2,0.1,0.4,0.1,0.5c0.1,0.2,0.4,0.2,0.8,0c0.3-0.1,1,0.5,1.2,0.8c0.1,0.2,0.3,0.4,0.3,0.4
		c0,0-0.3-0.6-0.4-0.8C6.4,9,6.6,8.8,6.6,8.8z"/>
	<path d="M8,6.8c0,0.6,0.1,1.2,0.2,1.8c0.1,0.3,0.2,0.6,0.3,1c0.1,0.3,0.2,0.7,0.4,1c0,0.1,0.1,0.2,0.2,0.2c0.1,0,0.1-0.1,0.1-0.2
		l0,0C9.1,10.3,9,10,8.9,9.7C8.8,9.4,8.7,9.1,8.7,8.8C8.6,8.2,8.5,7.6,8.5,7.1c0-0.5,0-1.1,0-1.6c0-0.3,0-0.5,0.1-0.7
		c0-0.2,0.1-0.5,0.1-0.7l0,0c0-0.1,0-0.2-0.1-0.2c-0.1-0.1-0.2-0.1-0.2,0C8.2,4.2,8.1,4.7,8.1,5.2C8,5.7,8,6.3,8,6.8z"/>
	<polygon points="7.1,13.6 7.1,13.6 7.1,13.6 	"/>
	<path d="M8.2,65.5L8.2,65.5c-0.1-0.2-0.1-0.5-0.1-0.7C8,64.5,8,64.3,8,64c0-0.5-0.1-1.1,0-1.6c0-0.6,0.1-1.2,0.2-1.8
		c0.1-0.3,0.1-0.6,0.2-0.9c0.1-0.3,0.2-0.6,0.3-1l0,0c0-0.1,0-0.2-0.1-0.2c-0.1,0-0.2,0.1-0.2,0.2c-0.1,0.3-0.3,0.7-0.4,1
		c-0.1,0.3-0.2,0.7-0.3,1c-0.1,0.7-0.2,1.3-0.2,1.9c0,0.6,0,1.1,0.1,1.7c0.1,0.5,0.1,1,0.3,1.5c0,0.1,0.1,0.1,0.2,0
		C8.1,65.7,8.2,65.6,8.2,65.5z"/>
	<path d="M6.1,63.1c-0.1-0.4,0.4-1.2,0.7-1.4c0.2-0.2,0.4-0.4,0.4-0.4c0,0-0.5,0.4-0.7,0.5c0.2-0.5,0-0.7,0-0.7c0,0-0.2,0.4-0.5,0.7
		c-0.3,0.4-0.6,0.7-0.6,0.7c-0.2,0,0.1-0.4,0.2-0.6c-0.1,0.2-0.5,0.6-0.6,0.7c-0.2,0.1,0.2-0.5,0.3-0.5c0,0-0.5,0.6-0.5,0.3
		c0.1-0.2,0.4-0.6,0.6-0.7c-0.1,0.1-0.5,0.4-0.5,0.3c0-0.1,0.3-0.4,0.6-0.7C5.7,60.9,6,60.6,6,60.6c0,0-0.2-0.2-0.7,0
		c0.1-0.2,0.4-0.8,0.4-0.8c0,0-0.2,0.2-0.3,0.4c-0.2,0.3-0.9,0.9-1.3,0.8c-0.4-0.1-0.7-0.2-0.8,0c0,0.1-0.1,0.3-0.1,0.5
		c0,0.2,0.1,0.3,0.4,0.3c0.6,0,1.6-1,1.6-1c0,0-0.4,0.6-0.7,0.8c-0.3,0.2-1.1,0.6-1.2,1c0.2,0.4,0.7,0,0.7,0c0,0-0.5,0.7-0.4,1
		c0.3,0.2,0.9-0.4,0.9-0.4c0,0-0.4,0.6,0,0.8c0.3-0.1,0.7-1,0.9-1.3c0.2-0.4,0.7-0.8,0.7-0.8c0,0-0.9,1.1-0.9,1.8
		c0,0.4,0.1,0.5,0.3,0.4c0.2,0,0.4-0.1,0.5-0.2C6.3,63.8,6.2,63.4,6.1,63.1z"/>
	<path d="M6.3,59.1c0.3-0.1,0.6-0.2,0.9-0.3c0.3-0.1,0.6-0.3,0.9-0.4c0.1,0,0.2-0.2,0.2-0.3c0-0.1-0.1-0.2-0.2-0.1l0,0
		c-0.3,0.1-0.6,0.2-0.9,0.3c-0.3,0.1-0.6,0.2-0.8,0.2c-0.5,0.1-1.1,0.2-1.6,0.2c-0.5,0-1,0-1.4,0c-0.2,0-0.5-0.1-0.7-0.1
		c-0.2,0-0.4-0.1-0.6-0.1l0,0c-0.1,0-0.2,0-0.2,0.1c-0.1,0.1-0.1,0.2,0,0.2c0.4,0.2,0.8,0.3,1.3,0.3c0.5,0.1,1,0.1,1.5,0.1
		C5.1,59.4,5.7,59.3,6.3,59.1z"/>
	<polygon points="5.1,62 5.1,62 5.1,62 	"/>
	<path d="M55,58.6c-0.3-0.1-0.5-0.1-0.8-0.2c-0.3-0.1-0.6-0.2-0.9-0.3l0,0c-0.1,0-0.2,0-0.2,0.1c0,0.1,0.1,0.2,0.2,0.3
		c0.3,0.2,0.6,0.3,0.9,0.4c0.3,0.1,0.6,0.2,0.9,0.3c0.6,0.2,1.1,0.2,1.7,0.3c0.5,0,1,0,1.5-0.1c0.5-0.1,0.9-0.2,1.3-0.3
		c0.1,0,0.1-0.1,0-0.2c-0.1-0.1-0.2-0.2-0.2-0.1l0,0c-0.2,0.1-0.4,0.1-0.6,0.1c-0.2,0-0.4,0.1-0.7,0.1c-0.5,0-0.9,0.1-1.4,0
		C56.1,58.8,55.6,58.8,55,58.6z"/>
	<path d="M55.4,60.6c0,0,0.3,0.3,0.6,0.6c0.3,0.3,0.6,0.6,0.6,0.7c0,0.2-0.4-0.2-0.5-0.3c0.1,0.1,0.5,0.5,0.6,0.7
		c0.1,0.2-0.4-0.3-0.5-0.3c0,0,0.5,0.6,0.3,0.5c-0.2-0.1-0.5-0.5-0.6-0.7c0.1,0.2,0.4,0.6,0.2,0.6c-0.1,0-0.4-0.4-0.6-0.7
		C55.2,61.4,55,61,55,61c0,0-0.2,0.3,0,0.7c-0.2-0.1-0.7-0.5-0.7-0.5c0,0,0.2,0.2,0.4,0.4c0.3,0.3,0.8,1,0.7,1.4
		c-0.1,0.4-0.2,0.8,0,0.9c0.1,0,0.3,0.2,0.5,0.2c0.2,0,0.3-0.1,0.3-0.4c0-0.7-0.9-1.9-0.9-1.8c0,0,0.5,0.4,0.7,0.8
		c0.2,0.4,0.6,1.2,0.9,1.3c0.3-0.2,0-0.8,0-0.8c0,0,0.6,0.6,0.9,0.4c0.2-0.3-0.4-1-0.4-1c0,0,0.6,0.4,0.7,0c-0.1-0.4-0.9-0.8-1.2-1
		c-0.3-0.2-0.7-0.8-0.7-0.8c0,0,1,1,1.6,1c0.3,0,0.4-0.2,0.4-0.3c0-0.2-0.1-0.4-0.1-0.5c-0.1-0.2-0.4-0.2-0.8,0
		c-0.4,0.1-1-0.5-1.3-0.8c-0.1-0.2-0.3-0.4-0.3-0.4c0,0,0.3,0.6,0.4,0.8C55.6,60.3,55.4,60.6,55.4,60.6z"/>
	<path d="M53.9,62.6c0-0.6-0.1-1.2-0.2-1.9c-0.1-0.3-0.2-0.7-0.3-1c-0.1-0.3-0.2-0.7-0.4-1c0-0.1-0.1-0.2-0.2-0.2
		c-0.1,0-0.1,0.1-0.1,0.2l0,0c0.1,0.3,0.2,0.6,0.3,1c0.1,0.3,0.2,0.6,0.2,0.9c0.1,0.6,0.2,1.2,0.2,1.8c0,0.6,0,1.1,0,1.6
		c0,0.3,0,0.5-0.1,0.8c0,0.2-0.1,0.5-0.1,0.7l0,0c0,0.1,0,0.2,0.1,0.3c0.1,0.1,0.2,0.1,0.2,0c0.2-0.5,0.2-0.9,0.3-1.5
		C53.9,63.8,54,63.2,53.9,62.6z"/>
	<polygon points="56.3,62 56.3,62 56.3,62 	"/>
	<path d="M51.3,4.1L51.3,4.1c0.1,0.2,0.1,0.5,0.1,0.7c0,0.2,0.1,0.5,0.1,0.8c0,0.5,0.1,1.1,0,1.6c0,0.6-0.1,1.2-0.2,1.8
		c-0.1,0.3-0.1,0.6-0.2,0.9c-0.1,0.3-0.2,0.6-0.3,1l0,0c0,0.1,0,0.2,0.1,0.2c0.1,0,0.2-0.1,0.2-0.2c0.1-0.3,0.3-0.7,0.4-1
		c0.1-0.3,0.2-0.7,0.3-1C51.9,8.1,52,7.5,52,6.9c0-0.6,0-1.1-0.1-1.7c-0.1-0.5-0.1-1-0.3-1.5c0-0.1-0.1-0.1-0.2,0
		C51.3,3.9,51.3,4,51.3,4.1z"/>
	<path d="M53.4,6.5c0.1,0.4-0.4,1.2-0.7,1.4c-0.2,0.2-0.4,0.4-0.4,0.4c0,0,0.5-0.4,0.7-0.5c-0.2,0.5,0,0.7,0,0.7
		c0,0,0.2-0.4,0.5-0.7c0.3-0.4,0.6-0.7,0.6-0.7c0.2,0-0.1,0.4-0.2,0.6c0.1-0.2,0.5-0.6,0.6-0.7c0.2-0.1-0.2,0.5-0.3,0.5
		c0,0,0.5-0.6,0.5-0.3c-0.1,0.2-0.4,0.6-0.6,0.7c0.1-0.1,0.5-0.4,0.5-0.3c0,0.1-0.3,0.4-0.6,0.7C53.8,8.7,53.4,9,53.4,9
		c0,0,0.2,0.2,0.7,0c-0.1,0.2-0.4,0.8-0.4,0.8c0,0,0.2-0.2,0.3-0.4c0.2-0.3,0.9-0.9,1.3-0.8c0.4,0.1,0.7,0.2,0.8,0
		c0-0.1,0.1-0.3,0.1-0.5c0-0.2-0.1-0.3-0.4-0.3c-0.6,0-1.6,1-1.6,1c0,0,0.4-0.6,0.7-0.8c0.3-0.2,1.1-0.6,1.2-1c-0.2-0.4-0.7,0-0.7,0
		c0,0,0.5-0.7,0.4-1c-0.3-0.2-0.9,0.4-0.9,0.4c0,0,0.4-0.6,0-0.8c-0.3,0.1-0.7,1-0.9,1.3c-0.2,0.4-0.7,0.8-0.7,0.8
		c0,0,0.9-1.1,0.9-1.8c0-0.4-0.1-0.5-0.3-0.4c-0.2,0-0.4,0.1-0.5,0.2C53.2,5.7,53.2,6.1,53.4,6.5z"/>
	<g>
		<path d="M56.6,16.1c0.2-0.5,0.4-1,0.3-1.5c-0.2-1.1-0.7-1.6-1.3-1.8c-0.6-0.2-1.4-0.2-2.1-0.2c-1.1,0-2.3,0.4-3.2,0.7
			c-0.7,0.3-1.2,0.5-1.5,0.7c0.1-0.3,0.4-0.9,0.6-1.7c0.3-1.1,0.7-2.4,0.6-3.6c0-0.7,0-1.6-0.2-2.3c-0.2-0.7-0.6-1.3-1.6-1.5
			c-0.4-0.1-0.9,0.1-1.3,0.3H13.3C12.9,5,12.4,4.8,12,4.9c-1,0.2-1.4,0.8-1.6,1.5c-0.2,0.7-0.2,1.6-0.2,2.3c0,1.2,0.3,2.5,0.6,3.6
			c0.2,0.8,0.5,1.4,0.6,1.7c-0.3-0.1-0.8-0.4-1.5-0.7c-1-0.4-2.2-0.7-3.2-0.7c-0.7,0-1.4,0-2.1,0.2c-0.6,0.2-1.1,0.7-1.3,1.8
			c-0.1,0.4,0.1,1,0.3,1.5v16.4c0.1,0,0.3,0,0.4,0V16.7C4.2,16.9,4.4,17,4.6,17c0.8-0.1-0.4-1.2-0.2-2c0.1-0.4,0.4-0.9,0.9-1.3v18.7
			c0.1,0,0.1,0,0.2,0V13.6c0.6-0.3,1.6-0.5,3-0.2c1.6,0.3,3.3,1.3,3.9,1.7v0c-0.4-0.7-1.3-2.6-1.5-4.4C10.6,9,10.7,8,11,7.2h38.1
			c0.3,0.7,0.5,1.8,0.2,3.4c-0.3,1.8-1.2,3.7-1.5,4.4c0.6-0.4,2.3-1.4,3.9-1.7c1.5-0.3,2.4-0.1,3,0.3v19.3c0.1,0,0.1,0,0.2,0V13.7
			c0.5,0.4,0.8,0.9,0.9,1.2c0.2,0.8-1,1.9-0.2,2c0.2,0,0.4-0.1,0.6-0.3V33c0.1,0,0.3,0,0.4,0V16.1z M11.1,7c0.3-0.6,0.8-0.9,1.1-1
			C13,5.8,14,7.2,14.1,6.3c0-0.2-0.1-0.4-0.3-0.6h32.5c-0.2,0.2-0.3,0.4-0.2,0.6c0.1,0.9,1.1-0.5,1.8-0.3c0.3,0.1,0.8,0.4,1.1,1
			H11.1z"/>
		<path d="M56.2,32.8v19.4C56,52.1,55.8,52,55.6,52c-0.8,0.1,0.4,1.2,0.2,2c-0.1,0.4-0.4,0.9-0.9,1.2V32.9c-0.1,0-0.1,0-0.2,0v22.5
			c-0.6,0.4-1.6,0.5-3,0.3c-1.6-0.3-3.3-1.3-3.9-1.7v0c0.4,0.7,1.3,2.6,1.5,4.4c0.2,1.6,0.1,2.7-0.2,3.4H11
			c-0.3-0.7-0.5-1.8-0.2-3.4c0.3-1.8,1.2-3.7,1.5-4.4c-0.6,0.4-2.3,1.4-3.9,1.7c-1.4,0.3-2.4,0.1-3-0.2v-23c-0.1,0-0.1,0-0.2,0v22.8
			c-0.5-0.4-0.8-0.9-0.9-1.2c-0.2-0.8,1-1.9,0.2-2c-0.2,0-0.4,0.1-0.6,0.3V32.4c-0.1,0-0.3,0-0.4,0v20.5c-0.2,0.5-0.4,1-0.3,1.5
			c0.2,1.1,0.7,1.6,1.3,1.8c0.6,0.2,1.4,0.2,2.1,0.2c1.1,0,2.3-0.4,3.2-0.7c0.7-0.3,1.2-0.5,1.5-0.7c-0.1,0.3-0.4,0.9-0.6,1.7
			c-0.3,1.1-0.7,2.4-0.6,3.6c0,0.7,0,1.6,0.2,2.3c0.2,0.7,0.6,1.3,1.6,1.5c0.4,0.1,0.9-0.1,1.3-0.3h33.5c0.4,0.3,0.9,0.4,1.3,0.3
			c1-0.2,1.4-0.8,1.6-1.5c0.2-0.7,0.2-1.6,0.2-2.3c0-1.2-0.3-2.5-0.6-3.6c-0.2-0.8-0.5-1.4-0.6-1.7c0.3,0.1,0.8,0.4,1.5,0.7
			c1,0.4,2.2,0.7,3.2,0.7c0.7,0,1.4,0,2.1-0.2c0.6-0.2,1.1-0.7,1.3-1.8c0.1-0.4-0.1-1-0.3-1.5v-20C56.4,32.8,56.3,32.8,56.2,32.8z
			 M47.9,62.9c-0.7,0.2-1.7-1.2-1.8-0.3c0,0.2,0.1,0.4,0.3,0.6H13.8c0.2-0.2,0.3-0.4,0.2-0.6c-0.1-0.9-1.1,0.5-1.8,0.3
			c-0.3-0.1-0.8-0.4-1.1-1H49C48.7,62.5,48.2,62.8,47.9,62.9z"/>
	</g>
	<path d="M53.2,10.4c-0.3,0.1-0.6,0.2-0.9,0.3c-0.3,0.1-0.6,0.3-0.9,0.4c-0.1,0-0.2,0.2-0.2,0.3c0,0.1,0.1,0.2,0.2,0.1l0,0
		c0.3-0.1,0.6-0.2,0.9-0.3c0.3-0.1,0.6-0.2,0.8-0.2c0.5-0.1,1.1-0.2,1.6-0.2c0.5,0,1,0,1.4,0c0.2,0,0.5,0.1,0.7,0.1
		c0.2,0,0.4,0.1,0.6,0.1l0,0c0.1,0,0.2,0,0.2-0.1c0.1-0.1,0.1-0.2,0-0.2c-0.4-0.2-0.8-0.3-1.3-0.3c-0.5-0.1-1-0.1-1.5-0.1
		C54.4,10.2,53.8,10.3,53.2,10.4z"/>
	<polygon points="58.2,13.6 58.2,13.6 58.2,13.6 	"/>
</g>
<linearGradient id="SVGID_1_" gradientUnits="userSpaceOnUse" x1="88.8238" y1="71.2043" x2="128.8241" y2="71.2043" gradientTransform="matrix(0.1769 -8.143676e-02 0.3327 0.3679 -10.9546 63.3404)">
	<stop  offset="0" style="stop-color:#231815"/>
	<stop  offset="0.1007" style="stop-color:#231815;stop-opacity:0"/>
	<stop  offset="0.2" style="stop-color:#231815"/>
	<stop  offset="0.3" style="stop-color:#231815;stop-opacity:0"/>
	<stop  offset="0.402" style="stop-color:#231815"/>
	<stop  offset="0.5" style="stop-color:#231815;stop-opacity:0"/>
	<stop  offset="0.6" style="stop-color:#231815"/>
	<stop  offset="0.7" style="stop-color:#231815;stop-opacity:0"/>
	<stop  offset="0.8" style="stop-color:#231815"/>
	<stop  offset="0.9" style="stop-color:#231815;stop-opacity:0"/>
	<stop  offset="1" style="stop-color:#231815"/>
</linearGradient>
<polygon class="st0" points="34.7,78.1 29.4,83.4 29.3,83.3 34.6,78 "/>
<g>
	<path d="M13.8,29.9L13.8,29.9c-0.1-0.3-0.2-0.6-0.2-0.9c-0.1-0.3-0.1-0.6-0.2-0.8c-0.1-0.3-0.1-0.5-0.2-0.7s-0.1-0.4-0.1-0.7
		C13,26.5,13,26.3,12.9,26c-0.1-0.3-0.1-0.5-0.2-0.7h0c-0.1,0.3-0.1,0.5-0.2,0.8s-0.1,0.5-0.2,0.7s-0.2,0.5-0.2,0.7
		c-0.1,0.2-0.2,0.5-0.3,0.7c-0.1,0.3-0.2,0.5-0.3,0.8c-0.1,0.3-0.2,0.6-0.3,0.9l-0.5,0l-0.1,0c-0.3-1.4-0.5-2.6-0.7-3.5
		s-0.4-1.5-0.5-1.9c0-0.1-0.1-0.2-0.1-0.2c0-0.1-0.1-0.1-0.1-0.2S9.1,24.1,9,24.1c-0.1,0-0.1,0-0.2,0c-0.1,0-0.1,0-0.2,0
		c-0.1,0-0.1,0-0.2,0l0-0.2c0.3-0.1,0.5-0.1,0.7-0.2s0.3-0.1,0.5-0.1c0.1,0,0.2,0,0.2,0c0.1,0,0.1,0.1,0.2,0.1S10,23.9,10,24
		c0,0.1,0.1,0.2,0.1,0.3c0.1,0.2,0.1,0.4,0.2,0.7c0.1,0.3,0.2,0.6,0.2,1c0.1,0.4,0.2,0.8,0.3,1.3c0.1,0.5,0.2,1,0.3,1.6h0
		c0.1-0.2,0.2-0.5,0.3-0.8s0.2-0.6,0.3-0.8c0.1-0.3,0.2-0.6,0.3-0.9c0.1-0.3,0.2-0.6,0.3-0.9c0.1-0.3,0.2-0.6,0.3-0.9
		c0.1-0.3,0.2-0.6,0.3-0.8c0,0,0-0.1,0.1-0.1s0.1,0,0.1,0c0,0,0.1,0,0.1,0c0,0.2,0.1,0.4,0.2,0.6s0.1,0.5,0.2,0.8
		c0.1,0.3,0.1,0.6,0.2,0.9s0.1,0.6,0.2,1c0.1,0.3,0.1,0.6,0.2,1s0.1,0.6,0.2,0.9h0c0.1-0.3,0.3-0.5,0.4-0.8s0.3-0.6,0.4-0.9
		c0.1-0.3,0.2-0.6,0.3-0.9s0.2-0.5,0.3-0.8c0.1-0.2,0.1-0.5,0.2-0.7c0-0.2,0.1-0.4,0.1-0.5c0-0.1,0-0.2,0-0.3c0-0.1,0-0.2-0.1-0.3
		c0-0.1-0.1-0.2-0.1-0.2s-0.1-0.1-0.2-0.2l0-0.1c0,0,0.1,0,0.1,0c0,0,0.1,0,0.1,0c0.1,0,0.2,0,0.3,0s0.2,0.1,0.2,0.1
		s0.1,0.1,0.2,0.2s0.1,0.2,0.1,0.3c0,0.1,0,0.2,0,0.4s-0.1,0.3-0.1,0.5s-0.1,0.4-0.2,0.6c-0.1,0.2-0.2,0.5-0.3,0.7s-0.2,0.5-0.3,0.8
		s-0.2,0.6-0.4,0.9c-0.1,0.3-0.3,0.6-0.4,0.9c-0.1,0.3-0.3,0.6-0.4,0.9L13.8,29.9z"/>
	<path d="M19.7,29C19.7,29,19.7,29,19.7,29C19.7,29,19.7,29.1,19.7,29c0.1,0.1,0.1,0.1,0.1,0.1c0,0,0,0,0,0c0,0,0,0,0,0
		c-0.1,0.1-0.2,0.3-0.3,0.4c-0.1,0.1-0.2,0.2-0.4,0.3s-0.3,0.1-0.4,0.2s-0.3,0-0.4,0c-0.2,0-0.4,0-0.6-0.1c-0.2-0.1-0.3-0.2-0.5-0.4
		c-0.1-0.2-0.2-0.3-0.3-0.5c-0.1-0.2-0.1-0.4-0.1-0.7c0-0.2,0-0.4,0.1-0.6s0.1-0.4,0.2-0.5s0.2-0.3,0.3-0.5s0.2-0.3,0.4-0.4
		c0.1-0.1,0.3-0.2,0.5-0.3c0.2-0.1,0.4-0.1,0.6-0.1c0.1,0,0.3,0,0.4,0.1c0.1,0,0.2,0.1,0.3,0.2c0.1,0.1,0.2,0.1,0.2,0.2
		c0.1,0.1,0.1,0.2,0.1,0.3c0,0.2-0.1,0.3-0.2,0.5s-0.3,0.3-0.5,0.3c-0.2,0.1-0.5,0.2-0.7,0.2s-0.6,0.1-0.9,0.1v0
		c0,0.2,0,0.4,0.1,0.6s0.1,0.4,0.2,0.5c0.1,0.1,0.2,0.2,0.4,0.3c0.1,0.1,0.3,0.1,0.4,0.1c0.2,0,0.3,0,0.5-0.1
		C19.3,29.3,19.5,29.2,19.7,29z M19.1,26.9c0-0.1,0-0.2,0-0.2c0-0.1-0.1-0.1-0.1-0.2s-0.1-0.1-0.2-0.1c-0.1,0-0.1,0-0.2,0
		c-0.1,0-0.2,0-0.3,0.1c-0.1,0-0.2,0.1-0.3,0.2s-0.1,0.2-0.2,0.2c-0.1,0.1-0.1,0.2-0.1,0.3c0,0.1-0.1,0.2-0.1,0.3
		c0,0.1,0,0.2-0.1,0.3c0.3,0,0.5,0,0.7-0.1c0.2,0,0.4-0.1,0.5-0.2s0.2-0.2,0.3-0.2S19.1,27,19.1,26.9z"/>
	<path d="M24.8,22.6c-0.1,0.5-0.1,0.9-0.2,1.4c-0.1,0.5-0.1,1-0.2,1.4c0,0.5-0.1,0.9-0.1,1.4c0,0.5,0,0.9,0,1.3c0,0.2,0,0.4,0,0.5
		c0,0.1,0,0.3,0,0.4s0,0.2,0,0.2c0,0.1,0,0.1,0.1,0.1s0.1,0.1,0.1,0.1c0,0,0.1,0,0.1,0c0.1,0,0.2,0,0.3,0c0.1,0,0.2-0.1,0.3-0.1
		l0.1,0.1c-0.1,0.1-0.1,0.1-0.2,0.2s-0.2,0.1-0.3,0.1s-0.2,0.1-0.3,0.1s-0.2,0-0.3,0c-0.1,0-0.1,0-0.1,0c0,0-0.1,0-0.1-0.1
		c0,0-0.1-0.1-0.1-0.1s0-0.1,0-0.2c0-0.1,0-0.2,0-0.4s0-0.3,0-0.5c0-0.2,0-0.4,0-0.5c0-0.2,0-0.4,0.1-0.6l0,0
		c-0.1,0.4-0.3,0.7-0.4,1c-0.2,0.3-0.3,0.5-0.5,0.8c-0.2,0.2-0.3,0.4-0.5,0.5C22.2,29.9,22,30,21.8,30c-0.2,0-0.3,0-0.4-0.1
		s-0.2-0.2-0.3-0.3S21,29.3,21,29.1s-0.1-0.4-0.1-0.5c0-0.2,0-0.4,0.1-0.7c0-0.2,0.1-0.4,0.2-0.6s0.2-0.4,0.3-0.5
		c0.1-0.2,0.3-0.3,0.4-0.4c0.2-0.1,0.3-0.2,0.5-0.3C22.6,26,22.8,26,23,26c0.1,0,0.3,0,0.4,0.1c0.1,0,0.3,0.1,0.4,0.2
		c0-0.3,0-0.6,0-0.9c0-0.3,0-0.6,0-0.9c0-0.3,0-0.6,0.1-0.8s0-0.5,0.1-0.7c0,0,0-0.1,0-0.1c0,0,0.1-0.1,0.1-0.1c0,0,0.1,0,0.1,0
		c0,0,0.1,0,0.1,0C24.6,22.5,24.7,22.6,24.8,22.6z M23.9,26.4c-0.2-0.1-0.5-0.2-0.7-0.2c-0.2,0-0.3,0-0.5,0.1s-0.3,0.1-0.4,0.2
		S22,26.8,22,26.9c-0.1,0.1-0.2,0.3-0.2,0.4c-0.1,0.2-0.1,0.3-0.1,0.5c0,0.2,0,0.3,0,0.5c0,0.1,0,0.1,0,0.2c0,0.1,0,0.2,0,0.2
		s0,0.2,0.1,0.2c0,0.1,0.1,0.1,0.1,0.2c0,0.1,0.1,0.1,0.1,0.1s0.1,0.1,0.2,0.1c0.1,0,0.3,0,0.4-0.1c0.1-0.1,0.3-0.2,0.4-0.4
		c0.1-0.2,0.2-0.3,0.4-0.5c0.1-0.2,0.2-0.4,0.3-0.6c0.1-0.2,0.2-0.4,0.2-0.6C23.8,26.8,23.8,26.6,23.9,26.4z"/>
	<path d="M30.1,22.6c-0.1,0.5-0.1,0.9-0.2,1.4c-0.1,0.5-0.1,1-0.2,1.4c0,0.5-0.1,0.9-0.1,1.4c0,0.5,0,0.9,0,1.3c0,0.2,0,0.4,0,0.5
		c0,0.1,0,0.3,0,0.4s0,0.2,0,0.2c0,0.1,0,0.1,0.1,0.1s0.1,0.1,0.1,0.1c0,0,0.1,0,0.1,0c0.1,0,0.2,0,0.3,0c0.1,0,0.2-0.1,0.3-0.1
		l0.1,0.1c-0.1,0.1-0.1,0.1-0.2,0.2s-0.2,0.1-0.3,0.1s-0.2,0.1-0.3,0.1s-0.2,0-0.3,0c-0.1,0-0.1,0-0.1,0c0,0-0.1,0-0.1-0.1
		c0,0-0.1-0.1-0.1-0.1s0-0.1,0-0.2c0-0.1,0-0.2,0-0.4s0-0.3,0-0.5c0-0.2,0-0.4,0-0.5c0-0.2,0-0.4,0.1-0.6l0,0
		c-0.1,0.4-0.3,0.7-0.4,1c-0.2,0.3-0.3,0.5-0.5,0.8c-0.2,0.2-0.3,0.4-0.5,0.5c-0.2,0.1-0.3,0.2-0.5,0.2c-0.2,0-0.3,0-0.4-0.1
		s-0.2-0.2-0.3-0.3s-0.1-0.3-0.2-0.5s-0.1-0.4-0.1-0.5c0-0.2,0-0.4,0.1-0.7c0-0.2,0.1-0.4,0.2-0.6s0.2-0.4,0.3-0.5
		c0.1-0.2,0.3-0.3,0.4-0.4c0.2-0.1,0.3-0.2,0.5-0.3C28,26,28.1,26,28.4,26c0.1,0,0.3,0,0.4,0.1c0.1,0,0.3,0.1,0.4,0.2
		c0-0.3,0-0.6,0-0.9c0-0.3,0-0.6,0-0.9c0-0.3,0-0.6,0.1-0.8s0-0.5,0.1-0.7c0,0,0-0.1,0-0.1c0,0,0.1-0.1,0.1-0.1c0,0,0.1,0,0.1,0
		c0,0,0.1,0,0.1,0C29.9,22.5,30,22.6,30.1,22.6z M29.2,26.4c-0.2-0.1-0.5-0.2-0.7-0.2c-0.2,0-0.3,0-0.5,0.1s-0.3,0.1-0.4,0.2
		s-0.2,0.2-0.3,0.3c-0.1,0.1-0.2,0.3-0.2,0.4c-0.1,0.2-0.1,0.3-0.1,0.5c0,0.2,0,0.3,0,0.5c0,0.1,0,0.1,0,0.2c0,0.1,0,0.2,0,0.2
		s0,0.2,0.1,0.2c0,0.1,0.1,0.1,0.1,0.2c0,0.1,0.1,0.1,0.1,0.1s0.1,0.1,0.2,0.1c0.1,0,0.3,0,0.4-0.1c0.1-0.1,0.3-0.2,0.4-0.4
		c0.1-0.2,0.2-0.3,0.4-0.5c0.1-0.2,0.2-0.4,0.3-0.6c0.1-0.2,0.2-0.4,0.2-0.6C29.1,26.8,29.2,26.6,29.2,26.4z"/>
	<path d="M32.6,26.1c0,0.2-0.1,0.4-0.1,0.6s0,0.4-0.1,0.6c0,0.2,0,0.4,0,0.5c0,0.2,0,0.3,0,0.5c0,0.2,0,0.3,0,0.5c0,0.1,0,0.2,0,0.3
		s0,0.2,0,0.2c0,0.1,0,0.1,0.1,0.1c0,0,0.1,0,0.1,0.1c0,0,0.1,0,0.1,0c0.1,0,0.2,0,0.3,0c0.1,0,0.2-0.1,0.3-0.1l0.1,0.1
		c-0.1,0.1-0.1,0.1-0.2,0.2s-0.2,0.1-0.3,0.1s-0.2,0.1-0.3,0.1c-0.1,0-0.2,0-0.3,0c0,0-0.1,0-0.1,0c0,0-0.1,0-0.1-0.1
		S32,29.8,32,29.7c0-0.1,0-0.1-0.1-0.3c0-0.1,0-0.2,0-0.4c0-0.2,0-0.4,0-0.6c0-0.1,0-0.3,0-0.5c0-0.2,0-0.4,0-0.5c0-0.2,0-0.4,0-0.6
		s0-0.4,0-0.7c0,0,0-0.1,0-0.1S32,26,32.1,26s0.1,0,0.1,0c0,0,0.1,0,0.1,0C32.4,26,32.5,26,32.6,26.1z M32.4,24.8
		c-0.1,0-0.1,0-0.2,0s-0.1-0.1-0.1-0.1c0,0-0.1-0.1-0.1-0.1c0-0.1,0-0.1,0-0.2c0-0.1,0-0.2,0-0.2c0-0.1,0.1-0.1,0.1-0.2
		s0.1-0.1,0.1-0.1c0.1,0,0.1,0,0.2,0c0.1,0,0.1,0,0.2,0s0.1,0.1,0.1,0.1c0,0,0.1,0.1,0.1,0.1c0,0.1,0,0.1,0,0.2c0,0.1,0,0.1,0,0.2
		c0,0.1-0.1,0.1-0.1,0.2c0,0.1-0.1,0.1-0.1,0.1S32.4,24.8,32.4,24.8z"/>
	<path d="M34.8,26.8c0-0.1,0-0.1,0-0.2c0-0.1,0-0.1,0-0.1c0,0-0.1-0.1-0.1-0.1c0,0-0.1,0-0.1,0c-0.1,0-0.1,0-0.2,0s-0.2,0-0.3,0.1
		l0-0.2c0.1,0,0.3-0.1,0.4-0.1s0.2-0.1,0.3-0.1s0.2,0,0.3-0.1c0.1,0,0.1,0,0.2,0c0.1,0,0.2,0,0.2,0.1c0.1,0.1,0.1,0.2,0.1,0.3
		c0,0,0,0.1,0,0.1s0,0.1,0,0.2c0,0.1,0,0.2,0,0.3c0,0.1,0,0.3,0,0.4s0,0.3,0,0.5s0,0.3,0,0.5l0,0c0.1-0.5,0.3-0.9,0.4-1.2
		s0.3-0.6,0.5-0.8s0.3-0.3,0.5-0.4s0.3-0.1,0.5-0.1c0.1,0,0.2,0,0.3,0.1c0.1,0,0.2,0.1,0.2,0.2c0.1,0.1,0.1,0.2,0.2,0.3
		s0.1,0.3,0.1,0.5c0,0.1,0,0.1,0,0.2c0,0.1,0,0.2,0,0.3s0,0.2,0,0.4s0,0.2,0,0.4s0,0.2,0,0.3c0,0.1,0,0.2,0,0.3c0,0.1,0,0.3,0,0.3
		s0,0.2,0.1,0.2c0,0.1,0.1,0.1,0.1,0.1c0,0,0.1,0,0.2,0c0.1,0,0.2,0,0.3,0c0.1,0,0.2-0.1,0.3-0.1l0.1,0.1c-0.1,0.1-0.1,0.1-0.2,0.2
		c-0.1,0.1-0.2,0.1-0.3,0.1s-0.2,0.1-0.3,0.1s-0.2,0-0.3,0c-0.1,0-0.2,0-0.2-0.1c-0.1-0.1-0.1-0.1-0.1-0.2c0-0.1,0-0.2-0.1-0.3
		c0-0.1,0-0.2,0-0.4c0-0.2,0-0.3,0-0.5s0-0.3,0-0.5c0-0.2,0-0.3,0-0.4c0-0.1,0-0.2,0-0.3c0-0.2,0-0.4-0.1-0.5
		c-0.1-0.1-0.2-0.1-0.3-0.1c-0.1,0-0.2,0-0.3,0.1c-0.1,0.1-0.2,0.2-0.3,0.4c-0.1,0.2-0.2,0.3-0.3,0.5s-0.2,0.4-0.3,0.7
		s-0.2,0.5-0.2,0.8c-0.1,0.3-0.1,0.5-0.1,0.8l-0.6,0.1l0,0c0-0.2,0-0.4,0-0.6s0-0.4,0-0.6c0-0.2,0-0.4,0-0.6c0-0.2,0-0.4,0-0.6
		c0-0.2,0-0.3,0-0.5S34.8,26.8,34.8,26.8z"/>
	<path d="M42.6,26.5c0.1,0.1,0.2,0.3,0.2,0.4c0,0.1,0.1,0.3,0.1,0.4c0,0.1,0,0.3-0.1,0.4c0,0.1-0.1,0.3-0.2,0.4
		c-0.1,0.1-0.2,0.2-0.3,0.3s-0.2,0.2-0.3,0.3c-0.1,0.1-0.3,0.1-0.4,0.2s-0.3,0.1-0.4,0.1c0,0-0.1,0-0.1,0c0,0-0.1,0-0.1,0
		c-0.1,0-0.1,0-0.2,0.1c-0.1,0-0.1,0.1-0.1,0.1c0,0-0.1,0.1-0.1,0.1s0,0.1,0,0.1c0,0.1,0,0.1,0.1,0.2c0.1,0.1,0.1,0.1,0.2,0.1
		c0.1,0,0.2,0.1,0.4,0.1s0.3,0.1,0.4,0.1c0.1,0,0.3,0.1,0.4,0.1s0.3,0.1,0.4,0.1c0.1,0,0.2,0.1,0.3,0.1c0.1,0.1,0.2,0.1,0.3,0.2
		s0.1,0.2,0.2,0.2c0,0.1,0.1,0.2,0.1,0.3c0,0.2,0,0.3-0.1,0.5s-0.1,0.3-0.2,0.4c-0.1,0.1-0.2,0.2-0.4,0.3c-0.1,0.1-0.3,0.2-0.5,0.3
		s-0.4,0.1-0.5,0.2c-0.2,0-0.4,0.1-0.6,0.1c-0.1,0-0.2,0-0.4,0s-0.3,0-0.4-0.1s-0.2-0.1-0.4-0.1s-0.2-0.1-0.3-0.2
		c-0.1-0.1-0.2-0.2-0.2-0.3s-0.1-0.2-0.1-0.4c0-0.1,0-0.2,0.1-0.3c0-0.1,0.1-0.2,0.2-0.3s0.1-0.2,0.2-0.3c0.1-0.1,0.2-0.1,0.3-0.2
		c0.1-0.1,0.2-0.1,0.3-0.2c0.1,0,0.2-0.1,0.3-0.1l0,0c-0.1,0-0.1-0.1-0.2-0.1s-0.1-0.1-0.2-0.1c-0.1,0-0.1-0.1-0.1-0.2s0-0.1,0-0.2
		c0-0.1,0-0.2,0.1-0.2c0-0.1,0.1-0.1,0.2-0.2c0.1-0.1,0.1-0.1,0.2-0.1c0.1,0,0.2-0.1,0.2-0.1c-0.1-0.1-0.3-0.1-0.4-0.2
		s-0.2-0.2-0.3-0.3s-0.1-0.2-0.2-0.4c0-0.1-0.1-0.3-0.1-0.4c0-0.2,0-0.5,0.1-0.7c0.1-0.2,0.2-0.4,0.4-0.5c0.2-0.1,0.3-0.3,0.5-0.3
		c0.2-0.1,0.4-0.1,0.6-0.1c0.1,0,0.2,0,0.2,0c0.1,0,0.1,0,0.2,0c0.1,0,0.1,0,0.2,0.1c0.1,0,0.1,0,0.1,0.1c0.1,0,0.1,0.1,0.2,0.1
		s0.1,0,0.2,0c0.1,0,0.1,0,0.2,0s0.1-0.1,0.2-0.1c0,0,0.1-0.1,0.1-0.2s0-0.1,0-0.2c0,0,0,0,0,0s0,0,0,0l0,0c0.1,0.1,0.2,0.1,0.3,0.2
		c0.1,0.1,0.1,0.2,0.1,0.3c0,0.1,0,0.1,0,0.2c0,0.1-0.1,0.1-0.1,0.1c0,0-0.1,0.1-0.2,0.1c-0.1,0-0.1,0-0.2,0
		C42.9,26.6,42.7,26.5,42.6,26.5L42.6,26.5z M40.8,30.2c-0.1,0-0.2,0.1-0.4,0.1c-0.1,0.1-0.2,0.1-0.3,0.2S40,30.8,40,30.9
		s-0.1,0.2-0.1,0.4c0,0.2,0,0.3,0.1,0.4s0.2,0.2,0.3,0.3s0.3,0.1,0.4,0.2s0.3,0.1,0.4,0.1c0.2,0,0.4,0,0.6-0.1
		c0.2-0.1,0.3-0.1,0.5-0.3c0.1-0.1,0.2-0.2,0.3-0.4c0.1-0.1,0.1-0.3,0.1-0.5c0-0.1,0-0.2-0.1-0.2s-0.1-0.1-0.2-0.2
		c-0.1-0.1-0.2-0.1-0.2-0.1s-0.2-0.1-0.3-0.1c-0.2,0-0.3-0.1-0.5-0.1C41.2,30.3,41,30.3,40.8,30.2z M41.4,28.6c0.1,0,0.2,0,0.3,0
		s0.1-0.1,0.2-0.1c0.1-0.1,0.1-0.1,0.2-0.2s0.1-0.2,0.1-0.2c0-0.1,0-0.2,0.1-0.3c0-0.1,0-0.2,0-0.2c0-0.1,0-0.2,0-0.3
		c0-0.1,0-0.2-0.1-0.3c0-0.1-0.1-0.2-0.1-0.3s-0.1-0.2-0.2-0.2c-0.1-0.1-0.1-0.1-0.2-0.1c-0.1,0-0.2-0.1-0.3-0.1c-0.1,0-0.2,0-0.3,0
		c-0.1,0-0.2,0.1-0.2,0.1s-0.1,0.1-0.2,0.2c0,0.1-0.1,0.1-0.1,0.2c0,0.1,0,0.2-0.1,0.2s0,0.2,0,0.2c0,0.1,0,0.2,0,0.3
		c0,0.1,0,0.2,0.1,0.3c0,0.1,0.1,0.2,0.1,0.3c0.1,0.1,0.1,0.2,0.2,0.2c0.1,0.1,0.2,0.1,0.2,0.1S41.3,28.6,41.4,28.6z"/>
	<path d="M15.2,33.9c0.2,0,0.4-0.1,0.6-0.1c0.2,0,0.4-0.1,0.6-0.1s0.4,0,0.6-0.1s0.4,0,0.6,0c0.3,0,0.6,0,0.8,0.1
		c0.3,0,0.5,0.1,0.7,0.2c0.2,0.1,0.4,0.2,0.6,0.3s0.4,0.3,0.5,0.5c0.1,0.2,0.2,0.5,0.3,0.7c0.1,0.3,0.1,0.6,0.1,1c0,0.3,0,0.7-0.1,1
		s-0.2,0.6-0.3,0.9s-0.3,0.5-0.5,0.7s-0.4,0.4-0.6,0.6c-0.2,0.2-0.5,0.3-0.8,0.4C18.2,40,17.9,40,17.6,40c-0.2,0-0.3,0-0.5,0
		c-0.2,0-0.4-0.1-0.5-0.1L16,39.9l0,0c0-0.1,0-0.3,0-0.5s0-0.4,0-0.7c0-0.3,0-0.5,0-0.8s0-0.6,0-1s0-0.7,0-1.1c0-0.4,0-0.8,0-1.2
		c0-0.1,0-0.2,0-0.2s0-0.1-0.1-0.2c0,0-0.1-0.1-0.1-0.1s-0.1,0-0.2,0c-0.1,0-0.3,0-0.5,0L15.2,33.9z M16.8,34c0,0.1,0,0.2,0,0.4
		c0,0.2,0,0.4,0,0.6s0,0.5,0,0.8c0,0.3,0,0.6,0,0.9c0,0.3,0,0.6,0,0.9s0,0.6,0,0.8s0,0.5,0,0.7s0,0.4,0,0.5c0.2,0,0.3,0.1,0.5,0.1
		s0.3,0,0.4,0c0.3,0,0.6,0,0.8-0.1s0.4-0.2,0.6-0.3c0.2-0.1,0.3-0.3,0.5-0.5c0.1-0.2,0.2-0.4,0.3-0.6c0.1-0.2,0.1-0.5,0.2-0.7
		c0-0.3,0.1-0.5,0.1-0.8c0-0.4,0-0.8-0.1-1.1c-0.1-0.3-0.2-0.6-0.4-0.8c-0.2-0.2-0.5-0.4-0.8-0.6C18.3,34,18,34,17.5,34
		c-0.1,0-0.2,0-0.3,0S16.9,34,16.8,34z"/>
	<path d="M24.2,37.1c0-0.1,0-0.3-0.1-0.4c0-0.1-0.1-0.2-0.2-0.3s-0.2-0.1-0.3-0.1s-0.2,0-0.3,0c-0.1,0-0.2,0-0.3,0s-0.2,0.1-0.2,0.1
		c-0.1,0-0.1,0.1-0.1,0.2c0,0.1,0,0.1,0,0.2c0,0.1,0,0.2,0,0.3s0.1,0.2,0.1,0.3l0,0c-0.1,0.1-0.2,0.1-0.3,0.1c-0.1,0-0.1,0-0.2,0
		c-0.1,0-0.1,0-0.1-0.1s-0.1-0.1-0.1-0.1c0-0.1,0-0.1,0-0.2c0-0.1,0-0.2,0.1-0.3c0.1-0.1,0.1-0.2,0.2-0.3s0.2-0.1,0.3-0.2
		c0.1-0.1,0.2-0.1,0.3-0.2s0.2-0.1,0.4-0.1s0.2,0,0.3,0c0.2,0,0.3,0,0.5,0.1c0.1,0.1,0.2,0.1,0.3,0.2c0.1,0.1,0.1,0.2,0.2,0.3
		s0.1,0.3,0.1,0.5c0,0.1,0,0.2,0,0.4c0,0.1,0,0.3,0,0.4c0,0.2,0,0.3,0,0.5c0,0.2,0,0.3,0,0.5c0,0.3,0,0.5,0.1,0.6s0.2,0.2,0.4,0.2
		c0.1,0,0.3-0.1,0.5-0.2l0.1,0.1c-0.1,0.1-0.3,0.2-0.4,0.3C25.3,40,25.1,40,25,40c-0.1,0-0.2,0-0.3-0.1s-0.2-0.1-0.3-0.2
		c-0.1-0.1-0.1-0.2-0.2-0.3c0-0.1-0.1-0.3-0.1-0.4c0,0,0-0.1,0-0.1c0,0,0-0.1,0-0.1h0c-0.1,0.2-0.2,0.3-0.3,0.5s-0.2,0.3-0.3,0.4
		c-0.1,0.1-0.2,0.2-0.4,0.3C23,40,22.9,40,22.7,40c-0.1,0-0.2,0-0.3-0.1c-0.1,0-0.2-0.1-0.3-0.2c-0.1-0.1-0.1-0.2-0.2-0.3
		c0-0.1-0.1-0.2-0.1-0.3c0-0.2,0-0.3,0.1-0.4s0.1-0.2,0.2-0.3s0.2-0.2,0.4-0.3s0.3-0.1,0.5-0.2s0.3-0.1,0.5-0.1c0.2,0,0.4,0,0.6,0
		c0-0.1,0-0.2,0-0.3C24.2,37.4,24.2,37.2,24.2,37.1z M22.6,39c0,0.1,0,0.1,0,0.2s0,0.1,0.1,0.2s0.1,0.1,0.1,0.1c0.1,0,0.1,0,0.2,0
		c0.1,0,0.2,0,0.3-0.1c0.1,0,0.2-0.1,0.3-0.2c0.1-0.1,0.2-0.1,0.2-0.2s0.1-0.2,0.2-0.3c0.1-0.1,0.1-0.2,0.2-0.3
		c0-0.1,0.1-0.2,0.1-0.4c-0.1,0-0.3,0-0.4,0c-0.1,0-0.3,0-0.4,0.1s-0.2,0.1-0.3,0.1s-0.2,0.1-0.3,0.2c-0.1,0.1-0.1,0.2-0.2,0.2
		C22.6,38.7,22.6,38.8,22.6,39z"/>
	<path d="M28,34.1c-0.1,0.3-0.1,0.7-0.2,1.1c-0.1,0.4-0.1,0.7-0.1,1.1c0.1,0,0.2,0,0.2,0c0.1,0,0.2,0,0.2,0c0.1,0,0.1,0,0.2,0
		c0.1,0,0.1,0,0.1,0c0.2,0,0.3,0,0.4,0c0,0,0,0.1,0,0.1s0,0,0,0.1c0,0.1,0,0.1-0.1,0.2c-0.1,0-0.2,0-0.3,0c-0.1,0-0.3,0-0.4,0
		s-0.3,0-0.5,0c0,0.2,0,0.4,0,0.6c0,0.2,0,0.4,0,0.5c0,0.2,0,0.3,0,0.4s0,0.3,0,0.4c0,0.2,0,0.4,0,0.5c0,0.2,0.1,0.3,0.1,0.4
		c0.1,0.1,0.1,0.2,0.2,0.2c0.1,0.1,0.2,0.1,0.3,0.1c0.1,0,0.2,0,0.3-0.1c0.1,0,0.3-0.1,0.4-0.2c0,0,0.1,0.1,0.1,0.2
		c-0.1,0.1-0.2,0.1-0.3,0.2c-0.1,0.1-0.2,0.1-0.3,0.2c-0.1,0-0.2,0.1-0.3,0.1c-0.1,0-0.2,0-0.3,0c-0.1,0-0.2,0-0.3-0.1
		c-0.1,0-0.2-0.1-0.3-0.2c-0.1-0.1-0.1-0.3-0.2-0.5c0-0.2-0.1-0.4-0.1-0.7c0-0.2,0-0.3,0-0.5s0-0.3,0-0.5c0-0.2,0-0.4,0-0.5
		c0-0.2,0-0.4,0-0.5c-0.1,0-0.3,0-0.4,0c-0.1,0-0.2,0-0.3,0c0,0,0,0,0,0c0,0,0-0.1,0.1-0.1s0.1-0.1,0.2-0.1c0.1,0,0.1,0,0.2-0.1
		c0.1,0,0.2,0,0.3,0c0-0.4,0.1-0.7,0.1-1.1s0.1-0.6,0.1-0.9c0,0,0-0.1,0-0.1c0,0,0.1-0.1,0.1-0.1c0,0,0.1,0,0.1,0c0,0,0.1,0,0.1,0
		c0.1,0,0.1,0,0.2,0S27.9,34.1,28,34.1z"/>
	<path d="M32.6,39C32.6,39.1,32.6,39.1,32.6,39C32.6,39.1,32.7,39.1,32.6,39c0.1,0.1,0.1,0.1,0.1,0.1c0,0,0,0,0,0c0,0,0,0,0,0
		c-0.1,0.1-0.2,0.3-0.3,0.4s-0.2,0.2-0.4,0.3c-0.1,0.1-0.3,0.1-0.4,0.2s-0.3,0-0.4,0c-0.2,0-0.4,0-0.6-0.1c-0.2-0.1-0.3-0.2-0.5-0.4
		c-0.1-0.2-0.2-0.3-0.3-0.5c-0.1-0.2-0.1-0.4-0.1-0.7c0-0.2,0-0.4,0.1-0.6s0.1-0.4,0.2-0.5s0.2-0.3,0.3-0.5s0.2-0.3,0.4-0.4
		c0.1-0.1,0.3-0.2,0.5-0.3c0.2-0.1,0.4-0.1,0.6-0.1c0.1,0,0.3,0,0.4,0.1c0.1,0,0.2,0.1,0.3,0.2c0.1,0.1,0.2,0.1,0.2,0.2
		c0.1,0.1,0.1,0.2,0.1,0.3c0,0.2-0.1,0.3-0.2,0.5s-0.3,0.3-0.5,0.3c-0.2,0.1-0.5,0.2-0.7,0.2c-0.3,0.1-0.6,0.1-0.9,0.1v0
		c0,0.2,0,0.4,0.1,0.6s0.1,0.4,0.2,0.5c0.1,0.1,0.2,0.2,0.4,0.3c0.1,0.1,0.3,0.1,0.4,0.1c0.2,0,0.3,0,0.5-0.1S32.4,39.2,32.6,39z
		 M32.1,36.9c0-0.1,0-0.2,0-0.2c0-0.1-0.1-0.1-0.1-0.2c0-0.1-0.1-0.1-0.2-0.1c-0.1,0-0.1,0-0.2,0c-0.1,0-0.2,0-0.3,0.1
		c-0.1,0-0.2,0.1-0.3,0.2c-0.1,0.1-0.1,0.2-0.2,0.2c-0.1,0.1-0.1,0.2-0.1,0.3c0,0.1-0.1,0.2-0.1,0.3c0,0.1,0,0.2-0.1,0.3
		c0.3,0,0.5,0,0.7-0.1c0.2,0,0.4-0.1,0.5-0.2s0.2-0.2,0.3-0.2S32.1,37,32.1,36.9z"/>
	<path d="M22.6,44.6c0-0.1,0-0.1,0-0.2s0-0.1-0.1-0.1s-0.1-0.1-0.1-0.1c-0.1,0-0.1,0-0.2,0c-0.1,0-0.3,0-0.5,0l0-0.2
		c0.2,0,0.4-0.1,0.6-0.1s0.4-0.1,0.6-0.1c0.2,0,0.4,0,0.6-0.1c0.2,0,0.4,0,0.6,0c0.3,0,0.5,0,0.7,0.1c0.2,0,0.4,0.1,0.6,0.2
		c0.2,0.1,0.3,0.3,0.4,0.5c0.1,0.2,0.1,0.4,0.1,0.7c0,0.3-0.1,0.6-0.2,0.9c-0.1,0.3-0.3,0.5-0.5,0.7c-0.2,0.2-0.4,0.3-0.7,0.4
		s-0.6,0.1-0.9,0.1c-0.1,0-0.1,0-0.2,0s0-0.1,0-0.2v0c0,0,0,0,0,0c0.3,0,0.5,0,0.7-0.1s0.3-0.1,0.5-0.2c0.1-0.1,0.2-0.2,0.3-0.3
		c0.1-0.1,0.1-0.2,0.2-0.4c0-0.1,0.1-0.2,0.1-0.4c0-0.1,0-0.2,0-0.3c0-0.3,0-0.5-0.1-0.6c-0.1-0.2-0.2-0.3-0.3-0.4s-0.3-0.2-0.4-0.2
		C24.2,44,24,44,23.8,44c-0.1,0-0.2,0-0.3,0s-0.2,0-0.3,0c0,0.1,0,0.3,0,0.6c0,0.2,0,0.5,0,0.8c0,0.3,0,0.6,0,1s0,0.7,0,1.1
		c0,0.4,0,0.8,0,1.2c0,0.4,0,0.8,0,1.2L22.5,50l0,0c0-0.5,0-1,0.1-1.5s0-0.9,0-1.3c0-0.4,0-0.9,0-1.3C22.6,45.5,22.6,45,22.6,44.6z"
		/>
	<path d="M28.4,42.7c0,0.3-0.1,0.6-0.1,0.9c0,0.3-0.1,0.6-0.1,1s-0.1,0.7-0.1,1c0,0.3,0,0.7-0.1,1c0,0.3,0,0.6,0,0.9
		c0,0.3,0,0.6,0,0.9c0,0.2,0,0.3,0,0.5s0,0.2,0,0.3s0,0.2,0,0.2s0,0.1,0.1,0.1c0,0,0.1,0,0.1,0.1s0.1,0,0.1,0c0.1,0,0.2,0,0.3,0
		c0.1,0,0.2-0.1,0.3-0.1l0.1,0.1c-0.1,0.1-0.1,0.1-0.2,0.2s-0.2,0.1-0.3,0.1S28.2,50,28.1,50c-0.1,0-0.2,0-0.3,0
		c-0.1,0-0.2,0-0.2-0.1c-0.1,0-0.1-0.1-0.1-0.2c0-0.1,0-0.3-0.1-0.4c0-0.2,0-0.4,0-0.7c0-0.1,0-0.2,0-0.4s0-0.4,0-0.6
		c0-0.2,0-0.5,0-0.8c0-0.3,0-0.6,0-0.8c0-0.3,0-0.6,0-0.9c0-0.3,0-0.6,0-0.9c0-0.3,0-0.5,0-0.8s0-0.5,0-0.6c0,0,0-0.1,0-0.1
		c0,0,0.1-0.1,0.1-0.1c0,0,0.1,0,0.1,0c0,0,0.1,0,0.1,0C28.2,42.6,28.3,42.7,28.4,42.7z"/>
	<path d="M32.1,47.2c0-0.1,0-0.3-0.1-0.4c0-0.1-0.1-0.2-0.2-0.3s-0.2-0.1-0.3-0.1s-0.2,0-0.3,0c-0.1,0-0.2,0-0.3,0
		c-0.1,0-0.2,0.1-0.2,0.1c-0.1,0-0.1,0.1-0.1,0.2c0,0.1,0,0.1,0,0.2c0,0.1,0,0.2,0,0.3s0.1,0.2,0.1,0.3l0,0
		c-0.1,0.1-0.2,0.1-0.3,0.1c-0.1,0-0.1,0-0.2,0c-0.1,0-0.1,0-0.1-0.1c0,0-0.1-0.1-0.1-0.1s0-0.1,0-0.2c0-0.1,0-0.2,0.1-0.3
		c0.1-0.1,0.1-0.2,0.2-0.3c0.1-0.1,0.2-0.1,0.3-0.2c0.1-0.1,0.2-0.1,0.3-0.2s0.2-0.1,0.4-0.1s0.2,0,0.3,0c0.2,0,0.3,0,0.5,0.1
		c0.1,0.1,0.2,0.1,0.3,0.2s0.1,0.2,0.2,0.3c0,0.1,0.1,0.3,0.1,0.5c0,0.1,0,0.2,0,0.4s0,0.3,0,0.4c0,0.2,0,0.3,0,0.5
		c0,0.2,0,0.3,0,0.5c0,0.3,0,0.5,0.1,0.6s0.2,0.2,0.4,0.2c0.1,0,0.3-0.1,0.5-0.2l0.1,0.1c-0.1,0.1-0.3,0.2-0.4,0.3S33,50,32.9,50
		c-0.1,0-0.2,0-0.3-0.1c-0.1,0-0.2-0.1-0.3-0.2c-0.1-0.1-0.1-0.2-0.2-0.3c0-0.1-0.1-0.3-0.1-0.4c0,0,0-0.1,0-0.1c0,0,0-0.1,0-0.1h0
		c-0.1,0.2-0.2,0.3-0.3,0.5c-0.1,0.1-0.2,0.3-0.3,0.4s-0.3,0.2-0.4,0.3s-0.3,0.1-0.4,0.1c-0.1,0-0.2,0-0.3-0.1
		c-0.1,0-0.2-0.1-0.3-0.2c-0.1-0.1-0.1-0.2-0.2-0.3c0-0.1-0.1-0.2-0.1-0.3c0-0.2,0-0.3,0.1-0.4s0.1-0.2,0.2-0.3
		c0.1-0.1,0.2-0.2,0.4-0.3S30.8,48,31,48c0.2,0,0.3-0.1,0.5-0.1c0.2,0,0.4,0,0.6,0c0-0.1,0-0.2,0-0.3C32.1,47.4,32.1,47.3,32.1,47.2
		z M30.5,49c0,0.1,0,0.1,0,0.2s0,0.1,0.1,0.2s0.1,0.1,0.1,0.1c0.1,0,0.1,0,0.2,0c0.1,0,0.2,0,0.3-0.1c0.1,0,0.2-0.1,0.3-0.2
		c0.1-0.1,0.2-0.1,0.2-0.2c0.1-0.1,0.1-0.2,0.2-0.3c0.1-0.1,0.1-0.2,0.2-0.3s0.1-0.2,0.1-0.4c-0.1,0-0.3,0-0.4,0
		c-0.1,0-0.3,0-0.4,0.1s-0.2,0.1-0.3,0.1c-0.1,0-0.2,0.1-0.3,0.2c-0.1,0.1-0.1,0.2-0.2,0.2S30.5,48.9,30.5,49z"/>
	<path d="M35,46.8c0-0.1,0-0.1,0-0.2c0-0.1,0-0.1,0-0.1c0,0-0.1,0-0.1-0.1s-0.1,0-0.1,0c-0.1,0-0.1,0-0.2,0s-0.2,0-0.3,0.1l0-0.2
		c0.1,0,0.3-0.1,0.4-0.1c0.1,0,0.2-0.1,0.3-0.1c0.1,0,0.2,0,0.3-0.1c0.1,0,0.1,0,0.2,0c0.1,0,0.2,0,0.2,0.1c0.1,0.1,0.1,0.2,0.1,0.3
		c0,0,0,0.1,0,0.1s0,0.1,0,0.2c0,0.1,0,0.2,0,0.3c0,0.1,0,0.3,0,0.4c0,0.1,0,0.3,0,0.5c0,0.2,0,0.3,0,0.5l0,0
		c0.1-0.5,0.3-0.9,0.4-1.2c0.2-0.3,0.3-0.6,0.5-0.8c0.2-0.2,0.3-0.3,0.5-0.4s0.3-0.1,0.5-0.1c0.1,0,0.2,0,0.3,0.1
		c0.1,0,0.2,0.1,0.2,0.2c0.1,0.1,0.1,0.2,0.2,0.3s0.1,0.3,0.1,0.5c0,0.1,0,0.1,0,0.2c0,0.1,0,0.2,0,0.3c0,0.1,0,0.2,0,0.4
		c0,0.1,0,0.2,0,0.4c0,0.1,0,0.2,0,0.3c0,0.1,0,0.2,0,0.3c0,0.1,0,0.3,0,0.3c0,0.1,0,0.2,0.1,0.2c0,0.1,0.1,0.1,0.1,0.1s0.1,0,0.2,0
		c0.1,0,0.2,0,0.3,0c0.1,0,0.2-0.1,0.3-0.1l0.1,0.1c-0.1,0.1-0.1,0.1-0.2,0.2c-0.1,0.1-0.2,0.1-0.3,0.1S38.2,50,38.1,50
		c-0.1,0-0.2,0-0.3,0c-0.1,0-0.2,0-0.2-0.1s-0.1-0.1-0.1-0.2c0-0.1,0-0.2-0.1-0.3c0-0.1,0-0.2,0-0.4c0-0.2,0-0.3,0-0.5
		c0-0.2,0-0.3,0-0.5c0-0.2,0-0.3,0-0.4c0-0.1,0-0.2,0-0.3c0-0.2,0-0.4-0.1-0.5c-0.1-0.1-0.2-0.1-0.3-0.1c-0.1,0-0.2,0-0.3,0.1
		c-0.1,0.1-0.2,0.2-0.3,0.4c-0.1,0.2-0.2,0.3-0.3,0.5c-0.1,0.2-0.2,0.4-0.3,0.7c-0.1,0.2-0.2,0.5-0.2,0.8c-0.1,0.3-0.1,0.5-0.1,0.8
		L34.9,50l0,0c0-0.2,0-0.4,0-0.6c0-0.2,0-0.4,0-0.6c0-0.2,0-0.4,0-0.6c0-0.2,0-0.4,0-0.6c0-0.2,0-0.3,0-0.5S35,46.9,35,46.8z"/>
	<path d="M40.4,46.8c0-0.1,0-0.1,0-0.2c0-0.1,0-0.1,0-0.1c0,0-0.1,0-0.1-0.1s-0.1,0-0.1,0c-0.1,0-0.1,0-0.2,0s-0.2,0-0.3,0.1l0-0.2
		c0.1,0,0.3-0.1,0.4-0.1c0.1,0,0.2-0.1,0.3-0.1c0.1,0,0.2,0,0.3-0.1c0.1,0,0.1,0,0.2,0c0.1,0,0.2,0,0.2,0.1c0.1,0.1,0.1,0.2,0.1,0.3
		c0,0,0,0.1,0,0.1s0,0.1,0,0.2c0,0.1,0,0.2,0,0.3c0,0.1,0,0.3,0,0.4c0,0.1,0,0.3,0,0.5c0,0.2,0,0.3,0,0.5l0,0
		c0.1-0.5,0.3-0.9,0.4-1.2c0.2-0.3,0.3-0.6,0.5-0.8c0.2-0.2,0.3-0.3,0.5-0.4s0.3-0.1,0.5-0.1c0.1,0,0.2,0,0.3,0.1
		c0.1,0,0.2,0.1,0.2,0.2c0.1,0.1,0.1,0.2,0.2,0.3s0.1,0.3,0.1,0.5c0,0.1,0,0.1,0,0.2c0,0.1,0,0.2,0,0.3c0,0.1,0,0.2,0,0.4
		c0,0.1,0,0.2,0,0.4c0,0.1,0,0.2,0,0.3c0,0.1,0,0.2,0,0.3c0,0.1,0,0.3,0,0.3c0,0.1,0,0.2,0.1,0.2c0,0.1,0.1,0.1,0.1,0.1s0.1,0,0.2,0
		c0.1,0,0.2,0,0.3,0c0.1,0,0.2-0.1,0.3-0.1l0.1,0.1c-0.1,0.1-0.1,0.1-0.2,0.2c-0.1,0.1-0.2,0.1-0.3,0.1S43.6,50,43.5,50
		c-0.1,0-0.2,0-0.3,0c-0.1,0-0.2,0-0.2-0.1s-0.1-0.1-0.1-0.2c0-0.1,0-0.2-0.1-0.3c0-0.1,0-0.2,0-0.4c0-0.2,0-0.3,0-0.5
		c0-0.2,0-0.3,0-0.5c0-0.2,0-0.3,0-0.4c0-0.1,0-0.2,0-0.3c0-0.2,0-0.4-0.1-0.5c-0.1-0.1-0.2-0.1-0.3-0.1c-0.1,0-0.2,0-0.3,0.1
		c-0.1,0.1-0.2,0.2-0.3,0.4c-0.1,0.2-0.2,0.3-0.3,0.5c-0.1,0.2-0.2,0.4-0.3,0.7c-0.1,0.2-0.2,0.5-0.2,0.8c-0.1,0.3-0.1,0.5-0.1,0.8
		L40.3,50l0,0c0-0.2,0-0.4,0-0.6c0-0.2,0-0.4,0-0.6c0-0.2,0-0.4,0-0.6c0-0.2,0-0.4,0-0.6c0-0.2,0-0.3,0-0.5S40.4,46.9,40.4,46.8z"/>
	<path d="M48,49.1C48,49.1,48,49.1,48,49.1C48,49.1,48,49.1,48,49.1c0.1,0.1,0.1,0.1,0.1,0.1c0,0,0,0,0,0c0,0,0,0,0,0
		c-0.1,0.1-0.2,0.3-0.3,0.4c-0.1,0.1-0.2,0.2-0.4,0.3C47.3,49.9,47.2,50,47,50s-0.3,0-0.4,0c-0.2,0-0.4,0-0.6-0.1
		c-0.2-0.1-0.3-0.2-0.5-0.4s-0.2-0.3-0.3-0.5c-0.1-0.2-0.1-0.4-0.1-0.7c0-0.2,0-0.4,0.1-0.6s0.1-0.4,0.2-0.5
		c0.1-0.2,0.2-0.3,0.3-0.5s0.2-0.3,0.4-0.4c0.1-0.1,0.3-0.2,0.5-0.3c0.2-0.1,0.4-0.1,0.6-0.1c0.1,0,0.3,0,0.4,0.1
		c0.1,0,0.2,0.1,0.3,0.2c0.1,0.1,0.2,0.2,0.2,0.2s0.1,0.2,0.1,0.3c0,0.2-0.1,0.3-0.2,0.5s-0.3,0.3-0.5,0.3c-0.2,0.1-0.5,0.2-0.7,0.2
		c-0.3,0.1-0.6,0.1-0.9,0.1v0c0,0.2,0,0.4,0.1,0.6c0.1,0.2,0.1,0.4,0.2,0.5c0.1,0.1,0.2,0.2,0.4,0.3s0.3,0.1,0.4,0.1
		c0.2,0,0.3,0,0.5-0.1C47.6,49.4,47.8,49.3,48,49.1z M47.5,46.9c0-0.1,0-0.2,0-0.2c0-0.1-0.1-0.1-0.1-0.2c0-0.1-0.1-0.1-0.2-0.1
		c-0.1,0-0.1,0-0.2,0c-0.1,0-0.2,0-0.3,0.1s-0.2,0.1-0.3,0.2c-0.1,0.1-0.1,0.2-0.2,0.2S46,47,46,47.1s-0.1,0.2-0.1,0.3
		c0,0.1,0,0.2-0.1,0.3c0.3,0,0.5,0,0.7-0.1c0.2,0,0.4-0.1,0.5-0.2c0.1-0.1,0.2-0.2,0.3-0.2S47.5,47.1,47.5,46.9z"/>
	<path d="M49.7,50L49.7,50c0-0.2,0-0.4,0-0.6c0-0.2,0-0.4,0-0.6c0-0.2,0-0.4,0-0.6c0-0.2,0-0.4,0-0.6c0-0.2,0-0.3,0-0.5s0-0.3,0-0.3
		c0-0.1,0-0.1,0-0.2c0,0,0-0.1,0-0.1s0-0.1-0.1-0.1c0,0-0.1,0-0.1,0c0,0-0.1,0-0.1,0s-0.1,0-0.1,0c0,0-0.1,0-0.1,0c0,0-0.1,0-0.2,0
		l0-0.2c0.3-0.1,0.5-0.2,0.7-0.2S50,46,50.1,46c0.1,0,0.2,0,0.3,0.1c0.1,0.1,0.1,0.2,0.1,0.3c0,0,0,0,0,0.1c0,0.1,0,0.1,0,0.2
		c0,0.1,0,0.2,0,0.3c0,0.1,0,0.3,0,0.4s0,0.3,0,0.5s0,0.3,0,0.5l0,0c0.1-0.4,0.2-0.7,0.3-1c0.1-0.3,0.2-0.6,0.4-0.8
		c0.1-0.2,0.3-0.4,0.4-0.5s0.3-0.2,0.5-0.2c0.1,0,0.1,0,0.2,0c0.1,0,0.1,0.1,0.2,0.1c0,0,0.1,0.1,0.1,0.1s0,0.1,0,0.2
		c0,0.1,0,0.2-0.1,0.2s-0.1,0.1-0.2,0.2h0c-0.1-0.1-0.1-0.1-0.2-0.1c-0.1,0-0.1,0-0.2,0c-0.1,0-0.2,0-0.2,0c-0.1,0-0.1,0.1-0.2,0.1
		c-0.1,0.1-0.2,0.2-0.3,0.4c-0.1,0.2-0.2,0.3-0.2,0.5c-0.1,0.2-0.1,0.4-0.2,0.6c-0.1,0.2-0.1,0.4-0.2,0.6s-0.1,0.4-0.1,0.5
		c0,0.2,0,0.3-0.1,0.4L49.7,50z"/>
</g>
<g>
	<path d="M10.7,72.6c0.2,0.1,0.3,0.2,0.4,0.3c0.1,0.1,0.1,0.2,0.1,0.2c0,0-0.1,0.1-0.2,0c-0.1-0.1-0.3-0.2-0.4-0.3
		c-0.2,0.4-0.5,0.8-0.6,1.2c-0.5,1-0.7,1.6-0.7,2c0,0.2,0.1,0.4,0.2,0.5c0.1,0.1,0.2,0.1,0.3,0.1c0.3,0,0.7-0.2,0.8-0.4
		c0.1-0.1,0.1-0.1,0.1-0.1c0,0,0,0.1,0,0.2c-0.1,0.2-0.6,0.5-1,0.5c-0.1,0-0.2,0-0.4-0.1c-0.3-0.2-0.6-0.4-0.6-0.9
		c0-0.3,0.1-0.7,0.3-1.3c0.2-0.5,0.7-1.3,1.1-1.9c-0.3-0.1-0.8-0.3-1.3-0.4c-0.3,0.3-0.6,0.6-0.8,0.9c-1.6,1.8-2.9,3.3-4.9,3.7
		c-0.2,0-0.4,0.1-0.7,0.1c-1,0-2.1-0.4-2.1-1.7c0-1.7,2.6-3.1,5-3.3c0.5-0.1,1-0.1,1.4-0.1c0.7,0,1.4,0.1,1.9,0.2
		c1.2-1.2,2.4-2.2,2.8-2.5c0.5-0.3,0.8-0.4,1.1-0.3c0.2,0.1,0.3,0.3,0.1,0.5C12.3,70,11.4,71.3,10.7,72.6z M6.7,72
		c-0.6,0-1.2,0.1-1.9,0.2c-2,0.4-4.5,1.6-4.2,3.1c0.1,0.8,0.8,1,1.5,1c0.4,0,0.8-0.1,1.2-0.2c1.6-0.5,2.7-1.4,3.9-2.6
		C7.5,73,8,72.6,8.5,72.1C7.9,72,7.4,72,6.7,72z M11.7,69.5c-0.4,0.2-1.6,1.4-2.7,2.5c0.5,0.1,1,0.3,1.2,0.4
		c0.9-1.4,2.1-2.8,2.2-2.9c0.1-0.1,0.1-0.2,0-0.2C12.3,69.2,12,69.3,11.7,69.5z"/>
	<path d="M15.6,75.7c-0.7,0.5-1.3,1-1.7,1c-0.3,0-0.7-0.2-0.7-0.6c0-0.5,0.4-0.9,0.8-1.3c0.9-0.7,1.5-1.4,1.3-1.6
		c-0.2-0.2-0.6,0-1,0.3c-0.5,0.3-1,0.8-1.4,1.3c0,0-1.3,1.9-1.4,1.9c-0.1,0-0.4,0-0.3-0.1c0-0.2,0.5-0.8,1.3-1.9
		c0.7-1,1.2-1.6,1.3-1.7c0.1,0,0.4-0.1,0.4,0c0,0-0.1,0.3-0.4,0.6c0.3-0.2,1-0.8,1.6-0.7c0.3,0,0.4,0.2,0.4,0.5c0,0.3-0.2,0.7-0.5,1
		c-0.6,0.7-1.2,1.4-1.2,1.8c0,0.1,0,0.2,0.2,0.2c0.3,0,0.7-0.3,1.2-0.7c0.4-0.3,0.8-0.7,1.2-1.1c0.2-0.2,0.3,0,0.2,0.1
		C16.6,74.8,16.1,75.3,15.6,75.7z"/>
	<path d="M20.3,75.7c-0.7,0.5-1.3,1-1.7,1c-0.3,0-0.7-0.2-0.7-0.6c0-0.5,0.4-0.9,0.8-1.3c0.9-0.7,1.5-1.4,1.3-1.6
		c-0.2-0.2-0.6,0-1,0.3c-0.5,0.3-1,0.8-1.4,1.3c0,0-1.3,1.9-1.4,1.9c-0.1,0-0.4,0-0.3-0.1c0-0.2,0.5-0.8,1.3-1.9
		c0.7-1,1.2-1.6,1.3-1.7c0.1,0,0.4-0.1,0.4,0c0,0-0.1,0.3-0.4,0.6c0.3-0.2,1-0.8,1.6-0.7c0.3,0,0.4,0.2,0.4,0.5c0,0.3-0.2,0.7-0.5,1
		c-0.6,0.7-1.2,1.4-1.2,1.8c0,0.1,0,0.2,0.2,0.2c0.3,0,0.7-0.3,1.2-0.7c0.4-0.3,0.8-0.7,1.2-1.1c0.2-0.2,0.3,0,0.2,0.1
		C21.3,74.8,20.8,75.3,20.3,75.7z"/>
	<path d="M23.2,75.8c-0.3,0.3-1.2,0.9-1.7,0.9c-0.5-0.1-0.6-0.5-0.5-0.8c0.1-0.4,0.6-1.1,0.9-1.4c0.4-0.5,1.2-1.3,1.3-1.4
		c0.1,0,0.4-0.1,0.3,0c-0.1,0.2-0.6,0.9-1.1,1.6c-0.4,0.7-0.7,1.1-0.7,1.5c0,0.3,0.1,0.3,0.3,0.2c0.3-0.1,0.9-0.5,1.2-0.7
		c0.3-0.2,1-0.8,1.2-1.1c0.1-0.1,0.3,0,0.2,0.2C24.3,74.9,23.6,75.5,23.2,75.8z M24.2,71.9c-0.2,0.3-0.4,0.5-0.6,0.5
		c-0.1,0-0.1-0.2,0-0.5c0.2-0.3,0.4-0.5,0.6-0.5S24.4,71.6,24.2,71.9z"/>
	<path d="M29.6,74.7c-0.1,0.1-0.5,0.5-0.9,0.8c-0.3,0.2-0.6,0.4-1,0.4c-0.1,0-0.3,0-0.4-0.1c-0.1-0.1-0.2-0.2-0.3-0.3
		c-0.9,0.8-1.7,1.2-2.1,1.1c-0.4,0-0.6-0.2-0.7-0.6c-0.1-0.4,0.2-1,0.5-1.5c0.4-0.7,1.4-1.6,1.5-1.7c0,0,0.2-0.1,0.3,0
		c0,0-0.9,1.3-1.4,2.4C25,75.5,25,75.7,25,75.9c0,0.2,0.1,0.3,0.2,0.4c0.4,0.1,1.1-0.4,1.7-1c0-0.1,0-0.2,0-0.4c0-0.3,0.1-0.7,0.2-1
		c0.4-0.8,1.2-1.2,1.5-1.1c0.3,0.1-0.3,1.2-1.1,2.2c-0.1,0.1-0.2,0.2-0.2,0.3c0,0.1,0.1,0.2,0.2,0.2c0.1,0.1,0.2,0.1,0.3,0.1
		c0.4,0,0.7-0.3,0.9-0.5c0.2-0.2,0.5-0.5,0.7-0.7c0.1-0.1,0.1-0.1,0.2,0C29.7,74.5,29.7,74.6,29.6,74.7z M27.4,74.1
		c-0.1,0.3-0.2,0.7-0.2,1c0.1-0.1,0.1-0.1,0.2-0.2c0.6-0.7,1.1-1.5,0.9-1.7C28.2,73.1,27.8,73.3,27.4,74.1z"/>
	<path d="M34,74.7c-0.2,0.2-0.9,0.8-1.4,1.2c-0.4,0.3-1.4,0.8-2.1,0.8c-0.2,0-0.4,0-0.6-0.2c-0.3-0.2-0.4-0.4-0.4-0.8
		c0-0.5,0.3-1.2,0.9-1.8c0.7-0.8,1.7-1.3,2.3-1.3c0.1,0,0.3,0,0.3,0.1c0.3,0.3-0.6,1.2-1.2,1.6c-0.5,0.3-1,0.6-1.5,0.7
		c-0.1,0.2-0.1,0.3-0.1,0.5c0,0.2,0.1,0.4,0.3,0.5c0.1,0.1,0.3,0.1,0.5,0.1c0.5,0,1.2-0.4,1.5-0.6c0.4-0.3,1.1-0.9,1.4-1.2
		c0.1-0.1,0.2-0.2,0.2-0.1C34.1,74.5,34.1,74.6,34,74.7z M31,74.1c-0.2,0.2-0.5,0.6-0.6,0.9c0.4-0.1,0.8-0.3,1.3-0.6
		c0.6-0.4,1.3-1.1,1.1-1.3C32.7,72.9,31.8,73.3,31,74.1z"/>
	<path d="M37,75.7c-0.7,0.6-1.4,0.9-2,1c-0.4,0-0.7-0.1-0.8-0.3c-0.1-0.4,0.3-0.8,0.6-1.1c0.5-0.4,0.8-0.5,1.2-0.8
		c0.3-0.2,0.5-0.4,0.5-0.6c0-0.2-0.3-0.3-0.5-0.4c-0.1-0.1-0.2-0.2-0.2-0.2s-0.5,0.6-0.7,0.9c-0.2,0.2-0.6,0.7-0.9,0.9
		c-0.2,0.2-0.4,0-0.2-0.1c0.2-0.2,0.5-0.6,0.9-1c0.3-0.3,0.7-0.8,0.7-0.9c0-0.1-0.1-0.1,0-0.3c0.1-0.2,0.2-0.3,0.3-0.3
		c0.2,0,0.2,0.2,0.2,0.3c0,0.2-0.2,0.3-0.2,0.3s0.1,0.1,0.2,0.2c0.2,0.1,0.7,0.2,0.6,0.6c-0.1,0.5-1,1.3-1.6,2
		C35,76.1,35,76.3,35,76.4c0,0,0.1,0.1,0.1,0.1c0.3,0,1-0.3,1.7-0.8c0.5-0.4,0.9-0.7,1.2-1.1c0.1-0.2,0.3,0,0.2,0.1
		C38,74.9,37.5,75.3,37,75.7z"/>
	<path d="M40.3,75.9c-0.5,0.4-1,0.7-1.3,0.8c-0.2,0-0.3,0.1-0.5,0.1c-0.1,0-0.2,0-0.3,0c-0.5-0.1-0.7-0.5-0.7-0.9
		c0-0.1,0-0.3,0.1-0.4c0.1-0.3,0.3-0.5,0.5-0.5c0.1-0.1,0.3-0.3,0.6-0.5c0.2-0.2,0.6-0.6,0.8-0.8c0-0.1,0.1-0.2,0.1-0.3
		c0-0.1,0.1-0.3,0.2-0.5c0.1-0.2,0.3-0.3,0.5-0.2c0.2,0.1,0.1,0.5,0,0.6c-0.1,0.2-0.3,0.3-0.4,0.5c-0.1,0.2,0.2,0.9,0.2,1.5
		c0,0.2,0,0.4-0.1,0.6c0,0.1-0.1,0.2-0.2,0.3c0.2-0.1,0.5-0.4,0.8-0.6c0.3-0.3,0.9-0.8,1.1-1c0.1-0.2,0.3,0,0.2,0.2
		C41.6,74.8,41.1,75.3,40.3,75.9z M39.5,74c0,0-0.4,0.4-0.6,0.6c-0.1,0.1-0.3,0.3-0.5,0.5c0.1,0.2,0,0.3-0.1,0.4
		c-0.1,0-0.1,0.1-0.2,0.1c-0.1,0-0.1,0.1-0.2,0.2c-0.1,0.2,0,0.5,0.4,0.6c0.2,0,0.6-0.2,0.9-0.7c0.3-0.4,0.4-1.1,0.4-1.5
		C39.5,74.1,39.5,74,39.5,74z"/>
	<path d="M45.6,75.8c-0.3,0.2-1.1,0.9-1.7,0.9c-0.4,0-0.6-0.3-0.6-0.6c0-0.1,0-0.2,0-0.3c-0.4,0.5-0.9,0.8-1.3,0.8
		c-0.3,0-0.6-0.3-0.6-0.7c0-0.4,0.2-0.9,0.6-1.4c0.8-1.1,2.1-1.7,2.7-1.7c0.3,0,0.5,0.2,0.5,0.4c0,0,0,0,0,0.1
		c0.3-0.3,0.3-0.3,0.5-0.3c0.1,0,0.1,0,0.1,0c0,0.1-0.6,0.9-1.1,1.6c-0.5,0.7-0.7,1.2-0.7,1.6c0,0.1,0.1,0.2,0.2,0.2
		c0.3,0,1-0.5,1.3-0.8c0.3-0.2,1-0.8,1.2-1.1c0,0,0.1,0,0.1,0c0.1,0,0.1,0,0.1,0.1c0,0,0,0.1-0.1,0.1C46.7,74.9,46,75.5,45.6,75.8z
		 M45.1,73.3c0-0.2-0.1-0.3-0.3-0.3c-0.4,0-1,0.4-1.7,1.1c-0.7,0.8-1,1.5-1,1.9c0,0.2,0.1,0.3,0.2,0.3c0.4,0,1.2-0.9,1.6-1.4
		c0.4-0.5,0.7-0.9,1.1-1.3C45,73.6,45.1,73.5,45.1,73.3z"/>
	<path d="M49.8,75.7c-0.7,0.6-1.4,0.9-2,1c-0.4,0-0.7-0.1-0.8-0.3c-0.1-0.4,0.3-0.8,0.6-1.1c0.5-0.4,0.8-0.5,1.2-0.8
		c0.3-0.2,0.5-0.4,0.5-0.6c0-0.2-0.3-0.3-0.5-0.4c-0.1-0.1-0.2-0.2-0.2-0.2s-0.5,0.6-0.7,0.9c-0.2,0.2-0.6,0.7-0.9,0.9
		c-0.2,0.2-0.4,0-0.2-0.1c0.2-0.2,0.5-0.6,0.9-1c0.3-0.3,0.7-0.8,0.7-0.9c0-0.1-0.1-0.1,0-0.3c0.1-0.2,0.2-0.3,0.3-0.3
		c0.2,0,0.2,0.2,0.2,0.3c0,0.2-0.2,0.3-0.2,0.3s0.1,0.1,0.2,0.2c0.2,0.1,0.7,0.2,0.6,0.6c-0.1,0.5-1,1.3-1.6,2
		c-0.2,0.2-0.2,0.4-0.2,0.5c0,0,0.1,0.1,0.1,0.1c0.3,0,1-0.3,1.7-0.8c0.5-0.4,0.9-0.7,1.2-1.1c0.1-0.2,0.3,0,0.2,0.1
		C50.8,74.9,50.4,75.3,49.8,75.7z"/>
	<path d="M54.5,75.9c-0.5,0.4-1.2,0.7-1.8,0.9c-0.4,0.6-0.8,1.3-1.3,1.8c-1,1.3-2.1,1.6-2.4,1.4c-0.1-0.1-0.2-0.2-0.2-0.3
		c0-0.4,0.3-1.1,1-1.6c0.9-0.8,1.7-1.1,2.4-1.3c0.1-0.3,0.3-0.6,0.5-1c-0.1,0.1-0.3,0.3-0.3,0.3c-0.4,0.3-1,0.7-1.4,0.6
		c-0.5-0.1-0.5-0.5-0.5-0.8c0.1-0.4,0.6-1.1,0.9-1.4c0.4-0.5,1.2-1.4,1.3-1.5s0.3-0.1,0.3,0c0,0.2-0.6,0.9-1,1.6
		c-0.4,0.7-0.7,1.1-0.7,1.5c0,0.3,0.1,0.3,0.3,0.2c0.6-0.2,1.2-0.9,1.8-1.7c0.6-0.8,1.1-1.4,1.4-1.6c0.1,0,0.4-0.1,0.3,0
		c-0.8,1.1-1.5,2.3-2.2,3.5c0.5-0.2,1.1-0.5,1.5-0.8c0.5-0.4,1.2-1,1.4-1.2c0,0,0.1,0,0.2,0c0,0,0.1,0.1,0,0.1
		C55.7,74.9,55.1,75.4,54.5,75.9z M50.2,78.2c-0.5,0.4-0.9,1-0.9,1.4c0,0.1,0,0.2,0.1,0.3c0.2,0.1,1.1-0.3,1.8-1.2
		c0.3-0.4,0.7-1,0.9-1.5C51.5,77.3,50.8,77.6,50.2,78.2z"/>
</g>
<g>
	<path d="M28.5,84.8c0,1-0.8,2.3-1.9,2.9c-0.8,0.4-1.5,0.6-2.2,0.6c-1,0-1.5-0.4-1.5-0.8c0-0.7,0.9-1,1.5-1c0.5,0,1.1,0.2,1.1,0.4
		c0,0-0.1,0.1-0.1,0.1c0,0-0.1,0-0.1,0c-0.2-0.1-0.5-0.2-0.8-0.2c-0.6,0-1.2,0.3-1.2,0.7c0,0.3,0.5,0.5,1.2,0.5
		c0.6,0,1.2-0.2,1.9-0.5c0.9-0.5,1.5-1.4,1.5-2.2c0-0.8-0.7-1.3-1.5-1.3c-0.9,0-2.1,0.5-2.6,0.8c-0.4,0.9-1,2.1-1.4,2.9
		c-0.6,1.2-2,3.8-3,3.8c-0.3,0-0.5-0.3-0.5-0.6c0-1.2,1.5-4.1,4.5-6.1c0.5-1.2,0.4-1.4,0.6-1.4c0.1,0,0.1,0,0.1,0.2
		c0,0.1-0.1,0.4-0.3,1c0.7-0.5,2.1-1,3.1-1c0.4,0,0.7,0.1,1,0.2C28.3,83.9,28.5,84.3,28.5,84.8z M23,85.3c-1.1,0.9-2.3,2-3.3,3.8
		c-0.3,0.6-0.5,1.2-0.5,1.5c0,0.2,0.1,0.4,0.3,0.4c0.6,0,1.7-1.8,2.5-3.3c0.5-0.9,0.9-1.9,1.3-2.6C23.1,85.2,23,85.3,23,85.3z"/>
	<path d="M33,83.5c0,0.6-1.3,2.2-2.3,3.4c-1.2,1.3-2.1,2.1-2.7,2.4c-0.2,0.5-0.4,0.9-0.4,1.2c0,0.2,0.1,0.4,0.2,0.5
		c0.4,0.3,1.3-0.4,1.7-0.7c0.5-0.4,1-0.9,1.2-1.1c0.2-0.2,0.5-0.1,0.2,0.2c-0.3,0.3-0.8,0.8-1.4,1.2c-0.5,0.3-1.3,0.9-2,0.9
		c-0.1,0-0.2,0-0.3,0c-0.3-0.1-0.4-0.3-0.4-0.7c0-1.2,1.6-3.5,2.1-4.2c1.4-1.9,2.9-3.6,3.7-3.4C32.9,83.2,33,83.3,33,83.5z
		 M29.4,86.9c-0.3,0.5-0.8,1.3-1.1,2c0.4-0.3,1.3-1,2.3-2.2c1.1-1.3,2.5-2.9,1.9-3.1C31.9,83.5,30.1,85.6,29.4,86.9z"/>
	<path d="M35.1,90.5c-0.3,0.3-1.2,0.9-1.7,0.9c-0.4,0-0.6-0.3-0.6-0.6c0-0.1,0-0.2,0-0.3c-0.4,0.5-0.9,0.9-1.4,0.9
		c-0.4,0-0.6-0.3-0.6-0.8c0-0.4,0.2-0.9,0.6-1.5c0.9-1.1,2.2-1.8,2.9-1.8c0.4,0,0.5,0.2,0.5,0.4c0,0,0,0,0,0.1
		c0.3-0.3,0.3-0.3,0.5-0.3c0.1,0,0.1,0,0.1,0c0,0.1-0.7,0.9-1.1,1.7c-0.5,0.8-0.8,1.3-0.8,1.7c0,0.2,0.1,0.2,0.2,0.2
		c0.3,0,1-0.5,1.4-0.8c0.3-0.3,1-0.9,1.2-1.1c0,0,0.1,0,0.1,0c0.1,0,0.1,0,0.1,0.1c0,0,0,0.1-0.1,0.1C36.2,89.6,35.5,90.2,35.1,90.5
		z M34.6,87.9c0-0.2-0.1-0.3-0.3-0.3c-0.4,0-1.1,0.4-1.8,1.2c-0.7,0.8-1.1,1.6-1.1,2c0,0.2,0.1,0.3,0.2,0.3c0.4,0,1.2-0.9,1.7-1.5
		c0.4-0.5,0.7-0.9,1.1-1.4C34.5,88.1,34.6,88,34.6,87.9z"/>
	<path d="M40.2,90.4c-0.7,0.5-1.3,1-1.8,1c-0.3,0-0.7-0.2-0.7-0.6c0-0.5,0.4-1,0.8-1.3c0.9-0.8,1.6-1.5,1.3-1.7
		c-0.2-0.2-0.7,0-1.1,0.3c-0.5,0.3-1.1,0.8-1.5,1.3c0,0-1.4,2-1.5,2c-0.1,0-0.4,0-0.4-0.1c0-0.2,0.5-0.9,1.4-2
		c0.8-1.1,1.2-1.7,1.3-1.8c0.1,0,0.4-0.1,0.5,0c0,0-0.2,0.3-0.4,0.6c0.3-0.2,1.1-0.8,1.7-0.7c0.3,0,0.4,0.2,0.4,0.5
		c0,0.3-0.2,0.7-0.5,1c-0.7,0.8-1.2,1.5-1.3,1.9c0,0.1,0,0.2,0.3,0.2c0.3,0,0.8-0.3,1.2-0.7c0.4-0.3,0.9-0.7,1.3-1.2
		c0.2-0.2,0.4,0,0.2,0.1C41.3,89.5,40.8,90,40.2,90.4z"/>
	<path d="M45.1,90.4c-0.7,0.5-1.3,1-1.8,1c-0.3,0-0.7-0.2-0.8-0.6c0-0.5,0.4-1,0.8-1.3c0.9-0.8,1.6-1.5,1.3-1.7
		c-0.2-0.2-0.7,0-1.1,0.3c-0.5,0.3-1.1,0.8-1.5,1.3c0,0-1.4,2-1.5,2c-0.1,0-0.4,0-0.4-0.1c0-0.2,0.5-0.9,1.4-2
		c0.8-1.1,1.2-1.7,1.3-1.8c0.1,0,0.5-0.1,0.5,0c0,0-0.1,0.3-0.4,0.6c0.3-0.2,1.1-0.8,1.7-0.7c0.3,0,0.4,0.2,0.4,0.5
		c0,0.3-0.2,0.7-0.5,1c-0.7,0.8-1.2,1.5-1.3,1.9c0,0.1,0.1,0.2,0.3,0.2c0.3,0,0.8-0.3,1.3-0.7c0.4-0.3,0.9-0.7,1.3-1.2
		c0.2-0.2,0.4,0,0.2,0.1C46.2,89.5,45.7,90,45.1,90.4z"/>
	<path d="M48.2,90.5c-0.4,0.3-1.3,1-1.8,0.9c-0.5-0.1-0.6-0.5-0.5-0.8c0.1-0.5,0.7-1.2,0.9-1.5c0.4-0.5,1.2-1.4,1.4-1.5
		c0.1,0,0.4-0.1,0.3,0c-0.1,0.2-0.7,0.9-1.1,1.6c-0.5,0.7-0.7,1.2-0.8,1.6c0,0.3,0.1,0.3,0.3,0.3c0.4-0.1,0.9-0.5,1.2-0.8
		c0.3-0.3,1-0.9,1.2-1.1c0.1-0.1,0.3,0,0.2,0.2C49.3,89.6,48.6,90.2,48.2,90.5z M49.3,86.3c-0.2,0.3-0.4,0.6-0.6,0.6
		c-0.1,0-0.1-0.3,0.1-0.6c0.2-0.3,0.4-0.6,0.6-0.6C49.5,85.8,49.5,86,49.3,86.3z"/>
	<path d="M53.3,90.4c-0.7,0.5-1.3,1-1.8,1c-0.3,0-0.7-0.2-0.8-0.6c0-0.5,0.4-1,0.8-1.3c0.9-0.8,1.6-1.5,1.3-1.7
		c-0.2-0.2-0.7,0-1.1,0.3c-0.5,0.3-1.1,0.8-1.5,1.3c0,0-1.4,2-1.5,2c-0.1,0-0.4,0-0.4-0.1c0-0.2,0.5-0.9,1.4-2
		c0.8-1.1,1.2-1.7,1.3-1.8c0.1,0,0.5-0.1,0.5,0c0,0-0.1,0.3-0.4,0.6c0.3-0.2,1.1-0.8,1.7-0.7c0.3,0,0.4,0.2,0.4,0.5
		c0,0.3-0.2,0.7-0.5,1c-0.7,0.8-1.2,1.5-1.3,1.9c0,0.1,0.1,0.2,0.3,0.2c0.3,0,0.8-0.3,1.3-0.7c0.4-0.3,0.9-0.7,1.3-1.2
		c0.2-0.2,0.4,0,0.2,0.1C54.4,89.5,53.9,90,53.3,90.4z"/>
	<path d="M58.2,90.6c-0.5,0.4-1.2,0.8-1.9,1c-0.4,0.7-0.9,1.3-1.3,1.9c-1,1.4-2.2,1.7-2.6,1.5c-0.1-0.1-0.2-0.2-0.2-0.4
		c0-0.4,0.4-1.1,1.1-1.7c0.9-0.8,1.8-1.1,2.6-1.4c0.3-0.6,0.5-1,0.5-1c-0.4,0.4-1,0.9-1.5,0.9c-0.4,0-0.6-0.3-0.6-0.8
		c0-0.4,0.2-0.9,0.6-1.5c0.9-1.1,2.2-1.8,2.9-1.8c0.1,0,0.2,0,0.3,0c0.2,0.1,0.2,0.3,0.2,0.4c0.1-0.1,0.3-0.2,0.3-0.3
		c0.1,0,0.4-0.1,0.3,0c-0.8,1.2-1.6,2.5-2.3,3.7c0.6-0.2,1.2-0.6,1.5-0.8c0.6-0.4,1.2-1.1,1.4-1.3c0,0,0.1,0,0.2,0
		c0.1,0,0.1,0.1,0,0.1C59.5,89.6,58.8,90.1,58.2,90.6z M53.6,93c-0.5,0.5-0.9,1.1-0.9,1.5c0,0.1,0,0.2,0.1,0.3
		c0.3,0.1,1.1-0.3,1.9-1.3c0.3-0.5,0.7-1.1,1-1.6C55.1,92,54.3,92.4,53.6,93z M58,87.9c0-0.1,0-0.2-0.1-0.3
		c-0.3-0.2-1.2,0.3-1.9,1.2c-0.7,0.8-1.1,1.6-1.1,2c0,0.2,0.1,0.3,0.2,0.3c0.3,0.2,1.3-0.9,1.7-1.5c0.4-0.5,0.7-0.9,1.1-1.4
		C58,88.1,58,88,58,87.9z"/>
</g>
</svg>
