<svg viewBox="0 0 183 398" xmlns="http://www.w3.org/2000/svg" xmlns:xlink="http://www.w3.org/1999/xlink"><defs><path id="a" d="M0 398.02h182.15V0H0z"/></defs><g fill="none" fill-rule="evenodd"><path d="M171.48 3.03c.98.57 1.67 1.33 1.67 1.76 0 .72-.25.98-1.12 1.12-.37.07-.73.18-1.13.29a78.11 78.11 0 0 1-7.94 2.38c-3.3.83-6.53 1.37-7.47 1.37-.3 0-.58-.15-.58-.43 0-.22.22-.4.72-.5 2.94-.7 4.86-1.3 7.18-2.1 2.5-.9 4.54-1.77 5.88-2.56.47-.29.69-.43.69-.61s-.5-.61-1.16-.94c-.36-.18-.4-.21-.4-.32 0-.18.5-.4.87-.4.65 0 1.89.4 2.8.94m2.68 9.87c.54-.03.87-.21 1.2-.4.28-.17.68-.32 1.2-.32a6 6 0 0 1 2.31.72c.66.36 1.13.87 1.13 1.34 0 .46-.51.79-1.02.79-.58 0-.94-.04-1.7-.1-1.27-.12-2.58-.19-3.56-.19-1.05 0-3.33.11-5.66.25-.32 4.15-1.16 7.36-2.86 10.06a17.26 17.26 0 0 1-7.36 6.6c-.33.14-.58.25-.84.25-.29 0-.5-.15-.5-.4s.21-.43.72-.76a18.17 18.17 0 0 0 6.06-6.66c1.41-2.64 2.06-5.55 2.25-8.9-2.69.25-5.26.57-8.17 1.11-.58.1-.9.22-1.23.43-.29.18-.69.33-1.05.33-.62 0-1.52-.62-2.36-1.48-.58-.61-.87-1.23-.87-1.66 0-.57.11-.79.25-.79.19 0 .26.1.51.36.8.72 1.49 1.08 2.36 1.08.47 0 1.45-.1 2.47-.22l8.12-.82c.04-.87.04-1.55.04-1.99 0-.72-.11-.93-.47-1.15a3.84 3.84 0 0 0-1.38-.43c-.3-.04-.4-.11-.4-.29 0-.14.14-.29.4-.43.4-.22 1.09-.4 1.52-.4.62 0 1.63.32 2.5.69.73.28.91.68.91 1.04 0 .29-.14.54-.33.83-.1.18-.21.43-.21.68-.04.47-.04.87-.08 1.3 2.47-.18 4.18-.32 6.1-.47m-9.47 49.71c0-1.55-.14-2.05-.47-2.41a4.5 4.5 0 0 0-1.52-1.01c-.26-.11-.4-.22-.4-.36 0-.11.22-.33.47-.44a2.7 2.7 0 0 1 1.01-.18c.3 0 .98.15 2 .69 1.96 1.04 2.4 1.73 2.4 2.38 0 .47-.22.72-.48 1-.29.3-.43.8-.47 1.27-.07.68-.07 1.44-.07 1.98l-.04 6.45c-.03 3.35 0 6.78.04 9.12 0 2.34.03 3.03.03 3.57 0 1.08-.43 1.58-1.16 1.58-.5 0-.94-.28-1.34-.97-.4-.83-.58-1.7-.58-2.63 0-.22.1-.61.22-.94.14-.4.25-1.3.29-2.23.07-2.74.07-5.62.07-9.01V62.6zm12.37 48.88c.98.25 1.89.69 2.9 1.4.87.62 1.67 1.45 1.67 2.28 0 .72-.44 1.15-.98 1.15-.47 0-.76-.18-1.16-.86a11.02 11.02 0 0 0-3.34-3.4c-.14-.06-.25-.21-.25-.35 0-.18.14-.36.36-.36.18 0 .47.07.8.14m-3.16 2.42c.98.28 2.07.82 3.16 1.8.87.75 1.38 1.4 1.38 2.16 0 .58-.36 1.08-1.02 1.08-.47 0-.87-.32-1.2-.97-.54-1.08-1.99-2.67-3.04-3.46-.15-.11-.26-.25-.26-.36 0-.18.15-.36.4-.36.22 0 .48.07.58.1m2.03 20.12c1.27 1.22 2.25 2.41 2.25 3.38 0 .98-.61 1.52-1.48 1.52-.51 0-.98-.33-1.56-1.12a26.34 26.34 0 0 0-8.6-8 37.18 37.18 0 0 1-7.07 6.09 34.29 34.29 0 0 1-7.07 3.68c-.37.14-.73.25-.98.25-.22 0-.4-.25-.4-.43s.14-.4.36-.5a45.6 45.6 0 0 0 11.75-8.84 45.17 45.17 0 0 0 6.86-9.15c.1-.18.14-.25.14-.33 0-.07-.07-.07-.29-.07-1.67.1-5.8.65-9.46 1.37-.73.14-1.2.29-1.5.47-.32.18-.54.36-1.04.36-.62 0-1.5-.61-2.25-1.66-.7-.94-.98-1.44-.98-2.05 0-.36.18-.76.36-.76.15 0 .4.22.62.43.94.9 1.6 1.37 2.4 1.37.57 0 1.8-.1 2.86-.21 2.83-.3 5.84-.58 8.48-.94.62-.07.91-.25 1.24-.54.25-.25.5-.4.87-.4.54 0 .94.18 1.7.87.98.9 1.27 1.3 1.27 1.73 0 .36-.18.5-.9.79-.51.18-1.1.65-1.53 1.33a58.53 58.53 0 0 1-4.64 6.27c3.34 1.37 6.46 3.03 8.6 5.09m-4.35 39.83c.43-.07.8-.22 1.12-.54.29-.29.54-.4.72-.4.4 0 .84.22 1.67.87.94.72 1.34 1.19 1.34 1.7 0 .5-.29.71-.76.96-.4.22-.83.65-1.3 1.41a81.13 81.13 0 0 1-4.14 6.27c2.47 1.7 3.37 3.1 3.37 4.11 0 .68-.5 1.37-1.2 1.37-.54 0-.94-.25-1.59-1.05-.72-1-1.3-1.69-2.14-2.48-3.84 4.75-9.07 8.93-14.9 11.1-.19.07-.4.14-.55.14-.25 0-.5-.18-.5-.43s.14-.43.46-.61a43.35 43.35 0 0 0 13.82-11.72 23.29 23.29 0 0 0-4.35-2.56c-.25-.1-.4-.28-.4-.4 0-.17.15-.39.36-.39.18 0 .55.04.84.11 1.27.25 2.72.76 4.79 1.62a59.33 59.33 0 0 0 4.28-7.06c.07-.18.1-.33.1-.44 0-.1-.03-.21-.25-.21-.62.03-2.25.36-3.55.61-.87.14-1.5.29-2 .29-.58 0-1.12-.15-1.85-.4a70.92 70.92 0 0 1-4.46 5.44 28.47 28.47 0 0 1-5.26 4.7.96.96 0 0 1-.54.17c-.26 0-.58-.14-.58-.47 0-.14.07-.36.29-.57 1.77-1.7 3.59-3.68 5.26-5.8.9-1.2 2.75-3.76 3.8-5.7.62-1.16.84-1.84.84-2.2 0-.22-.07-.4-.3-.61a3.5 3.5 0 0 0-1.15-.69c-.26-.1-.33-.18-.33-.36s.58-.54 1.2-.54c.65 0 1.52.29 2.4.87 1.12.72 1.55 1.33 1.55 1.83s-.18.73-.5.98c-.37.25-.55.43-.73.68-.26.36-.55.76-.84 1.2a50.8 50.8 0 0 0 5.95-.8m-4.53 55.69c.9.54 1.41.97 1.41 1.62 0 .33-.14.65-.4.9-.14.15-.32.61-.32 1.12-.11 3.75-.15 7-.18 11.06 0 .3.1.44.18.44.1 0 .29-.04.61-.18 4.61-1.99 8.5-4.5 12.7-7.82.25-.22.4-.37.62-.37.18 0 .47.3.47.5 0 .15-.15.37-.26.48-3.19 3.71-7.25 6.7-12.84 9.84-.36.21-.54.47-.72.75-.22.4-.4.54-.76.54-.51 0-.98-.32-1.64-1.11-.5-.65-.87-1.23-.87-1.77a2 2 0 0 1 .11-.61c.08-.25.18-.72.18-1.37.04-3.28.04-6.88 0-10.53 0-1.3 0-1.83-.25-2.34-.22-.47-.8-.9-1.74-1.22-.22-.08-.36-.15-.36-.33 0-.36.9-.68 1.52-.68.33 0 1.34.36 2.54 1.08m-8.49 4.07c-.4-.32-.83-.54-1.38-.76-.18-.07-.29-.18-.29-.32 0-.29.66-.5 1.2-.5.76 0 1.7.4 2.94 1.22.76.5 1.3 1.08 1.3 1.62 0 .33-.14.62-.47.9-.32.33-.43.65-.61 1.23a25.1 25.1 0 0 1-3.38 7 22.3 22.3 0 0 1-6.3 6.01c-.23.1-.44.25-.66.25-.18 0-.44-.25-.44-.47 0-.18.08-.28.37-.54a25.98 25.98 0 0 0 7.8-12.36c.25-.94.4-1.66.4-2.2 0-.47-.15-.79-.48-1.08m6.31 64.74c0 2.09.11 6.42.11 8.72 0 1.08-.47 1.44-1.01 1.44-.44 0-.8-.14-1.16-.72a5.99 5.99 0 0 1-.8-2.66c0-.33.18-.69.25-.98.04-.18.15-.57.18-1.7.08-1.94.11-3.49.15-6.88.03-3.5.03-6.8.03-10.12 0-1.2-.03-2.27-.18-2.78-.1-.29-.32-.54-.72-.76a6.33 6.33 0 0 0-1.38-.54c-.26-.07-.36-.18-.36-.32s.18-.29.36-.4c.29-.18.8-.36 1.12-.36.84 0 1.74.3 2.94.87.87.43 1.45 1 1.45 1.66 0 .4-.18.72-.5 1.11-.19.26-.3.5-.33 1.26-.07 1.37-.15 3.46-.15 6.06 1.82.14 4.14.61 6.02 1.37 2.54 1.04 3.56 2.23 3.56 3.5 0 .97-.58 1.5-1.16 1.5-.62.04-1.02-.2-1.82-1.1a15.4 15.4 0 0 0-6.6-4.15v5.98zm-2.79 48.09c-.18-1.88-.22-4.55-.36-7.57-.04-.8-.08-1.05-.33-1.34a2.05 2.05 0 0 0-1.02-.46c-.4-.08-.54-.08-.87-.11-.18-.04-.25-.07-.25-.22 0-.22.25-.5.44-.61.47-.33.83-.5 1.34-.5 1.05 0 2.32.64 3.15 1.36.47.44.7.8.7 1.3 0 .4-.23.61-.4.87-.12.18-.22.43-.26.86a47.8 47.8 0 0 0-.1 6.92c.06.94.32 1.55.9 1.55.25 0 .87-.1 1.2-.25a79.55 79.55 0 0 0 5.04-2.38c.32-.18.47-.29.47-.54 0-.4-.55-.97-1.16-1.37-.22-.14-.33-.18-.33-.29 0-.14.36-.43.76-.43.8 0 1.82.72 2.65 1.48.76.68 1.23 1.37 1.23 1.94 0 .65-.54.94-1.12 1.08a64.48 64.48 0 0 0-7.84 2.49 22.5 22.5 0 0 0-5.4 2.96c-1.67 1.26-2.47 2.63-2.47 4.21 0 1.2.73 2.13 1.82 2.7 1.27.69 3.12.87 5.8.87 1.89 0 3.74-.22 5.44-.54.58-.1 1.2-.4 1.81-.4.51 0 1.06.11 1.56.33.8.36 1.2.8 1.2 1.37 0 .72-.43 1.04-2 1.3a52.5 52.5 0 0 1-6.78.36c-2.75.03-5.8-.44-7.54-1.34-1.85-.97-2.94-2.34-2.94-4.43 0-1.7.73-3 1.78-4.22 1.23-1.4 3.15-2.74 5.26-3.93-.8-.6-1.24-1.3-1.38-3.02M81.58 15.86c0 .76-.5 1.12-1.63 1.12-.84 0-1.2-.33-1.2-.94 0-.65.18-2.52.18-6.92 0-2.74 0-3.75-.18-5.59 3.63.43 4.17.58 4.17 1.08 0 .36-.25.65-1.34 1.05v8.61h8.52V7.64c0-3.82-.03-5.98-.25-7.32 3.88.37 4.32.69 4.32 1.12 0 .36-.33.69-1.38 1.08v11.75h8.67v-6.3c0-1.95 0-2.85-.19-4.44 3.45.4 4.1.62 4.1 1.16 0 .32-.25.57-1.27.97v2.56c0 4.58.15 6.77.15 7.46 0 .83-.51 1.22-1.6 1.22-.87 0-1.2-.32-1.2-.97v-.76H92.8V29.6h10.33v-6.02a31 31 0 0 0-.21-4.36c3.62.36 4.2.54 4.2 1.08 0 .36-.29.65-1.3 1.05V24c0 4.76.14 7.1.14 7.82 0 .83-.54 1.23-1.7 1.23-.84 0-1.13-.29-1.13-1v-1.56h-23.1v1.33c0 .87-.5 1.3-1.67 1.3-.83 0-1.2-.32-1.2-1.08 0-.65.19-2.74.19-7.53 0-2.63.03-3.43-.19-5.26 3.38.32 4.1.57 4.1 1.04 0 .36-.25.61-1.23 1.05v8.25H90.1V15.17h-8.52v.69zm1.59 53.02c1.13.22 1.78.25 2.72.25h7.95c1.45-1.69 1.7-1.87 1.92-1.87.25 0 .47.18 2 1.44.68.54.87.76.87 1.01 0 .22-.15.33-.51.33H85.86c-.8 0-1.34.07-2.32.21l-.37-1.37zm6.9 7.28a53.04 53.04 0 0 1-5.48 8.4c4.79-.07 9.57-.36 14.33-.8a17.74 17.74 0 0 0-3.81-4.64c-.15-.11.07-.43.25-.36 4.68 1.94 7.87 5.19 7.87 7.57 0 1-.61 1.83-1.49 1.83-.76 0-1.01-.28-1.7-2.01a16.8 16.8 0 0 0-.72-1.63C92.6 86 88.03 86.65 79.98 87.41c-.29 1.04-.47 1.3-.83 1.3-.44 0-.55-.19-1.56-4.3 1.23.15 1.85.19 3.4.19.84 0 1.6 0 2.37-.04 1.3-2.63 2.39-5.51 3.04-8.4h-6.89c-.87 0-1.52.07-2.5.22L76.65 75c1.12.22 1.88.25 2.86.25h22.09c1.63-1.94 1.89-2.09 2.1-2.09.26 0 .51.15 2.25 1.55.76.65.95.9.95 1.12 0 .21-.15.32-.48.32H90.07zm10.33-10.23a25.47 25.47 0 0 0 8.45 3.38c.19.04.11.4-.07.44-.9.1-1.45.68-1.92 2.12-.1.4-.29.54-.54.54-.22 0-.73-.21-1.46-.6a31.54 31.54 0 0 1-6.05-4.12c-2.72-2.38-4.9-5.19-7.15-9.37-3.73 6.6-8.78 11.07-16.68 14.6-.22.1-.47-.4-.26-.54 5.55-3.46 9.98-8 12.73-12.72a24.1 24.1 0 0 0 1.93-4.22c3.66 1.04 4.17 1.3 4.17 1.7 0 .28-.26.46-1.27.68a26.31 26.31 0 0 0 8.12 8.1zm6.02 61.35c0 3.1-1.92 5-4.28 6.38-2.79 1.62-6.63 2.41-9.64 2.73-.33.04-.66.04-.95.04-.4 0-.61-.22-.61-.43 0-.22.14-.54.58-.61 3.04-.58 5.87-1.37 8.3-2.82 2.43-1.44 3.92-3.28 3.92-5.73 0-3.06-2.1-4.83-5.19-4.83-1.52 0-3.15.47-4.82 1.34-1.41.75-2.9 1.76-4.46 2.85a7.89 7.89 0 0 0-1.56 1.44c-.18.29-.58.54-1.02.54-.8 0-1.88-.8-2.5-1.59-.5-.61-.9-1.22-.9-1.9 0-.51.14-.73.32-.73.15 0 .29.14.5.36.66.58 1.1.97 1.57.97.25 0 .65-.03 1.2-.28 1.99-.98 3.95-2.02 5.87-2.85 2.14-.94 3.99-1.48 5.88-1.48 4.35 0 7.8 2.45 7.8 6.6M94.1 175.07c-4 1.23-8.1 2.6-10.89 3.57-.5.18-1.09.43-1.56.83-.25.22-.5.36-.98.36-.61.04-1.48-.43-2.43-1.51-.58-.69-1.05-1.37-1.09-2.02 0-.5.15-.9.33-.9.18 0 .33.14.47.29 1.05 1.04 1.6 1.26 2.72 1.26a13 13 0 0 0 2.18-.4c5.26-1.33 10.7-2.74 16.03-4.1a4.36 4.36 0 0 0 1.41-.55c.37-.21.7-.32 1.24-.36.72 0 1.6.25 2.36.61.5.22.97.58.97 1.12.04.76-.36 1.08-1.26 1.12-2.36.07-4.47.18-6.39.8-2.17.68-3.77 1.8-5.22 3.34a10.35 10.35 0 0 0-2.87 7 6.78 6.78 0 0 0 2.5 5.4c2 1.55 4.87 2.13 6.64 2.2.95.04 1.6.1 2.5.61.77.44.99.94.99 1.55 0 .62-.4 1.05-1.93 1.05-2.6 0-6.13-1.01-8.48-2.67a8.68 8.68 0 0 1-3.88-7.14c0-2.3.5-4.32 1.63-6.16a15.48 15.48 0 0 1 5.04-5.15l-.04-.15z" fill="#FFF"/><mask id="b" fill="#fff"><use xlink:href="#a"/></mask><path d="M89.3 251.85H102v-8.54H89.3v8.54zm0 1.91c0 .8-.54 1.15-1.6 1.15-.75 0-1.08-.25-1.08-.9 0-.83.11-2.27.11-7.13 0-2.63 0-4.15-.22-5.99 1.38.5 1.96.83 3.16 1.52h4.53V235h-6.56c-.84 0-1.53.08-2.5.22l-.37-1.36c1.13.21 1.85.25 2.87.25h6.56v-6.74c-2.8.47-5.66.72-8.45.83-.25 0-.33-.5-.07-.55 4.42-.6 9.9-2.09 13.53-3.7a12.5 12.5 0 0 0 3.19-1.92c2.1 1.66 2.68 2.24 2.68 2.56 0 .3-.36.58-1.74.25a40.33 40.33 0 0 1-6.53 2.02v7.25h6.35c1.6-1.91 1.85-2.1 2.07-2.1.25 0 .47.19 2.14 1.6.72.6.87.82.87 1.04 0 .25-.11.36-.47.36H96.8v7.39h4.9c1.2-1.26 1.38-1.4 1.6-1.4.25 0 .43.14 1.63 1.07.54.5.69.72.69.94 0 .25-.08.4-1.02 1.04v2.2c0 4.44.15 6.67.15 7.32 0 .8-.55 1.15-1.6 1.15-.87 0-1.16-.32-1.16-.94v-1.04H89.3v1.01zm-8.66-26.6a9.12 9.12 0 0 0-3.16-3.64c-.1-.07.04-.29.18-.29 3.48.44 5.7 2.02 5.7 3.82 0 1.01-.62 1.55-1.27 1.55-.7 0-.95-.32-1.45-1.44zm-2.69 8.25a7.88 7.88 0 0 0-2.94-3.53c-.1-.07.04-.36.18-.32 3.38.47 5.56 1.98 5.56 3.71 0 .97-.58 1.66-1.38 1.66-.62 0-.95-.43-1.42-1.52zm-.22 17.38c0-1.26.26-2.38.26-3.68 0-2.05-.47-2.67-2.9-3.32-.22-.07-.15-.54.07-.5.87.14 1.2.18 1.56.18.69 0 1.2-.18 1.74-1.15 1.38-2.45 3.48-6.85 5.88-12.65.07-.18.5 0 .43.18-1.6 5-2.9 8.8-4.46 13.15a7.9 7.9 0 0 0-.47 2.27c0 1.59 1.27 3.39 1.27 5.08 0 1.44-.8 2.35-1.85 2.35-.98 0-1.53-.65-1.53-1.91zm16.4 38.57c1.3-.54 2.72-1.23 3.52-1.73.14-.11.18-.18.18-.3 0-.06-.07-.17-.18-.28-.4-.43-.8-.76-1.38-1.26-.18-.14-.26-.25-.26-.4 0-.1.19-.29.33-.29.15 0 .25.08.5.22.52.29 1.06.5 1.57.69.32.1.65.21 1.12.21.47-.03.8-.1 1.2-.07.58.04.87.36.87.76s-.18.68-.65 1a31.51 31.51 0 0 1-6.06 3.1 26.76 26.76 0 0 0 3.3 5.01c.94 1.05 1.2 1.55 1.2 2.6 0 1.3-.58 1.73-.95 1.73-.36 0-.61-.07-.97-.43a5.45 5.45 0 0 0-2.33-1.48c-1.7-.5-3.62-.8-5.44-.8-1.92 0-3.4.4-4.35.98-.87.5-1.52 1.33-1.52 2.23 0 1.37.58 2.42 2.9 3.1 1.49.44 3.15.69 4.97.69l2.61-.04c.54 0 .87.04 1.34.36.4.3.55.76.55 1.2 0 .46-.22.9-.8 1.04-.62.14-1.49.18-2.32.18-2.4 0-4.86-.58-6.71-1.23-2.65-.97-4.14-2.63-4.14-4.83 0-1.55.76-2.8 2.21-3.67 1.46-.83 3.41-1.34 6.28-1.34 1.2 0 3.45.18 5.37.4-.73-1.4-1.63-3.06-2.69-5.15a21.95 21.95 0 0 1-6.63 1.26c-2.07 0-3.49-.69-3.49-2.3 0-.7.26-1.3.7-1.92.21-.29.4-.32.5-.32.15 0 .33.1.33.25 0 .1-.04.25-.11.4a2.8 2.8 0 0 0-.22 1.11c0 .76.3 1.08 1.81 1.08 2.25 0 4.32-.57 6.39-1.26l-1.82-4.61c-1.77.5-3.84 1.04-5.84 1.04-1.01 0-2.06-.1-2.9-.43a3.5 3.5 0 0 1-1.88-1.3.86.86 0 0 1-.18-.43c0-.18.18-.29.32-.29.11 0 .26.08.44.18.87.47 1.81.62 3.59.62 1.56 0 3.73-.5 5.91-1.2-.33-1.11-.9-2.73-1.3-3.92-.3-.83-.55-1.2-1.46-1.26-.4-.04-.83 0-1.08 0-.15 0-.26-.08-.26-.18 0-.18.11-.4.26-.5.61-.51 1.3-.7 1.88-.7.55 0 1.49.26 2.29.55.72.25 1.12.72 1.12 1.04 0 .4-.14.69-.22.83-.14.25-.14.5-.1.94.1.9.32 1.87.5 2.6 1.27-.47 1.96-.87 2.8-1.34.58-.32.87-.61 1.34-.9.4-.25.98-.5 1.41-.5.87.03 1.27.43 1.27.97 0 .5-.14.86-.87 1.19-1.56.8-3.48 1.7-5.51 2.45a38.72 38.72 0 0 0 1.74 4.65m-5.73 66.68c-1.3 0-2 .8-2 1.66 0 1.48 1.92 2.49 4.83 2.49.61 0 1.12-.04 1.45-.11-.55-2.06-2.5-4.04-4.28-4.04zm-2.07-6.92c2.54-1.94 5.15-2.85 7.62-2.85 5.33 0 8.27 3.32 8.27 7.21 0 5.44-4.94 8.5-10.27 8.5-3.95 0-6.74-1.61-6.74-4.06 0-1.95 1.63-3 3.62-3 3.38 0 5.55 2.96 6.1 4.62a6.45 6.45 0 0 0 4.57-6.24c0-4-2.65-5.73-5.73-5.73-3.38 0-6.2 1.66-8.2 3.68a28.28 28.28 0 0 0-2.83 3.17c-.18.25-.54.47-.9.47-.7 0-1.31-.58-1.31-1.4 0-.37.1-.76.61-1.3 2.8-3 5.8-6.1 8.42-9.27 1.56-1.9 3.05-3.71 4.86-6.09.25-.32.14-.4 0-.4-.15 0-.47.11-.69.19a95.84 95.84 0 0 0-4.93 1.8c-.66.25-.91.4-1.24.75-.21.22-.54.4-.98.4-.47 0-1.23-.4-1.8-1.04-.66-.69-1.31-1.63-1.31-2.64 0-.36.21-.75.43-.75.14 0 .29.14.47.4.8 1.04 1.3 1.4 1.92 1.4.48 0 1.1-.07 1.89-.25 1.63-.4 3.16-.83 4.79-1.37.5-.15.8-.36 1.09-.65.25-.25.54-.36.83-.36.58 0 1.49.54 2.28 1.12.73.5 1.1.97 1.1 1.55 0 .36-.3.6-.95.75-.36.07-.69.25-1.49 1.05a87.03 87.03 0 0 0-4.82 5.22c-1.34 1.55-3.3 3.43-4.75 5.05l.07.07zM105.92 392c1.7 1.4 2.35 2.7 2.35 4.04 0 1.11-.76 1.98-1.88 1.98-.98 0-1.38-.69-1.78-1.55a12.1 12.1 0 0 0-5.37-6.42c-.14-.1-.18-.25-.18-.43 0-.22.15-.36.4-.36 2.5.43 4.82 1.4 6.46 2.74M17.93 25.48a7.72 7.72 0 0 0-2.5-4.04c-.1-.1.04-.28.18-.25 3.3.8 5.15 2.49 5.15 4.18 0 1.08-.5 1.77-1.45 1.77-.8 0-1.05-.33-1.38-1.66zm-3.19-6.2c-.69 0-1.3.04-2.21.18l-.36-1.37c.94.22 1.74.3 2.5.3h10.56v-.22c0-2.46 0-2.85-.19-4.15 3.23.32 3.96.5 3.96 1.01 0 .29-.26.5-1.2.9v2.45h1.89c1.23-1.58 1.52-1.8 1.74-1.8.29 0 .5.14 1.85 1.33.54.54.72.8.72 1.01 0 .22-.14.36-.47.36H27.8v3.28c0 4.15.15 5.95.15 7.32 0 1.26-.4 1.8-1.06 2.34-.58.54-1.6.9-2.5.9-.43 0-.54-.07-.65-.75-.22-1.12-1.13-1.55-4-2.17-.17-.03-.17-.43 0-.43 2.15.18 3.78.22 4.87.22.43 0 .62-.18.62-.58V19.28H14.74zm14.51-6.92c1.45-1.73 1.7-1.9 1.96-1.9.22 0 .5.17 2.1 1.47.7.58.84.8.84 1.01 0 .22-.11.32-.47.32H14.45c-.76 0-1.41.08-2.28.22l-.37-1.37c.98.18 1.78.25 2.62.25h5.94V6.78h-4.42c-.69 0-1.23.07-2.14.21l-.36-1.4c.9.21 1.67.29 2.46.29h4.46V3.93c0-1.59-.03-2.6-.14-3.86 3.59.4 4.06.69 4.06 1.08 0 .33-.32.62-1.27.98v3.75h4.64C29.15 4.18 29.4 4 29.61 4c.26 0 .51.18 2.03 1.44.66.58.84.8.84 1.01 0 .22-.11.33-.47.33h-9v5.58h6.24zM9.27 17.41c1.34-.5 2.72-1.05 4.06-1.62.18-.08.36.28.22.4a46.36 46.36 0 0 1-4.28 2.7c.03 7.92.07 11.67.07 13.08 0 .86-.58 1.26-1.67 1.26-.83 0-1.16-.36-1.16-.97 0-1.26.1-4.54.14-12.08a46.13 46.13 0 0 1-3.55 1.55C3 22.71 2.77 23 2.45 23 2 23 1.69 22.45.7 19.5a13.6 13.6 0 0 0 2.43-.32c1.16-.25 2.32-.54 3.51-.9.04-1.94.04-3.85.04-5.8V9.52h-2.9a21.87 21.87 0 0 1-2.87 5.65c-.1.18-.54 0-.47-.21.8-2.1 1.49-5.08 1.92-7.86.19-1.3.3-2.63.3-3.75 2.42.69 3.37 1.05 3.37 1.48 0 .25-.22.43-1.13.68a42.09 42.09 0 0 1-.83 3.1h2.61c0-5.94-.04-7.35-.14-8.6 3.62.42 3.99.57 3.99 1.04 0 .28-.26.57-1.27.97v6.6h1.45c1.08-1.41 1.34-1.6 1.56-1.6.25 0 .5.19 1.74 1.23.5.44.65.69.65.9 0 .26-.1.37-.47.37H9.27v7.89zm22.01 53.24c0 8.58.15 12.97.15 14.41 0 1.41-.47 2.02-1.31 2.53a4.4 4.4 0 0 1-2.07.61c-.61 0-.83-.14-.9-.72-.11-1.08-.87-1.62-4.07-2.2-.25-.04-.25-.68 0-.65 2.25.22 3.81.29 5.01.29.44 0 .58-.14.58-.58V62.11c0-4.11 0-4.76-.22-6.1 3.67.44 3.92.55 3.92 1.05 0 .29-.18.58-1.09.97v12.62zM24 65.45c0 8.26.18 12.19.18 13.38 0 .83-.54 1.19-1.63 1.19-.87 0-1.16-.29-1.16-1.01 0-.83.15-3.64.15-10.89 0-6.01 0-7.6-.19-9.58 3.41.36 3.81.5 3.81 1.04 0 .3-.18.5-1.16.9v4.98zM5.42 66.9h9.25v-7.79H5.42v7.79zm4.57.9c-.04 1.77-.1 3.57-.36 5.33h4.68c.98-1.11 1.16-1.22 1.38-1.22.25 0 .43.1 1.6 1.12.5.46.64.68.64.93 0 .22-.14.36-.94.9-.29 5.66-.72 8.22-1.38 10.06-.43 1.3-.98 2.05-1.85 2.6a4.7 4.7 0 0 1-2.17.5c-.47 0-.66-.18-.73-.58-.14-.97-.72-1.55-3.26-2.27-.22-.07-.15-.54.07-.5 2.1.36 3.12.47 4.24.47 1.06 0 1.45-.65 1.82-2.63.36-1.91.61-4.5.8-8.47H9.48C8.43 80.67 5.6 84.92.42 88.34c-.22.15-.55-.28-.37-.46C5.28 82.6 7.27 77.35 7.38 67.8H5.42v.94c0 .86-.47 1.26-1.52 1.26-.76 0-1.1-.29-1.1-.83 0-.9.15-2.16.15-5.98 0-2.85-.03-4.47-.21-6.45 1.3.54 1.81.75 2.97 1.47h8.63c1.1-1.22 1.27-1.37 1.49-1.37.25 0 .44.15 1.63 1.12.58.54.73.76.73.97 0 .26-.26.54-.98 1.01v2.13c0 4.1.14 6.02.14 6.63 0 .83-.47 1.15-1.56 1.15-.8 0-1.12-.28-1.12-.97V67.8H9.99zm7.61 68.77c-2.02 0-3.8.8-3.8 2.28 0 1.08 1.02 1.98 3.52 1.98 1.27 0 2.17-.29 2.86-.9.73-.65.98-1.4.98-2.2 0-.15 0-.33-.03-.54-.95-.36-2.43-.62-3.52-.62zm7.19-12.03a7.2 7.2 0 0 0-3.2-.62c-.6 0-1.23.04-1.7.11-.22.04-.36.04-.47.04-.18 0-.33-.18-.33-.4 0-.14.15-.29.37-.36a9.7 9.7 0 0 1 3.37-.61c2.25 0 4.68.72 6.24 1.73.9.58 1.63 1.33 1.63 2.12a1.1 1.1 0 0 1-1.09 1.12c-.4 0-.8-.21-1.09-.47-1.08-.97-2.1-1.55-3-1.55-1.75 0-3.52.5-3.52 3.36 0 1.33.65 4.32 1.23 6.74 2.86.97 5.44 2.09 6.6 3.06.58.47.73.97.73 1.4 0 .76-.48 1.2-1.2 1.23-.4 0-.84-.18-1.34-.61a19.43 19.43 0 0 0-4.72-2.96c0 1.62-.47 2.7-1.38 3.46-.94.83-2.14 1.26-4.24 1.26-2.97 0-5.08-1.51-5.08-3.78 0-2.34 2.4-3.71 5.52-3.71.87 0 1.77.03 2.82.21-.14-1.87-.47-3.82-.47-5.58 0-3.36 1.74-4.47 4.32-5.05v-.14zM8.32 122.4c-.9 0-1.77-.1-2.54-.5-.76-.4-1.3-.83-1.81-1.73-.07-.15-.07-.26-.07-.36 0-.15.18-.3.29-.3.14 0 .25.04.43.22.87.72 1.96.98 3.05.98 1.45 0 3.08-.26 4.75-.62.54-1.4.94-2.63 1.23-3.78.15-.54.22-.94.22-1.26 0-.33-.18-.65-.69-.87-.5-.21-1.09-.4-1.48-.47-.15-.03-.22-.07-.22-.18 0-.14.14-.28.29-.4.4-.24.72-.32 1.34-.32.54 0 2.1.4 3.08 1.01.55.36.87.62.87 1.16 0 .36-.14.6-.58.93-.4.3-.65.87-.98 1.59-.25.54-.58 1.3-.87 2.02a23 23 0 0 0 2.94-1.12c.8-.36 1.38-.54 1.74-.54.95 0 1.45.47 1.45 1.08 0 .61-.36.9-1.34 1.23a64.17 64.17 0 0 1-5.7 1.55c-2.1 5.08-4.27 9.62-6.67 14.45-.29.61-.72.97-1.3.97-.62 0-1.3-.36-1.3-1.3 0-.28.06-.6.46-1.19 2.54-4 4.75-8.21 6.68-12.54-.91.11-2.29.3-3.27.3zm14.76 60.17a19.14 19.14 0 0 0 4.54 6.67 16.95 16.95 0 0 0 6.93 4.07c.14.04.1.33-.04.36-.8.11-1.41.8-1.85 2.1-.07.24-.18.35-.4.35-.22 0-.65-.25-1.23-.65a20.25 20.25 0 0 1-4.9-5 29.27 29.27 0 0 1-3.66-7.54c.22 8.15.32 14.27.32 15.6 0 .84-.54 1.27-1.63 1.27-.87 0-1.2-.33-1.2-1.05 0-1.4.19-6.85.3-12.47-2.76 4.4-6.68 7.9-10.85 9.77-.22.1-.54-.36-.33-.5 4.28-3 8.02-7.65 10.23-12.98h-3.66c-.84 0-1.52.04-2.61.18l-.37-1.37c1.2.22 1.96.29 2.98.29h4.46v-6.74h-4.46c-.87 0-1.52.07-2.61.22l-.4-1.4c1.23.17 2 .28 2.97.28h4.5v-1.23c0-3.67-.07-4.86-.22-5.94 3.77.36 4 .5 4 .97 0 .36-.26.58-1.24.94v5.26H29c1.48-1.91 1.74-2.1 1.96-2.1.25 0 .47.19 2.1 1.56.69.65.83.9.83 1.12 0 .21-.1.32-.47.32H22.65v6.74h5.4c1.5-1.91 1.74-2.09 1.96-2.09.26 0 .51.18 2.07 1.55.69.61.87.86.87 1.08 0 .25-.15.36-.47.36h-9.4zm-14.97 2.27c0 9.08.07 10.34.07 11.82a3 3 0 0 1-.84 2.2c-.5.54-1.3.87-2.4.87-.32 0-.46-.18-.5-.69-.1-1.04-.54-1.44-3.34-2.13-.18-.03-.18-.46 0-.46 1.93.18 3.02.28 3.89.28.43 0 .54-.14.54-.57v-10.17c-.83.4-1.67.76-2.58 1.09-.14.97-.32 1.26-.68 1.26-.37 0-.55-.33-1.56-3.5.76-.07 1.48-.22 2.32-.36.87-.18 1.67-.36 2.5-.58v-8.18H3.2c-.65 0-1.16.07-2.03.18l-.37-1.33c.95.18 1.53.25 2.4.25h2.32v-1.19c0-4.72 0-5.51-.18-6.85 3.23.33 3.95.51 3.95 1.05 0 .32-.25.58-1.2.94v6.05h.88c1.08-1.44 1.34-1.62 1.56-1.62.25 0 .47.18 1.63 1.22.43.44.61.73.61.94 0 .25-.14.36-.47.36H8.1v7.46c1.12-.36 2.32-.79 3.7-1.3.18-.07.32.33.18.44-1.42.9-2.69 1.66-3.88 2.3v.22zm18.35 66.4a18.95 18.95 0 0 0-4.86-5.99c-.15-.1.1-.43.29-.36 5.04 2.1 7.98 4.76 7.98 7.03 0 1.05-.51 1.66-1.38 1.66-.87 0-1.09-.25-2.03-2.34zm-8.56-8.65c0 6.92.14 10.3.14 11.35 0 .76-.54 1.19-1.67 1.19-.9 0-1.23-.33-1.23-1.01 0-.83.18-3.57.18-10.27v-1.26h-6.7c-.77 0-1.35.03-2.37.21l-.4-1.37c1.13.18 1.86.25 2.8.25h6.67c0-2.88-.07-3.96-.22-5.3 3.56.51 3.92.62 3.92 1.09 0 .25-.22.5-1.12.86v3.35h4.6c1.16-1.5 1.46-1.69 1.67-1.69.22 0 .55.18 1.96 1.33.62.47.8.69.8.9 0 .26-.11.37-.47.37H17.9zM1.83 253.97a22.75 22.75 0 0 0 5.59-6.34 12.7 12.7 0 0 0 1.37-3.13c2.94 1.04 3.6 1.4 3.6 1.83 0 .36-.3.62-1.46.69a20.12 20.12 0 0 1-8.74 7.31c-.18.08-.54-.21-.36-.36zM22.9 227.6l.08 2.45c0 .72-.51 1.05-1.56 1.05-.84 0-1.13-.25-1.13-.87 0-.21.04-.86.04-2.63h-7.3l.08 2.42c0 .72-.5 1.04-1.56 1.04-.8 0-1.09-.25-1.09-.94 0-.21.08-.97.11-2.52H3.72c-.8 0-1.45.07-2.4.22l-.36-1.37c1.09.21 1.81.25 2.76.25h6.85v-.47c0-2.16 0-2.63-.22-3.89 3.52.36 3.96.54 3.96.97 0 .26-.22.5-1.27.83v2.56h7.29c0-2.6 0-3.13-.15-4.36 3.34.36 3.85.54 3.85.97 0 .26-.18.47-1.13.83v2.56h5.7c1.45-1.73 1.7-1.9 1.92-1.9.25 0 .54.17 2.18 1.47.72.58.9.8.9 1 0 .22-.14.33-.5.33H22.9zm1.1 8.69a29.12 29.12 0 0 0 9.97 3.13c.18.04.14.36-.04.4-.9.14-1.34.58-1.78 1.95-.14.47-.32.65-.65.65-.25 0-.76-.15-1.42-.44a36.05 36.05 0 0 1-6.89-3.82 26.04 26.04 0 0 1-6.1-6.2c-3.8 4.94-9.57 8.83-16.17 10.89-.25.07-.47-.47-.25-.58a37.1 37.1 0 0 0 11.64-8.65 12.6 12.6 0 0 0 2.72-4.36c3.2 1.08 3.85 1.4 3.85 1.77 0 .28-.11.4-1.2.5a21.8 21.8 0 0 0 6.31 4.76z" fill="#FFF" mask="url(#b)"/></g></svg>