<?xml version="1.0" encoding="utf-8"?>
<!-- Generator: Adobe Illustrator 25.1.0, SVG Export Plug-In . SVG Version: 6.00 Build 0)  -->
<svg version="1.1" id="レイヤー_1" xmlns="http://www.w3.org/2000/svg" xmlns:xlink="http://www.w3.org/1999/xlink" x="0px"
	 y="0px" viewBox="0 0 348.8 340" style="enable-background:new 0 0 348.8 340;" xml:space="preserve">
<g>
	<path d="M325.5,6.7c-0.1,0.7-0.2,2.4-0.4,5.2c-0.1,1.2-0.2,2.3-0.4,3.3c1.7-0.3,3-0.5,3.9-0.7c2.2-0.4,3.4-0.7,3.7-0.9
		c0.4-0.5,0.8-0.8,1.1-0.9c2.1,0.5,3.5,1.1,4.2,1.7c0.7,0.6,0.6,1.1-0.3,1.6c-0.5,0-1.4,0-2.7,0.1c-1.1,0-2.3,0-3.9,0.1
		c-2.3,0.2-4.4,0.4-6.3,0.7c-0.2,1.1-0.4,2-0.6,2.7c3.3,3.1,6.5,5.7,9.6,8c2.8,2.1,5.8,3.6,9.2,4.6c0.2,0.3,0.1,0.6-0.1,0.9
		c-1.5,0.3-2.8,0.5-3.9,0.7c-1.1,0.1-2.1,0.1-3,0.1c-0.8,0.1-1.7-0.6-2.7-2c-3.1-3.9-6.2-7.7-9.3-11.5c-1.1,3.4-2.9,6.2-5.2,8.3
		c-1.9,2-4.7,3.9-8.5,5.6c-0.5-0.1-0.5-0.3-0.1-0.6c2.7-1.4,5.1-3.6,7.3-6.6c2-2.4,3.5-5.7,4.4-9.9c-3.3,0.8-5.8,1.3-7.5,1.6
		c-0.8-0.1-1.6-0.4-2.6-0.9c-0.4-0.4-0.3-0.6,0.3-0.6c1.1,0.1,4.4-0.5,10-1.9c0.2-2.1,0.3-3.8,0.3-5.2c0-1.5,0-2.8-0.1-3.9
		c-0.3-0.6-0.6-1-0.9-1.1c-0.5-0.7-0.6-1.2-0.3-1.7c0.8,0,1.4,0.1,2,0.3C325.1,5.1,326,6,325.5,6.7z"/>
	<path d="M315.6,49.3c-0.5,2.3-0.8,5.1-0.9,8.3l4.7-2.1c0.8-0.1,0.9,0.1,0.4,0.7l-5.3,3.4c-0.1,2.7-0.2,5.3-0.3,7.9
		c-0.1,0.3,0,0.4,0.4,0.3c2.4-2,4.5-4.2,6.4-6.4c0.4-0.2,0.5-0.1,0.4,0.3c-2,3.3-4.3,6.9-7,10.6c-0.3,0.3-0.6,0.2-1-0.1
		c-0.4-0.4-0.8-0.8-1.1-1.3c-0.3-0.4-0.4-0.7-0.4-1c0.2-0.7,0.3-1.2,0.3-1.7c0.1-1.4,0.1-2.5,0.1-3.2v-3.9c-0.6,0.3-1.1,0.6-1.6,1
		h-1.3c-0.7-0.1-1.3-0.2-1.9-0.4c-0.9-0.5-1-0.8-0.4-0.9c2-0.8,3.8-1.5,5.3-2.3v-7.6c0-0.9,0-1.7-0.1-2.6c-0.2-0.5-0.4-0.9-0.6-1.1
		c-0.2-0.5-0.1-0.7,0.3-0.6C314.5,47.8,315.7,48.8,315.6,49.3z M339.3,53.5c0.8,0.4,0.9,0.8,0.3,1.1c-0.2,0.4-0.3,0.9-0.4,1.6
		c-0.7,4.7-1.4,8.4-2.1,11c-0.5,1.7-1.1,3.3-1.9,4.9c-0.3,0.6-0.7,1.2-1.3,1.9c-0.5,0.7-0.9,0.7-1.3,0.1c-0.9-1.5-2.3-3-4.3-4.4
		c-0.2-0.3,0-0.4,0.4-0.3c1.2,0.5,2.4,0.8,3.6,1c0.6,0,1-0.3,1.1-0.9c1.6-3.8,2.6-8.9,3-15.2c-0.2-0.4-0.6-0.5-1.3-0.3
		c-2,0.5-4,0.9-5.9,1.3c1,1.2,1.4,2.1,1.4,2.7c-1.3,3.5-3,6.7-5,9.5c-1.4,2-3.4,4.1-5.9,6.2c-0.4,0.2-0.5,0.1-0.4-0.3
		c1.9-2,3.6-4.3,5-7c1.6-3.1,2.8-6,3.4-8.9c-0.1-0.7-0.2-1.2-0.4-1.6c-1.5,0.4-2.9,0.8-4,1.1c-0.6-0.3-1.1-0.6-1.7-1
		c-0.3-0.3-0.1-0.4,0.6-0.4c3.2-0.7,6.6-1.4,10.3-2.3c1.1-0.3,2.1-0.6,3.3-1c0.2-0.3,0.4-0.4,0.7-0.3
		C337.5,52.4,338.4,52.9,339.3,53.5z"/>
	<path d="M322.7,89.8c0.4,0.4,0.6,0.8,0.7,1.1c0.1,0.4,0,0.8-0.4,1.1l-1.3,2.9l1.3-0.4c0.3-0.2,0.5-0.4,0.7-0.6
		c0.2-0.1,0.6-0.1,1.1-0.1c1.2,0.2,2,0.5,2.1,0.9c0.1,0.4,0,0.7-0.4,0.9c-1.3,0.4-3.2,0.8-5.4,1.3c-2.2,5-3.7,7.9-4.4,8.9
		c-0.6,0.7-1.1,0.7-1.6,0.1c-0.2-0.3-0.3-0.8-0.3-1.4c0-0.3,0-0.6,0.1-0.9c0.1-0.2,0.2-0.3,0.3-0.4c1-0.9,2.1-2.8,3.6-5.9
		c-0.4,0.1-0.9,0.1-1.6,0.1c-0.6,0-1.1-0.1-1.6-0.3c-0.5-0.2-0.8-0.4-1-0.7c-0.2-0.2-0.2-0.4,0-0.6c0.2,0.1,0.7,0.1,1.6,0.1
		s2-0.1,3.4-0.4c0.8-1.8,1.1-3,1.1-3.6c0.1-0.9,0-1.6-0.3-2.1c-0.2-0.4,0-0.6,0.4-0.6C321.8,89.4,322.3,89.6,322.7,89.8z
		 M329.3,103.1c-0.1,0.5-0.1,1.1-0.1,2v6.2c1.7,0.4,3.2,0.9,4.3,1.6c0.9,0.5,1.3,1.1,1.3,1.9c0,1.1-0.5,1.6-1.4,1.4
		c-1.6-1.3-3-2.2-4.2-2.7c-0.7,1.4-1.5,2.4-2.6,2.9c-1.1,0.5-2.4,0.7-3.7,0.6c-0.7-0.1-1.2-0.2-1.7-0.4c-0.6-0.3-1.1-0.6-1.7-1
		c-0.5-0.5-0.7-1.1-0.7-1.7c0-0.9,0.5-1.6,1.6-2.1c1.1-0.6,2.5-0.9,4.3-0.9c0.8,0,1.6,0,2.4,0.1v-4.2c0-2.6,0.9-4.5,2.6-5.7
		c0.5-0.2,0.7-0.1,0.7,0.1C329.7,101.8,329.4,102.4,329.3,103.1z M319.6,113.6c0,1.1,1.1,1.7,3.3,1.7c2,0,3.3-0.9,4-2.7
		c-1.5-0.3-3-0.4-4.4-0.4C320.5,112.1,319.6,112.6,319.6,113.6z M336.1,97.5c0.6,0.7,0.9,1.5,0.9,2.6c0,0.4-0.1,0.7-0.3,0.9
		c-0.3,0.2-0.6,0.2-1,0c-0.4-0.3-0.8-0.5-1.1-0.6c-0.5-0.2-1.4-0.2-2.7,0c-0.3-0.1-0.3-0.2-0.1-0.4c0.6-0.2,1.1-0.4,1.6-0.6
		c0.5-0.2,0.7-0.5,0.6-1c-0.3-1.1-0.8-1.8-1.4-2.3c-0.2-0.3,0-0.4,0.4-0.4C334.3,96,335.4,96.7,336.1,97.5z"/>
	<path d="M324.6,131.9c0.8,0.4,1.3,0.9,1.6,1.6c0.3,0.5,0.2,1-0.3,1.4c-1.2,2.8-2.4,5.2-3.6,7.2c5.8,4.9,9.9,8.1,12.3,9.7
		c2.6,1.7,5.2,2.9,7.9,3.6c0.2,0.2,0.2,0.4,0,0.6c-2,0.5-3.6,0.8-4.9,0.9c-0.7,0.1-1.6,0.1-2.7,0.1c-0.6,0.1-1-0.1-1.3-0.6
		c-1.1-1.2-2.2-2.5-3.2-3.7c-3.1-4.1-5.9-7.4-8.6-9.9c-2.6,3.7-4.9,6.8-7,9.2c-2.1,2.2-4.4,4-6.9,5.4c-0.3,0.1-0.4,0-0.3-0.3
		c3.1-2.6,5.9-5.9,8.5-10c3.3-5.6,5.4-10.2,6.2-13.6c-0.1-0.5-0.3-0.9-0.7-1.3c-0.3-0.6-0.3-1-0.1-1.3
		C322.2,130.8,323.3,131.2,324.6,131.9z"/>
	<path d="M320.5,174.6c0.2,0.1,0.2,0.3,0.2,0.6l0.5,2.1c0.3,1.5,0.9,3.1,1.6,4.9c1.7-1.4,4.1-3.3,7-5.6c0.3-0.3,0.8-0.5,1.4-0.5
		c0.5,0,1.1,0.2,2,0.5c0.5,0.3,0.3,0.7-0.5,1.2c-1.9,0.9-3.8,2-5.6,3.2c-1.2,0.7-2.5,1.6-3.7,2.5c0.2,0.4,0.1,0.8-0.1,1.1
		c-0.2,0.1-0.3,0.1-0.5,0.1c-0.2,0-0.5-0.1-0.7-0.2c-1.6,1.3-2.7,2.3-3.1,3.1c-0.3,0.5-0.5,1.1-0.5,1.8c0,0.7,0.4,1.4,1.4,2
		c0.8,0.6,2.5,0.9,5.2,0.9c1.7,0,3.2-0.1,4.4-0.4c1-0.3,1.6-0.5,2-0.5c0.3,0,0.8,0.2,1.5,0.5c0.7,0.4,1,0.8,0.7,1.1
		c-0.2,0.2-0.5,0.5-0.9,0.6c-0.7,0.2-1.6,0.2-2.5,0.2h-4.5c-2.7,0-4.8-0.4-6.3-1.1c-1.5-0.7-2.2-1.8-2.2-3.3c0-0.8,0.3-1.7,1-2.7
		c1-1.2,2-2.3,3.2-3.2l-2.9-7.9c-0.3-0.4-0.7-0.7-1.2-0.9c-0.4-0.4-0.2-0.7,0.5-0.7C319,174,320,174.2,320.5,174.6z"/>
	<path d="M333.1,213.7c1.4,1.4,2.1,3.3,2.1,5.8c0,2-0.8,3.8-2.3,5.5c-1.3,1.5-3.2,2.8-5.8,3.9c-0.4,0.2-0.5,0.1-0.4-0.2
		c2-1.6,3.6-3.1,4.5-4.4c1.1-1.4,1.6-3.2,1.6-5.3c0-2-0.6-3.6-1.8-4.8c-1.3-1.3-2.8-2-4.4-2c-1,0-1.6,0-2,0.1
		c0.2,0.4,0.2,0.9,0.2,1.5c0,0.7-0.3,1.8-0.9,3.2c-0.7,1.6-1.4,3-2.1,4.3c-1.8,2.9-3.1,4.7-3.9,5.4c-0.7,0.7-1.4,1-1.8,1
		c-0.9,0-1.6-1.2-2-3.6c-0.2-1.3-0.5-2.5-0.6-3.6c0-2,1.4-4.1,4.1-6.3c2.7-2.1,5.8-3.2,9.3-3.2C329.3,211.1,331.3,212,333.1,213.7z
		 M317.3,216.4c-1.6,1.6-2.3,3.3-2.3,5.3c0,2.2,0.5,3.3,1.6,3.3c0.2,0,0.5-0.1,0.7-0.4c1.6-1.6,3.2-3.9,4.8-6.8
		c1.1-2,1.6-3.7,1.6-5.3C321.2,213.4,319.1,214.7,317.3,216.4z"/>
</g>
<g>
	<path d="M263.5,14.1c0.2,0.2,0.3,0.5,0.2,0.7c-0.1,0.2-0.1,0.4-0.1,0.6c0,0.5,0,1,0,1.6c0.3-0.1,0.6-0.2,0.9-0.5
		c0.3-0.2,0.6-0.2,1-0.1c0.1,0,0.2,0,0.3,0.1c0.4,0.1,0.7,0.3,0.8,0.4c0.1,0.2,0,0.3-0.2,0.5c-0.9,0.1-1.8,0.2-2.9,0.4
		c-0.1,1-0.1,1.9-0.1,2.8c0.9-0.2,1.9-0.4,3-0.6c0.2-0.1,0.4-0.2,0.6-0.3c0.2-0.2,0.4-0.3,0.6-0.3c0.3,0,0.9,0.1,1.7,0.4
		c0.6,0.5,0.5,0.8-0.3,1c-0.9,0-2.1,0.1-3.7,0.3c0.3,0.3,0.5,0.6,0.5,0.9v1.3c0.3-0.1,0.7-0.1,1-0.3c0.2-0.3,0.4-0.4,0.6-0.3
		c0.5,0.1,0.9,0.2,1.4,0.4c0.5,0.3,0.4,0.6-0.1,0.9c-1.2,0.1-2.1,0.1-3,0.3c0,1.3,0,2.5,0.1,3.7c0,1.2,0.1,2,0.2,2.6
		c-0.1,0.7-0.3,1.3-0.6,1.9c-0.3,0.6-0.7,0.7-1,0.3c-0.3-0.5-0.6-0.9-0.9-1.2c-0.3-0.3-0.9-0.6-1.6-1c-0.1-0.1-0.1-0.2,0.1-0.2
		c0.6,0.1,1.1,0.2,1.6,0.3c0.5,0.1,0.8-0.1,0.8-0.3c0.1-0.3,0.1-0.8,0.1-1.6c0-1.5,0-2.9,0-4.3c-1.5,0.2-2.9,0.4-4.2,0.7
		c-0.5,0.1-1,0.2-1.4,0.3c-0.3-0.1-0.6-0.1-0.8-0.3c-0.2-0.1-0.2-0.2,0.1-0.3c2-0.3,4-0.8,6.2-1.2c0-0.6,0-1.2-0.1-1.7
		c-0.1-0.2-0.3-0.4-0.4-0.6c-1.9,0.3-3.4,0.6-4.5,0.9c-0.5,0.1-0.8,0.2-1,0.3c-0.2-0.1-0.4-0.1-0.5-0.3c-0.6,0.6-1.2,1.2-1.7,1.7
		c-0.1,1.7-0.2,3.4-0.3,5c0,0.7,0,1.6,0,2.7c-0.1,0.9-0.3,1.2-0.8,0.8c-0.5-0.6-0.8-1.1-1-1.7c0.1-0.3,0.2-0.6,0.3-1
		c0.1-1.3,0.2-2.8,0.3-4.4c-0.9,0.8-1.7,1.4-2.4,2c-0.2,0.3-0.4,0.5-0.7,0.3c-0.6-0.1-1-0.6-1.3-1.3c0-0.3,0.1-0.3,0.4-0.2
		c0.2,0.1,0.4,0.1,0.6,0c1.2-0.7,2.4-1.4,3.4-2.2c0.1-1.2,0.1-2.4,0.1-3.6c-0.6,0.1-1.2,0.2-1.7,0.3c-0.2-0.1-0.4-0.1-0.6-0.3
		c-0.6,0.7-1.3,1.3-1.9,1.9c-0.1,0.1-0.2,0.1-0.2-0.1c0.5-0.9,1-1.7,1.3-2.5c0.2-0.6,0.4-1.2,0.6-1.8c0-0.2-0.1-0.3-0.2-0.4
		c-0.2-0.3-0.1-0.4,0.3-0.4c0.4,0,0.8,0.1,1,0.3c0.3,0.2,0.5,0.5,0.4,1c-0.3,0.4-0.7,1-1.1,1.7c0.2,0.1,0.4,0,0.7-0.1
		c0.5-0.1,1-0.3,1.4-0.4v-3.5c0-0.5-0.1-0.8-0.4-1.1c-0.3-0.3-0.2-0.6,0.3-0.6c0.5,0.1,1,0.4,1.6,0.9c0.2,0.2,0.2,0.5,0.1,0.7
		c-0.2,0.9-0.2,2-0.2,3.2c0.3-0.1,0.6-0.3,0.9-0.5c0.5,0,1,0.1,1.3,0.2c0.2,0.2,0.2,0.4-0.1,0.7c-0.5,0.2-1.2,0.4-2.2,0.6
		c-0.1,0.8-0.1,1.7-0.1,3c0.6-0.4,1.3-0.9,2-1.4c0.2-0.1,0.3-0.1,0.3,0.2h0.4c1.3-0.3,2.3-0.5,3.1-0.7v-2.7c-0.5,0.1-1,0.3-1.6,0.4
		c-0.9-0.2-1.2-0.4-0.8-0.5c0.6-0.2,1.3-0.4,2.3-0.6c0-0.9,0-1.9,0-2.9c-0.1-0.2-0.3-0.5-0.5-0.7c-0.4-0.4-0.3-0.6,0.3-0.7
		C262.6,13.5,263.2,13.8,263.5,14.1z M262.9,27.9c0.1,0.8-0.3,0.9-1.2,0.2c-0.5-0.5-1-1-1.3-1.7c-0.2-0.3-0.1-0.3,0.3-0.2
		c0.5,0.1,1,0.3,1.6,0.4C262.5,26.7,262.7,27.2,262.9,27.9z"/>
	<path d="M260,40.5c0.3,0.2,0.2,0.4-0.3,0.6c-0.3,0.9-0.7,1.9-1,2.8c0.2,0.3,0.1,0.5-0.3,0.6c-0.3-0.1-0.6-0.1-1,0
		c-0.6,0.2-1.3,0.4-1.9,0.6c0.3,0.2,0.6,0.5,0.9,0.9c0,0.2,0,0.3,0,0.5c-0.1,0.5-0.3,0.8-0.4,1.1c0.6-0.2,1.1-0.3,1.5-0.5
		c0.3-0.2,0.6-0.4,0.9-0.5c0.5,0.1,0.9,0.3,1.4,0.7c0.3,0.2,0.4,0.4,0.1,0.6c-1,4.2-2.1,7.1-3.5,8.8c-0.3,0.3-0.5,0.4-0.7,0.1
		c-0.5-0.8-1.2-1.6-2.2-2.3c-0.2-0.2-0.1-0.3,0.1-0.3c0.6,0.2,1.1,0.4,1.7,0.5c0.2,0.1,0.4,0.1,0.5,0c0.3-0.3,0.6-0.8,1-1.7
		c0.5-1.2,1-2.8,1.4-4.6c-0.1-0.2-0.2-0.4-0.3-0.4c-0.6,0.1-1.3,0.2-2,0.3c-1.1,2.3-2.9,4.6-5.4,7c-0.2,0.1-0.3,0-0.3-0.3
		c1.3-1.6,2.5-3.3,3.4-5.1c0.9-1.7,1.3-3.1,1.3-4c-0.1-0.5-0.2-0.6-0.5-0.2c-0.6,0-1-0.1-1.1-0.4c-0.4-1-0.7-1.8-1-2.5
		c-0.2-0.5-0.4-0.9-0.7-1.3c-0.1-0.2-0.2-0.3-0.3-0.5c-0.1-0.2,0.1-0.3,0.4-0.3c0.5,0.2,1.1,0.3,1.7,0.5c1.1-0.2,2.5-0.7,4.2-1.4
		c0.2-0.2,0.4-0.3,0.6-0.3C258.8,39.6,259.5,40,260,40.5z M254.2,44.8c1-0.3,2.1-0.7,3.3-1.2c0.1-0.7,0.1-1.5,0.3-2.5
		c0-0.2-0.1-0.4-0.3-0.4c-1.7,0.6-3.1,1-4.3,1.2C253.6,42.9,254,43.9,254.2,44.8z M263,44.2c0,0.3,0,0.7,0,1.2c0,0.6,0,2,0,4
		c0,1.2-0.2,1.7-0.7,1.6c-0.5-0.2-0.8-0.8-0.9-1.6c0.2-0.9,0.3-2.6,0.3-5.1c0-0.3-0.1-0.6-0.2-0.9c-0.2-0.3-0.1-0.5,0.3-0.3
		C262.3,43.3,262.7,43.7,263,44.2z M267.6,40c0.3,0.3,0.3,0.7,0,1.1c-0.1,0.3-0.1,0.8,0,1.2V52c0.1,1.4,0.1,2.7,0.2,3.8
		c-0.3,1-0.6,1.8-0.9,2.4c-0.2,0.5-0.5,0.5-0.8,0c-0.8-1-1.5-1.7-2.1-2.2c-0.3-0.2-0.5-0.4-0.7-0.5c-0.2-0.2-0.1-0.3,0.2-0.3
		c0.7,0.2,1.4,0.3,2,0.4c0.3,0.1,0.5,0,0.6-0.3c0.1-0.3,0.1-0.7,0.1-1.3v-2.2c0-2.8,0-4.9-0.1-6.4c0-2.3,0-3.9-0.1-4.8
		c-0.1-0.5-0.3-1-0.6-1.4c-0.4-0.4-0.4-0.6,0.1-0.6C266.4,38.8,267.1,39.2,267.6,40z"/>
	<path d="M259,65.5c0.2,0.2,0.4,0.5,0.4,0.7c0.1,0.2,0,0.5-0.3,0.7l-0.8,1.7l0.8-0.3c0.2-0.1,0.3-0.2,0.4-0.3
		c0.1-0.1,0.3-0.1,0.7-0.1c0.8,0.1,1.2,0.3,1.3,0.5c0.1,0.2,0,0.4-0.3,0.5c-0.8,0.2-1.9,0.5-3.3,0.8c-1.3,3-2.2,4.8-2.7,5.4
		c-0.3,0.4-0.7,0.4-1,0.1c-0.1-0.2-0.2-0.5-0.2-0.9c0-0.2,0-0.3,0.1-0.5c0.1-0.1,0.1-0.2,0.2-0.3c0.6-0.5,1.3-1.7,2.2-3.6
		c-0.2,0.1-0.6,0.1-1,0.1c-0.3,0-0.7-0.1-1-0.2c-0.3-0.1-0.5-0.3-0.6-0.4c-0.1-0.1-0.1-0.2,0-0.3c0.1,0.1,0.4,0.1,1,0.1
		s1.2-0.1,2.1-0.3c0.5-1.1,0.7-1.8,0.7-2.2c0.1-0.5,0-1-0.2-1.3c-0.1-0.2,0-0.3,0.3-0.3C258.4,65.2,258.8,65.4,259,65.5z M263,73.6
		c-0.1,0.3-0.1,0.7-0.1,1.2v3.7c1,0.2,1.9,0.6,2.6,1c0.5,0.3,0.8,0.7,0.8,1.1c0,0.7-0.3,1-0.9,0.9c-1-0.8-1.8-1.4-2.5-1.7
		c-0.4,0.9-0.9,1.5-1.6,1.7c-0.7,0.3-1.5,0.4-2.3,0.3c-0.4-0.1-0.8-0.1-1-0.3c-0.3-0.2-0.7-0.4-1-0.6c-0.3-0.3-0.4-0.6-0.4-1
		c0-0.5,0.3-1,1-1.3c0.6-0.3,1.5-0.5,2.6-0.5c0.5,0,1,0,1.5,0.1v-2.5c0-1.6,0.5-2.7,1.6-3.5c0.3-0.1,0.4-0.1,0.4,0.1
		C263.3,72.8,263,73.2,263,73.6z M257.1,79.9c0,0.7,0.7,1,2,1c1.2,0,2-0.6,2.4-1.7c-0.9-0.2-1.8-0.3-2.7-0.3
		C257.7,79.1,257.1,79.3,257.1,79.9z M267.1,70.2c0.3,0.4,0.5,0.9,0.5,1.6c0,0.2-0.1,0.4-0.2,0.5c-0.2,0.1-0.4,0.1-0.6,0
		c-0.2-0.2-0.5-0.3-0.7-0.3c-0.3-0.1-0.8-0.1-1.7,0c-0.2-0.1-0.2-0.1-0.1-0.3c0.3-0.1,0.7-0.2,1-0.3c0.3-0.1,0.4-0.3,0.3-0.6
		c-0.2-0.6-0.5-1.1-0.9-1.4c-0.1-0.2,0-0.3,0.3-0.3C266,69.3,266.7,69.6,267.1,70.2z"/>
	<path d="M263.6,90.7c0.6,0.3,1.1,0.6,1.7,1c0.3,0.2,0.3,0.5,0.1,0.7c-0.2,0.5-0.2,1-0.2,1.5c0,2.4-0.1,4.9-0.2,7.5
		c0,1.2-0.1,2.3-0.3,3.1c-0.2,0.8-0.4,1.3-0.8,1.7c-0.3,0.4-0.6,0.3-0.9-0.3c-0.2-0.3-0.4-0.8-0.7-1.2c-0.2-0.3-0.5-0.7-0.9-1.1
		c-1.6,0.1-3.2,0.3-4.8,0.7c-0.1,1.1-0.5,1.4-1,0.8c-0.4-0.6-0.7-1.3-0.8-1.9c0.1-0.5,0.1-1.2,0.1-1.9v-6.8c0.1-0.5,0-1-0.3-1.4
		c-0.3-0.4-0.3-0.6,0.1-0.6c0.2,0.1,0.5,0.1,0.7,0.3c2.2-0.5,4.4-1,6.7-1.5c0.2-0.1,0.5-0.3,0.9-0.4
		C263.3,90.6,263.4,90.6,263.6,90.7z M256.1,93.4c0.2,0.2,0.3,0.4,0.3,0.6v3.7h0.3c0.9-0.2,1.7-0.5,2.4-0.7c0.3-0.3,0.6-0.6,0.8-0.6
		c0.5,0.1,1,0.2,1.6,0.4c0.3,0.3,0.2,0.6-0.2,0.8c-1.6,0.3-3.1,0.6-4.4,0.9h-0.4c0.1,2,0.1,3.6,0.2,4.9c0.9-0.2,1.9-0.5,3-0.7
		c0.3-0.3,0.6-0.4,0.8-0.4c0.5,0,0.9,0.1,1.3,0.4c0.3,0.2,0.4,0.4,0.3,0.6c0.3,0.2,0.6,0.3,0.9,0.3c0.2,0,0.3-0.3,0.3-1V92.3
		c0.1-0.2-0.1-0.3-0.3-0.3C260.6,92.4,258.4,92.9,256.1,93.4z"/>
	<path d="M259.8,115.6c0.3,0.2,0.6,0.6,0.9,1c0.2,0.2,0.2,0.5,0,0.8l-0.5,0.9c0.4-0.1,0.8-0.3,1.3-0.4c0.1-0.1,0.3-0.1,0.4,0
		c0.2,0.2,0.4,0.3,0.6,0.5c0.1,0.2,0,0.4-0.3,0.5c-0.9,0.3-1.9,0.6-2.8,0.9c-0.8,1.2-1.6,2.3-2.4,3.4c0.5-0.2,1-0.3,1.6-0.3
		c0.6,0,1,0.2,1.4,0.5c0.4,0.4,0.7,1.2,0.9,2.5c1.1-0.5,2.3-0.9,3.5-1.4c0.5-0.2,0.6-0.5,0.3-1c-0.3-0.3-0.2-0.4,0.3-0.3
		c0.7,0.4,1.2,1,1.7,1.9c0.1,0.2,0,0.4-0.3,0.4c-0.9,0.1-1.8,0.3-2.5,0.4c-0.8,0.2-1.8,0.6-2.9,1v1.3c-0.1,0.6-0.4,0.9-0.8,1
		c-0.2-0.1-0.4-0.2-0.5-0.3c-0.1-0.2-0.2-0.6-0.2-1.1c-1.4,0.8-2.1,1.5-2.1,2.4c0,0.4,0.2,0.7,0.6,1c0.3,0.1,0.7,0.2,1.3,0.2
		c0.8,0,1.5-0.1,2-0.2c0.5-0.2,0.8-0.3,1-0.3c0.6,0.2,1.1,0.4,1.5,0.7c0.2,0.2,0.3,0.4,0.2,0.6c-0.1,0.2-0.6,0.4-1.5,0.5
		c-0.6,0.1-1.2,0.1-1.7,0.1c-1.3,0-2.3-0.2-3.1-0.7c-0.7-0.6-1-1.2-1-1.9c0-0.5,0.2-1,0.7-1.6c0.5-0.6,1.2-1.2,2.2-1.8
		c0.1-2.1-0.3-3.1-1.2-3.1c-0.8,0-1.6,0.5-2.3,1.6c-0.3,0.5-0.7,0.6-1,0.2c-0.2-0.3-0.3-0.7-0.3-1c0-0.2,0.1-0.5,0.3-0.7
		c0.6-0.5,1.5-1.6,2.8-3.5c-0.8,0.2-1.2,0.3-1.4,0.3s-0.5-0.1-0.9-0.3c-0.4-0.2-0.7-0.5-0.9-0.9c-0.1-0.2,0-0.3,0.3-0.3
		c0.7,0.2,1.2,0.3,1.7,0.3c0.6-0.1,1.2-0.2,1.9-0.3l0.5-1.1c0.1-0.3,0.2-0.6,0.2-0.8c0-0.2-0.1-0.4-0.2-0.6
		c-0.2-0.2-0.4-0.4-0.4-0.6c-0.1-0.2,0.1-0.3,0.3-0.3C259.1,115.4,259.4,115.5,259.8,115.6z"/>
	<path d="M260.8,141.4c0.2,0.3,0.4,0.6,0.4,0.8c0.1,0.3,0,0.6-0.2,0.9c-0.3,0.8-0.6,1.6-0.9,2.4c0.2,0.1,0.6,0.1,1,0
		c0.5,0.2,0.8,0.3,1,0.5c0.3,0.2,0.4,0.4,0.3,0.7c-0.1,0.2-0.2,0.3-0.5,0.3c-0.8,0-1.5-0.1-2.2-0.2c-0.4,1.6-0.7,3-0.9,4.2
		c0.6,0.1,1.1,0.1,1.6,0c0.3,0.1,0.6,0.2,0.8,0.3c0.2,0.2,0.3,0.4,0.3,0.7c-0.1,0.2-0.3,0.4-0.7,0.4c-0.6,0-1.3-0.1-2.1-0.2v1
		c0,2.3,0.8,3.4,2.4,3.4c0.6,0,1.2-0.3,1.7-0.8c0.8-0.8,1.1-1.6,1.1-2.5c0-0.6-0.3-1.6-0.8-3c-0.1-0.2,0-0.3,0.1-0.3
		c0.7,0.8,1.2,1.5,1.5,2.2c0.3,0.8,0.5,1.5,0.5,2.1c0.1,0.8-0.3,1.6-1.1,2.4c-0.9,0.8-1.8,1.2-2.7,1.2c-1.2,0-2.1-0.4-2.9-1.3
		c-0.7-1.1-1-2.6-1-4.6c-1.3-0.3-2.1-0.9-2.4-1.8l0.1-0.1c0.8,0.4,1.6,0.6,2.4,0.7c0.2-1.1,0.4-2.5,0.8-4.2
		c-0.7-0.1-1.3-0.3-1.7-0.4c-0.5-0.2-0.8-0.6-1.1-1c-0.1-0.3,0-0.4,0.3-0.3c0.2,0.1,0.5,0.2,0.7,0.3c0.8,0.2,1.5,0.2,2.2,0.2
		c0.5-1.9,0.7-3,0.7-3.4c0-0.2,0-0.3-0.1-0.5c-0.2-0.2-0.4-0.4-0.4-0.6c-0.1-0.5,0.1-0.6,0.5-0.4C259.9,140.7,260.4,141,260.8,141.4
		z"/>
	<path d="M268.2,172.3c0.6,0.6,0.9,1.3,0.9,2.3c0,1.2-0.6,2.3-1.9,3.1c-1.2,0.8-2.8,1.4-4.9,1.7c-0.3,0-0.3-0.1,0-0.3
		c1.9-0.7,3.3-1.4,4.2-2.2c0.9-0.8,1.3-1.7,1.3-2.7c0-0.6-0.2-1.1-0.6-1.5c-0.4-0.5-1-0.7-1.9-0.6c-1.2,0-2.8,0.5-4.8,1.5
		c-1.2,0.7-1.9,1.1-2.1,1.1c-0.4,0-0.8-0.1-1.2-0.3c-0.4-0.2-0.8-0.4-1-0.7c-0.1-0.2-0.1-0.3,0.2-0.3c0.8,0.1,1.3,0,1.7-0.2
		c1.4-0.5,2.8-1,4.4-1.5c1.2-0.3,2.2-0.4,3-0.4C266.5,171.4,267.5,171.7,268.2,172.3z"/>
	<path d="M257.2,193.5c0.1,0.1,0.2,0.2,0.2,0.4l0.3,1.5c0.2,1,0.6,2.2,1.1,3.5c1.2-1,2.9-2.3,5-4c0.2-0.2,0.6-0.3,1-0.3
		c0.3,0,0.8,0.1,1.4,0.3c0.3,0.2,0.2,0.5-0.3,0.9c-1.3,0.6-2.7,1.4-4,2.3c-0.9,0.5-1.7,1.1-2.6,1.7c0.1,0.3,0.1,0.6-0.1,0.8
		c-0.1,0.1-0.2,0.1-0.3,0.1c-0.2,0-0.3-0.1-0.5-0.2c-1.2,0.9-1.9,1.7-2.2,2.2c-0.2,0.3-0.3,0.8-0.3,1.3c0,0.5,0.3,1,1,1.4
		c0.6,0.4,1.8,0.6,3.7,0.6c1.2,0,2.3-0.1,3.1-0.3c0.7-0.2,1.2-0.3,1.4-0.3c0.2,0,0.6,0.1,1,0.3c0.5,0.3,0.7,0.6,0.5,0.8
		c-0.1,0.2-0.3,0.3-0.6,0.4c-0.5,0.1-1.1,0.2-1.7,0.2h-3.2c-1.9,0-3.4-0.3-4.4-0.8c-1-0.5-1.6-1.3-1.6-2.4c0-0.6,0.2-1.2,0.7-1.9
		c0.7-0.9,1.4-1.6,2.3-2.3l-2.1-5.6c-0.2-0.3-0.5-0.5-0.9-0.6c-0.3-0.3-0.2-0.5,0.3-0.5C256.2,193.1,256.8,193.2,257.2,193.5z"/>
	<path d="M263.5,216.4c0.2,0.2,0.3,0.5,0.2,0.7c-0.1,0.2-0.1,0.4-0.1,0.6c0,0.5,0,1,0,1.6c0.3-0.1,0.6-0.2,0.9-0.5
		c0.3-0.2,0.6-0.2,1-0.1c0.1,0,0.2,0,0.3,0.1c0.4,0.1,0.7,0.3,0.8,0.4c0.1,0.2,0,0.3-0.2,0.5c-0.9,0.1-1.8,0.2-2.9,0.4
		c-0.1,1-0.1,1.9-0.1,2.8c0.9-0.2,1.9-0.4,3-0.6c0.2-0.1,0.4-0.2,0.6-0.3c0.2-0.2,0.4-0.3,0.6-0.3c0.3,0,0.9,0.1,1.7,0.4
		c0.6,0.5,0.5,0.8-0.3,1c-0.9,0-2.1,0.1-3.7,0.3c0.3,0.3,0.5,0.6,0.5,0.9v1.3c0.3-0.1,0.7-0.1,1-0.3c0.2-0.3,0.4-0.4,0.6-0.3
		c0.5,0.1,0.9,0.2,1.4,0.4c0.5,0.3,0.4,0.6-0.1,0.9c-1.2,0.1-2.1,0.1-3,0.3c0,1.3,0,2.5,0.1,3.7c0,1.2,0.1,2,0.2,2.6
		c-0.1,0.7-0.3,1.3-0.6,1.9c-0.3,0.6-0.7,0.7-1,0.3c-0.3-0.5-0.6-0.9-0.9-1.2c-0.3-0.3-0.9-0.6-1.6-1c-0.1-0.1-0.1-0.2,0.1-0.2
		c0.6,0.1,1.1,0.2,1.6,0.3c0.5,0.1,0.8-0.1,0.8-0.3c0.1-0.3,0.1-0.8,0.1-1.6c0-1.5,0-2.9,0-4.3c-1.5,0.2-2.9,0.4-4.2,0.7
		c-0.5,0.1-1,0.2-1.4,0.3c-0.3-0.1-0.6-0.1-0.8-0.3c-0.2-0.1-0.2-0.2,0.1-0.3c2-0.3,4-0.8,6.2-1.2c0-0.6,0-1.2-0.1-1.7
		c-0.1-0.2-0.3-0.4-0.4-0.6c-1.9,0.3-3.4,0.6-4.5,0.9c-0.5,0.1-0.8,0.2-1,0.3c-0.2-0.1-0.4-0.1-0.5-0.3c-0.6,0.6-1.2,1.2-1.7,1.7
		c-0.1,1.7-0.2,3.4-0.3,5c0,0.7,0,1.6,0,2.7c-0.1,0.9-0.3,1.2-0.8,0.8c-0.5-0.6-0.8-1.1-1-1.7c0.1-0.3,0.2-0.6,0.3-1
		c0.1-1.3,0.2-2.8,0.3-4.4c-0.9,0.8-1.7,1.4-2.4,2c-0.2,0.3-0.4,0.5-0.7,0.3c-0.6-0.1-1-0.6-1.3-1.3c0-0.3,0.1-0.3,0.4-0.2
		c0.2,0.1,0.4,0.1,0.6,0c1.2-0.7,2.4-1.4,3.4-2.2c0.1-1.2,0.1-2.4,0.1-3.6c-0.6,0.1-1.2,0.2-1.7,0.3c-0.2-0.1-0.4-0.1-0.6-0.3
		c-0.6,0.7-1.3,1.3-1.9,1.9c-0.1,0.1-0.2,0.1-0.2-0.1c0.5-0.9,1-1.7,1.3-2.5c0.2-0.6,0.4-1.2,0.6-1.8c0-0.2-0.1-0.3-0.2-0.4
		c-0.2-0.3-0.1-0.4,0.3-0.4c0.4,0,0.8,0.1,1,0.3c0.3,0.2,0.5,0.5,0.4,1c-0.3,0.4-0.7,1-1.1,1.7c0.2,0.1,0.4,0,0.7-0.1
		c0.5-0.1,1-0.3,1.4-0.4v-3.5c0-0.5-0.1-0.8-0.4-1.1c-0.3-0.3-0.2-0.6,0.3-0.6c0.5,0.1,1,0.4,1.6,0.9c0.2,0.2,0.2,0.5,0.1,0.7
		c-0.2,0.9-0.2,2-0.2,3.2c0.3-0.1,0.6-0.3,0.9-0.5c0.5,0,1,0.1,1.3,0.2c0.2,0.2,0.2,0.4-0.1,0.7c-0.5,0.2-1.2,0.4-2.2,0.6
		c-0.1,0.8-0.1,1.7-0.1,3c0.6-0.4,1.3-0.9,2-1.4c0.2-0.1,0.3-0.1,0.3,0.2h0.4c1.3-0.3,2.3-0.5,3.1-0.7v-2.7c-0.5,0.1-1,0.3-1.6,0.4
		c-0.9-0.2-1.2-0.4-0.8-0.5c0.6-0.2,1.3-0.4,2.3-0.6c0-0.9,0-1.9,0-2.9c-0.1-0.2-0.3-0.5-0.5-0.7c-0.4-0.4-0.3-0.6,0.3-0.7
		C262.6,215.8,263.2,216.1,263.5,216.4z M262.9,230.2c0.1,0.8-0.3,0.9-1.2,0.2c-0.5-0.5-1-1-1.3-1.7c-0.2-0.3-0.1-0.3,0.3-0.2
		c0.5,0.1,1,0.3,1.6,0.4C262.5,229.1,262.7,229.5,262.9,230.2z"/>
	<path d="M260,242.9c0.3,0.2,0.2,0.4-0.3,0.6c-0.3,0.9-0.7,1.9-1,2.8c0.2,0.3,0.1,0.5-0.3,0.6c-0.3-0.1-0.6-0.1-1,0
		c-0.6,0.2-1.3,0.4-1.9,0.6c0.3,0.2,0.6,0.5,0.9,0.9c0,0.2,0,0.3,0,0.5c-0.1,0.5-0.3,0.8-0.4,1.1c0.6-0.2,1.1-0.3,1.5-0.5
		c0.3-0.2,0.6-0.4,0.9-0.5c0.5,0.1,0.9,0.3,1.4,0.7c0.3,0.2,0.4,0.4,0.1,0.6c-1,4.2-2.1,7.1-3.5,8.8c-0.3,0.3-0.5,0.4-0.7,0.1
		c-0.5-0.8-1.2-1.6-2.2-2.3c-0.2-0.2-0.1-0.3,0.1-0.3c0.6,0.2,1.1,0.4,1.7,0.5c0.2,0.1,0.4,0.1,0.5,0c0.3-0.3,0.6-0.8,1-1.7
		c0.5-1.2,1-2.8,1.4-4.6c-0.1-0.2-0.2-0.4-0.3-0.4c-0.6,0.1-1.3,0.2-2,0.3c-1.1,2.3-2.9,4.6-5.4,7c-0.2,0.1-0.3,0-0.3-0.3
		c1.3-1.6,2.5-3.3,3.4-5.1c0.9-1.7,1.3-3.1,1.3-4c-0.1-0.5-0.2-0.6-0.5-0.2c-0.6,0-1-0.1-1.1-0.4c-0.4-1-0.7-1.8-1-2.5
		c-0.2-0.5-0.4-0.9-0.7-1.3c-0.1-0.2-0.2-0.3-0.3-0.5c-0.1-0.2,0.1-0.3,0.4-0.3c0.5,0.2,1.1,0.3,1.7,0.5c1.1-0.2,2.5-0.7,4.2-1.4
		c0.2-0.2,0.4-0.3,0.6-0.3C258.8,242,259.5,242.3,260,242.9z M254.2,247.1c1-0.3,2.1-0.7,3.3-1.2c0.1-0.7,0.1-1.5,0.3-2.5
		c0-0.2-0.1-0.4-0.3-0.4c-1.7,0.6-3.1,1-4.3,1.2C253.6,245.3,254,246.3,254.2,247.1z M263,246.5c0,0.3,0,0.7,0,1.2c0,0.6,0,2,0,4
		c0,1.2-0.2,1.7-0.7,1.6c-0.5-0.2-0.8-0.8-0.9-1.6c0.2-0.9,0.3-2.6,0.3-5.1c0-0.3-0.1-0.6-0.2-0.9c-0.2-0.3-0.1-0.5,0.3-0.3
		C262.3,245.6,262.7,246,263,246.5z M267.6,242.3c0.3,0.3,0.3,0.7,0,1.1c-0.1,0.3-0.1,0.8,0,1.2v9.7c0.1,1.4,0.1,2.7,0.2,3.8
		c-0.3,1-0.6,1.8-0.9,2.4c-0.2,0.5-0.5,0.5-0.8,0c-0.8-1-1.5-1.7-2.1-2.2c-0.3-0.2-0.5-0.4-0.7-0.5c-0.2-0.2-0.1-0.3,0.2-0.3
		c0.7,0.2,1.4,0.3,2,0.4c0.3,0.1,0.5,0,0.6-0.3c0.1-0.3,0.1-0.7,0.1-1.3v-2.2c0-2.8,0-4.9-0.1-6.4c0-2.3,0-3.9-0.1-4.8
		c-0.1-0.5-0.3-1-0.6-1.4c-0.4-0.4-0.4-0.6,0.1-0.6C266.4,241.2,267.1,241.6,267.6,242.3z"/>
	<path d="M255.7,269.9c0.2,0.2,0.3,0.5,0.3,0.8c-0.8,3.1-1.3,5-1.5,5.7c-0.2,1.1-0.3,2-0.3,2.8c0,0.8,0.1,1.4,0.2,1.7
		c0.1,0.1,0.1,0.1,0.2,0c0.2-0.2,0.8-1,1.7-2.4c0.2-0.2,0.3-0.2,0.3,0.1c-0.5,1.4-0.8,2.3-1,2.8c-0.2,0.6-0.3,1.4-0.3,2.3
		c-0.1,0.3-0.2,0.6-0.3,0.7c-0.2,0.1-0.4,0.1-0.6,0c-0.8-0.7-1.1-2-1.1-3.9c0-0.9,0.1-2.1,0.3-3.7c0.4-2.4,0.7-4.4,0.9-5.7
		c0-0.7-0.1-1.2-0.2-1.4c-0.1-0.2-0.2-0.3-0.3-0.5c-0.1-0.2,0.1-0.3,0.3-0.3C254.8,269,255.3,269.4,255.7,269.9z M261.5,280.5
		c0.4,0.2,1.2,0.3,2.5,0.3c1,0,1.7-0.1,2.1-0.2c0.5-0.2,0.8-0.3,1.1-0.1c0.5,0.2,0.8,0.3,0.9,0.5c0.2,0.3,0.2,0.6-0.2,0.8
		c-0.2,0.1-0.5,0.2-0.9,0.3c-0.5,0.1-1,0.2-1.6,0.2c-1.9,0-3.2-0.3-3.9-0.8c-0.7-0.5-1.2-1.2-1.5-2.1c0-0.3,0.1-0.4,0.3-0.3
		C260.7,279.8,261,280.2,261.5,280.5z M265.1,270.6c0.2-0.1,0.3-0.1,0.4-0.2c0.1-0.1,0.3-0.1,0.5,0c0.5,0.1,1,0.3,1.4,0.7
		c0.2,0.3,0.2,0.5-0.2,0.7c-0.2,0.1-0.7,0.2-1.3,0.2c-1.2,0-2.7,0.2-4.4,0.6c-0.3,0.1-0.6,0-1-0.2c-0.2-0.1-0.2-0.2,0-0.3
		L265.1,270.6z"/>
	<path d="M259.5,294.7c-0.2-0.2-0.3-0.5-0.3-0.9c0-0.3,0.1-0.6,0.3-0.9c0.2-0.2,0.5-0.3,0.9-0.3c0.3,0,0.6,0.1,0.9,0.3
		c0.2,0.2,0.3,0.5,0.3,0.9c0,0.3-0.1,0.6-0.3,0.9c-0.2,0.2-0.5,0.3-0.9,0.3C260,295,259.7,294.9,259.5,294.7z M259.5,302.1
		c-0.2-0.2-0.3-0.5-0.3-0.9c0-0.3,0.1-0.6,0.3-0.9c0.2-0.2,0.5-0.3,0.9-0.3c0.3,0,0.6,0.1,0.9,0.3c0.2,0.2,0.3,0.5,0.3,0.9
		c0,0.3-0.1,0.6-0.3,0.9c-0.2,0.2-0.5,0.3-0.9,0.3C260,302.4,259.7,302.3,259.5,302.1z M259.5,309.5c-0.2-0.2-0.3-0.5-0.3-0.9
		s0.1-0.6,0.3-0.9c0.2-0.2,0.5-0.3,0.9-0.3c0.3,0,0.6,0.1,0.9,0.3c0.2,0.2,0.3,0.5,0.3,0.9s-0.1,0.6-0.3,0.9
		c-0.2,0.2-0.5,0.3-0.9,0.3C260,309.8,259.7,309.7,259.5,309.5z"/>
</g>
<g>
	<path d="M38.5,10.5c0.4,0.1,1,0.2,1.8,0.6c0.4,0.3,0.4,0.6,0,1c-1,0-1.8,0-2.6,0c-0.9,0-1.6,0-2.2,0.1c-1.4,0.2-2.8,0.4-4.3,0.7
		c0.2,0.2,0.4,0.3,0.6,0.5c0.2,0.2,0.2,0.4,0.2,0.7l-0.1,4.7l0.9-0.3c0.3-0.1,0.3,0,0.1,0.2l-1,0.7l-0.1,2.2c0,0.5-0.1,1-0.2,1.3
		c-0.3,0.8-0.6,0.9-0.9,0.3c-0.1-0.3-0.1-0.6-0.1-0.9l0.1-2.4c-0.7,0.4-1.7,1-3.1,1.8C27.4,21.8,27.2,22,27,22
		c-0.6-0.1-1.1-0.4-1.5-1c-0.2-0.3-0.2-0.5,0-0.6c0.2,0.1,0.3,0.2,0.6,0.2c0.6-0.1,1.2-0.3,1.8-0.6v-5.7c0-0.6-0.1-0.9-0.4-0.9
		c-0.6,0.2-1,0.3-1.4,0.3c-0.4-0.2-0.7-0.3-1-0.4c-0.1-0.1-0.1-0.2,0.1-0.2c0.3,0,0.8-0.1,1.6-0.2c2.9-0.6,6.2-1.2,10-1.8
		c0.3-0.1,0.6-0.1,1-0.2C38.1,10.7,38.3,10.5,38.5,10.5z M28.4,13.3c0.2,0.3,0.4,0.5,0.5,0.6c0.1,0.5,0.1,1,0,1.4
		c0.5-0.2,0.9-0.3,1.3-0.5c0.2,0,0.3,0,0.6,0.1c0.1-0.7,0-1.2-0.1-1.5c-0.1-0.2-0.3-0.3-0.5-0.3L28.4,13.3z M35.9,5.3
		c0.4,0.2,0.8,0.5,1.3,1c0.3,0.3,0.3,0.5-0.1,0.7L36,9.8c-0.4,0.8-0.7,1.1-1,1c-0.1-0.1-0.3-0.2-0.5-0.4c-1,0.1-2,0.3-3,0.5
		c-0.3,0.1-0.5,0.2-0.6,0.3c-0.2,0-0.3-0.1-0.6-0.2c-0.2-0.2-0.3-0.4-0.5-0.8l-1-3c-0.1-0.2-0.2-0.3-0.3-0.5
		c-0.2-0.2-0.1-0.3,0.2-0.3c0.4,0.1,0.8,0.1,1.3,0.2c1.3-0.2,3-0.6,5.3-1.1C35.5,5.3,35.8,5.3,35.9,5.3z M30.7,15.4
		c-0.7,0.2-1.4,0.4-1.8,0.6l-0.1,1.5c0.8-0.4,1.4-0.6,1.5-0.6c0.1,0,0.2,0.1,0.4,0.2V15.4z M28.8,19.9l1.9-0.6v-1.8
		c-0.6,0.2-1.3,0.3-1.9,0.6V19.9z M30.2,7.2c0.1,0.5,0.2,0.9,0.3,1.2c0.1,0.2,0.8-0.1,2.3-0.6c0.2-0.1,0.3-0.2,0.4-0.2
		c0.3,0,0.6,0.1,1,0.2C34.5,8,34.4,8.1,34,8.3c-0.8,0.2-1.9,0.4-3.3,0.6c0.2,0.6,0.4,1.1,0.5,1.5c1.6-0.4,2.8-0.7,3.7-1l0.6-2.7
		c0.1-0.4,0-0.6-0.4-0.6L30.2,7.2z M37.8,14.1c0.3,0.2,0.3,0.4,0.1,0.6c-0.1,0.3-0.2,0.6-0.4,1.1c-0.3,0.9-0.8,1.7-1.4,2.5
		c2.2,1.9,4.5,3.2,6.9,3.9c0.2,0,0.2,0.1,0,0.2c-1.6,0.3-2.8,0.4-3.4,0.4c-0.2,0-0.4-0.1-0.6-0.2c-1.3-1.3-2.5-2.5-3.4-3.7
		c-1.1,1.2-2.2,2-3.3,2.5c-0.2,0.1-0.2,0-0.2-0.2c1.2-0.8,2.1-1.9,2.8-3c-0.5-0.6-1.1-1.1-1.8-1.6c-0.4-0.1-0.6-0.2-0.7-0.3
		c0-0.2,0.1-0.3,0.3-0.4c0.3,0.1,0.6,0.2,1,0.3c0.5,0.3,1,0.7,1.7,1.4c0.6-1.2,0.9-2.1,0.9-2.7c0.1-0.3-0.1-0.4-0.3-0.4
		c-1.1,0.4-1.8,0.6-2.1,0.6l-0.7-0.2C33,15,33,14.9,33.2,14.9c0.4-0.1,0.7-0.2,1-0.2c0.6-0.2,1.3-0.5,2-0.7c0.2-0.2,0.4-0.3,0.6-0.3
		C37.2,13.8,37.5,14,37.8,14.1z"/>
	<path d="M40.9,37.6c0.3,0.2,0.3,0.5-0.1,0.7c-0.4,2.5-0.7,4.5-1.1,5.8c-0.3,1-0.6,1.8-1,2.3c-0.4,0.5-0.7,0.5-0.9,0.1
		c-0.4-0.9-1-1.5-1.8-2c-0.2-0.2-0.2-0.2,0-0.2c0.5,0.1,1,0.2,1.4,0.2c0.5,0.1,0.7-0.1,0.8-0.6c0.6-1.9,1-3.8,1-5.6
		c0-0.4-0.2-0.6-0.5-0.6c-3,0.5-5.9,1-8.7,1.4c-0.8,0.2-1.6,0.3-2.5,0.5c0.4,2.7,0.7,4.4,1,5.3c0,0.5-0.3,0.7-0.9,0.5
		c-0.3-0.2-0.5-0.5-0.6-0.9c-0.2-1.5-0.3-3.1-0.6-4.5c-0.1-0.4-0.2-0.7-0.4-1c0-0.2,0.1-0.2,0.2-0.2c0.3,0.1,0.5,0.2,0.7,0.3
		c4.7-1,8.5-1.6,11.5-2.1c0.3-0.2,0.6-0.2,0.9-0.2C39.9,37,40.4,37.3,40.9,37.6z M33.1,29.5c0.4,0.2,0.4,0.5,0.2,0.7
		c-0.1,0.5-0.2,0.9-0.3,1.4c1-0.2,1.8-0.3,2.5-0.5c0.4-0.3,0.8-0.5,1.2-0.7c0.7,0.2,1.2,0.3,1.6,0.5c0.5,0.4,0.5,0.7-0.1,0.9
		c-0.3,0.1-0.7,0.1-1,0.1c-1.2,0-2.2,0.1-2.9,0.2c-1.7,0.2-3.5,0.6-5.4,1c-0.4,0.1-0.7,0.2-1,0.3c-0.3-0.1-0.7-0.2-1-0.3
		c-0.2-0.1-0.1-0.2,0.1-0.2c1.7-0.4,3.5-0.7,5.3-1.1c-0.1-0.4-0.2-1-0.3-1.6c-0.2-0.3-0.4-0.5-0.5-0.6c0-0.3,0.1-0.5,0.3-0.5
		C32.2,29.1,32.7,29.2,33.1,29.5z M36.3,33.8c0.3,0.2,0.3,0.3,0,0.6c-0.5,1.1-0.9,2-1.3,2.6c-0.2,0.3-0.4,0.3-0.6,0.1
		c-0.2-0.4-0.5-0.5-0.9-0.5c-0.7,0.2-1.5,0.3-2.3,0.6c-0.1,0.4-0.2,0.6-0.4,0.6c-0.2,0.1-0.4-0.1-0.6-0.3c-0.4-0.9-0.7-1.8-1-2.5
		c-0.4-0.5-0.3-0.7,0.2-0.7h0.6c1.5-0.2,3.1-0.5,4.8-0.9l0.3-0.1C35.6,33.3,36,33.5,36.3,33.8z M36.2,40.4c0.2,0.2,0.2,0.4-0.2,0.6
		c-0.4,0.7-0.9,1.5-1.3,2.2c-0.2,0.2-0.3,0.2-0.5,0c-0.2-0.3-0.4-0.4-0.6-0.3c-0.7,0.2-1.4,0.3-2.1,0.4c0.1,0.5-0.2,0.6-0.6,0.5
		c-0.1-0.1-0.2-0.2-0.4-0.4c-0.2-0.7-0.5-1.5-0.7-2.2c-0.1-0.2-0.1-0.3-0.2-0.4c-0.1-0.2,0-0.2,0.2-0.2c0.3,0.1,0.5,0.2,0.8,0.2
		c1.1-0.2,2.5-0.6,4.2-1.1C35.5,39.8,35.9,40,36.2,40.4z M30.3,34.6c0.3,0.7,0.5,1.4,0.7,2c1-0.3,1.9-0.6,2.8-0.9
		c0.3,0.1,0.5,0,0.6-0.2c0.1-0.3,0.1-0.7,0.2-1.1c0.1-0.3,0-0.5-0.2-0.5C32.9,34.2,31.6,34.5,30.3,34.6z M31.4,42.8
		c0.4-0.1,1-0.2,1.8-0.4c0.3-0.1,0.6-0.1,0.7-0.2c0.2-0.5,0.3-1,0.5-1.4c0-0.2-0.1-0.3-0.3-0.4c-1.5,0.4-2.6,0.6-3.3,0.7
		C31,41.7,31.2,42.3,31.4,42.8z"/>
	<path d="M38.8,57.1c0.9,0.9,1.4,2.2,1.4,3.7c0,1.3-0.5,2.5-1.5,3.6c-0.9,1-2.1,1.8-3.7,2.5c-0.3,0.1-0.3,0.1-0.2-0.2
		c1.3-1.1,2.3-2,2.9-2.9c0.7-0.9,1-2,1-3.4c0-1.3-0.4-2.3-1.2-3.1c-0.9-0.8-1.8-1.3-2.9-1.3c-0.6,0-1.1,0-1.3,0.1
		c0.1,0.3,0.2,0.6,0.2,1c0,0.5-0.2,1.2-0.6,2.1c-0.4,1-0.9,1.9-1.4,2.8c-1.2,1.9-2,3-2.5,3.5c-0.5,0.4-0.9,0.6-1.2,0.6
		c-0.6,0-1-0.8-1.3-2.3c-0.2-0.8-0.3-1.6-0.4-2.3c0-1.3,0.9-2.7,2.6-4.1c1.8-1.4,3.8-2.1,6.1-2.1C36.3,55.5,37.7,56,38.8,57.1z
		 M28.6,58.9c-1,1-1.5,2.2-1.5,3.4c0,1.4,0.3,2.2,1,2.2c0.2,0,0.3-0.1,0.5-0.2c1.1-1.1,2.1-2.5,3.1-4.4c0.7-1.3,1-2.4,1-3.4
		C31.1,57,29.7,57.8,28.6,58.9z"/>
	<path d="M29.9,75.7c0.2,0.1,0.4,0.3,0.6,0.7c-0.2,0.7-0.3,1.8-0.5,3.4c0.4-0.2,0.7-0.3,0.8-0.5c0.2-0.2,0.3-0.3,0.5-0.2
		c0.3,0.1,0.6,0.2,1,0.3c0.3,0.3,0.2,0.6-0.2,0.8c-0.7,0.2-1.4,0.3-2.2,0.6c-0.1,0.9-0.1,1.9-0.1,2.9c0.5-0.4,1.1-0.9,1.7-1.4
		c0.2-0.1,0.3-0.1,0.2,0.2c-0.5,0.7-1.1,1.5-1.9,2.3c0,2,0,4.3,0,6.9c-0.1,0.6-0.3,0.9-0.7,0.7c-0.3-0.2-0.5-0.5-0.6-0.9
		c-0.1-0.3-0.2-0.7-0.2-1.1c0.4-1,0.6-2.5,0.6-4.6c-1,1-1.8,1.8-2.5,2.5c-0.3,0.2-0.5,0.2-0.7,0.1c-0.3-0.2-0.6-0.5-0.9-0.9
		c-0.4-0.4-0.3-0.6,0.1-0.6c0.2,0,0.4,0,0.6,0c1.1-0.7,2.3-1.5,3.4-2.3c0-1.1,0-2.3,0.1-3.5c-0.6,0.2-1.2,0.3-1.8,0.6
		c-0.3-0.1-0.6-0.2-0.7-0.3c-0.7,0.8-1.5,1.6-2.4,2.4c-0.2,0.1-0.2,0-0.2-0.2c1.1-1.5,1.9-3.1,2.3-4.6c-0.1-0.3-0.2-0.4-0.3-0.5
		c-0.1-0.3,0-0.4,0.3-0.4c0.5,0.1,0.8,0.3,1,0.5c0.2,0.2,0.3,0.3,0.5,0.5c0.1,0.2,0.1,0.3-0.2,0.6c-0.3,0.5-0.6,1-0.9,1.4
		c0.6-0.1,1.4-0.3,2.3-0.7c0.1-1.2,0.1-2.4,0.1-3.7c0-0.3-0.2-0.6-0.6-0.9c-0.1-0.4,0-0.6,0.2-0.6C29.1,75.4,29.5,75.5,29.9,75.7z
		 M35.7,76.5c0.3,0.3,0.3,0.5,0,0.7c-0.6,1.4-1.3,2.8-1.9,4.1c1.9-0.4,3.8-0.9,6-1.6c0.2-0.2,0.4-0.2,0.6-0.2c0.5,0.2,1,0.5,1.7,0.9
		c0.3,0.2,0.2,0.4-0.1,0.6c-0.4,1.5-0.8,2.8-1,3.8c-0.6,2.5-1.3,4.5-1.9,5.7c-0.2,0.5-0.5,1-0.8,1.3c-0.3,0.4-0.6,0.3-0.7-0.1
		c-0.6-0.7-1.2-1.3-2-1.8c-0.2-0.2-0.2-0.2,0-0.2c0.6,0.2,1.2,0.3,1.8,0.3c0.5-0.2,0.8-0.7,1.1-1.6c1.1-3,1.8-5.6,2.1-7.6
		c-0.1-0.2-0.2-0.3-0.5-0.2c-1,0.2-2,0.5-3.1,0.9c0.7,0.2,1.1,0.7,1.2,1.4c-0.2,0.6-0.7,1.6-1.6,3.1c-1,1.6-2.3,3.2-4,4.5
		c-0.2,0.1-0.2,0-0.2-0.2c1.2-1.4,2.2-2.9,3-4.6c0.6-1.3,1-2.4,1.3-3.3c0-0.3-0.1-0.6-0.3-0.9c-0.5,0.2-1,0.3-1.5,0.5
		c0.4,0.4,0.6,0.7,0.6,1c-0.9,1.6-2.2,3.1-3.7,4.6c-0.2,0.1-0.3,0-0.2-0.2c1-1,1.9-2.7,2.7-4.9c0-0.2,0-0.3,0-0.6
		c-0.3,0.1-0.5,0-0.7-0.2c-0.4,0.6-0.9,1.2-1.4,1.8c-0.2,0.1-0.2,0.1-0.2-0.1c0.6-1.1,1-2,1.3-2.9c0.5-1.4,0.8-2.7,1-3.9
		c-0.1-0.2-0.2-0.4-0.4-0.5c-0.2-0.2,0-0.3,0.6-0.4C34.8,75.9,35.3,76.1,35.7,76.5z"/>
	<path d="M28.8,99.2c0.6,0,1,0.2,1.2,0.6c-0.1,0.8-0.2,1.6-0.2,2.4c0.3-0.1,0.6-0.2,0.9-0.3c0.2-0.2,0.3-0.2,0.6-0.2
		c0.3,0.1,0.6,0.2,0.9,0.3c0.3,0.4,0.2,0.6-0.3,0.6c-1.2,0.1-3.4,0.6-6.8,1.5c-0.5-0.1-0.9-0.2-1.2-0.3c-0.3-0.2-0.2-0.3,0.4-0.4
		c1.2-0.1,2.8-0.5,4.9-1.1c-0.2-0.5-0.3-1.2-0.4-1.9c-0.1-0.3-0.3-0.5-0.5-0.6c-0.4-0.4-0.3-0.6,0.2-0.6H28.8z M31.5,110.4
		c0.3,0.2,0.2,0.4-0.2,0.7c-0.4,0.7-0.6,1.3-0.8,1.8c0.3,0.3,0.1,0.5-0.6,0.6c-0.6,0-1.4,0.2-2.3,0.5c-0.2,0.4-0.5,0.6-0.7,0.4
		c-0.3-0.3-0.5-0.7-0.7-1.3c-0.2-0.5-0.3-1-0.5-1.5c-0.1-0.3-0.2-0.5-0.3-0.6c-0.2-0.2-0.2-0.3,0.1-0.4c0.3,0.1,0.6,0.1,0.9,0.1
		c1.5-0.4,2.7-0.7,3.6-1c0.2-0.2,0.3-0.2,0.5-0.1C30.8,109.8,31.2,110.1,31.5,110.4z M26.7,111.2c0.1,0.2,0.2,0.3,0.2,0.4
		c0.2,0.6,0.3,1.3,0.5,1.9c0.4-0.2,1-0.4,1.8-0.6c0.1,0,0.2,0,0.3-0.1c0.1-0.6,0.2-1.2,0.4-1.9c0.1-0.3,0-0.4-0.2-0.3
		C28.3,110.9,27.3,111.1,26.7,111.2z M29.6,107.1c1,0.2,1.2,0.5,0.9,0.9c-1.1,0.2-2,0.4-2.7,0.6c-0.3-0.1-0.5-0.1-0.8-0.2
		c-0.2-0.1-0.2-0.2,0.1-0.3C28.1,107.6,29,107.3,29.6,107.1z M30.7,104.9c0.4,0.2,0.4,0.4-0.1,0.6c-1,0.2-1.9,0.5-2.8,0.7
		c-0.9-0.2-1.1-0.3-0.6-0.6c0.7-0.2,1.3-0.4,1.9-0.6c0.3-0.1,0.5-0.2,0.6-0.4C30.1,104.7,30.4,104.7,30.7,104.9z M38,99.2
		c0.5,0,1,0.1,1.3,0.3c0.5,0.3,0.5,0.6,0,0.7c-0.8,0-2,0.1-3.3,0.4c0.6,0.5,0.8,0.9,0.8,1.2c-0.1,0.3-0.4,1.1-0.9,2.5
		c0.6-0.2,1.2-0.3,1.8-0.5c0.2-0.1,0.4-0.2,0.6-0.2c0.4,0.2,0.8,0.5,1.1,0.8c0.4,0.2,0.5,0.5,0.1,0.7c-0.3,0.8-0.6,1.6-1,2.3
		c0.3-0.1,0.7-0.1,1.1-0.2c0.2-0.1,0.5-0.2,0.7-0.3c1,0.1,1.6,0.3,1.9,0.6c0.3,0.4,0.2,0.7-0.4,0.7c-0.7-0.1-1.4-0.2-2-0.2
		c-0.7,0-1.5,0-2.5,0.1c-1.9,0.2-3.7,0.6-5.6,1c-0.4-0.1-0.7-0.2-1-0.3c-0.2-0.1-0.1-0.2,0.1-0.2c0.4-0.1,1.2-0.2,2.6-0.5
		c0.3-0.9,0.6-1.9,0.9-2.9c-0.3,0.1-0.6,0.2-0.9,0.3c-1.2-0.3-1.5-0.5-0.9-0.6c0.7-0.2,1.4-0.3,2-0.5c0.2-1,0.4-2,0.6-3
		c0-0.5-0.1-0.7-0.4-0.7c-0.4,0.1-0.7,0.2-0.9,0.2c-0.2-0.1-0.4-0.1-0.6-0.2c-0.5-0.3-0.5-0.4,0.1-0.5c1.2-0.2,2.4-0.5,3.6-0.7
		C37.5,99.5,37.8,99.3,38,99.2z M38.5,109.9c0.5,0.2,0.9,0.4,1.4,0.7c0.4,0.3,0.4,0.5-0.2,0.8c-0.5,1.2-0.9,1.9-1.1,2.3
		c0.2,0.4,0,0.6-0.4,0.6c-0.4-0.1-0.7-0.2-1.1-0.2c-1,0.2-1.8,0.3-2.3,0.4c-0.1,0.2-0.2,0.3-0.4,0.2c-0.2-0.1-0.3-0.2-0.5-0.4
		c-0.4-0.7-0.7-1.6-1-2.8c-0.1-0.3-0.2-0.5-0.3-0.6c-0.2-0.3-0.1-0.4,0.2-0.3c0.3,0.1,0.7,0.2,1,0.2c1.2-0.1,2.5-0.3,3.8-0.7
		C37.8,109.9,38,109.9,38.5,109.9z M34.1,111.4l0.1,0.5c0.2,0.6,0.4,1.3,0.6,2.1c0.8-0.2,1.7-0.4,2.8-0.6c0.1-0.2,0.2-0.4,0.2-0.6
		c0.1-0.5,0.2-1,0.3-1.7c0.1-0.3,0-0.5-0.2-0.4C36.4,110.9,35.1,111.2,34.1,111.4z M34.6,108c0.8-0.2,1.7-0.3,2.5-0.4
		c0.3-1.1,0.5-2,0.6-2.5c0.1-0.3-0.1-0.5-0.3-0.4c-0.5,0.1-1.2,0.3-1.9,0.5C35.3,106.2,35,107.2,34.6,108z"/>
	<path d="M33,122.4c0.3,0.2,0.6,0.5,0.8,0.9c0.2,0.2,0.2,0.5,0,0.7l-0.5,0.8c0.4-0.1,0.8-0.2,1.2-0.4c0.1-0.1,0.2-0.1,0.4,0
		c0.2,0.2,0.4,0.3,0.6,0.5c0.1,0.2,0,0.4-0.3,0.5c-0.8,0.3-1.7,0.5-2.5,0.8c-0.7,1.1-1.5,2.1-2.2,3.1c0.4-0.2,0.9-0.2,1.4-0.2
		c0.5,0,1,0.2,1.3,0.5c0.4,0.4,0.6,1.1,0.8,2.3c1-0.4,2.1-0.8,3.2-1.3c0.4-0.2,0.5-0.5,0.3-1c-0.3-0.3-0.2-0.3,0.3-0.2
		c0.6,0.4,1.1,1,1.5,1.8c0.1,0.2,0,0.3-0.3,0.4c-0.9,0.1-1.6,0.2-2.3,0.4c-0.7,0.2-1.6,0.5-2.6,0.9v1.2c-0.1,0.5-0.3,0.8-0.7,0.9
		c-0.2-0.1-0.4-0.2-0.5-0.3c-0.1-0.2-0.2-0.6-0.2-1c-1.3,0.7-1.9,1.4-1.9,2.2c0,0.4,0.2,0.7,0.6,0.9c0.3,0.1,0.7,0.2,1.2,0.2
		c0.7,0,1.4-0.1,1.8-0.2c0.5-0.2,0.8-0.2,0.9-0.2c0.5,0.2,1,0.4,1.4,0.6c0.2,0.2,0.3,0.3,0.2,0.6c-0.1,0.2-0.6,0.4-1.4,0.5
		c-0.6,0.1-1.1,0.1-1.5,0.1c-1.2,0-2.1-0.2-2.9-0.6c-0.6-0.5-1-1.1-1-1.8c0-0.5,0.2-1,0.6-1.4c0.5-0.6,1.1-1.1,2-1.7
		c0.1-1.9-0.3-2.9-1.1-2.9c-0.7,0-1.4,0.5-2.1,1.4c-0.3,0.5-0.6,0.5-0.9,0.2c-0.2-0.3-0.2-0.6-0.2-0.9c0-0.2,0.1-0.4,0.2-0.6
		c0.5-0.4,1.4-1.5,2.5-3.2c-0.7,0.2-1.1,0.2-1.3,0.2c-0.2,0-0.4-0.1-0.8-0.2c-0.4-0.2-0.6-0.5-0.8-0.8c-0.1-0.2,0-0.3,0.2-0.3
		c0.6,0.2,1.1,0.3,1.5,0.2c0.5-0.1,1.1-0.2,1.8-0.3l0.5-1c0.1-0.3,0.2-0.6,0.2-0.7c0-0.2-0.1-0.4-0.2-0.6c-0.2-0.2-0.3-0.3-0.4-0.6
		c-0.1-0.2,0.1-0.3,0.3-0.2C32.4,122.3,32.7,122.4,33,122.4z"/>
	<path d="M30,144.4c0.3,0.1,0.5,0.3,0.7,0.6c0.2,0.3,0.1,0.6-0.3,0.9c0.7,0.1,1.5,0.2,2.2,0.2c0.4,0,0.7,0.1,1,0.2
		c0.5,0.5,0.9,1,1,1.4c0.1,0.4-0.2,0.5-0.6,0.5c-0.4,0-1.6-0.6-3.7-1.9c-0.9,1.1-1.6,1.9-2,2.4c0.7-0.1,1.4-0.2,1.8-0.3
		c0.1-0.1,0.2-0.2,0.5-0.2c0.7,0.1,1.1,0.2,1.4,0.6c0.1,0.3,0,0.4-0.4,0.5c-0.8,0.1-1.5,0.1-1.8,0.1c-0.6-0.1-1.2-0.1-1.8-0.2
		c-1.4,1.5-2.8,2.8-4.2,3.8c-0.2,0.1-0.3,0.1-0.2-0.2c1.4-1.6,2.4-2.8,3-3.7c0.7-1.1,1.5-2.2,2.2-3.5c0.1-0.3,0-0.7-0.4-1
		c-0.1-0.2,0-0.3,0.3-0.3C29.5,144.2,29.9,144.3,30,144.4z M33.8,150.5c0.3,0.2,0.2,0.4-0.2,0.8l-1.1,3.1c0.1,0.2,0.1,0.4,0.1,0.5
		c0,0.1-0.1,0.1-0.2,0.2c-0.7,0.1-1.5,0.2-2.5,0.5c-1,0.3-1.7,0.5-2.2,0.6l-0.6,1.5h0.7l3.9-1.1l0.5-0.2c0.4,0.2,0.8,0.4,1.3,0.7
		c0.2,0.1,0.2,0.2,0,0.4c-0.3,0.7-0.6,1.4-0.9,2c0,0.4-0.1,0.7-0.3,0.7c-1,0.1-2,0.3-2.9,0.5c-0.2,0.5-0.4,0.6-0.6,0.5
		c-0.2-0.2-0.4-0.3-0.5-0.5l-0.9-2.3c-0.2-0.2-0.3-0.4-0.4-0.5c-0.8,1.4-1.7,2.6-2.7,3.6c-0.2,0-0.2-0.1-0.2-0.2
		c1.1-1.5,1.9-3.2,2.4-4.9c0.5-1.6,0.7-3.1,0.7-4.6c-0.1-0.3-0.2-0.6-0.4-0.7c-0.1-0.2,0-0.3,0.2-0.2c0.3,0.2,0.7,0.2,1.3,0.2
		c0.6-0.1,1.8-0.4,3.5-1c0.2-0.2,0.5-0.3,0.7-0.2C32.9,150,33.3,150.2,33.8,150.5z M31.6,153c-1.2,0.2-2.3,0.5-3.3,0.8
		c-0.2,0.6-0.3,1.2-0.5,1.8c1-0.3,2-0.7,3.1-1.2l0.6-0.2L31.6,153z M28.2,158l0.2,0.2l0.6,1.9c0.6-0.1,1.3-0.3,2.1-0.6h0.2
		c0.2-0.7,0.3-1.4,0.3-2.2c0-0.2-0.1-0.2-0.2-0.2L28.2,158z M28.4,153.4c1.3-0.6,2-1,2.3-1.1c0.4,0.1,0.8,0.2,1,0.2
		c0.1-0.6,0.2-1.2,0.2-1.6c-0.1-0.2-0.2-0.2-0.3-0.2l-3,0.8v0.4L28.4,153.4z M36.9,150.2c-0.1,0.4-0.1,0.7-0.1,0.9
		c-0.1,1.4-0.1,2.8-0.1,4.1c-0.1,0.4-0.2,0.6-0.4,0.7c-0.2,0.1-0.3,0-0.6-0.4c-0.2-0.6-0.3-1.1-0.4-1.4c-0.1-0.1,0-0.3,0.2-0.5
		c0.1-0.7,0.1-1.7,0.1-2.9c0-0.3-0.1-0.6-0.2-0.8c-0.3-0.3-0.2-0.4,0.2-0.4C35.9,149.5,36.4,149.7,36.9,150.2z M40.1,144.7
		c0.3,0.2,0.6,0.3,0.8,0.6c0.1,0.2,0.1,0.4-0.1,0.7c-0.2,1.5-0.2,2.7-0.2,3.7V160c0.1,0.5,0.1,0.8,0.1,0.9c0,0.4-0.2,0.8-0.5,1.4
		c-0.3,0.5-0.6,0.7-0.8,0.6c-0.6-0.9-1.6-1.8-2.9-2.7c-0.1-0.2-0.1-0.2,0.1-0.2c0.6,0.2,1.2,0.3,1.8,0.4c0.4,0.1,0.7,0,0.8-0.2
		c0.2-1.5,0.2-2.9,0.2-4.1v-10.4l-0.8-0.8c-0.2-0.3,0-0.5,0.5-0.4C39.4,144.4,39.8,144.5,40.1,144.7z"/>
	<path d="M30.1,168.6c0.4,0.4,0.5,0.7,0.3,1c-0.9,1.5-1.6,2.7-2.2,3.6c0.4,0.2,0.6,0.4,0.6,0.8c-0.1,1.5-0.1,3-0.2,4.5
		c-0.1,3-0.1,4.9-0.1,5.7c-0.1,0.6-0.3,0.9-0.6,0.8c-0.3-0.2-0.6-0.6-0.8-1.2c-0.1-0.2-0.2-0.5-0.2-1c0.1-0.2,0.1-0.5,0.2-1
		c0.1-0.8,0.2-1.8,0.2-2.9c0.1-1.3,0.2-2.7,0.2-4.4c0-0.3-0.1-0.4-0.3-0.4c-0.9,1.2-1.9,2.2-2.9,3.1c-0.2,0.1-0.2,0-0.1-0.2
		c1.2-1.6,2.3-3.3,3.1-5c0.7-1.6,1.1-2.5,1.2-2.9c0.1-0.2,0-0.3-0.2-0.6c-0.3-0.4-0.2-0.7,0.2-0.7C29.4,168.1,29.8,168.4,30.1,168.6
		z M35.5,168.6c0.1,0.3-0.2,0.9-0.7,1.7c-0.4,0.7-0.9,1.6-1.4,2.5c0.1,0.1,0.3,0.1,0.5,0.1c3.6-0.8,5.5-1.4,5.6-1.8
		c0.2-0.2,0.3-0.3,0.6-0.3c0.8,0.1,1.4,0.2,1.7,0.6c0.2,0.2,0.2,0.5-0.2,0.8c-0.9,0.1-2.7,0.4-5.4,1c0.5,0.3,0.8,0.6,0.8,1v0.3
		l-0.1,1.8c0.5,0,1.2-0.2,2.3-0.6c0.1-0.2,0.2-0.3,0.4-0.3c0.6,0.1,1,0.3,1.4,0.5c0.2,0.2,0.1,0.4-0.2,0.6c-0.6,0.1-1.6,0.3-3,0.5
		c-0.3,0.1-0.5,0.1-0.8,0v2.5c1.4-0.2,2.3-0.5,2.7-0.7c0.1-0.2,0.2-0.3,0.4-0.3c0.6,0.2,1,0.3,1.2,0.6c0.2,0.3,0.1,0.5-0.3,0.7
		c-1.3,0.2-2.5,0.3-3.4,0.5c-0.2,0-0.4,0-0.6-0.1c-0.1,1.6-0.1,3.2-0.2,4.7c0,0.3,0,0.6-0.1,1c0,0.4-0.1,0.6-0.4,0.6
		c-0.2,0.1-0.4-0.1-0.6-0.5c-0.2-0.4-0.2-0.8-0.2-1.2c0.1-0.4,0.1-0.8,0.1-1.2v-9.2c-0.2-0.5-0.3-0.7-0.5-0.7
		c-0.4,0.2-0.7,0.2-1,0.2c-0.5-0.1-0.8-0.2-0.9-0.3c-0.7,1-1.5,1.9-2.2,2.7l-0.5,0.4c-0.2,0.1-0.3,0-0.2-0.2c2-3.2,3.1-5.7,3.3-7.4
		l-0.1-0.4c-0.2-0.3-0.2-0.5-0.2-0.6c0.1-0.1,0.2-0.1,0.6-0.1C34.5,167.7,35.1,168,35.5,168.6z"/>
	<path d="M31.6,193c0.4,0.3,0.5,0.6,0.5,0.9c-0.5,1.9-0.8,3.6-1,5c-0.1,1-0.2,2.5-0.2,4.5c0,0.8,0.2,1.4,0.6,1.9
		c0.3,0.5,1.1,0.7,2.2,0.7c0.7,0,1.6-0.2,2.5-0.7c0.9-0.5,1.9-1.2,3-2.2c0.2-0.1,0.3,0,0.2,0.2c-0.4,0.7-0.9,1.3-1.4,1.8
		c-1.5,1.5-2.9,2.2-4.2,2.2c-1.2,0-2.2-0.3-2.9-1c-0.8-0.8-1.2-2.1-1.2-3.8c0-1.9,0.1-4.2,0.4-6.8c0.1-1,0.2-1.6,0.2-1.9
		c0-0.3,0-0.5-0.1-0.6c-0.1-0.2-0.3-0.3-0.6-0.6c-0.1-0.1,0-0.2,0.1-0.2C30.4,192.3,31.1,192.6,31.6,193z"/>
	<path d="M34,215.4c0.4,0.4,0.6,0.7,0.5,1.1c-0.1,0.3-0.1,0.7-0.2,1.4c0.5-0.1,1-0.2,1.3-0.4c0.2-0.1,0.3-0.2,0.4-0.2
		c0.3,0,0.5,0,0.7,0.1c0.4,0.1,0.7,0.3,1,0.5c0.2,0.2,0.2,0.3,0.2,0.5c-0.1,0.2-0.2,0.2-0.5,0.2H37c-0.7,0-1.6,0.1-2.6,0.2
		c-0.1,1-0.1,1.9-0.1,2.8c0.3-0.1,0.7-0.3,1-0.5c0.2-0.2,0.4-0.2,0.6-0.1c0.4,0.1,0.6,0.2,0.8,0.3c0.2,0.3,0.1,0.5-0.2,0.7
		c-0.8,0.2-1.5,0.4-2.2,0.6c0.1,1.5,0.1,3,0.1,4.5c1.1,0.2,2.2,0.5,3.3,1c0.8,0.4,1.2,0.8,1.2,1.4c-0.1,0.3-0.2,0.5-0.3,0.6
		c-0.2,0.1-0.5,0.1-0.8-0.2c-1.1-0.6-2.2-1.1-3.3-1.5c-0.5,1.2-1.6,1.8-3.3,1.8c-1,0-1.7-0.2-2.2-0.6c-0.4-0.3-0.6-0.7-0.6-1
		c0-0.5,0.3-1,0.9-1.3c0.8-0.3,1.7-0.5,2.7-0.5c0.5,0,1,0,1.4,0.1c0.1-1.4,0-2.8-0.1-4.2l-1.6,0.2c-0.4-0.1-0.7-0.1-0.9-0.2
		c-0.4-0.1-0.7-0.3-0.9-0.5c-0.1-0.2-0.1-0.3,0.2-0.2c0.2,0.1,0.5,0.1,0.7,0.1c0.5,0,1.4-0.1,2.5-0.4V219c-1.2,0.2-2.2,0.4-3.2,0.6
		c-0.2,0.1-0.3,0.1-0.6,0c-0.3-0.1-0.6-0.2-0.7-0.4c-0.1-0.2,0-0.2,0.2-0.2c1.1-0.1,2.5-0.4,4.2-0.8l-0.1-1.4c0-0.5-0.3-1-0.9-1.4
		c-0.2-0.2-0.2-0.3,0.1-0.4C32.9,215,33.5,215.1,34,215.4z M29.2,227.9c-0.3,0.2-0.5,0.5-0.5,0.7c0,0.2,0.1,0.4,0.3,0.6
		c0.3,0.2,0.7,0.2,1.3,0.2c1.5,0,2.4-0.5,2.6-1.5c-1-0.2-1.8-0.2-2.5-0.2C29.9,227.7,29.5,227.8,29.2,227.9z"/>
	<path d="M34.7,238.5c0.4,0.3,0.5,0.6,0.4,0.9c-0.1,0.5-0.2,0.8-0.2,1l-0.1,1.2l2.7-0.5c0.4-0.3,0.6-0.4,0.7-0.4
		c0.5,0,1.1,0.2,1.6,0.5c0.5,0.3,0.7,0.6,0.6,0.9c-0.1,0.3-0.4,0.4-1,0.3c-1-0.2-2.5-0.2-4.7,0v3.8c0.1,0.2,0.2,0.3,0.3,0.6
		c0.1,0.2,0.1,0.5,0.1,0.7c0,1.8-0.4,3.2-1.3,4.3c-0.9,1.1-2.1,2-3.7,2.8c-0.3,0.1-0.3,0.1-0.2-0.2c1.4-0.9,2.4-1.9,3-3.1
		c0.4-0.8,0.6-1.6,0.6-2.5c-0.5,0.9-1,1.4-1.4,1.4c-0.4,0-0.8-0.3-1.1-0.9c-0.4-0.7-0.6-1.5-0.6-2.3c0-0.7,0.2-1.3,0.6-1.8
		c0.3-0.4,0.7-0.6,1.3-0.6c0.5,0,0.9,0.1,1.2,0.4v-2.3c-2.7,0.3-4.9,0.8-6.5,1.4c-0.2,0.1-0.4,0.1-0.6-0.1c-0.2-0.1-0.5-0.2-0.7-0.4
		c-0.2-0.2-0.2-0.3,0.2-0.3c0.5,0,0.9-0.1,1.3-0.2c1.7-0.4,3.8-0.8,6.4-1.3l-0.1-2.2c-0.1-0.4-0.3-0.7-0.8-1.1
		c-0.2-0.3-0.1-0.5,0.2-0.5C33.6,238,34.2,238.1,34.7,238.5z M31.5,246.7c0,0.4,0.1,0.9,0.4,1.5c0.2,0.4,0.4,0.6,0.7,0.6
		c0.3,0,0.7-0.2,1-0.7c0.1-0.2,0.1-0.4,0.1-0.7c0-0.3-0.1-0.7-0.4-1.2c-0.3-0.5-0.6-0.8-0.9-0.9c-0.3-0.1-0.6-0.1-0.8,0.2
		C31.4,245.7,31.4,246.1,31.5,246.7z"/>
</g>
<g>
	<path d="M111.1,13.6c0.5,0.2,0.8,0.4,0.9,0.7c0,0.5,0,0.9-0.1,1.3c-0.1,1.1-0.2,2.8-0.3,4.8c0,1.6-0.4,3.8-1.3,6.6
		c-1,3-2.8,5.9-5.6,8.7c-0.3,0.1-0.4,0-0.3-0.4c2-2.8,3.3-5.6,3.8-8.3c0.9-2.9,1.1-6.6,0.9-11c0-0.5-0.1-0.9-0.3-1.3
		c-0.6-0.5-1-0.9-1.3-1.4c-0.2-0.4,0-0.5,0.6-0.4C109.1,12.9,110.1,13.1,111.1,13.6z M117.9,11.9c1.4,0.5,2.2,1,2.3,1.6
		c-0.1,0.6-0.1,1.4-0.1,2.6c0,2.5,0,4.8,0,6.8c0.1,2.3,0.2,4.3,0.3,6c-0.1,0.7-0.2,1.2-0.4,1.7c-0.6,0.9-1.2,0.6-1.9-0.7
		c-0.3-0.7-0.5-1.3-0.6-2c0.2-0.6,0.3-1.5,0.3-2.7c0-4.3,0-6.8-0.1-7.6v-3.8c-0.3-0.4-0.6-0.8-0.9-1.1c-0.5-0.5-0.3-0.7,0.4-0.7
		H117.9z M126.2,8.7c1.6,0.2,2.8,0.8,3.6,1.7c0,0.3,0,0.5,0,0.7c-0.2,0.6-0.3,1.1-0.3,1.7c0,1.7,0,4.2,0.1,7.6
		c0.1,5,0.2,9.2,0.4,12.4c0.2,2.5,0.1,4.1-0.1,5c-0.7,0.6-1.2,0.4-1.7-0.6c-0.4-0.9-0.7-1.9-1-3.1c0.2-1,0.3-2,0.3-3
		c-0.2-6-0.3-12.3-0.4-18.8c-0.1-0.7-0.2-1.1-0.4-1.4c-0.3-0.4-0.6-0.8-1-1.1C125.1,9.1,125.3,8.7,126.2,8.7z"/>
	<path d="M132,58.7c0.9,0.5,0.7,1-0.4,1.7c-1.1,3.5-2.3,7-3.6,10.5c0.1,1.2-0.5,1.6-1.7,1c-2.8-0.2-7.2,0.2-13.1,1.1
		c-0.4,1.1-0.9,1.5-1.6,1c-0.8-0.5-1.3-1.2-1.7-2.3c-0.2-1.3-0.4-2.7-0.7-4c-0.5-2.4-0.9-4.1-1.1-5.1c-0.4-1.2-0.8-2.1-1.3-2.7
		c-0.8-0.8-0.8-1.2,0-1.3c0.7,0.1,1.4,0.4,2.1,0.9c5.3-0.8,10.9-1.4,16.7-2c0.7-0.1,1.4-0.3,2.1-0.6c0.4-0.5,0.8-0.6,1.1-0.3
		C129.8,57.2,130.9,57.8,132,58.7z M121.9,59.4c-4.7,0.5-8.3,1-10.8,1.6c-0.3,0-0.6,0-1,0l0.1,0.6c0.9,3.8,1.8,7.3,2.6,10.4
		c4.4-0.7,8.7-1.4,13.1-2.1c1.1-4.6,1.9-7.9,2.3-10.1c0-0.5-0.2-0.8-0.7-0.9C126,58.9,124.2,59.1,121.9,59.4z"/>
	<path d="M133.4,95.1c0.9,0.9,0.7,1.4-0.4,1.7c-1.2-0.1-2.7-0.1-4.4-0.1c-2.7,0.1-5.5,0.3-8.4,0.6c0.3,0.3,0.6,0.6,1,1
		c-0.1,1-0.2,2.2-0.3,3.8c2.3-0.4,4.1-0.7,5.6-1c0.4-0.4,0.8-0.6,1.1-0.6c0.9,0.7,1.7,1.2,2.6,1.7c0.3,0.3,0.3,0.6,0,0.9
		c-0.2,0.3-0.3,0.7-0.4,1.1c-0.4,3.4-0.7,5.8-1,7.3c-0.4,1.7-1,3.1-1.7,4.1c-0.4,0.4-0.7,0.3-1-0.1c-0.4-0.7-0.8-1.2-1.3-1.6
		c-0.3-0.4-1.1-1-2.6-2c-0.1-0.4,0-0.5,0.4-0.4c0.5,0.1,1.2,0.2,2.1,0.3c0.6,0,1-0.3,1.3-0.9c0.6-2.5,0.9-5.1,0.9-7.8
		c0-0.4-0.1-0.6-0.4-0.6c-2,0.3-3.8,0.5-5.6,0.7v3.7c-0.2,3.5-0.3,6.6-0.4,9.1c0,1.2-0.1,2.9-0.3,5c-0.1,0.9-0.2,1.6-0.4,2
		c-0.5,1.1-1,1.1-1.4-0.1c-0.1-1-0.1-2-0.1-3.1c0-2.2,0-4.6,0-7.3c0.1-2.5,0.1-5.4,0.1-8.8c-1.9,0.4-3.8,0.8-5.7,1.1
		c0.4,3.3,0.7,6.2,1,8.5c-0.7,2.5-1.6,2.1-2.7-1.1c0-1.6,0-2.9-0.1-4c-0.1-1.8-0.2-3.2-0.4-4.3c-0.7-0.9-0.8-1.4-0.3-1.4
		c0.7,0.5,1.4,0.9,2.1,1.1c2-0.3,4-0.6,6.1-1c0-1,0-2.1-0.1-3.3c-0.2-0.8-0.5-1.3-1-1.7c-5.3,0.9-8.9,1.5-10.8,2
		c-1-0.3-1.8-0.6-2.6-1c-0.3-0.2-0.1-0.4,0.4-0.6c2.7-0.2,5.9-0.6,9.8-1.3c3.6-0.7,7.9-1.3,12.8-1.9c0.9-0.2,1.4-0.4,1.7-0.7
		c0.5-0.5,0.8-0.7,1-0.6C131.6,94.2,132.9,94.7,133.4,95.1z M118.2,89.8c0.7,0.2,1.4,0.6,2.3,1.1c0.4,0.3,0.4,0.7,0,1.1
		c0,1.3-0.1,2.4-0.4,3.1c-0.7,0.3-1.2,0.2-1.6-0.1c-0.8-2.2-1.7-3.8-2.7-4.7c-0.5-0.5-0.4-0.8,0.3-0.9
		C116.4,89.5,117.2,89.6,118.2,89.8z"/>
	<path d="M115.9,134.8c0.5,0.2,0.8,0.4,1,0.6c0.6,0.9,0.8,1.6,0.6,2.1c-0.3,0.4-0.7,1.2-1.1,2.4l-1.4,3.7c0.9-0.2,2-0.3,3.1-0.3
		c1.3,0,2.3,0.4,3,1.3c0.6,0.8,0.9,1.7,0.9,2.7c0,1.5-0.6,3.8-1.9,7c-1.4,2.9-2.9,5-4.6,6.3c-0.6,0.4-1,0.3-1.3-0.1
		c-0.5-1.4-1.4-2.8-2.8-4.3c-0.3-0.5-0.2-0.6,0.3-0.4l2.8,1.1c0.4,0.2,0.7,0.1,0.9-0.1c0.9-0.9,1.9-2.5,3-4.8c1-2.6,1.6-4.5,1.6-5.7
		c0-0.6-0.3-1.1-0.9-1.6c-0.3-0.2-0.7-0.3-1.3-0.3c-1.1,0.1-2.3,0.4-3.4,1c-3.1,6.7-5.2,10.7-6.3,11.8c-0.4,0.5-0.8,0.7-1.1,0.6
		c-0.3-0.1-0.4-0.7-0.4-1.7c0-0.8,0-1.3,0.1-1.6c1.8-2.1,3.6-4.9,5.3-8.4l-2.4,1c-0.3,0.2-0.6,0.2-1,0.1c-0.5-0.2-0.9-0.4-1.3-0.7
		c-0.4-0.3-0.3-0.5,0.1-0.6l5.6-1.9c0.9-2.5,1.5-4.5,1.9-6.1c0.1-0.4,0.1-0.7,0.1-1c-0.2-0.9-0.3-1.5-0.4-2
		c-0.1-0.7,0.1-0.9,0.6-0.7C115.3,134.4,115.5,134.6,115.9,134.8z M134.3,148.1c0,1.7-0.7,2.2-2.1,1.4c-0.8-0.7-1.5-1.1-2.1-1.3
		c-0.4-0.1-1-0.1-1.9-0.1c-0.3,0-0.3-0.1-0.1-0.4c0.6-0.2,1.2-0.4,2-0.7c0.3-0.2,0.4-0.4,0.3-0.7c-0.1-1.1-1.2-2.6-3.3-4.3
		c-0.3-0.3-0.2-0.4,0.3-0.4C131.7,143.3,134,145.5,134.3,148.1z"/>
	<path d="M114.4,182.4c-0.7,1.2-1,2.8-1.1,4.6c-0.1,2.2-0.2,4.6-0.4,7.3c0,0.5,0.2,0.6,0.7,0.4c2.8-1.4,5-2.4,6.4-2.8
		c1.4-0.5,2.8-0.7,4.1-0.7c2.1,0,3.7,0.5,4.7,1.6c0.9,0.9,1.3,1.9,1.3,3.3c0,1.9-0.8,3.5-2.4,4.7c-1.6,1.2-4.5,2.4-8.5,3.6
		c-0.4,0-0.5-0.1-0.3-0.4c3.6-2,5.8-3.4,6.7-4.3c1.3-1.3,2-2.7,2-4c0-2.1-1.1-3.1-3.3-3.1c-1.7,0-3.3,0.4-4.8,1.1
		c-1.8,0.9-3.9,2.4-6.4,4.7c-0.4,0.4-0.8,0.5-1.1,0.3c-1-0.7-1.6-1.5-1.6-2.6c0-0.3,0.1-1,0.4-2.3c0.5-3.5,0.7-5.5,0.7-6
		c0-0.3,0-0.6,0-1c0.1-1.6,0.9-3.1,2.6-4.6C114.4,181.9,114.5,182,114.4,182.4z M119.5,176.7c0.7,0.7,1,1.4,1,2.3s-0.5,1.1-1.6,0.9
		c-0.6-0.2-1.8,0.1-3.6,1c-0.4,0-0.4-0.2-0.1-0.6c1.1-0.9,1.7-1.7,1.7-2.1c0-0.9-0.7-1.9-2.1-2.8c-0.1-0.4,0.1-0.5,0.7-0.3
		C117.4,175.3,118.7,175.9,119.5,176.7z"/>
	<path d="M113.4,218.7c0.5,0.5,0.5,1,0.1,1.7c-0.6,2.2-1.3,4.8-2.3,7.7c0.9-0.3,1.8-0.6,2.7-0.9v-1c0.2-0.8,0.5-0.8,1-0.1
		c0.9,0.9,1.5,1.6,1.9,2.3c-0.1,0.5-0.5,1.5-1.1,3.1c-0.5,1.1-1.2,2.7-2.3,4.6c0.7,0.3,1.1,0.6,1.3,0.9c0.7,0.9,1.1,2.2,1.3,4.1
		c-0.4,1.1-1,1-2-0.3c-0.7-1-1.3-2.1-2-3.1c-2.3,2.3-5.1,4.1-8.4,5.6c-0.4,0-0.4-0.1-0.1-0.4c2.9-1.8,5.5-4,7.6-6.6
		c-0.3-0.4-0.9-0.9-1.7-1.6c-0.1,0-0.3,0-0.6,0c-0.7,0.4-1,0.1-1-0.7c0.3-1.2,0.6-2.4,0.9-3.4c-1.1,0.6-2.3,1.1-3.4,1.7
		c-0.2,0.2-0.4,0.2-0.7,0c-1.5-0.6-2.4-1-2.6-1.4c-0.3-0.2-0.2-0.4,0.1-0.6h1.6c0.8,0,2.6-0.4,5.4-1.3c1-4.1,1.7-7.3,1.9-9.5
		c-0.1-0.6-0.3-1-0.7-1.4c-0.6-0.9-0.4-1.3,0.4-1.1C111.8,217.3,112.8,217.9,113.4,218.7z M110.8,229.5c-0.6,1.3-1.1,2.8-1.7,4.3
		c0.9,0.3,1.7,0.7,2.6,1.1c0.5-0.9,0.9-1.9,1.4-3.1c0.6-1.4,0.9-2.8,1-4C112.8,228.3,111.7,228.9,110.8,229.5z M126.3,217.7
		c-0.1,0.8-0.6,2-1.4,3.7c-0.7,1.5-1.6,3.2-2.8,5.1c-0.2,0.3,0,0.4,0.6,0.3c2.1-0.3,4.7-0.8,7.8-1.6c-0.7-0.9-1.3-1.7-2-2.6
		c-0.2-0.3-0.1-0.4,0.1-0.4c1.4,0.7,2.8,1.3,4.1,2c0.8,1,1.2,2,1.3,3.3c-0.4,1-0.9,1.2-1.4,0.6c-0.5-0.7-1-1.3-1.6-2
		c-3.6,1-7.1,2-10.5,3c-0.8,0.8-1.3,0.7-1.7-0.1c-0.3-0.6-0.5-1.1-0.6-1.7c1.4-1,2.6-2.5,3.6-4.3c0.9-1.8,1.6-3.5,2-5.1
		c0.1-0.5,0-1-0.1-1.6c-0.3-1.2-0.1-1.6,0.6-1C125.2,215.8,125.9,216.6,126.3,217.7z M133.4,232.5c0.7,0.3,0.6,0.8-0.1,1.6
		c-1,3.2-1.8,5.4-2.3,6.6c-0.2,0.6-0.4,0.9-0.7,1c-0.5,0.3-0.9,0-1.3-0.7c-1.1,0-2.9,0.3-5.3,0.9c-0.3,0.2-0.6,0.3-0.9,0.3
		c-1,0.2-1.7-0.5-2.1-2c-0.3-1.4-0.6-2.8-1-4.3c-0.3-1.3-0.6-2.1-1-2.3c-0.4-0.5-0.2-0.7,0.4-0.6c0.4-0.1,0.9,0.1,1.7,0.6
		c2.7-0.5,5.6-1.1,8.8-1.9c0.4-0.2,0.8-0.4,1.1-0.6C131.6,231.2,132.5,231.7,133.4,232.5z M121.5,234.5c0.5,1.5,1.1,3.6,1.9,6.3
		c1.3-0.4,3.1-0.8,5.3-1.3c0.3,0,0.5,0.1,0.7,0.4c0.6-2.5,0.9-4.6,1.1-6.4c0-0.4-0.1-0.6-0.4-0.6
		C127.5,233.4,124.6,233.9,121.5,234.5z"/>
	<path d="M120.5,258.8c0.8,0.7,1,1.3,0.9,2c-0.1,0.5-0.2,1.3-0.3,2.4c0.9-0.2,1.7-0.4,2.3-0.7c0.3-0.2,0.5-0.3,0.7-0.3
		c0.5,0,0.9,0,1.3,0.1c0.7,0.2,1.3,0.5,1.9,0.9c0.3,0.3,0.4,0.6,0.3,0.9c-0.1,0.3-0.4,0.4-0.9,0.4h-0.9c-1.3,0-2.9,0.1-4.7,0.3
		c-0.1,1.7-0.1,3.4-0.1,5c0.6-0.2,1.2-0.5,1.9-0.9c0.3-0.3,0.7-0.3,1.1-0.1c0.7,0.2,1.1,0.4,1.4,0.6c0.4,0.5,0.2,0.9-0.4,1.3
		c-1.4,0.4-2.8,0.7-4,1c0.1,2.7,0.1,5.4,0.1,8.1c1.9,0.3,3.8,0.9,5.8,1.7c1.4,0.7,2.1,1.5,2.1,2.4c-0.1,0.5-0.3,0.9-0.6,1.1
		c-0.4,0.2-0.9,0.1-1.4-0.3c-1.9-1.1-3.9-2-6-2.7c-0.9,2.2-2.8,3.3-6,3.3c-1.7,0-3-0.3-4-1c-0.8-0.6-1.1-1.2-1.1-1.9
		c0-0.9,0.5-1.7,1.6-2.3c1.4-0.6,3-0.9,4.8-0.9c0.9,0,1.7,0,2.6,0.1c0.1-2.5,0-5-0.1-7.5l-2.8,0.3c-0.8-0.1-1.3-0.2-1.6-0.3
		c-0.7-0.2-1.2-0.5-1.6-0.9c-0.2-0.4-0.1-0.5,0.3-0.3c0.4,0.1,0.8,0.1,1.3,0.1c0.9,0,2.4-0.2,4.4-0.7v-5c-2.1,0.4-4,0.8-5.7,1.1
		c-0.3,0.1-0.6,0.1-1,0c-0.6-0.2-1-0.4-1.3-0.7c-0.1-0.3,0-0.4,0.4-0.4c2-0.2,4.5-0.7,7.6-1.4l-0.1-2.6c0-0.9-0.5-1.8-1.6-2.4
		c-0.4-0.4-0.3-0.6,0.1-0.7C118.5,258.1,119.6,258.3,120.5,258.8z M111.9,281.2c-0.6,0.4-0.9,0.8-0.9,1.3c0,0.4,0.2,0.7,0.6,1
		c0.6,0.3,1.3,0.4,2.3,0.4c2.8,0,4.3-0.9,4.7-2.7c-1.7-0.3-3.2-0.4-4.4-0.4C113.2,280.8,112.4,281,111.9,281.2z"/>
	<path d="M121.8,300.6c1.3,0.7,2.2,1.1,2.6,1.4c0.3,0.4,0.2,0.8-0.3,1.1c-1.7,1.6-3.5,3.5-5.3,5.7c-1.6,1.9-3.6,4.4-5.8,7.6h0.3
		c3.5-2.1,6.6-3.1,9.1-3.1c1.8,0,3.4,0.5,4.7,1.6c1.2,1,1.9,2.4,1.9,4.1c0,2.3-1,4.3-3.1,6c-2.1,1.4-4.4,2.2-7,2.3
		c-1.1,0-2-0.2-2.7-0.7c-0.7-0.5-1-1.1-1-2c0-0.6,0.2-1.1,0.6-1.6c0.7-0.7,1.6-1,2.7-1c0.9,0,1.8,0.3,2.4,1c0.5,0.4,0.8,0.8,0.9,1.3
		c0.1,0.2,0.1,0.5,0.1,1c1.2-0.8,2.3-1.7,3.3-2.8c0.9-1.2,1.3-2.5,1.3-3.8c0-1.1-0.4-2-1.1-2.7c-1-0.9-2.1-1.2-3.6-1
		c-3.2,0-6.4,1.6-9.4,4.7c-0.9,0.9-1.6,1.5-2.1,2c-0.3,0.2-0.5,0.1-0.7-0.1c-0.4-0.7-0.4-1.6-0.1-2.7c5.2-6.6,9-11.8,11.3-15.7
		c0.1-0.4,0-0.5-0.3-0.4l-3.6,1.1l-1.9,0.7c-0.8,0.4-1.3,0.5-1.6,0.3l-1.7-1c-0.1-0.2,0-0.3,0.1-0.4c1.2,0,2.3-0.1,3.1-0.4
		c0.9-0.3,2.8-0.9,5.6-1.7C121,300.9,121.5,300.7,121.8,300.6z M116.1,324.5c0,0.5,0.2,0.9,0.6,1.1c0.4,0.4,0.9,0.6,1.6,0.6
		c0.8,0,1.4-0.1,1.9-0.4c-0.2-0.1-0.3-0.2-0.3-0.4c-0.7-1.4-1.5-2.1-2.6-2.1C116.4,323.3,116.1,323.7,116.1,324.5z"/>
</g>
<g>
	<path d="M205,34.2v-0.5h9.9V37h-0.5v-2.9H205z"/>
	<path d="M203.2,51.3c0.2,0.4,0.3,0.8,0.3,1.1c-0.1,0.4-0.3,0.5-0.6,0.3c-0.5-0.5-0.8-1.2-0.8-2.1c0-0.2,0-0.2,0.2-0.2
		C202.6,50.8,203,51.1,203.2,51.3z M205.7,42.6c0,0.1-0.1,0.2-0.2,0.3c-0.6,0.8-1.3,1.7-2,2.6c-0.1,0.2-0.1,0.2,0.1,0.2l1.2,0.2
		c0.3-0.5,0.7-1,1-1.6c0.2-0.3,0.3-0.6,0.2-0.8c0-0.3,0.1-0.3,0.3-0.2c0.3,0.2,0.5,0.5,0.6,1c0,0.2-0.1,0.3-0.2,0.3l-3,3.8
		c-0.1,0.2,0,0.2,0.2,0.1l1.9-0.6l-0.3-0.7c0-0.1,0-0.2,0.2-0.1c0.3,0.2,0.7,0.5,1.1,0.8c0.1,0.2,0.2,0.4,0.2,0.8
		c-0.1,0.3-0.3,0.4-0.6,0.3c-0.2-0.1-0.3-0.4-0.4-0.7c-0.9,0.4-1.7,0.8-2.3,1.1l-0.3,0.2c-0.1,0.1-0.2,0.1-0.3,0.1
		c-0.2-0.3-0.3-0.5-0.3-0.8c0-0.2,0.1-0.3,0.2-0.3c0.6-0.6,1.1-1.3,1.6-2.1c-0.6,0-1.2,0.1-1.6,0.1c-0.3,0.2-0.5,0.1-0.6-0.1
		c0-0.1,0-0.4,0.1-0.7c0-0.1,0.2-0.2,0.5-0.4c0.6-0.9,1.2-2,1.7-3.2c0-0.1,0-0.2-0.1-0.3c-0.2-0.2-0.1-0.3,0.2-0.2
		c0.2,0,0.4,0.2,0.6,0.3C205.5,42.1,205.6,42.3,205.7,42.6z M205.2,51.3c0,0.4-0.2,0.5-0.4,0.3c-0.4-0.3-0.7-0.8-0.8-1.6
		c0-0.2,0-0.2,0.1-0.2c0.3,0.2,0.6,0.5,1.1,0.7C205.2,50.8,205.2,51,205.2,51.3z M206,49.4c0.4,0.1,0.7,0.2,0.9,0.3
		c0.1,0.3,0.2,0.7,0.2,1c0,0.3-0.1,0.4-0.4,0.3c-0.4-0.3-0.7-0.8-0.9-1.5C205.8,49.4,205.9,49.3,206,49.4z M211,40.9
		c0.2,0.2,0.4,0.3,0.6,0.5c0.1,0.2,0.1,0.4-0.1,0.5c-0.1,0.7-0.1,1.2-0.1,1.4v1l1.8-0.3c0.1-0.2,0.3-0.3,0.4-0.3
		c0.2,0,0.5,0.1,0.8,0.2c0.3,0.1,0.5,0.2,0.6,0.4c0.1,0.3,0,0.4-0.3,0.4c-0.9,0-2,0.1-3.3,0.2c0,0.6-0.1,1.3-0.1,2.1
		c0.3,0,0.6-0.1,0.9-0.2c0.1-0.1,0.3-0.1,0.3-0.2c0.1-0.2,0.3-0.3,0.4-0.2c0.6,0.2,1,0.4,1.1,0.7c0.1,0.2,0,0.3-0.2,0.3
		c-0.6,0-1.1,0-1.6,0.1c-1,0-2.2,0.2-3.5,0.5c-0.1,0-0.2,0-0.3,0c-0.6-0.3-0.7-0.5-0.3-0.5c0.4,0,1.2-0.2,2.4-0.4l-0.1-2.1
		c-1,0.2-1.9,0.4-2.5,0.6l-0.8-0.4c-0.1-0.1,0-0.2,0.2-0.2c0.7-0.1,1.8-0.3,3-0.6v-1.5c0-0.4,0-0.9-0.1-1.5
		c-0.2-0.2-0.3-0.4-0.3-0.6c0-0.2,0-0.3,0.2-0.3C210.4,40.8,210.7,40.8,211,40.9z M214,49.6c0.1,0.1,0,0.3-0.2,0.4l-0.7,1.8
		c0.1,0.1,0.2,0.2,0.2,0.4c-0.1,0.1-0.2,0.2-0.3,0.2c-0.2,0-0.3-0.1-0.4-0.1c-0.8,0-1.7,0.1-2.7,0.3c-0.1,0.2-0.2,0.3-0.4,0.3
		c-0.2-0.1-0.4-0.3-0.6-0.6l-0.7-2.1c-0.1-0.1-0.2-0.2-0.3-0.3c-0.2-0.1-0.1-0.3,0.1-0.3c0.3,0,0.6,0.1,0.8,0.1l3.2-0.6l0.5-0.2
		c0.1-0.1,0.3-0.2,0.4-0.1c0.2,0.1,0.4,0.2,0.6,0.3C213.8,49.3,213.9,49.4,214,49.6z M209.1,50.1l0.6,2l2.5-0.4l0.4-1.7
		c0.1-0.3,0-0.5-0.2-0.4C211.6,49.7,210.4,49.8,209.1,50.1z"/>
	<path d="M205.9,58.4c0.3,0.2,0.4,0.4,0.3,0.6c-0.2,0.7-0.5,1.8-0.9,3c0.3-0.1,0.7-0.2,1.2-0.4c0-0.1-0.1-0.3-0.2-0.4
		c-0.1-0.1-0.1-0.3,0.1-0.3c0.4,0.1,0.7,0.3,0.8,0.4c0.2,0.3,0.2,0.5,0.2,0.7c-0.2,1-0.7,2.2-1.6,3.5c0.5,0.3,0.8,0.6,1,0.9
		c0.2,0.4,0.3,0.6,0.3,0.8c0,0.4-0.2,0.5-0.6,0.3c-0.2-0.2-0.6-0.6-1.2-1.3c-0.9,1-2,1.8-3.1,2.2c-0.1,0-0.1,0-0.1-0.2
		c1-0.7,1.9-1.6,2.7-2.6c-0.1-0.2-0.3-0.4-0.6-0.6c-0.1,0-0.2,0-0.4,0c-0.2,0-0.3-0.1-0.2-0.4c0.1-0.3,0.3-0.7,0.4-1.4
		c-0.3,0.2-0.7,0.4-1.1,0.7c-0.2,0.1-0.3,0.2-0.4,0.2c-0.4-0.1-0.8-0.3-1-0.8c0-0.2,0-0.3,0.2-0.2c0.1,0.1,0.2,0.2,0.4,0.1
		c0.5-0.1,1.2-0.4,2.1-0.7c0.2-0.9,0.4-1.7,0.5-2.2c0.1-0.8,0.2-1.2,0.2-1.3c-0.1-0.2-0.2-0.4-0.3-0.6c-0.1-0.2,0-0.3,0.2-0.3
		C205.4,58.1,205.7,58.3,205.9,58.4z M205.1,62.8c-0.3,0.7-0.5,1.3-0.7,1.7c-0.1,0.1-0.1,0.2,0,0.2c0.3,0.1,0.6,0.3,0.9,0.4
		c0.5-1,0.9-2.2,1.2-3.3C205.9,62.2,205.4,62.5,205.1,62.8z M211.9,57.6c0.1,0.3,0.1,0.4,0,0.6c-0.5,0.3-0.9,0.5-1.3,0.7
		c0.2,0.1,0.4,0.2,0.5,0.3c0.1,0.4,0.2,0.8,0.3,1.3c0.3-0.1,0.7-0.3,1.1-0.4c0.1-0.1,0.2-0.2,0.3-0.2c0.4,0,0.8,0.1,1,0.2
		c0.3,0.2,0.3,0.3,0.1,0.5c-0.8,0.2-1.6,0.4-2.4,0.5c0.6,1.3,1.4,2.3,2.2,2.8c0.2,0,0.4,0,0.5-0.1c0.3-0.4,0.6-0.8,0.7-1.1
		c0.1-0.2,0.2-0.2,0.2-0.1c-0.1,0.9-0.3,1.5-0.3,1.9c0,0.2,0.1,0.4,0.2,0.6c0.1,0.3,0,0.4-0.3,0.4c-0.3,0-0.8-0.4-1.7-1.1
		c-0.9-0.9-1.6-1.9-2.1-3.1c-0.9,0.2-1.6,0.4-1.9,0.4l-0.1,1.9l0.4-0.2c0.6-0.3,1.1-0.7,1.6-1c0.1,0,0.1,0,0.1,0.1
		c-0.7,0.7-1.3,1.4-2,2.1l-0.2,0.3c0.1,0,0.3,0.1,0.5,0.2c1.6-0.3,2.6-0.6,2.8-0.7c0.2,0,0.5,0.1,0.8,0.3c0.2,0.2,0.2,0.4,0.1,0.6
		l-0.1,2.6c0,0.4,0,0.7-0.1,1c-0.1,0.3-0.2,0.5-0.4,0.6c-0.1,0-0.2,0-0.3-0.2c-0.1-0.2-0.2-0.4-0.3-0.5c-0.2,0-0.9,0-2.1,0.2
		c0,0.1,0,0.2-0.1,0.3c-0.1,0.1-0.2,0-0.4-0.2c-0.1-0.1-0.2-0.4-0.3-0.7c0-0.2,0.1-0.4,0.1-0.6v-2.4c0-0.1-0.1-0.3-0.1-0.3
		c-0.1-0.1-0.1-0.2,0-0.3c-0.3-0.3-0.5-0.6-0.7-1c0-0.1,0-0.3,0.1-0.4c0.1-0.2,0.1-0.6,0.2-1.1c0-0.4,0.1-1.2,0.1-2.2
		c0-0.1-0.1-0.3-0.2-0.3c-0.1-0.1-0.1-0.2,0.1-0.2c0.1,0,0.3,0,0.6,0.1c1-0.9,1.6-1.5,1.9-2c0-0.1-0.1-0.3-0.2-0.4
		c-0.1-0.1,0-0.2,0.3-0.3C211.2,57,211.6,57.2,211.9,57.6z M209.1,59.8c0.1,0.2,0.2,0.3,0.2,0.4l-0.1,1l1.7-0.6
		c-0.2-0.4-0.3-0.8-0.5-1.2c-0.1-0.1-0.2-0.2-0.3-0.2C209.7,59.4,209.4,59.6,209.1,59.8z M209.6,65.3c0,0.1,0.1,0.2,0.1,0.3
		l-0.1,1.1c0.7-0.1,1.1-0.3,1.2-0.4c0.1-0.1,0.3-0.2,0.4-0.2c0.3,0,0.5,0.1,0.6,0.2c0.1,0.1,0.1,0.2,0,0.4c-0.8,0.1-1.5,0.2-2.2,0.4
		l0.1,1.3c0,0.2,0,0.2,0.1,0.2l1.9-0.4c0.1,0,0.2,0.1,0.3,0.2l0.1-3.1c0-0.1-0.1-0.2-0.3-0.2L209.6,65.3z"/>
	<path d="M206.6,74.5c0.1,0.1,0.2,0.2,0.1,0.4c0,0.3-0.2,0.7-0.3,1.5c0.3-0.1,0.5-0.1,0.6-0.2c0-0.1,0.1-0.2,0.3-0.2
		c0.3,0,0.5,0,0.7,0.1c0.2,0.1,0.3,0.2,0.3,0.3c0,0.2-0.1,0.2-0.3,0.3c-0.7,0.1-1.4,0.2-2.1,0.4c-0.5,0.1-1.3,0.3-2.4,0.6
		c-0.4,0.2-0.9,0.1-1.3-0.1c-0.2-0.1-0.2-0.1-0.2-0.2c0.2-0.1,0.5-0.2,1-0.2c1.4-0.3,2.4-0.6,2.9-0.7c-0.1-0.6-0.2-1.1-0.2-1.6
		c0-0.1-0.1-0.2-0.2-0.3c-0.2-0.1-0.2-0.1-0.3-0.2c-0.1-0.2,0-0.3,0.2-0.3c0.1,0,0.3,0,0.6,0.1C206.1,74.3,206.3,74.4,206.6,74.5z
		 M207.7,82c0.1,0.1,0.2,0.2,0.3,0.3c0,0.1,0,0.2-0.2,0.3c-0.2,0.4-0.4,0.7-0.5,1.1c-0.1,0.1-0.1,0.2-0.2,0.4c0,0.3-0.1,0.3-0.4,0.2
		c-0.4,0-1,0.1-1.7,0.3c0,0.3-0.1,0.4-0.3,0.4c-0.3,0-0.5-0.3-0.7-0.8c-0.2-0.5-0.4-0.9-0.6-1.2c-0.3-0.5-0.3-0.7,0.1-0.6
		c0.3,0.1,0.5,0.1,0.7,0.1l2.4-0.7c0.3-0.2,0.4-0.3,0.5-0.2C207.4,81.8,207.6,81.9,207.7,82z M206.9,78.2c0.2,0.1,0.3,0.2,0.3,0.3
		c0,0.1-0.1,0.2-0.3,0.2c-0.9,0.2-1.6,0.3-2.1,0.5c-0.2,0.1-0.3,0.1-0.4,0c-0.1,0-0.2-0.1-0.2-0.2c-0.2-0.1-0.2-0.2,0-0.2
		c0.1,0,0.2-0.1,0.4-0.1c0.4-0.1,0.7-0.2,1.1-0.3c0.1-0.1,0.2-0.2,0.2-0.3C206.3,78.1,206.6,78.1,206.9,78.2z M207.1,80
		c0.1,0.1,0.2,0.1,0.2,0.2c0,0.2-0.1,0.2-0.3,0.3c-0.7,0.1-1.4,0.3-2.1,0.4h-0.2c-0.1,0-0.2,0-0.4-0.1c-0.1-0.1-0.1-0.1-0.1-0.2
		l0.4-0.2c0.8-0.3,1.3-0.5,1.4-0.6c0.1-0.1,0.2-0.1,0.4-0.1C206.8,79.9,207,80,207.1,80z M204.5,82.9c0.1,0.3,0.2,0.8,0.4,1.3
		c0.2,0,0.7-0.2,1.4-0.4c0.1,0,0.2,0,0.3,0c0.1-0.5,0.2-0.9,0.2-1.2c0-0.1-0.1-0.2-0.2-0.2L204.5,82.9z M212.5,74.6
		c0.3,0.2,0.6,0.4,0.9,0.6c0.3,0.2,0.2,0.4-0.2,0.6c-0.3,1-0.6,1.9-0.9,2.7c0.2,0.1,0.3,0.2,0.3,0.3c0,0.1-0.1,0.2-0.2,0.2
		c-0.5,0-1.4,0.2-2.8,0.4l-0.2,3.1v1c0,0.2,0,0.3,0.1,0.5c0.2,0.2,0.4,0.3,0.6,0.3c1.3,0.1,2.5,0.1,3.5,0.1c0.3,0,0.5-0.2,0.7-0.6
		c0.2-0.4,0.4-1,0.5-1.6c0.1-0.2,0.1-0.2,0.2,0.1c0.1,0.7,0.2,1.3,0.3,1.7c0.1,0.3,0.2,0.5,0.2,0.7c0,0.2-0.1,0.3-0.4,0.4
		c-0.4,0.1-0.8,0.2-1.3,0.2c-0.8,0-1.6,0-2.5-0.1c-0.8,0-1.4-0.2-1.8-0.4c-0.6-0.4-0.8-1.1-0.8-2.2v-3.1c0-0.1,0-0.1-0.1-0.2
		c-0.1-0.1-0.1-0.2-0.2-0.4c0-0.2,0.1-0.3,0.3-0.2c0.2,0,0.4,0.2,0.8,0.3c0.1,0,0.8-0.2,2-0.6c0.2-0.9,0.3-1.8,0.4-2.8
		c0-0.1-0.1-0.2-0.3-0.2c-0.7,0.2-1.4,0.4-2.1,0.6c0,0-0.1,0-0.3,0c-0.2,0-0.3-0.1-0.4-0.1c-0.1-0.1-0.1-0.1,0-0.2
		c0.1,0,0.2-0.1,0.3-0.1c0.9-0.3,1.8-0.5,2.6-0.8C212.2,74.7,212.5,74.6,212.5,74.6z"/>
	<path d="M208.4,89.5c0.2,0.4,0.2,0.7,0,1c1.2,1,2.3,1.9,3.3,2.5c0.9,0.6,2.1,1.1,3.4,1.5c0.1,0.1,0.1,0.2-0.2,0.3
		c-0.3,0.1-0.7,0.2-1.1,0.2c-0.4,0-0.7,0.1-0.8,0.1c-0.3,0-0.6,0-0.8-0.1c-0.2-0.2-0.4-0.4-0.7-0.6c-1.2-1.5-2.3-2.6-3.3-3.5
		c-0.9,1.1-1.6,1.9-2.3,2.5c-0.6,0.7-1.6,1.5-3,2.4c-0.2,0-0.2-0.1-0.1-0.2c1.4-1.3,2.5-2.6,3.4-3.8c0.9-1.5,1.3-2.2,1.2-2.4
		c0-0.2,0-0.4,0.2-0.4C207.7,89,208,89.2,208.4,89.5z M204.6,98.7c-0.2,0.9-0.3,1.6-0.4,2.1c-0.2,0.5-0.4,0.9-0.6,1
		c-0.3,0.1-0.5-0.1-0.5-0.7c0-0.5,0.1-0.9,0.3-1c0.5-0.6,0.9-1.1,1.1-1.5C204.5,98.5,204.6,98.6,204.6,98.7z M209.5,94.6
		c0.5,0.2,0.8,0.4,1,0.6c0.1,0.2,0,0.3-0.3,0.4c-0.9,1.1-1.7,1.9-2.2,2.5c-0.3,0.1-0.4,0-0.4-0.3c0.5-0.7,0.9-1.5,1.3-2.1
		c0.1-0.1,0-0.1-0.1-0.1c-0.9,0.3-1.8,0.6-2.6,0.8c-0.3,0.1-0.5,0.1-0.7,0.2c-0.3-0.1-0.6-0.3-0.8-0.6c0-0.1,0-0.2,0.2-0.2
		c0.3,0,0.7,0,1.2-0.1c1-0.3,2.1-0.5,3.2-0.8C209.3,94.7,209.4,94.6,209.5,94.6z M207.8,100.7c0.9,0.5,1.8,0.7,2.7,0.7
		c0.4,0,0.7,0,0.7-0.1c0,0,0.1-0.1,0.1-0.3c-0.1-0.3-0.2-0.5-0.3-0.8c-0.1-0.3-0.2-0.4-0.3-0.6c0-0.1,0.1-0.2,0.2-0.1
		c0.1,0.2,0.5,0.6,1,1.1c0.3,0.3,0.6,0.6,1,0.8c0.2,0.1,0.4,0.3,0.4,0.3c0.1,0.4-0.2,0.7-1,0.7c-0.6,0-1.2,0-1.7,0
		c-0.4,0-0.9-0.1-1.5-0.3c-1-0.3-1.9-0.9-2.6-1.6c-0.4-0.5-0.8-1.1-1.1-1.8c-0.1-0.3,0-0.4,0.2-0.2
		C206.2,99.6,206.9,100.3,207.8,100.7z M208,93.1c0.2,0,0.5,0.1,0.7,0.3c0.3,0.2,0.2,0.3-0.1,0.4c-0.1,0-0.3,0.1-0.6,0.1
		c-0.3,0-0.7,0-1,0c-0.3,0-0.5-0.1-0.8-0.2c-0.2-0.1-0.1-0.2,0.1-0.2c0.3,0,0.7-0.1,1.2-0.3C207.8,93.1,207.9,93.1,208,93.1z
		 M209.3,99.8c-0.1,0.2-0.2,0.2-0.4,0.2c-0.2-0.1-0.4-0.3-0.6-0.7c-0.2-0.2-0.3-0.5-0.3-0.8c0-0.2,0-0.2,0.1-0.2
		c0.1,0.2,0.3,0.2,0.4,0.2c0.1,0,0.3,0,0.4-0.2c0.1-0.1,0.2-0.2,0.2-0.1c0,0.2,0,0.4,0,0.7C209.2,99.4,209.3,99.7,209.3,99.8z
		 M213.4,98.5c0.2,0.3,0.4,0.7,0.4,1c-0.1,0.5-0.4,0.7-0.8,0.4c-0.6-0.7-1.1-1.3-1.7-1.9c-0.2-0.2-0.1-0.3,0.1-0.2
		C212.4,98.1,213.1,98.3,213.4,98.5z"/>
	<path d="M210.7,107.2c0.4,0.2,0.7,0.4,1.1,0.6c0.2,0.2,0.2,0.3,0.1,0.4c-0.1,0.3-0.2,0.6-0.1,1c0,1.6,0,3.2-0.1,4.8
		c0,0.8-0.1,1.5-0.2,2c-0.1,0.5-0.3,0.8-0.5,1.1c-0.2,0.3-0.4,0.2-0.6-0.2c-0.1-0.2-0.3-0.5-0.4-0.8c-0.2-0.2-0.3-0.5-0.6-0.7
		c-1,0.1-2.1,0.2-3.1,0.4c-0.1,0.7-0.3,0.9-0.7,0.5c-0.3-0.4-0.4-0.8-0.5-1.2c0.1-0.3,0.1-0.7,0.1-1.2v-4.4c0-0.3,0-0.6-0.2-0.9
		c-0.2-0.3-0.2-0.4,0.1-0.4c0.1,0,0.3,0.1,0.4,0.2c1.4-0.3,2.9-0.6,4.3-1c0.1-0.1,0.3-0.2,0.6-0.3
		C210.5,107.1,210.6,107.1,210.7,107.2z M205.9,108.9c0.1,0.2,0.2,0.3,0.2,0.4v2.4h0.2c0.6-0.1,1.1-0.3,1.5-0.4
		c0.2-0.2,0.4-0.4,0.5-0.4c0.3,0,0.7,0.1,1,0.3c0.2,0.2,0.1,0.4-0.1,0.5c-1,0.2-2,0.4-2.9,0.6h-0.3c0,1.3,0.1,2.3,0.1,3.1
		c0.6-0.1,1.2-0.3,2-0.4c0.2-0.2,0.4-0.3,0.5-0.3c0.3,0,0.6,0.1,0.8,0.3c0.2,0.1,0.2,0.2,0.2,0.4c0.2,0.1,0.4,0.2,0.6,0.2
		c0.1,0,0.2-0.2,0.2-0.6v-6.6c0-0.1,0-0.2-0.2-0.2C208.8,108.3,207.4,108.6,205.9,108.9z"/>
	<path d="M202,126v-3.4h0.5v2.9h9.4v0.5H202z"/>
</g>
<g>
	<path d="M184.4,19.4v-0.5h9.9v3.4h-0.5v-2.9H184.4z"/>
	<path d="M184.8,30.6c0.3,0,0.5,0,0.7,0.1c0.3,0.2,0.5,0.3,0.6,0.6c0.1,0.2,0.1,0.3-0.1,0.4c-1,1.5-2.4,2.9-4.1,4
		c-0.2,0-0.2,0-0.1-0.2c0.9-0.8,1.6-1.6,2.1-2.5c0.6-0.9,0.8-1.4,0.8-1.7c0-0.2-0.1-0.3-0.2-0.4C184.4,30.7,184.5,30.6,184.8,30.6z
		 M192.2,32.7c0.4,0.7,0.7,1.3,0.7,1.8c0,0.2-0.1,0.4-0.1,0.4c0,0-0.1,0.1-0.2,0.1c-0.2,0-0.3,0-0.4-0.2c-0.2-0.4-0.5-0.8-0.7-1.3
		c-0.7-1.1-1.6-2.1-2.5-3c0-0.1,0.1-0.1,0.2-0.1C190.3,31.1,191.4,31.8,192.2,32.7z M191.6,28.7c0.1,0.1,0.3,0.2,0.4,0.2
		c0.1,0.2,0.2,0.4,0.4,0.8c0.1,0.3-0.1,0.5-0.4,0.4l-0.2-0.2c-0.4-0.5-0.9-1-1.2-1.4c0-0.1,0.1-0.1,0.2-0.1
		C191,28.6,191.3,28.7,191.6,28.7z M193,27.9c0.1,0,0.2,0.1,0.3,0.2c0.1,0.2,0.2,0.4,0.3,0.6c0,0.2-0.2,0.3-0.4,0.3
		c-0.2,0-0.3-0.1-0.4-0.3l-1-1.1c-0.1-0.1,0-0.2,0.1-0.1C192.2,27.7,192.6,27.8,193,27.9z"/>
	<path d="M186,44.2c0.3,0.1,0.5,0.3,0.7,0.5c0,0.1,0,0.3-0.1,0.6c-0.1,0.7-0.2,1.8-0.2,3.2v3.3c0,0.3,0.2,0.4,0.5,0.3
		c1.5-0.7,3.3-2.3,5.4-4.5c0.1,0,0.1,0,0.1,0.1c-0.7,1.2-1.8,2.6-3.3,4c-0.8,0.7-1.5,1.3-2.2,1.7c-0.1,0.1-0.2,0.2-0.4,0.3
		c-0.2,0.2-0.4,0.2-0.6-0.1c-0.3-0.4-0.5-0.8-0.6-1.3c0-0.2,0.1-0.4,0.1-0.5c0-0.5,0-1.1,0.1-1.7c0-1.2,0.1-2.7,0.1-4.4
		c0-0.4,0-0.7-0.1-0.8c-0.1-0.1-0.2-0.2-0.4-0.3c-0.2-0.1-0.2-0.2-0.1-0.3c0.1-0.1,0.3-0.1,0.5-0.1C185.7,44.1,185.9,44.1,186,44.2z
		"/>
	<path d="M192.3,62.8c-0.6,1.1-1.2,1.9-1.7,2.4c-1.5,1.9-3.2,3.4-4.9,4.4c0,0.1-0.1,0.1-0.3,0.2c-0.2,0-0.3-0.1-0.4-0.2
		c-0.4-0.2-0.6-0.6-0.7-1.2c0.1-0.2,0.1-0.2,0.2-0.2c0.1,0.2,0.3,0.2,0.5,0.2c0.4,0,1.5-0.6,3-1.8c1.6-1.2,2.9-2.5,4.1-4
		C192.3,62.6,192.3,62.6,192.3,62.8z M185.6,61.3c0.3,0.1,0.5,0.2,0.8,0.3c0.4,0.4,0.6,0.8,0.7,1.1c-0.1,0.3-0.2,0.4-0.4,0.4
		c-0.1,0-0.2,0-0.3-0.1c-0.9-0.6-1.5-1.1-2-1.7c0-0.1,0-0.2,0.2-0.2C184.7,61.2,185.1,61.2,185.6,61.3z"/>
	<path d="M187.9,76.5c0.2,0.2,0.3,0.3,0.4,0.4c0.1,0.2,0,0.3-0.1,0.4c-0.1,0.2-0.2,0.4-0.4,0.6l0.4-0.1c1-0.2,1.8-0.4,2.5-0.6
		c0.1-0.1,0.2-0.1,0.3-0.1c0.6,0.3,0.9,0.5,1,0.6c0.1,0.2,0.1,0.3-0.2,0.3c-2,3.9-4.7,6.7-8.2,8.6c-0.2,0-0.2,0-0.1-0.2
		c1.7-1.3,3.3-2.8,4.6-4.4c-0.2,0-0.3,0-0.4,0c-0.2-0.1-0.3-0.2-0.3-0.3c-0.3-0.2-0.8-0.7-1.5-1.6c-0.7,0.6-1.3,1-1.9,1.3
		c-0.2,0.1-0.2,0-0.1-0.1c1.5-1.5,2.7-2.9,3.4-4.4c0-0.1,0-0.2,0-0.3c-0.1-0.1-0.1-0.2-0.2-0.3c-0.1-0.2-0.1-0.3,0.2-0.3
		C187.5,76.3,187.8,76.4,187.9,76.5z M188.6,78.5c-0.2,0-0.4,0-0.5,0c-0.1,0-0.2-0.1-0.4-0.2c-0.6,0.7-1.1,1.3-1.7,1.9
		c0.2,0.1,0.6,0.2,1.3,0.3c0.3,0.2,0.7,0.7,1,1.5c1.1-1.5,1.8-2.7,2.2-3.8c0-0.1,0-0.2-0.1-0.2C189.6,78.3,188.9,78.4,188.6,78.5z"
		/>
	<path d="M189.1,92.6c0.3,0.2,0.6,0.3,0.8,0.4c0.1,0.3,0.2,0.5,0.3,0.7c0,0.2-0.1,0.3-0.3,0.4l-1.7,2c0.1,0.1,0.2,0.2,0.3,0.3
		c0.1,0.2,0.2,0.4,0.2,0.6c0,2.4,0,4.3,0.1,5.6v0.2c0,0.4-0.2,0.6-0.4,0.6c-0.2,0-0.4-0.1-0.6-0.4c-0.2-0.3-0.3-0.5-0.3-0.7
		c0,0,0-0.1,0.1-0.3c0.1-0.4,0.2-1.9,0.4-4.4v-0.4c0-0.3-0.1-0.5-0.2-0.7c-1.3,1.2-2.5,2-3.5,2.6c-0.2,0.1-0.2,0-0.2-0.1
		c0.9-0.8,1.8-1.6,2.6-2.6c0.7-0.9,1.5-1.9,2.2-3c0.1-0.1,0.1-0.3,0.1-0.5c0-0.1-0.1-0.2-0.1-0.3C188.9,92.6,188.9,92.6,189.1,92.6z
		"/>
	<path d="M192.3,111.7c-0.6,1.1-1.2,1.9-1.7,2.4c-1.5,1.9-3.2,3.4-4.9,4.4c0,0.1-0.1,0.1-0.3,0.2c-0.2,0-0.3-0.1-0.4-0.2
		c-0.4-0.2-0.6-0.6-0.7-1.2c0.1-0.2,0.1-0.2,0.2-0.2c0.1,0.1,0.3,0.2,0.5,0.2c0.4,0,1.5-0.6,3-1.8c1.6-1.2,2.9-2.5,4.1-4
		C192.3,111.5,192.3,111.6,192.3,111.7z M185.6,110.2c0.3,0.1,0.5,0.2,0.8,0.3c0.4,0.4,0.6,0.8,0.7,1.1c-0.1,0.3-0.2,0.4-0.4,0.4
		c-0.1,0-0.2,0-0.3-0.1c-0.9-0.6-1.5-1.1-2-1.7c0-0.1,0-0.2,0.2-0.2C184.7,110.1,185.1,110.2,185.6,110.2z"/>
	<path d="M181.4,127.6v-3.4h0.5v2.9h9.4v0.5H181.4z"/>
</g>
<g>
	<path d="M205.3,150v-0.5h9.9v3.4h-0.5V150H205.3z"/>
	<path d="M208.7,158.3c0.1,0.2,0.3,0.4,0.4,0.7c0,0.1,0,0.2-0.1,0.3c-0.2,0.2-0.3,0.4-0.3,0.4c0.7-0.1,1.5-0.2,2.5-0.4
		c0.2,0,0.4-0.1,0.6-0.2c0.1-0.1,0.2-0.1,0.3,0c0.4,0.3,0.7,0.5,0.9,0.7c0.1,0.2,0,0.2-0.2,0.3c-2.1,4-5,6.9-8.5,8.6
		c-0.2,0.1-0.2,0-0.2-0.1c3.1-2.1,5.5-5,7.4-8.6c0-0.1,0-0.2-0.1-0.2l-2.2,0.5c-0.3,0.1-0.7,0.1-1,0.1c-1,1.3-2.2,2.3-3.4,3
		c-0.2,0-0.2,0-0.2-0.2c0.9-0.9,1.7-1.8,2.4-2.8c0.4-0.6,0.7-1.1,1-1.6c0-0.1,0-0.2,0-0.3c-0.1-0.1-0.2-0.2-0.2-0.3
		c0-0.1,0-0.2,0.2-0.2C208.2,158.1,208.5,158.2,208.7,158.3z"/>
	<path d="M206.4,174.9c0.2,0.2,0.4,0.3,0.6,0.4c0.1,0.1,0.1,0.2,0.1,0.2c0,0.2-0.1,0.4-0.1,0.6v1.9c0,0.6,0,1.2,0,1.6
		c0,0.3,0,0.5-0.1,0.6c-0.1,0.3-0.3,0.3-0.6,0.1c-0.3-0.3-0.4-0.6-0.4-0.9c0.1-0.4,0.1-0.8,0.1-1.2v-2.5c0-0.2,0-0.4-0.1-0.4
		c0-0.1-0.1-0.2-0.2-0.3c0-0.2,0-0.3,0.2-0.2C206.1,174.7,206.2,174.8,206.4,174.9z M210.4,174.2c0.1,0,0.3,0.1,0.5,0.2
		c0.2,0.2,0.4,0.4,0.5,0.5c0.1,0.1,0.1,0.3,0,0.5c0,0.6-0.1,1.1-0.1,1.6c0,0.7,0,1.7-0.1,2.8c-0.1,1-0.4,1.9-0.8,2.6
		c-0.5,0.7-1.3,1.6-2.5,2.6c-0.2,0.1-0.2,0-0.2-0.2c0.9-0.9,1.6-1.8,2-2.9c0.3-0.8,0.5-1.9,0.5-3.1v-3.4c0-0.4-0.1-0.6-0.2-0.7
		c-0.1-0.1-0.2-0.1-0.3-0.2c-0.1-0.1-0.1-0.2,0.1-0.3C210,174.2,210.2,174.2,210.4,174.2z"/>
	<path d="M210.6,191.4c0.2-0.1,0.4-0.1,0.6,0.1c0.3,0.2,0.5,0.3,0.7,0.5c0.1,0.1,0.1,0.2-0.1,0.3c-1,1.7-2,3-2.8,3.8l2.6,1.2
		c0.4,0.4,0.8,0.8,1.1,1.3c0.3,0.5,0.4,0.8,0.4,0.9c0,0.2-0.1,0.4-0.3,0.4c-0.2,0-0.4-0.1-0.7-0.3c-0.3-0.3-0.8-0.9-1.7-2
		c-0.4-0.4-0.9-0.9-1.6-1.5c-1.5,1.6-3.2,2.9-5,3.9c-0.1,0-0.2-0.1-0.1-0.2c2.7-2.1,4.9-4.6,6.6-7.6c0-0.1-0.1-0.2-0.2-0.2
		c-2.1,0.5-3.4,0.9-4.1,1.2c-0.2,0.1-0.3,0.1-0.4,0.1c-0.5-0.3-0.8-0.5-0.8-0.7c0-0.1,0-0.2,0.2-0.2c0.2,0,0.4,0.1,0.7,0.1
		c0.9-0.1,2.4-0.5,4.4-1L210.6,191.4z"/>
	<path d="M213.9,209.6c0.2,0.3,0.1,0.4-0.3,0.4c-1.5,1.3-3.1,2.5-4.9,3.8c0.4,0.3,0.8,0.6,1.2,1.1c0.2,0.3,0.3,0.6,0.3,0.8
		c0,0.3-0.1,0.4-0.4,0.4c-0.2,0-0.3-0.1-0.4-0.2c-1.3-1.4-2.4-2.4-3.3-3c0-0.1,0-0.2,0.1-0.2c1.1,0.3,1.8,0.6,2.2,0.8
		c0.8-0.7,1.4-1.3,1.8-1.7c0.4-0.4,1.1-1.3,2-2.4c0-0.1,0-0.1-0.1-0.1c-1.3,0.1-2.5,0.3-3.5,0.4c-1,0.1-2.2,0.4-3.6,0.8
		c-0.3,0.1-0.5,0.1-0.7,0.1c-0.7-0.4-1.1-0.7-1.1-1c0-0.1,0.1-0.2,0.2-0.1c0.1,0.1,0.4,0.2,0.7,0.2h0.3l8-1.1
		c0.1-0.1,0.2-0.1,0.4-0.1C213.3,209,213.7,209.3,213.9,209.6z"/>
	<path d="M210.6,224c0.2-0.1,0.4-0.1,0.6,0.1c0.3,0.1,0.5,0.3,0.7,0.5c0.1,0.1,0.1,0.2-0.1,0.3c-1,1.7-2,3-2.8,3.8l2.6,1.2
		c0.4,0.4,0.8,0.8,1.1,1.3c0.3,0.5,0.4,0.8,0.4,0.9c0,0.2-0.1,0.4-0.3,0.4c-0.2,0-0.4-0.1-0.7-0.3c-0.3-0.3-0.8-0.9-1.7-2
		c-0.4-0.4-0.9-0.9-1.6-1.5c-1.5,1.6-3.2,2.9-5,3.9c-0.1,0-0.2-0.1-0.1-0.2c2.7-2.1,4.9-4.6,6.6-7.6c0-0.1-0.1-0.2-0.2-0.2
		c-2.1,0.5-3.4,0.9-4.1,1.2c-0.2,0.1-0.3,0.1-0.4,0.1c-0.5-0.3-0.8-0.5-0.8-0.7c0-0.1,0-0.2,0.2-0.2c0.2,0,0.4,0.1,0.7,0.1
		c0.9-0.1,2.4-0.5,4.4-1L210.6,224z"/>
	<path d="M202.2,241.9v-3.4h0.5v2.9h9.4v0.5H202.2z"/>
</g>
<g>
	<path d="M184.7,150.9v-0.5h9.9v3.4h-0.5v-2.9H184.7z"/>
	<path d="M193.5,166c0.6,0.3,0.9,0.5,1,0.7c0.1,0.3-0.1,0.5-0.4,0.6c-0.3,0-0.5-0.1-0.8-0.1c-0.6-0.1-1.2-0.1-1.9-0.2
		c-0.4,0-1-0.1-1.7-0.1c-0.7,0-1.4,0.1-2,0.2c-0.9,0.1-1.8,0.2-2.7,0.4c-0.7,0.1-1.3,0.2-2,0.4c-0.3-0.1-0.6-0.3-0.9-0.5
		c-0.3-0.1-0.2-0.2,0.2-0.3c1.9-0.3,3.8-0.6,5.5-0.8c1.7-0.2,3.1-0.3,4-0.4c0.2-0.1,0.4-0.3,0.6-0.3
		C192.6,165.6,192.9,165.7,193.5,166z M189.5,159.7c0.6,0.2,1.1,0.4,1.4,0.6c0.3,0.3,0.2,0.5-0.2,0.6c-1.2,0-2.3,0.1-3.4,0.3
		c-0.7,0.1-1.2,0.2-1.4,0.3c-0.3-0.1-0.5-0.2-0.7-0.3c-0.3-0.1-0.3-0.2-0.1-0.3c1.2-0.2,2.5-0.4,3.8-0.7
		C189.1,159.8,189.3,159.7,189.5,159.7z"/>
	<path d="M188.2,175.1c0.3,0.2,0.5,0.4,0.6,0.6c0.1,0.2,0.1,0.4-0.1,0.6c-0.5,1.1-1,2-1.4,2.8c2.3,1.9,3.9,3.2,4.8,3.8
		c1,0.7,2,1.1,3.1,1.4c0.1,0.1,0.1,0.2,0,0.2c-0.8,0.2-1.4,0.3-1.9,0.3c-0.3,0-0.6,0.1-1.1,0.1c-0.2,0-0.4,0-0.5-0.2
		c-0.4-0.5-0.9-1-1.2-1.5c-1.2-1.6-2.3-2.9-3.4-3.9c-1,1.5-1.9,2.7-2.8,3.6c-0.8,0.9-1.7,1.6-2.7,2.1c-0.1,0-0.2,0-0.1-0.1
		c1.2-1,2.3-2.3,3.3-3.9c1.3-2.2,2.1-4,2.4-5.3c0-0.2-0.1-0.4-0.3-0.5c-0.1-0.2-0.1-0.4-0.1-0.5
		C187.2,174.7,187.6,174.9,188.2,175.1z"/>
	<path d="M192,193.9c0.6,0.6,1,1.5,1,2.6c0,0.9-0.4,1.7-1.1,2.5c-0.6,0.7-1.5,1.3-2.6,1.8c-0.2,0.1-0.2,0-0.2-0.1
		c0.9-0.7,1.6-1.4,2.1-2c0.5-0.6,0.7-1.4,0.7-2.4c0-0.9-0.3-1.6-0.8-2.2c-0.6-0.6-1.3-0.9-2-0.9c-0.4,0-0.7,0-0.9,0.1
		c0.1,0.2,0.1,0.4,0.1,0.7c0,0.3-0.1,0.8-0.4,1.5c-0.3,0.7-0.6,1.4-1,2c-0.8,1.3-1.4,2.1-1.8,2.5c-0.3,0.3-0.6,0.4-0.8,0.4
		c-0.4,0-0.7-0.5-0.9-1.6c-0.1-0.6-0.2-1.1-0.3-1.6c0-0.9,0.6-1.9,1.9-2.9c1.2-1,2.7-1.5,4.3-1.5C190.3,192.7,191.2,193.1,192,193.9
		z M184.8,195.1c-0.7,0.7-1.1,1.5-1.1,2.4c0,1,0.2,1.5,0.7,1.5c0.1,0,0.2-0.1,0.3-0.2c0.7-0.7,1.5-1.8,2.2-3.1
		c0.5-0.9,0.7-1.7,0.7-2.4C186.6,193.7,185.6,194.3,184.8,195.1z"/>
	<path d="M185.2,207.5c0.1,0.1,0.2,0.2,0.1,0.4c-0.1,0.5-0.2,1-0.3,1.6c0.3-0.1,0.6-0.2,1-0.4c0.2,0,0.4,0.1,0.6,0.2
		c0.1,0.2,0.1,0.3-0.1,0.4c-0.9,0.2-1.8,0.4-2.8,0.6c-0.9,0.2-1.4,0.4-1.6,0.4c-0.3-0.1-0.5-0.2-0.7-0.3c-0.2-0.1-0.2-0.2,0.1-0.3
		c0.3,0,0.5-0.1,0.8-0.1c0.7-0.1,1.4-0.3,2.2-0.5c0-0.7-0.1-1.3-0.2-1.8c-0.1-0.1-0.2-0.3-0.3-0.3c-0.1-0.1-0.1-0.3,0.1-0.3
		c0.1,0,0.3,0,0.4-0.1C184.7,207.2,185,207.4,185.2,207.5z M186,215c0.1,0.2,0.1,0.3-0.1,0.4c-0.1,0.1-0.1,0.2-0.2,0.4
		c-0.1,0.4-0.3,1-0.6,1.6c-0.1,0.2-0.2,0.3-0.3,0.1c-0.1,0-0.2-0.1-0.2-0.2c-0.3,0.1-0.5,0.2-0.7,0.2c0,0.2,0,0.3-0.1,0.4
		c-0.3,0-0.6-0.2-0.8-0.6c-0.2-0.5-0.3-1-0.5-1.5c-0.1-0.1-0.2-0.2-0.3-0.2c-0.1-0.3-0.1-0.4,0.1-0.4c0.1,0,0.2,0.1,0.3,0.1
		c0.1,0,0.3,0,0.4-0.1c0.6-0.2,1.3-0.4,1.9-0.7c0.1-0.1,0.2-0.1,0.3-0.2C185.4,214.5,185.7,214.7,186,215z M185.2,212.9
		c0.2,0.1,0.2,0.3,0,0.5c-0.4,0.1-0.7,0.2-1.1,0.2c-0.4,0.1-0.7,0.1-0.9,0.2c-0.4-0.1-0.4-0.2-0.2-0.3c0.3-0.1,0.6-0.2,0.8-0.3
		c0.3-0.1,0.5-0.3,0.7-0.4C184.8,212.8,185,212.9,185.2,212.9z M185.6,211.3c0.1,0.2,0.1,0.3-0.2,0.4c-0.7,0.2-1.3,0.4-1.9,0.5
		c-0.4-0.2-0.5-0.3-0.2-0.4c0.3-0.1,0.6-0.2,1-0.3c0.2-0.1,0.3-0.3,0.4-0.3C185,211.1,185.3,211.2,185.6,211.3z M183.1,215.6
		c0.2,0.5,0.4,1,0.5,1.5c0.3-0.1,0.6-0.2,0.8-0.3c0.1,0,0.2-0.1,0.2-0.2c0.1-0.4,0.1-0.9,0.2-1.3c0-0.2,0-0.3-0.2-0.2L183.1,215.6z
		 M189.3,208.6c0.2,0.2,0.2,0.3-0.1,0.4c-0.1,0.1-0.2,0.2-0.3,0.3c-0.3,0.7-0.9,1.6-1.6,2.8c-0.1,0.2,0,0.2,0.2,0.2
		c0.4-0.1,0.8-0.3,1.1-0.5c0.2,0.1,0.5,0.2,0.7,0.5c0.2,0.2,0.2,0.3,0,0.4c-0.4,0.9-0.7,1.6-1,2.1c0.4,0.4,1.7,1.1,3.8,2.1
		c0.7,0.3,1.7,0.4,3,0.6c0.1,0.2,0.1,0.3,0,0.3l-0.6,0.2l-1.8,0.4l-0.4,0.1c-1.9-1.3-3.3-2.4-4.2-3.3c-0.8,1.1-1.6,2-2.5,2.7
		c-0.2,0.1-0.2,0-0.1-0.1c0.9-1,1.6-2,2-3c-0.3-0.2-0.7-0.4-1.3-0.5c-0.2,0-0.3-0.1-0.3-0.2c0-0.1,0-0.2,0.2-0.2
		c0.3,0,0.6,0.1,0.8,0.2c0.3,0.1,0.5,0.2,0.7,0.3c0.2-0.5,0.4-1.1,0.5-1.7c0-0.2,0-0.2-0.2-0.2c-0.3,0.2-0.7,0.3-1,0.5
		c-0.2-0.1-0.3-0.3-0.3-0.4c0.7-1.2,1.1-2.3,1.3-3.2c0-0.2,0-0.2-0.2-0.2c-0.3,0.2-0.6,0.2-0.7,0.3c-0.2,0-0.3-0.1-0.4-0.2
		c-0.1-0.1-0.1-0.1,0-0.2c0.4-0.1,1.1-0.4,1.9-0.9C188.8,208.1,189,208.3,189.3,208.6z M193.2,207.8c0.1,0.3,0.1,0.4-0.1,0.5
		c-0.8,0.4-1.3,0.7-1.5,0.9c0.1,0.1,0.3,0.2,0.5,0.4v2c0.3-0.1,0.5-0.2,0.8-0.4c0.3,0,0.5,0.1,0.7,0.2c0.3,0.2,0.3,0.4,0,0.5
		c-0.5,0.1-1,0.2-1.5,0.3c0,0.5,0,1.2-0.1,2c0.3-0.1,0.6-0.1,0.8-0.2c0.1-0.1,0.2-0.2,0.4-0.2c0.3,0.1,0.5,0.2,0.8,0.3
		c0.2,0.3,0.2,0.4-0.2,0.5c-0.7,0-1.5,0-2.2,0.1c-0.7,0.1-1.2,0.2-1.5,0.3c-0.2,0.2-0.4,0-0.6-0.6c0.1-0.3,0.2-0.5,0.2-0.8V212
		c0-0.1-0.1-0.2-0.2-0.3c-0.1-0.1,0-0.2,0.3-0.2c0.3,0,0.6,0.2,0.7,0.4c-0.1,1-0.2,1.8-0.2,2.4c0.4,0,0.7-0.1,1-0.1v-4.4
		c-0.1-0.3-0.2-0.4-0.3-0.3c-0.5,0.2-1,0.4-1.5,0.7c-0.2,0-0.2-0.1-0.1-0.2c1.3-1,2.1-1.7,2.6-2.3v-0.2c-0.2-0.2-0.1-0.3,0.1-0.3
		C192.6,207.3,193,207.5,193.2,207.8z"/>
	<path d="M188,223.2c0.2,0.1,0.5,0.2,0.7,0.4c0.2,0.2,0.3,0.3,0.3,0.4c-0.2,0.3-0.2,0.6-0.2,1.1c0,0.7-0.1,1.3-0.1,1.9
		c0.6-0.1,1.1-0.2,1.4-0.3c0.3-0.2,0.5-0.3,0.6-0.4c0.6,0.1,1,0.2,1.3,0.4c0.3,0.3,0.1,0.5-0.4,0.6c-1.2,0.1-2.2,0.2-3,0.2
		c-0.1,0.9-0.1,1.7-0.1,2.3c0.5-0.1,0.9-0.2,1.2-0.3c0.1-0.1,0.2-0.2,0.3-0.2c0.1,0,0.4,0.1,0.7,0.2c0.3,0.1,0.5,0.2,0.7,0.4
		c0.1,0.2,0.1,0.4-0.2,0.4c-0.2,0-0.3,0-0.6,0c-0.7,0-1.4,0-2.1,0.1c0,1-0.1,2-0.1,3c0.7-0.1,1.5-0.1,2.5-0.2c0.1,0,0.2,0,0.4-0.1
		c0.3-0.2,0.5-0.3,0.7-0.3c0.6,0.1,1.1,0.4,1.6,0.8c0.3,0.4,0.2,0.6-0.3,0.6c-0.5-0.1-1.1-0.2-1.7-0.2c-0.5,0-1-0.1-1.6-0.1
		c-1.5,0-2.7,0.1-3.6,0.2c-1.4,0.2-2.5,0.4-3.3,0.6c-0.3,0.1-0.4,0.1-0.6,0.2c-0.3-0.1-0.6-0.3-0.9-0.4c-0.2-0.1-0.1-0.2,0.2-0.2
		c2.1-0.3,3.9-0.6,5.4-0.8v-2.9c-0.7,0.1-1.4,0.2-2.1,0.3c-0.8-0.3-1-0.4-0.6-0.4c0.9-0.1,1.8-0.3,2.8-0.5v-2.2
		c-0.8,0.1-1.5,0.2-2.2,0.4c-0.3-0.1-0.6-0.2-0.8-0.3c-0.7,0.8-1.4,1.5-2.1,2.1c-0.2,0-0.2,0-0.2-0.1c0.6-0.7,1.1-1.4,1.6-2.3
		c0.3-0.7,0.6-1.3,0.8-1.8c0-0.1-0.1-0.3-0.2-0.3c-0.2-0.2,0-0.3,0.3-0.3c0.2,0,0.4,0,0.6,0.1c0.4,0.3,0.7,0.5,0.7,0.8
		c-0.4,0.5-0.7,1-1.1,1.5h0.5c0.6-0.1,1.3-0.2,2.2-0.4v-2.8c0-0.4-0.1-0.7-0.3-0.8c-0.2-0.3-0.2-0.5,0.1-0.6
		C187.6,223.1,187.9,223.1,188,223.2z"/>
	<path d="M190.4,240.2c0.4,0.2,0.7,0.4,1.1,0.6c0.2,0.1,0.2,0.3,0.1,0.4c-0.1,0.3-0.2,0.6-0.1,1c0,1.6,0,3.2-0.1,4.8
		c0,0.8-0.1,1.5-0.2,2c-0.1,0.5-0.3,0.8-0.5,1.1c-0.2,0.3-0.4,0.2-0.6-0.2c-0.1-0.2-0.3-0.5-0.4-0.8c-0.2-0.2-0.3-0.5-0.6-0.7
		c-1,0.1-2.1,0.2-3.1,0.4c-0.1,0.7-0.3,0.9-0.7,0.5c-0.3-0.4-0.4-0.8-0.5-1.2c0.1-0.3,0.1-0.7,0.1-1.2v-4.4c0-0.3,0-0.6-0.2-0.9
		c-0.2-0.3-0.2-0.4,0.1-0.4c0.1,0,0.3,0.1,0.4,0.2c1.4-0.3,2.9-0.6,4.3-1c0.1-0.1,0.3-0.2,0.6-0.3
		C190.2,240.1,190.3,240.1,190.4,240.2z M185.6,241.9c0.1,0.1,0.2,0.3,0.2,0.4v2.4h0.2c0.6-0.1,1.1-0.3,1.5-0.4
		c0.2-0.2,0.4-0.4,0.5-0.4c0.3,0,0.7,0.1,1,0.3c0.2,0.2,0.1,0.4-0.1,0.5c-1,0.2-2,0.4-2.9,0.6h-0.3c0,1.3,0.1,2.3,0.1,3.1
		c0.6-0.1,1.2-0.3,2-0.4c0.2-0.2,0.4-0.3,0.5-0.3c0.3,0,0.6,0.1,0.8,0.3c0.2,0.1,0.2,0.2,0.2,0.4c0.2,0.1,0.4,0.2,0.6,0.2
		c0.1,0,0.2-0.2,0.2-0.6v-6.6c0-0.1,0-0.2-0.2-0.2C188.5,241.3,187,241.6,185.6,241.9z"/>
	<path d="M181.6,259v-3.4h0.5v2.9h9.4v0.5H181.6z"/>
</g>
</svg>
