<svg viewBox="0 0 254 32" xmlns="http://www.w3.org/2000/svg"><path d="M4.05 7.14l-.58 6.5-.17 1.76a5.88 5.88 0 0 1 4.8-2.07c3.97 0 6.59 2.89 6.59 7.27 0 4.46-2.69 8.03-7.35 8.03-1.7 0-3.3-.48-4.38-1.16C1.87 26.86.7 25.8.7 24.68c0-.71.82-1.4 2.11-1.4 1.09 0 1.5 1.64 1.9 2.46.45.98 1.3 1.83 2.62 1.83 2.83 0 4.02-3.02 4.02-6.93 0-3.85-1.9-6.06-4.05-6.06-1.97 0-3.16.96-4.08 2.45-.2.34-.4.38-.95.17-.44-.2-.44-.37-.38-.68.07-.27.1-.64.14-.95l.92-10.6c0-.18.03-.28.2-.45.17-.14.24-.2.41-.2 1.3.03 3.2.03 4.93.03 1.3 0 3.26-.03 5.44-.17.2 0 .27.1.27.3l-.85 2.49c-.03.13-.2.24-.34.24-1.4-.04-2.34-.07-3.67-.07h-5.3zm18.33 24.75l-1.29-.54L34.01.27l1.3.54L22.37 31.9zM44.94 7l-1.3.41c-.33.1-.47.07-.6-.37-.1-.41-.07-.48.34-.62a53.8 53.8 0 0 0 6.56-2.92c.34 0 .54.2.54.4-.03 2.7-.13 4.63-.13 7.39v10.43c0 3.37.03 3.78.37 4.46.37.68 1.63.71 3.03.85.23.03.3.13.3.5 0 .42-.07.48-.3.48-1.5-.06-3.34-.13-4.76-.13-1.64 0-3.3.07-4.9.13-.27 0-.34-.06-.34-.47 0-.38.1-.48.34-.51 1.36-.1 2.55-.14 2.96-.85.37-.75.37-2.21.37-4.46V9.7c0-1.23-.1-2.11-.37-2.52-.17-.24-.41-.4-.89-.4a4 4 0 0 0-1.22.23zm22.53 8.91v.4h-2.21v11.5h2.2v.4h-3.12V15.9h3.13zm7.3 6.73l.61 1.77c.15.43.24.7.34 1.07.15-.37.22-.69.37-1.18l.49-1.64c.22-.73.29-1.07.2-1.28-.1-.18-.38-.24-.67-.27-.08-.01-.1-.02-.1-.16s.02-.15.1-.15c.31.01.82.04 1.19.04.35 0 .76-.03 1.11-.04.08 0 .1.02.1.15 0 .14-.03.15-.1.16-.26.03-.52.1-.71.31-.24.24-.37.5-.61 1.24l-.8 2.38-.53 1.54c-.67.3-.71.32-.77.32-.03 0-.07-.03-.1-.1-.12-.4-.22-.78-.53-1.69l-.52-1.49c-.15-.42-.2-.68-.28-.91l-.27.86-.54 1.5c-.32.86-.38 1.11-.54 1.53-.67.28-.73.3-.78.3-.05 0-.08-.03-.1-.1a49.2 49.2 0 0 0-.53-1.69l-.85-2.45a5.24 5.24 0 0 0-.55-1.3c-.16-.2-.32-.22-.66-.25-.08 0-.1-.01-.1-.17 0-.13.02-.14.11-.14.49.01 1.02.04 1.43.04.49 0 .97-.03 1.47-.04.07 0 .1.01.1.15 0 .14-.03.16-.08.16-.35.03-.6.04-.65.18-.08.2.06.68.3 1.37l.62 1.83c.12.37.2.69.29 1.03.13-.34.22-.68.36-1.1l.47-1.37c.14-.44.2-.59.3-.83a2.56 2.56 0 0 0-.42-.93c-.16-.14-.35-.17-.66-.18-.07 0-.1-.02-.1-.16 0-.13.03-.15.11-.15.48.01.98.04 1.4.04.42 0 .94-.03 1.4-.04.09 0 .11.02.11.15 0 .14-.02.16-.1.16-.37.03-.57.04-.64.18-.08.17.07.65.31 1.36zm6.68.63c-.02.12-.05.25-.05.47 0 1.71 1.06 2.57 1.86 2.57.85 0 1.33-.29 1.8-.93.05-.06.1-.07.14-.07.04 0 .08.03.12.05.05.04.1.1.1.13a2.58 2.58 0 0 1-2.47 1.43c-1.8 0-3-1.32-3-3.12 0-1.75 1.24-3.2 3.01-3.2 1.72 0 2.5 1.5 2.54 2.4 0 .11 0 .14-.07.23-.06.08-.11.06-.2.06a74.57 74.57 0 0 0-3.78-.02zm.07-.47c.91.03 1.52.03 2.43-.04.1-.01.12-.09.12-.2-.04-.73-.35-1.58-1.1-1.58-.7 0-1.26.75-1.45 1.82zm10.36-1.56v-2.3c0-.5.01-.86-.05-1.12-.05-.2-.25-.27-.47-.26l-.31.03c-.16.01-.18.01-.2-.14-.01-.16.03-.17.16-.2.54-.12 1.56-.38 2.13-.59.07.02.16.07.16.13-.06.9-.08 1.9-.08 3.16v4.88c0 .77-.01 1.12.09 1.35.1.2.23.2.4.2l.3.02c.1 0 .12.03.12.14 0 .14-.03.16-.12.17-.52.03-1.44.12-2.03.22-.09 0-.13-.03-.13-.15.02-.31.03-.56.03-.89a1.97 1.97 0 0 1-1.7 1.04c-1.78 0-2.81-1.28-2.81-3.11 0-1.89 1.14-3.24 2.98-3.24.65 0 1.15.27 1.53.66zm0 3.33v-1.68c0-.44 0-.69-.25-1.14-.22-.4-.63-.74-1.12-.74-1.01 0-1.6 1.11-1.6 2.75s.64 2.55 1.6 2.55c.43 0 .78-.25 1.1-.69.26-.35.27-.6.27-1.05zm3.65-8.66h3.13v12.3h-3.13v-.4h2.21v-11.5h-2.2v-.4zm136.45 0v.4h-2.21v11.5h2.21v.4h-3.13V15.9h3.13zm4 5.42v3.43c0 .81.02 1.2.1 1.38.1.18.47.22.86.26.07.02.1.04.1.16s-.03.15-.1.15c-.52 0-1.17-.04-1.6-.04-.45 0-1.09.03-1.57.04-.1 0-.13-.04-.13-.15 0-.12.03-.14.13-.16.35-.02.68-.06.77-.26.12-.22.12-.6.12-1.38v-1.88c0-.57 0-1.08-.02-1.52-.3 0-.65.01-1.09.04-.05 0-.08-.03-.08-.1l.1-.37c.02-.05.07-.08.14-.08l.93.01v-.66c0-1.17.51-2 1.07-2.6a2.6 2.6 0 0 1 2-.9c.47 0 .77.1.77.42 0 .61-.33 1-.59 1-.28 0-.37-.13-.54-.32-.21-.24-.38-.42-.55-.4-.4.07-.62.45-.73 1.37-.07.64-.07 1.55-.07 2.08.49 0 1.05-.01 1.58-.04.07 0 .1.03.1.08l-.12.39c-.02.05-.07.1-.1.1-.5-.05-.96-.05-1.48-.05zm3.64.18l-.32.03c-.15.01-.17 0-.19-.14 0-.15.02-.17.16-.2.5-.1 1.47-.36 2.08-.58.1 0 .17.05.17.11-.01.37-.04.76-.04 1.28.4-.7.94-1.43 1.68-1.43.44 0 .71.17.71.4 0 .52-.39.98-.7.98-.28 0-.47-.29-.73-.29-.15 0-.34.06-.6.39-.24.3-.36.65-.36 1.14v1.59c0 .78 0 1.2.1 1.38.1.2.3.2.76.24.08 0 .09.03.09.17 0 .12-.03.13-.1.13-.49 0-1.03-.04-1.46-.04-.44 0-1.04.03-1.52.04-.08 0-.1 0-.1-.13 0-.14.02-.15.1-.16.39-.04.6-.04.69-.25.12-.22.13-.63.13-1.38v-1.92c0-.47-.03-.82-.1-1.07-.07-.23-.23-.3-.45-.29zm6.62 3.27v-1.86a6 6 0 0 0-.07-1.1c-.06-.21-.2-.3-.48-.27l-.34.03c-.13.01-.15.01-.16-.14-.02-.16 0-.17.14-.2.5-.12 1.5-.39 2.1-.6.1 0 .16.05.16.13-.04.95-.05 1.68-.05 2.3v1.7c0 .79 0 1.19.09 1.4.1.2.32.2.74.22.08.01.1.05.1.17 0 .13-.02.15-.1.15-.47 0-1-.04-1.44-.04-.43 0-1.03.03-1.47.04-.1 0-.13-.02-.13-.15 0-.12.02-.17.11-.17.38-.03.59-.04.7-.22.12-.22.1-.64.1-1.4zm.57-7.76c.42 0 .86.41.86.87 0 .45-.44.88-.86.88-.46 0-.9-.43-.9-.88 0-.46.44-.87.9-.87zm3.21-1.1h3.13V28.2h-3.13v-.4h2.21V16.3h-2.21v-.4zM148.23 7.14l-.58 6.5c-.03.5-.1 1.08-.17 1.76a5.88 5.88 0 0 1 4.8-2.07c3.97 0 6.59 2.89 6.59 7.27 0 4.46-2.69 8.03-7.34 8.03-1.7 0-3.3-.48-4.39-1.16-1.09-.61-2.24-1.67-2.24-2.79 0-.71.81-1.4 2.1-1.4 1.1 0 1.5 1.64 1.9 2.46.45.98 1.3 1.83 2.63 1.83 2.82 0 4-3.02 4-6.93 0-3.85-1.9-6.06-4.04-6.06-1.97 0-3.16.96-4.08 2.45-.2.34-.4.38-.95.17-.44-.2-.44-.37-.37-.68.06-.27.1-.64.13-.95l.92-10.6c0-.18.03-.28.2-.45.17-.14.24-.2.41-.2 1.3.03 3.2.03 4.93.03 1.3 0 3.27-.03 5.44-.17.2 0 .27.1.27.3l-.85 2.49c-.03.13-.2.24-.34.24-1.39-.04-2.34-.07-3.67-.07h-5.3zm18.34 24.75l-1.3-.54L178.2.27l1.3.54-12.92 31.08zm27.04-16.86v.13c3.67.72 5.85 2.93 5.85 6.22 0 4.42-2.93 7.25-7.31 7.25a8.16 8.16 0 0 1-4.66-1.33c-1.02-.65-2.1-1.67-2.1-2.75 0-.82.84-1.47 2.17-1.47 1.02 0 1.42 1.67 1.83 2.55.41.96 1.16 1.9 2.76 1.9 2.51 0 3.97-2.37 3.97-6.25 0-2.38-1.02-5.71-4.62-5.47-.4.03-1.09.1-1.4.1-.33 0-.47-.03-.37-.65.14-.6.34-.74.68-.74s.78.1 1.16.1c1.9 0 3.98-1.57 3.98-5.24 0-2.55-.99-4.66-3.17-4.66-1.15 0-2.14.51-2.61 1.5a3.8 3.8 0 0 0-.34 1.7c0 .99-1.02 1.67-2.28 1.67-.78 0-1.23-.34-1.23-1.02 0-1.98 2.59-4.9 6.47-4.9 3.5 0 6.28 2.1 6.28 5.71 0 3.47-2.51 4.97-5.06 5.65zM210.76 7l-1.3.41c-.33.1-.47.07-.6-.37-.1-.41-.07-.48.33-.62 2.21-.81 4.46-1.8 6.57-2.92.34 0 .54.2.54.4-.03 2.7-.14 4.63-.14 7.39v10.43c0 3.37.04 3.78.38 4.46.37.68 1.63.71 3.02.85.24.03.3.13.3.5 0 .42-.06.48-.3.48-1.5-.06-3.33-.13-4.76-.13-1.63 0-3.3.07-4.9.13-.26 0-.33-.06-.33-.47 0-.38.1-.48.34-.51 1.36-.1 2.55-.14 2.96-.85.37-.75.37-2.21.37-4.46V9.7c0-1.23-.1-2.11-.37-2.52-.17-.24-.41-.4-.89-.4a4 4 0 0 0-1.22.23zM111.5 18.5v-1h21.62v1z"/></svg>