<svg viewBox="0 0 17 252" xmlns="http://www.w3.org/2000/svg"><path d="M7.83 110.08l1.93.73c.25.1.49.18.78.26a23.55 23.55 0 0 0 .01 1.37c0 .04-.01.05-.08.05-.06 0-.08 0-.08-.05-.03-.26-.03-.36-.15-.43-.15-.09-.4-.1-.78-.09l-2.18.04c-.6.01-.67.03-.8.09-.12.07-.13.2-.15.45 0 .04-.02.05-.08.05s-.07 0-.07-.06a22.67 22.67 0 0 0 0-1.74c0-.03 0-.05.07-.05.06 0 .07.02.08.05.02.24.02.36.15.42.13.08.4.08.8.07l2.63-.02v-.05l-2.15-.88-1.52-.62c-.05-.02-.06-.04-.06-.12 0-.1.01-.1.06-.12.48-.18.87-.35 1.4-.57l2.27-.96v-.07l-2.63-.01c-.36 0-.64.03-.77.11-.12.08-.16.3-.18.45 0 .05-.02.06-.08.06s-.07-.02-.07-.07a12.58 12.58 0 0 0 0-1.39c0-.04 0-.06.07-.06.06 0 .07.02.08.06.02.15.06.32.18.4.14.1.4.14.77.15l2.18.06c.4.01.64.01.78-.08.12-.08.12-.27.15-.48 0-.03.01-.05.08-.05s.08.02.08.05l-.02.69v.7l-.68.25-2 .84-.74.3.72.27zm-.71 6.1l.7-.25c.02-.2.03-.46.03-.69l-.02-.74-.63-.23c-.36-.13-.54-.12-.68-.07-.12.06-.16.26-.19.47 0 .04 0 .06-.08.06-.06 0-.07-.02-.07-.07v-1.38c0-.05 0-.07.07-.07s.08.02.08.07c.03.16.1.26.19.35.12.12.34.24.7.37l1.94.72c.76.28.95.34 1.26.43l.22.48c0 .04-.01.06-.05.07l-1.46.5-1.96.68c-.35.12-.56.2-.68.3-.13.1-.14.16-.16.4 0 .06 0 .07-.08.07-.06 0-.07-.01-.07-.08a40.34 40.34 0 0 0 0-1.7c0-.04 0-.05.07-.05s.08.02.08.05c.01.23.04.38.16.42.13.04.3 0 .63-.11zm.95-.34l1.05-.36.78-.25-.77-.27-1.06-.38c-.02.2-.02.44-.02.66 0 .2 0 .43.02.6zm-.79 3.75h2.18c.55 0 .65 0 .77-.07.1-.06.1-.19.1-.34 0-.28-.06-.54-.2-.71a1.86 1.86 0 0 0-.65-.44c-.03 0-.04-.02-.03-.1 0-.06.03-.06.06-.06.3.05.74.1 1.04.12a73.66 73.66 0 0 0 0 3.96c-.3.02-.73.06-1.04.1-.03 0-.05 0-.06-.06-.01-.08 0-.1.03-.1.22-.09.5-.24.64-.42.15-.17.21-.44.21-.73 0-.16.02-.27-.11-.36-.14-.08-.4-.08-.76-.08H7.28c-.6 0-.67 0-.8.06-.12.06-.12.23-.15.46 0 .04-.02.05-.08.05s-.07 0-.07-.06a20.33 20.33 0 0 0 0-1.69c0-.04 0-.05.07-.05.06 0 .08 0 .08.05.03.21.03.35.15.41.15.08.4.06.8.06zm3.2 7.08l-1.03.1c-.05 0-.08 0-.09-.06 0-.06 0-.07.05-.1.31-.15.56-.32.75-.53.2-.23.28-.5.28-.77 0-.87-.81-1.54-2.06-1.54-1.1 0-1.95.68-1.95 1.57 0 .65.27 1.12.84 1.48.03.01.04.04 0 .12-.02.05-.05.06-.1.04-.63-.35-1.09-.87-1.09-1.77 0-1.32.94-2.27 2.29-2.27 1.32 0 2.28.97 2.28 2.3 0 .3-.05.54-.1.76-.06.24-.1.41-.07.67zm-2.14 2.4H7.28c-.6 0-.7 0-.8.05-.13.07-.14.23-.16.48 0 .04-.01.05-.07.05-.07 0-.07 0-.07-.05l.01-.89-.01-.84c0-.04 0-.05.06-.05s.07.01.08.05c.02.24.02.36.15.42.14.09.4.08.81.08h2.18c.57 0 .65 0 .79-.08.1-.05.11-.19.14-.44 0-.04.01-.05.08-.05s.08.01.08.05l-.02.86.02.84c0 .06-.01.07-.08.07s-.08-.01-.08-.06c-.03-.22-.03-.36-.14-.43-.14-.06-.41-.06-.8-.06h-.84a21.98 21.98 0 0 0 0 2.12h.85c.57 0 .66 0 .79-.06.11-.06.11-.2.14-.46 0-.04.01-.05.08-.05s.08.01.08.05l-.02.89.02.82c0 .06-.01.08-.08.08s-.08-.02-.08-.07c-.03-.23-.03-.35-.14-.41-.14-.09-.43-.09-.8-.09H7.29c-.6 0-.68 0-.8.08-.13.07-.14.21-.16.47 0 .03-.02.04-.08.04s-.06-.01-.06-.05l.01-.87-.01-.86c0-.04 0-.05.06-.05s.07.01.08.05c.02.24.02.35.15.42.14.07.4.07.81.07h1.06c.02-.38.02-.7.02-1.04 0-.36 0-.7-.02-1.08zm-1.22 7.06l.7-.25c.02-.2.03-.46.03-.69l-.02-.74-.63-.23c-.36-.13-.54-.12-.68-.06-.12.05-.16.25-.19.46 0 .04 0 .06-.08.06-.06 0-.07-.02-.07-.07v-1.38c0-.05 0-.06.07-.06s.08 0 .08.06c.03.16.1.27.19.36.12.12.34.23.7.36l1.94.72c.76.29.95.34 1.26.44l.22.47c0 .04-.01.07-.05.08l-1.46.5-1.96.67c-.35.12-.56.2-.68.3-.13.1-.14.17-.16.4 0 .06 0 .07-.08.07-.06 0-.07-.01-.07-.08a40.34 40.34 0 0 0 0-1.7c0-.04 0-.04.07-.04s.08 0 .08.04c.01.23.04.38.16.42.13.04.3 0 .63-.1zm.95-.34l1.05-.36.78-.25-.77-.27-1.06-.38c-.02.2-.02.44-.02.66 0 .2 0 .43.02.6zm2.41 8.77l-1.03.1c-.05 0-.08-.01-.09-.06 0-.06 0-.07.05-.1.31-.16.56-.32.75-.54.2-.22.28-.5.28-.76 0-.87-.81-1.54-2.06-1.54-1.1 0-1.95.67-1.95 1.57 0 .65.27 1.12.84 1.47.03.02.04.05 0 .12-.02.06-.06.07-.1.05-.63-.35-1.09-.87-1.09-1.77 0-1.32.94-2.27 2.29-2.27 1.32 0 2.28.96 2.28 2.3 0 .29-.05.54-.1.76-.06.24-.1.41-.07.67zm-2.14 2.4H7.28c-.6 0-.7-.01-.8.05-.13.07-.14.23-.16.48 0 .04-.01.05-.07.05-.07 0-.07 0-.07-.06l.01-.88-.01-.85c0-.03 0-.04.06-.04s.07 0 .08.04c.02.25.02.36.15.43.14.08.4.08.81.08h2.18c.57 0 .65 0 .78-.08.12-.05.12-.2.15-.44 0-.04.01-.05.08-.05s.08.01.08.05l-.02.86.02.84c0 .06-.01.07-.08.07s-.08-.01-.08-.06c-.03-.22-.03-.36-.15-.43-.13-.06-.4-.06-.78-.06H8.6a21.98 21.98 0 0 0 0 2.12h.85c.57 0 .66 0 .78-.06s.12-.21.15-.46c0-.04.01-.05.08-.05s.08.01.08.05l-.02.89.02.82c0 .06-.01.08-.08.08s-.08-.02-.08-.07c-.03-.23-.03-.35-.15-.41-.13-.09-.42-.09-.78-.09H7.28c-.6 0-.68 0-.8.08-.13.07-.14.2-.16.47 0 .03-.02.04-.08.04s-.06-.01-.06-.05l.01-.87-.01-.86c0-.04 0-.05.06-.05s.07.01.08.05c.02.24.02.35.15.42.14.07.4.07.81.07h1.06c.02-.38.02-.7.02-1.04 0-.36 0-.7-.02-1.08zm.03 5.7H7.28c-.25 0-.59 0-.73.08-.16.1-.17.31-.17.58 0 .55.13.84.29 1.03.15.18.39.35.61.48.04.02.06.03.04.1-.02.07-.05.07-.08.06-.32-.07-.76-.2-1.06-.31a71.2 71.2 0 0 0 0-3.22c0-.04 0-.05.07-.05.06 0 .07.01.08.05.02.23.03.33.15.4.13.07.4.08.8.08h2.18c.57 0 .65 0 .78-.08.12-.06.12-.18.15-.43 0-.05.01-.06.08-.06s.08.01.08.06a47.55 47.55 0 0 0 0 3.13c-.3.02-.7.06-1.02.11-.04 0-.06 0-.07-.06 0-.07 0-.1.04-.1.24-.1.5-.26.62-.41.15-.17.21-.44.21-.9 0-.22 0-.4-.15-.48-.12-.08-.4-.06-.72-.06h-.88v.33c0 .37.04.65.13.76.1.14.24.2.4.23.04 0 .06.02.06.1 0 .06-.02.06-.06.06H7.78c-.04 0-.06 0-.06-.07 0-.06.02-.07.06-.09.15-.03.35-.1.45-.24.07-.11.14-.39.14-.75v-.33zm0 4.44H7.28c-.25 0-.59 0-.73.09-.16.1-.17.31-.17.57 0 .56.13.84.29 1.04.15.18.39.34.61.48.04.01.06.03.04.1-.02.07-.05.06-.08.06-.32-.07-.76-.2-1.06-.31a71.2 71.2 0 0 0 0-3.22c0-.04 0-.05.07-.05.06 0 .07 0 .08.05.02.23.03.33.15.4.13.07.4.07.8.07h2.18c.57 0 .65 0 .78-.07.12-.06.12-.18.15-.44 0-.04.01-.05.08-.05s.08.01.08.05a47.55 47.55 0 0 0 0 3.14c-.3.02-.7.06-1.02.11-.04 0-.06 0-.07-.07 0-.06 0-.09.04-.1.24-.09.5-.25.62-.4.15-.17.21-.44.21-.9 0-.22 0-.4-.15-.49-.12-.07-.4-.06-.72-.06h-.88v.34c0 .37.04.65.13.76.1.14.24.2.4.23.04 0 .06.02.06.1 0 .06-.02.06-.06.06H7.78c-.04 0-.06 0-.06-.07 0-.06.02-.08.06-.09.15-.03.35-.1.45-.24.07-.11.14-.39.14-.75v-.33zm-.23 4.6l.15-.3c.36-.71.66-.95 1.28-.95.6 0 1.08.54 1.08 1.34 0 .27-.05.44-.09.6-.05.2-.05.4-.02.6-.3 0-.7.04-1 .07-.04 0-.06 0-.07-.06-.01-.07 0-.08.04-.1.55-.23.94-.6.94-1.08 0-.4-.29-.72-.75-.72-.27 0-.52.16-.77.67l-.16.32c-.4.85-.68 1.15-1.4 1.15-.8 0-1.29-.59-1.29-1.6 0-.42.1-.81.21-1.15.33-.09.7-.17 1-.2.04-.02.09-.02.1.06.01.06 0 .09-.04.1-.6.27-1.08.74-1.08 1.26 0 .5.36.87.87.87.45 0 .69-.27 1-.88zm.23 3.9H7.28c-.25 0-.59-.01-.73.08-.16.1-.17.3-.17.57 0 .56.13.84.29 1.03.15.2.39.35.61.48.04.02.06.04.04.1-.02.08-.05.07-.08.07-.32-.07-.76-.2-1.06-.32a71.2 71.2 0 0 0 0-3.21c0-.04 0-.06.07-.06.06 0 .07.02.08.06.02.23.03.33.15.4.13.07.4.07.8.07h2.18c.57 0 .65 0 .78-.07.12-.06.12-.19.15-.44 0-.04.01-.05.08-.05s.08.01.08.05a47.55 47.55 0 0 0 0 3.13c-.3.03-.7.07-1.02.12-.04 0-.06 0-.07-.07 0-.06 0-.09.04-.1.24-.09.5-.25.62-.4.15-.18.21-.44.21-.9 0-.22 0-.4-.15-.49-.12-.07-.4-.06-.72-.06h-.88v.34c0 .36.04.65.13.75.1.14.24.2.4.24.04 0 .06.02.06.09 0 .07-.02.07-.06.07l-.63-.01-.7.01c-.04 0-.06 0-.06-.07s.02-.08.06-.1c.15-.03.35-.1.45-.23.07-.12.14-.4.14-.75v-.34zm-1.09 7.26h2.18c.55 0 .65 0 .77-.06.1-.06.1-.2.1-.35 0-.27-.06-.54-.2-.7a1.86 1.86 0 0 0-.65-.44c-.03-.01-.05-.03-.03-.1 0-.06.03-.06.06-.06.3.04.73.09 1.04.11a73.66 73.66 0 0 0 0 3.96l-1.04.1c-.03 0-.05 0-.06-.06-.02-.08 0-.09.03-.1.22-.08.5-.24.64-.42.15-.17.21-.43.21-.73 0-.15.02-.27-.12-.36-.13-.08-.4-.07-.75-.07H7.28c-.6 0-.67 0-.8.05-.12.06-.12.23-.15.46 0 .04-.02.06-.08.06s-.07-.02-.07-.06a20.33 20.33 0 0 0 0-1.7c0-.04 0-.05.07-.05.06 0 .08.01.08.05.03.21.03.35.15.42.15.07.4.05.8.05zm-.16 5.63l.7-.25c.02-.2.03-.46.03-.68l-.02-.75-.63-.23c-.36-.13-.54-.12-.68-.06-.12.05-.16.25-.19.47 0 .03 0 .05-.08.05-.06 0-.07-.02-.07-.07v-1.38c0-.05 0-.06.07-.06s.08.01.08.06c.03.17.1.27.19.36.12.12.34.23.7.36l1.94.72c.76.29.95.34 1.26.44l.22.47c0 .04-.01.07-.05.08l-1.46.5-1.96.67c-.35.12-.56.2-.68.3-.13.1-.14.17-.16.4 0 .06 0 .07-.08.07-.06 0-.07 0-.07-.08a40.34 40.34 0 0 0 0-1.7c0-.04 0-.04.07-.04s.08.01.08.05c.01.22.04.37.16.41.13.04.3 0 .63-.1zm.95-.33l1.05-.36.78-.26-.77-.27-1.06-.38c-.02.2-.02.44-.02.67 0 .19 0 .42.02.6zm.18 3.77H7.3c-.6 0-.69 0-.8.06-.13.08-.13.21-.16.46 0 .05-.02.05-.08.05s-.07 0-.07-.06a20.48 20.48 0 0 0 0-1.68c0-.05.01-.06.07-.06.06 0 .08 0 .08.06.03.22.03.35.16.41.13.07.4.07.8.07h2.17c.57 0 .65 0 .78-.06.12-.06.12-.24.15-.48 0-.05.02-.06.08-.06.07 0 .08.01.08.06l-.02.85c0 .23.03.62.03 1 0 1.18-.5 1.63-1.13 1.63-.45 0-.89-.3-1.07-1l-1.49.86c-.21.14-.38.24-.45.36-.06.1-.07.2-.09.36 0 .04 0 .05-.08.05-.06 0-.07 0-.07-.05l.02-.63v-.55l.46-.22 1.59-.86v-.57zm1.2 0h-1l-.02.39c0 .8.43 1.1.97 1.1.6 0 .95-.3.95-1 0-.15 0-.34-.11-.43-.13-.08-.44-.06-.78-.06zm-2.17 5.1h2.18c.55 0 .65 0 .77-.07.1-.06.1-.19.1-.34 0-.28-.06-.54-.2-.71a1.86 1.86 0 0 0-.65-.44c-.03 0-.05-.02-.03-.1 0-.06.03-.06.06-.06.3.05.73.1 1.04.12a73.66 73.66 0 0 0 0 3.96c-.3.02-.73.06-1.04.1-.03 0-.05 0-.06-.06-.02-.08 0-.1.03-.1.22-.09.5-.24.64-.42.15-.17.21-.44.21-.74 0-.15.02-.27-.12-.35-.13-.08-.4-.08-.75-.08H7.28c-.6 0-.67 0-.8.06-.12.06-.12.23-.15.46 0 .04-.02.05-.08.05s-.07 0-.07-.06a20.33 20.33 0 0 0 0-1.69c0-.04 0-.05.07-.05.06 0 .08 0 .08.05.03.21.03.35.15.41.15.08.4.06.8.06zm.86 7.24l.15-.3c.36-.7.66-.95 1.28-.95.6 0 1.08.54 1.08 1.34 0 .27-.05.44-.09.61-.05.19-.05.4-.02.6-.3 0-.7.04-1 .06-.04 0-.06 0-.07-.06-.01-.07 0-.08.04-.09.55-.23.94-.6.94-1.09 0-.4-.29-.72-.75-.72-.27 0-.52.17-.77.67l-.16.32c-.4.86-.68 1.16-1.4 1.16-.8 0-1.29-.6-1.29-1.6 0-.43.1-.82.21-1.16.33-.09.7-.17 1-.2.04-.01.09-.01.1.06.01.06 0 .09-.04.1-.6.27-1.08.74-1.08 1.26 0 .51.36.87.87.87.45 0 .69-.27 1-.88zm-.86 4.22h2.18c.55 0 .65 0 .77-.07.1-.06.1-.19.1-.34 0-.28-.06-.54-.2-.71a1.86 1.86 0 0 0-.65-.44c-.03 0-.05-.02-.03-.1 0-.06.03-.06.06-.06.3.05.73.1 1.04.12a73.66 73.66 0 0 0 0 3.96c-.3.02-.73.06-1.04.1-.03 0-.05 0-.06-.06-.02-.08 0-.1.03-.1.22-.09.5-.24.64-.42.15-.17.21-.44.21-.74 0-.15.02-.27-.12-.35-.13-.08-.4-.08-.75-.08H7.28c-.6 0-.67 0-.8.06-.12.06-.12.23-.15.46 0 .04-.02.05-.08.05s-.07 0-.07-.06a20.33 20.33 0 0 0 0-1.69c0-.04 0-.05.07-.05.06 0 .08 0 .08.05.03.21.03.35.15.41.15.08.4.06.8.06zm.97 4.58H7.3c-.6 0-.69.01-.8.07-.13.08-.13.21-.16.46 0 .04-.02.05-.08.05s-.07 0-.07-.06a20.48 20.48 0 0 0 0-1.69c0-.04.01-.06.07-.06.06 0 .08.02.08.06.03.23.03.36.16.42.13.07.4.07.8.07h2.17c.57 0 .65 0 .78-.06.12-.06.12-.24.15-.49 0-.04.02-.05.08-.05.07 0 .08.01.08.05l-.02.86c0 .23.03.61.03 1 0 1.18-.5 1.63-1.13 1.63-.45 0-.89-.3-1.07-1-.47.26-.97.54-1.49.86-.21.13-.38.24-.45.36-.06.1-.07.19-.09.36 0 .04 0 .05-.08.05-.06 0-.07-.01-.07-.05l.02-.63v-.56c.14-.05.31-.13.46-.21l1.59-.87v-.57zm1.2 0h-1l-.02.4c0 .8.43 1.1.97 1.1.6 0 .95-.3.95-1 0-.15 0-.34-.11-.43-.13-.08-.44-.06-.78-.06zm1.2 5.8c0 1.35-.94 2.32-2.28 2.32-1.32 0-2.3-.97-2.3-2.33s.98-2.32 2.3-2.32c1.31 0 2.28.96 2.28 2.32zm-.2 0c0-.9-.84-1.5-2.08-1.5-1.26 0-2.09.6-2.09 1.5 0 .88.83 1.48 2.07 1.48 1.28 0 2.1-.6 2.1-1.49zm-.55 4.26v-.08l-2.63.03c-.38 0-.64.04-.76.13-.12.08-.16.26-.18.45 0 .04-.02.05-.08.05s-.07-.01-.07-.06a13.2 13.2 0 0 0 0-1.42c0-.05 0-.06.06-.06s.07.01.08.05c.02.17.07.34.2.42.12.1.38.14.75.15l2.19.03c.38 0 .62-.02.73-.1.12-.08.16-.27.19-.5 0-.04.01-.06.09-.06.06 0 .08.02.08.06l-.02.63v.73c-.24.13-.38.23-.73.46l-2.05 1.38-.77.49h.68l1.8-.02c.35 0 .6-.06.74-.14.12-.07.16-.26.18-.43 0-.05 0-.07.08-.07s.1.01.1.06a12 12 0 0 0 0 1.38c0 .04-.02.06-.1.06-.06 0-.07-.02-.08-.06-.02-.17-.06-.32-.18-.39a1.5 1.5 0 0 0-.74-.14l-2.18-.04-1 .01c-.2-.38-.2-.4-.2-.43 0-.03 0-.05.02-.06l1.05-.68 2.75-1.83zm.58 8.41a12 12 0 0 0-1.03.1c-.05 0-.06 0-.08-.05-.02-.06 0-.08.05-.1.32-.17.54-.31.72-.54.19-.21.3-.52.3-.86 0-.87-.88-1.56-2.07-1.56-1.2 0-2.08.67-2.08 1.65 0 .36.11.63.35.91.13.02.25.03.42.03.6 0 .67 0 .8-.06s.13-.2.16-.46c0-.04.01-.05.08-.05.06 0 .07 0 .07.05l-.03.84c0 .28.02.5.03.78 0 .04 0 .04-.07.04-.06 0-.08 0-.08-.04-.03-.23-.03-.3-.15-.38-.15-.06-.4-.06-.73-.06-.4 0-.65 0-.89.03-.02 0-.04-.02-.04-.06.02-.13.03-.24.03-.37 0-.3-.17-.68-.17-1.3 0-1.44.93-2.36 2.3-2.36 1.33 0 2.28 1 2.28 2.37a3 3 0 0 1-.12.78c-.06.23-.08.4-.05.67zm-1.97 6.33h-.04c-.09.94-.46 1.45-1.08 1.45-.6 0-1.23-.4-1.23-1.83 0-.35.03-.75.03-1.04l-.01-.8c0-.04 0-.05.07-.05.06 0 .07 0 .08.05.02.23.02.36.15.43.13.08.4.08.8.08h2.18c.57 0 .65 0 .78-.08.12-.07.12-.2.15-.46 0-.04.01-.05.08-.05s.08 0 .08.06l-.02.8.03.99c0 1.24-.4 1.63-1 1.63-.43 0-.82-.27-1.05-1.18zm.95-1.02h-.88v.2c0 1 .42 1.25.94 1.25.54 0 .84-.35.84-.96 0-.19 0-.34-.13-.42-.13-.07-.4-.07-.77-.07zm-1.1 0H7.27c-.33 0-.6 0-.75.09-.16.09-.17.27-.17.52 0 .87.56 1.08 1.02 1.08.39 0 .98-.1.98-1.41v-.28zm1.1 4.77H7.28c-.6 0-.68 0-.8.06s-.13.23-.15.47c0 .04-.02.06-.08.06s-.07-.02-.07-.06l.01-.89-.01-.84c0-.03 0-.04.07-.04.06 0 .07 0 .08.04.02.23.02.36.15.43s.4.06.8.06h2.18c.57 0 .65 0 .78-.06.12-.06.12-.21.15-.46 0-.03.01-.04.08-.04s.08 0 .08.04l-.02.87.02.86c0 .04-.01.06-.08.06s-.08-.02-.08-.06c-.03-.23-.03-.36-.15-.43-.14-.07-.4-.07-.78-.07zm-2.18 3.19h2.18c.55 0 .65-.01.77-.07.1-.06.1-.2.1-.34 0-.28-.06-.54-.2-.72a1.86 1.86 0 0 0-.65-.43c-.03-.01-.05-.02-.03-.1 0-.06.03-.06.06-.06.3.05.73.09 1.04.11a73.66 73.66 0 0 0 0 3.96l-1.04.11c-.03 0-.05 0-.06-.07-.02-.07 0-.09.03-.1.22-.08.5-.24.64-.42.15-.17.21-.43.21-.73 0-.15.02-.27-.12-.35-.13-.09-.4-.08-.75-.08H7.28c-.6 0-.67 0-.8.05-.12.06-.12.24-.15.46 0 .05-.02.06-.08.06s-.07-.01-.07-.06a20.33 20.33 0 0 0 0-1.7c0-.04 0-.05.07-.05.06 0 .08.01.08.06.03.2.03.34.15.41.15.07.4.05.8.05zm0 4.92h2.18c.55 0 .65 0 .77-.07.1-.06.1-.2.1-.34 0-.28-.06-.54-.2-.71a1.86 1.86 0 0 0-.65-.44c-.03 0-.05-.02-.03-.1 0-.06.03-.06.06-.06.3.05.73.1 1.04.12a73.66 73.66 0 0 0 0 3.95l-1.04.11c-.03 0-.05 0-.06-.06-.02-.08 0-.1.03-.1.22-.09.5-.25.64-.43.15-.16.21-.43.21-.73 0-.15.02-.27-.12-.35-.13-.08-.4-.08-.75-.08H7.28c-.6 0-.67 0-.8.05-.12.06-.12.24-.15.47 0 .04-.02.05-.08.05s-.07-.01-.07-.06a20.33 20.33 0 0 0 0-1.7c0-.03 0-.05.07-.05.06 0 .08.02.08.06.03.2.03.35.15.41.15.08.4.06.8.06zm1.09 4.6H7.28c-.25 0-.59-.01-.73.08-.16.1-.17.31-.17.57 0 .56.13.84.29 1.04.15.18.39.34.61.48.04.01.06.03.04.1-.02.07-.05.06-.08.06-.32-.07-.76-.2-1.06-.31a71.2 71.2 0 0 0 0-3.22c0-.04 0-.05.07-.05.06 0 .07 0 .08.05.02.23.03.33.15.4.13.07.4.07.8.07h2.18c.57 0 .65 0 .78-.07.12-.06.12-.18.15-.44 0-.04.01-.05.08-.05s.08.01.08.05a47.55 47.55 0 0 0 0 3.14c-.3.02-.7.06-1.02.11-.04 0-.06 0-.07-.07 0-.06 0-.09.04-.1.24-.09.5-.25.62-.4.15-.17.21-.44.21-.9 0-.22 0-.4-.15-.49-.12-.07-.4-.06-.72-.06h-.88v.34c0 .37.04.65.13.76.1.13.24.2.4.23.04 0 .06.02.06.1 0 .06-.02.06-.06.06H7.78c-.04 0-.06 0-.06-.07s.02-.08.06-.09c.15-.04.35-.1.45-.24.07-.11.14-.39.14-.75v-.34zm-.12 4.43H7.3c-.6 0-.69 0-.8.07-.13.07-.13.2-.16.46 0 .04-.02.05-.08.05s-.07 0-.07-.06a20.48 20.48 0 0 0 0-1.69c0-.05.01-.06.07-.06.06 0 .08.01.08.06.03.22.03.35.16.41.13.08.4.08.8.08h2.17c.57 0 .65 0 .78-.06.12-.06.12-.24.15-.49 0-.04.02-.05.08-.05.07 0 .08 0 .08.05l-.02.86c0 .23.03.61.03.99 0 1.19-.5 1.64-1.13 1.64-.45 0-.89-.3-1.07-1-.47.25-.97.54-1.49.86-.21.13-.38.24-.45.35-.06.1-.07.2-.09.37 0 .03 0 .05-.08.05-.06 0-.07-.02-.07-.05l.02-.64v-.55c.14-.05.31-.13.46-.22l1.59-.86v-.57zm1.2 0h-1l-.02.4c0 .8.43 1.1.97 1.1.6 0 .95-.31.95-1 0-.16 0-.35-.11-.43-.13-.08-.44-.07-.78-.07zM8.95 7.32v1.44c0 .68.05 1.66.05 2.02 0 .3-.22.44-.68.44-.3 0-.46-.12-.46-.38l.06-2.7a9.05 9.05 0 0 1-4.67 2.72c-.06.01-.13-.1-.07-.13 1.6-.77 3-2 3.94-3.41H5.06l-.12.38c-.1.23-.28.33-.61.33-.4 0-.59-.11-.59-.3 0-.07.02-.16.06-.23.28-.67.42-1.21.54-1.73.07-.32.12-.65.14-.98.57.24.65.27 1.18.57h2.2V3.95H5.12c-.23 0-.46.02-.77.1l-.13-.47c.36.07.62.1.9.1h6.32c.46-.48.55-.55.65-.55.12 0 .22.07.62.42.18.16.26.24.26.34 0 .08-.04.12-.32.37v.25c0 .65.04 1.14.04 1.29 0 .32-.2.45-.67.45-.33 0-.45-.12-.45-.4v-.21H8.95v1.4h3.07c.4-.48.5-.55.6-.55.12 0 .22.07.68.46.2.17.28.25.28.35 0 .08-.04.12-.36.3-.08.54-.17.97-.25 1.32-.15.6-.31.94-.57 1.12-.21.17-.54.22-.93.22-.16 0-.2-.04-.2-.18-.09-.5-.35-.7-1.27-1-.06-.02-.03-.19.03-.18.62.09 1.14.15 1.44.15.25 0 .38-.12.5-.59.05-.25.11-.62.17-1.14h-3.2zm0-1.96h2.61V3.95H8.95v1.41zm-1.08.28H5.5c-.08.4-.21.86-.37 1.4h2.74v-1.4zm2.22-3.89h-.5c-.44.65-.99 1.15-1.6 1.55-.05.04-.15-.04-.11-.08.42-.58.77-1.23 1.02-1.86.18-.47.31-.92.37-1.34 1.02.26 1.38.41 1.38.57 0 .14-.13.21-.5.27-.1.22-.22.42-.35.62H12c.51-.63.66-.72.74-.72.11 0 .25.1.8.5.25.2.34.29.34.37 0 .09-.03.12-.15.12h-3.32c.84.2 1.23.5 1.23.93 0 .38-.27.64-.61.64-.33 0-.44-.14-.53-.7-.07-.36-.2-.69-.42-.87zm-4.44 0h-.48a6.32 6.32 0 0 1-2.07 1.9c-.04.02-.13-.06-.1-.11a7.9 7.9 0 0 0 1.4-2.23C4.57.85 4.7.4 4.76 0c1.2.34 1.45.46 1.45.61 0 .13-.12.2-.49.24l-.36.63h1.55c.47-.54.61-.64.7-.64.1 0 .23.1.7.44.2.17.3.27.3.35 0 .09-.03.12-.15.12H5.98c.86.24 1.18.52 1.18.94 0 .37-.28.66-.64.66-.3 0-.38-.11-.49-.71-.08-.46-.17-.66-.38-.89zM4.44 20.4h7.3c.7-.87.84-.96.93-.96.1 0 .24.1.93.66.33.26.42.37.42.45 0 .09-.03.12-.15.12h-9.4c-.36 0-.7.03-1.17.08l-.14-.45c.5.07.9.1 1.28.1zm7.88 16.49h-1.44l.02 1.48h1.4c.58-.64.73-.74.81-.74.11 0 .24.1.77.52.24.19.34.3.34.38 0 .08-.04.12-.16.12H10.9l.03 2.05c0 .31-.23.46-.65.46-.32 0-.5-.1-.5-.36 0-.27.04-.93.06-2.15H7.82c-.29 0-.58.02-.96.07l-.13-.44c.43.07.77.1 1.1.1h2.02v-1.5H8.49v.19c0 .3-.2.43-.6.43-.35 0-.49-.11-.49-.37 0-.36.05-.74.05-2.2 0-.86-.01-1.73-.06-2.6.55.25.63.28 1.16.57h2.7c.3-.6.58-1.32.78-1.92.11-.32.2-.62.23-.84 1.1.47 1.4.64 1.4.8 0 .14-.08.16-.49.2-.7.87-.95 1.14-1.6 1.76h.67c.34-.44.44-.51.54-.51.12 0 .22.07.62.38.18.14.25.23.25.32 0 .11-.07.2-.3.38v.57c0 1.54.05 2.57.05 2.92 0 .27-.24.42-.61.42-.31 0-.47-.1-.47-.35v-.14zm-1.44-3.71v1.55h1.44v-1.55h-1.44zm-1.03 0H8.49v1.55h1.36v-1.55zm0 3.43V35H8.49v1.6h1.36zm1.03 0h1.44V35h-1.44v1.6zm-5.35-3h-.85c-.1.78-.22 1.55-.35 2.14h1.05c.41-.44.5-.5.6-.5.12 0 .22.06.6.4.17.14.24.24.24.34 0 .08-.03.12-.3.37a12.3 12.3 0 0 1-.62 3.7c-.13.35-.31.6-.58.75-.21.13-.5.2-.87.2-.13 0-.18-.04-.2-.26-.08-.46-.23-.58-1.16-.9-.06-.02-.06-.16 0-.16.75.08 1.1.11 1.36.11.4 0 .43-.02.57-.53.23-.76.39-1.95.42-3.25H4.27l-.1.43c-.1.2-.24.28-.59.28-.3 0-.49-.1-.49-.24a15.82 15.82 0 0 0 .59-3.7c.5.2.58.24 1.07.54h.78v-2.2h-1.5c-.18 0-.37.03-.61.1l-.14-.46c.32.07.54.1.78.1h1.38c.39-.45.48-.52.58-.52.12 0 .22.07.61.38.18.16.25.24.25.34 0 .08-.03.12-.32.4v.4c0 1.03.04 1.75.04 1.98 0 .26-.2.4-.6.4-.33 0-.47-.09-.47-.28v-.36zm5.45-1.97c0 .41-.28.72-.62.72-.32 0-.34-.05-.51-.79-.1-.48-.34-.94-.7-1.33-.03-.05.05-.13.11-.11 1.18.4 1.72.86 1.72 1.51zm-2.02.13c0 .38-.25.65-.56.65-.3 0-.39-.12-.53-.74a2.1 2.1 0 0 0-.69-1.2c-.04-.04 0-.1.06-.09 1.18.28 1.72.71 1.72 1.38zm7.11 29.05h-5.24a8.01 8.01 0 0 0 2.45 2.58c1.08.72 2.4 1.18 3.65 1.44.07.01.07.18 0 .2-.47.14-.66.35-.8.91-.08.25-.12.34-.24.34-.13 0-.3-.07-.65-.23a10.31 10.31 0 0 1-4.68-4.99c.05 3.75.14 5.8.14 6.25 0 .38-.28.56-.8.56-.42 0-.6-.15-.6-.43 0-.44.09-2.22.18-5.39A13.08 13.08 0 0 1 3.7 66.4c-.1.06-.25-.18-.14-.25a15.11 15.11 0 0 0 5.27-5.33H5.81c-.38 0-.65.04-1.08.11l-.2-.68c.52.09.85.12 1.3.12H9.4v-.43c0-1.17 0-1.37-.07-1.98 1.6.2 1.83.29 1.83.52 0 .13-.07.22-.56.45v1.44h3.2c.76-.88.9-.97 1.02-.97.1 0 .25.09 1.04.7.36.3.45.42.45.52 0 .15-.07.2-.25.2zm-7.65-7.5H6.56c0 1.42-.52 2.44-1.35 2.43-.36 0-.63-.27-.63-.69 0-.32.15-.5.5-.77A2.38 2.38 0 0 0 6.2 52.1c0-.1.24-.13.26-.02.05.27.09.52.1.78h7.78c.5-.6.6-.69.68-.69.11 0 .3.06 1.07.76.28.25.3.36.3.5 0 .22-.16.33-.61.3-.22 0-.32.06-.5.24-.38.38-.76.69-1.21 1.01-.07.05-.2-.05-.16-.13.3-.59.48-1.04.6-1.54H12.3v3.1c0 .53.2.68 1.22.68.88 0 1.15-.1 1.37-.31.29-.27.43-.7.65-1.51.02-.1.2-.07.2.02-.02.4-.06.91-.06 1.15 0 .2.06.27.27.36a.5.5 0 0 1 .33.48c0 .31-.22.53-.67.67-.47.13-1.13.2-2.25.2-1.75 0-2.27-.38-2.27-1.5 0-.25.04-.7.04-1.36v-1.98H9.64c-.09 3.04-1.46 4.59-4.66 5.45-.13.04-.2-.22-.1-.27 2.46-1.1 3.48-2.48 3.54-5.18zm-4.99 1.31c-.3 0-.41-.1-.7-.74a3.72 3.72 0 0 0-1.4-1.74c-.06-.04.01-.17.09-.15 1.74.27 2.71.97 2.71 1.86 0 .45-.34.77-.7.77zm-1.1 4.27c-.23 0-.4-.13-.54-.45a4.03 4.03 0 0 0-1.58-2.07c-.05-.04.02-.17.09-.15 1.67.22 2.74 1 2.74 1.84 0 .45-.33.83-.7.83zm-.23 8.8c-.45 0-.7-.27-.7-.9 0-.58.09-1.17.09-1.7 0-1.27-.3-1.58-1.42-1.9-.11-.04-.08-.27.03-.25.27.03.52.07.69.07.43 0 .66-.13.9-.49.7-1.1 1.74-3.02 2.98-5.67.04-.09.26 0 .22.1a181 181 0 0 1-2.3 5.82c-.15.38-.2.74-.2 1.16 0 .88.65 1.7.65 2.62 0 .69-.38 1.14-.94 1.14zm9.54 13.21l.07 2.78c.04 2.23.1 4.03.1 4.78 0 .49-.15.8-.4 1.05-.26.25-.65.43-1.12.43-.34 0-.41-.07-.45-.41-.1-.49-.61-.76-1.82-1.03-.1-.02-.1-.25 0-.25a32 32 0 0 0 2.16.12c.24 0 .33-.09.33-.32v-3.02c-1.01.88-1.79 1.44-3.12 2.2-.02.48-.1.66-.25.66-.16 0-.23-.16-.83-1.6-.1.05-.2.07-.32.07-.36 0-.47-.2-.5-.96a4.68 4.68 0 0 0-.64-2.03c-.03-.05.1-.13.15-.09 1.06.67 1.69 1.5 1.69 2.27 0 .23-.07.45-.18.6l.63-.17c1.33-.43 2.32-.83 3.37-1.35v-4.46H7.9c-.45 0-.73.01-1.22.1l-.18-.68c.56.09.92.13 1.4.13h4.92l.1-2.2H8.99c-.45 0-.8.02-1.28.1l-.18-.68a9 9 0 0 0 1.44.13h4.01l.1-2.09H8.63c-.56 0-.89.04-1.32.11l-.16-.68c.5.1.83.12 1.48.12h4.32c.55-.61.64-.66.77-.66s.23.05.76.48c.27.25.34.34.34.45 0 .16-.04.24-.49.54l-.23 4.38h.6c.64-.85.78-.94.9-.94s.23.09.9.72c.26.25.35.38.35.49 0 .1-.05.18-.23.18h-4.8c.2 1.22.55 2.44 1.13 3.54.37-.41.8-.97 1.11-1.53.22-.41.4-.8.5-1.13 1.23.72 1.46.9 1.46 1.08 0 .21-.16.29-.7.29-.92.75-1.35 1.1-2.21 1.62a8.47 8.47 0 0 0 3.8 3.2c.07.04.03.14-.04.18-.43.2-.61.38-.81.92-.1.29-.14.32-.27.32-.1 0-.25-.09-.54-.3-.83-.72-1.6-1.71-2.18-2.74a15.33 15.33 0 0 1-1.42-4.72zM3.18 85.9v-3.94l-1.93.36c-.14.4-.23.5-.37.5-.18 0-.3-.23-.56-1.67.4.03.56.03.8.03l1.07-.01c.74-.96 1.44-2.13 2.05-3.37.33-.72.61-1.33.74-1.85 1.26.6 1.62.82 1.62 1.02 0 .15-.13.29-.68.27a21.38 21.38 0 0 1-3.24 3.93c.95-.04 1.9-.11 2.86-.18a5.5 5.5 0 0 0-.65-1.4c-.04-.06.09-.13.14-.1 1.14.67 1.8 1.57 1.8 2.29 0 .43-.25.77-.6.77s-.42-.14-.55-.88l-.05-.32c-.43.14-.87.25-1.3.36v3.49c0 1.98.07 3.8.07 4.34 0 .37-.27.54-.75.54-.4 0-.56-.11-.56-.45 0-.33.09-1.5.09-3.73zm-.85-8.84c.58.42.87.87.87 1.35 0 .47-.25.8-.63.8-.3 0-.38-.1-.61-.76a4.55 4.55 0 0 0-1.3-1.98c-.07-.06.04-.2.13-.16.48.16.9.36 1.24.55a11.42 11.42 0 0 0 1.17-3.43c1.4.52 1.74.68 1.74.9 0 .16-.16.27-.68.28a14.09 14.09 0 0 1-1.93 2.45zm6.45 6.97c-.33 0-.47-.16-.6-.72a4.44 4.44 0 0 0-.84-1.98c-.06-.06.05-.16.12-.13 1.25.5 1.97 1.35 1.97 2 0 .5-.27.83-.65.83zM.28 88.7c-.07.09-.27-.02-.23-.13.38-.9.72-2.09.99-3.27.12-.69.2-1.34.2-1.86 1.38.42 1.65.52 1.65.74 0 .14-.14.25-.54.34-.52 1.64-1.1 3-2.07 4.18z" fill="#FFF"/></svg>