<svg viewBox="0 0 17 228" xmlns="http://www.w3.org/2000/svg"><path d="M8.33 92.58l1.93.73c.25.1.49.18.78.26a23.55 23.55 0 0 0 .01 1.37c0 .04-.01.05-.08.05-.06 0-.07-.01-.08-.05-.02-.26-.02-.36-.15-.43-.15-.09-.4-.1-.78-.09l-2.18.04c-.6.01-.67.03-.8.09-.12.06-.13.2-.15.45 0 .04-.02.05-.08.05s-.07-.01-.07-.06a22.67 22.67 0 0 0 0-1.74c0-.03.01-.05.08-.05.05 0 .06.02.07.05.02.24.02.36.15.42.14.08.4.08.8.07l2.63-.02v-.05l-2.15-.88c-.66-.27-1.05-.44-1.52-.62-.04-.02-.06-.04-.06-.12 0-.1.02-.1.06-.12.48-.18.87-.35 1.4-.57l2.27-.96v-.07l-2.63-.01c-.36 0-.64.03-.77.11-.12.08-.16.29-.18.45 0 .05-.02.06-.07.06-.07 0-.08-.02-.08-.07a12.58 12.58 0 0 0 0-1.39c0-.04.01-.06.07-.06.06 0 .07.02.08.06.02.15.06.32.18.4.14.09.4.14.77.15l2.18.06c.4.01.64.01.78-.08.13-.08.13-.27.15-.48 0-.03.01-.05.08-.05s.08.02.08.05l-.02.69.01.7c-.25.08-.46.15-.69.25l-2 .84-.74.3.72.27zm-.71 6.1l.7-.25c.02-.2.03-.46.03-.69L8.33 97l-.63-.23c-.36-.13-.54-.12-.67-.07-.13.06-.17.26-.2.47 0 .04 0 .06-.07.06s-.08-.02-.08-.07l.01-.75-.01-.63c0-.05.01-.07.08-.07.06 0 .07.02.07.07.03.16.1.26.19.35.12.12.34.24.7.37l1.95.72c.75.28.94.34 1.26.43l.21.48c0 .04-.01.06-.05.07l-1.46.5-1.96.68c-.35.12-.56.2-.68.3-.13.1-.14.16-.16.39 0 .07 0 .08-.07.08s-.08-.01-.08-.08a40.34 40.34 0 0 0 0-1.7c0-.04.01-.05.08-.05.06 0 .07.02.07.05.02.23.04.38.16.42.13.04.3 0 .63-.11zm.95-.34l1.05-.36c.4-.14.57-.18.78-.25l-.77-.27-1.06-.38-.01.66v.6zm-.79 3.75h2.18c.55 0 .65 0 .77-.07.1-.06.1-.19.1-.34 0-.28-.06-.54-.2-.71a1.86 1.86 0 0 0-.65-.44c-.03 0-.04-.02-.03-.1.01-.06.03-.06.06-.06.31.05.74.1 1.04.12a73.66 73.66 0 0 0 0 3.96c-.3.02-.73.06-1.04.1-.03 0-.05 0-.06-.06-.01-.08 0-.1.03-.1.23-.09.5-.24.65-.42.14-.17.2-.44.2-.74 0-.15.02-.27-.11-.35-.14-.08-.4-.08-.76-.08H7.78c-.6 0-.66 0-.8.06-.12.06-.12.23-.15.46 0 .04-.01.05-.07.05-.07 0-.08-.01-.08-.06a20.33 20.33 0 0 0 0-1.69c0-.04.01-.05.07-.05.07 0 .08 0 .08.05.03.21.03.35.15.41.15.08.4.06.8.06zm3.2 7.08l-1.03.1c-.05 0-.07-.01-.09-.06 0-.06 0-.07.05-.1.31-.16.57-.32.75-.53.2-.23.28-.5.28-.77 0-.87-.81-1.54-2.06-1.54-1.1 0-1.94.67-1.94 1.57 0 .65.27 1.12.83 1.47.03.02.04.05 0 .12-.02.06-.05.07-.1.05-.63-.35-1.09-.87-1.09-1.77 0-1.32.94-2.27 2.29-2.27 1.32 0 2.28.96 2.28 2.3 0 .29-.04.54-.1.76-.06.24-.1.41-.06.67zm-2.14 2.4H7.78c-.6 0-.7-.01-.8.05-.13.07-.13.23-.16.48 0 .04-.01.05-.07.05-.07 0-.07 0-.07-.06l.02-.88-.02-.84c0-.04 0-.05.06-.05s.08.01.08.05c.03.24.03.36.15.42.14.09.4.08.81.08h2.18c.58 0 .65 0 .79-.08.11-.05.12-.19.14-.44 0-.04.01-.05.08-.05s.08.01.08.05l-.02.86.02.84c0 .06-.01.07-.08.07s-.07-.01-.08-.06c-.02-.22-.02-.36-.14-.43-.14-.06-.41-.06-.79-.06h-.85a21.98 21.98 0 0 0 0 2.12h.85c.58 0 .66 0 .79-.06.12-.06.12-.21.14-.46 0-.04.01-.05.08-.05s.08.01.08.05l-.02.89.02.82c0 .06-.01.08-.08.08s-.07-.02-.08-.07c-.02-.23-.02-.35-.14-.41-.14-.09-.42-.09-.79-.09H7.78c-.6 0-.68 0-.8.08-.13.07-.13.21-.16.47 0 .03-.02.04-.08.04s-.06-.01-.06-.05l.02-.87-.02-.86c0-.04 0-.05.06-.05s.08.01.08.05c.03.24.03.35.15.42.14.07.4.07.81.07h1.06c.02-.38.02-.7.02-1.04 0-.36 0-.7-.02-1.08zm-1.22 7.06l.7-.25c.02-.2.03-.46.03-.69l-.02-.74-.63-.23c-.36-.13-.54-.12-.67-.06-.13.05-.17.25-.2.46 0 .04 0 .06-.07.06s-.08-.02-.08-.07l.01-.75-.01-.63c0-.05.01-.06.08-.06.06 0 .07 0 .07.06.03.16.1.27.19.36.12.12.34.23.7.36l1.95.72c.75.28.94.34 1.26.43l.21.48c0 .04-.01.06-.05.08l-1.46.5-1.96.67c-.35.12-.56.2-.68.3-.13.1-.14.16-.16.4 0 .06 0 .07-.07.07s-.08-.01-.08-.08a40.34 40.34 0 0 0 0-1.7c0-.04.01-.04.08-.04.06 0 .07 0 .07.04.02.23.04.38.16.42.13.04.3 0 .63-.11zm.95-.34l1.05-.36.78-.25-.77-.27-1.06-.38-.01.66v.6zm2.42 8.77c-.32.02-.73.06-1.04.1-.05 0-.07-.01-.09-.06 0-.06 0-.07.05-.1.31-.16.57-.32.75-.54.2-.22.28-.5.28-.76 0-.87-.81-1.55-2.06-1.55-1.1 0-1.94.68-1.94 1.58 0 .65.27 1.12.83 1.47.03.02.04.04 0 .12-.02.06-.05.07-.1.04-.63-.34-1.09-.87-1.09-1.76 0-1.32.94-2.27 2.29-2.27 1.32 0 2.28.96 2.28 2.3 0 .29-.04.53-.1.76-.06.24-.1.41-.06.67zm-2.15 2.4H7.78c-.6 0-.7-.01-.8.05-.13.07-.13.23-.16.48 0 .04-.01.05-.07.05-.07 0-.07-.01-.07-.06l.02-.88-.02-.85c0-.03 0-.04.06-.04s.08 0 .08.04c.03.25.03.36.15.43.14.08.4.08.81.08h2.18c.58 0 .65 0 .79-.08.11-.05.12-.2.14-.44 0-.04.01-.05.08-.05s.08.01.08.05l-.02.86.02.84c0 .05-.01.07-.08.07s-.07-.02-.08-.06c-.02-.23-.02-.36-.14-.43-.14-.07-.41-.06-.79-.06h-.85a21.98 21.98 0 0 0 0 2.12h.85c.58 0 .66 0 .79-.06.12-.06.12-.21.14-.46 0-.05.01-.05.08-.05s.08.01.08.05l-.02.88.02.83c0 .06-.01.07-.08.07s-.07 0-.08-.06c-.02-.24-.02-.35-.14-.42-.14-.08-.42-.08-.79-.08H7.78c-.6 0-.68 0-.8.08-.13.07-.13.2-.16.47 0 .03-.02.04-.08.04s-.06-.01-.06-.06l.02-.87-.02-.85c0-.05 0-.05.06-.05s.08.01.08.05c.03.24.03.35.15.42.14.07.4.07.81.07h1.06c.02-.38.02-.7.02-1.05 0-.35 0-.69-.02-1.07zm.03 5.7H7.78c-.25 0-.59-.01-.72.08-.17.1-.18.31-.18.58 0 .55.13.84.29 1.03.16.18.39.35.61.48.04.02.06.03.04.1-.02.07-.04.07-.08.06-.32-.07-.76-.2-1.06-.31a71.2 71.2 0 0 0 0-3.22c0-.04.01-.05.07-.05.06 0 .07.01.08.05.02.23.03.33.15.4.14.07.4.08.8.08h2.18c.58 0 .65-.01.79-.08.11-.06.12-.18.14-.43 0-.05.01-.06.08-.06s.08.01.08.06a47.55 47.55 0 0 0 0 3.13c-.3.02-.7.06-1.02.11-.03 0-.06 0-.07-.06 0-.07 0-.1.04-.1.24-.1.5-.26.62-.41.15-.17.22-.44.22-.9 0-.22-.02-.4-.15-.48-.13-.08-.4-.06-.73-.06h-.88v.33c0 .37.05.65.13.76.1.14.25.2.4.23.04 0 .06.02.06.1 0 .06-.02.06-.06.06H8.28c-.04 0-.06 0-.06-.07 0-.06.02-.08.06-.09.15-.03.35-.1.45-.24.07-.11.14-.39.14-.75v-.33zm0 4.44H7.78c-.25 0-.59 0-.72.09-.17.1-.18.31-.18.57 0 .56.13.84.29 1.04.16.18.39.34.61.48.04.01.06.03.04.1-.02.07-.04.06-.08.06-.32-.07-.76-.2-1.06-.31a71.2 71.2 0 0 0 0-3.22c0-.04.01-.05.07-.05.06 0 .07 0 .08.05.02.23.03.33.15.4.14.07.4.07.8.07h2.18c.58 0 .65 0 .79-.07.11-.06.12-.18.14-.44 0-.04.01-.05.08-.05s.08.01.08.05a47.55 47.55 0 0 0 0 3.14c-.3.02-.7.06-1.02.11-.03 0-.06 0-.07-.07 0-.06 0-.09.04-.1.24-.09.5-.25.62-.4.15-.17.22-.44.22-.9 0-.22-.02-.4-.15-.49-.13-.07-.4-.06-.73-.06h-.88v.34c0 .37.05.65.13.76.1.13.25.2.4.23.04 0 .06.02.06.09 0 .07-.02.07-.06.07l-.63-.01-.7.01c-.04 0-.06 0-.06-.07s.02-.08.06-.09c.15-.04.35-.1.45-.24.07-.11.14-.39.14-.75v-.34zm-.23 4.6l.16-.3c.36-.71.66-.95 1.27-.95s1.08.54 1.08 1.34c0 .27-.04.44-.09.6-.04.2-.04.4-.01.6-.31 0-.7.04-1.02.07-.03 0-.05 0-.06-.06-.01-.07 0-.08.04-.1.55-.23.95-.6.95-1.08 0-.4-.3-.72-.76-.72-.27 0-.52.16-.77.67l-.15.32c-.42.85-.69 1.15-1.4 1.15-.81 0-1.3-.59-1.3-1.6 0-.42.1-.81.21-1.15.33-.09.71-.17 1-.21.05 0 .09 0 .1.07.01.06 0 .09-.04.1-.6.27-1.08.74-1.08 1.26 0 .5.36.87.87.87.45 0 .69-.27 1-.88zm.23 3.9H7.78c-.25 0-.59-.01-.72.08-.17.1-.18.3-.18.57 0 .56.13.84.29 1.03.16.19.39.35.61.48.04.02.06.04.04.1-.02.08-.04.07-.08.07-.32-.07-.76-.2-1.06-.32a71.2 71.2 0 0 0 0-3.21c0-.04.01-.06.07-.06.06 0 .07.02.08.06.02.23.03.33.15.4.14.07.4.07.8.07h2.18c.58 0 .65 0 .79-.07.11-.06.12-.19.14-.44 0-.04.01-.05.08-.05s.08.01.08.05a47.55 47.55 0 0 0 0 3.13c-.3.03-.7.07-1.02.12-.03 0-.06 0-.07-.07 0-.06 0-.09.04-.1.24-.09.5-.25.62-.4.15-.18.22-.44.22-.9 0-.22-.02-.41-.15-.49-.13-.07-.4-.06-.73-.06h-.88v.34c0 .36.05.65.13.75.1.14.25.2.4.24.04 0 .06.02.06.09 0 .06-.02.07-.06.07l-.63-.01-.7.01c-.04 0-.06 0-.06-.07s.02-.08.06-.1c.15-.03.35-.1.45-.23.07-.12.14-.4.14-.75v-.34zm-1.09 7.26h2.18c.55 0 .65 0 .77-.06.1-.06.1-.2.1-.35 0-.27-.06-.54-.2-.71a1.86 1.86 0 0 0-.65-.43c-.03-.01-.04-.03-.03-.1.01-.06.03-.06.06-.06.31.04.74.09 1.04.11a73.66 73.66 0 0 0 0 3.96l-1.04.1c-.03 0-.05 0-.06-.06-.01-.08 0-.09.03-.1.23-.08.5-.24.65-.42.14-.17.2-.43.2-.73 0-.15.02-.27-.11-.36-.14-.08-.4-.07-.76-.07H7.78c-.6 0-.66-.01-.8.05-.12.06-.12.23-.15.46 0 .04-.01.06-.07.06-.07 0-.08-.02-.08-.06a20.33 20.33 0 0 0 0-1.7c0-.04.01-.05.07-.05.07 0 .08.01.08.05.03.21.03.35.15.42.15.07.4.05.8.05zM7.62 161l.7-.25c.02-.2.03-.46.03-.68l-.02-.75-.63-.23c-.36-.13-.54-.12-.67-.06-.13.05-.17.25-.2.47 0 .03 0 .05-.07.05s-.08-.02-.08-.07l.01-.75-.01-.63c0-.05.01-.06.08-.06.06 0 .07.01.07.06.03.17.1.27.19.36.12.12.34.23.7.36l1.95.72c.75.29.94.34 1.26.44l.21.47c0 .04-.01.07-.05.08l-1.46.5-1.96.67c-.35.12-.56.2-.68.3-.13.1-.14.17-.16.4 0 .06 0 .07-.07.07s-.08-.01-.08-.08a40.34 40.34 0 0 0 0-1.7c0-.04.01-.04.08-.04.06 0 .07.01.07.05.02.22.04.37.16.41.13.04.3 0 .63-.1zm.95-.33l1.05-.36.78-.26-.77-.27-1.06-.38-.01.67v.6zm.18 3.77H7.8c-.6 0-.69 0-.8.06-.13.08-.13.21-.16.46 0 .05-.01.05-.08.05-.05 0-.07 0-.07-.06a20.48 20.48 0 0 0 0-1.68c0-.05.02-.06.07-.06.07 0 .08 0 .08.06.03.22.03.35.16.41.13.07.4.07.8.07h2.17c.58 0 .65 0 .78-.06.12-.06.13-.24.15-.48 0-.05.02-.06.08-.06.08 0 .08.01.08.06l-.02.85c0 .23.03.62.03 1 0 1.18-.5 1.63-1.12 1.63-.45 0-.9-.3-1.08-1l-1.49.86c-.21.14-.37.24-.45.36-.06.1-.07.19-.09.36 0 .04 0 .05-.07.05s-.08-.01-.08-.05l.02-.63v-.55c.15-.06.31-.14.46-.22l1.59-.86v-.57zm1.21 0h-1l-.03.39c0 .8.43 1.1.97 1.1.6 0 .95-.3.95-1 0-.15.01-.34-.11-.43-.13-.08-.44-.06-.78-.06zm-2.18 5.1h2.18c.55 0 .65 0 .77-.07.1-.06.1-.19.1-.34 0-.28-.06-.54-.2-.71a1.86 1.86 0 0 0-.65-.44c-.03 0-.04-.02-.03-.1.01-.06.03-.06.06-.06.31.05.74.1 1.04.12a73.66 73.66 0 0 0 0 3.96c-.3.02-.73.06-1.04.1-.03 0-.05 0-.06-.06-.01-.08 0-.1.03-.1.23-.09.5-.24.65-.42.14-.17.2-.44.2-.74 0-.15.02-.27-.11-.35-.14-.08-.4-.08-.76-.08H7.78c-.6 0-.66 0-.8.06-.12.06-.12.23-.15.46 0 .04-.01.05-.07.05-.07 0-.08-.01-.08-.06a20.33 20.33 0 0 0 0-1.69c0-.04.01-.05.07-.05.07 0 .08 0 .08.05.03.21.03.35.15.41.15.08.4.06.8.06zm2.18 7.12H7.78c-.25 0-.59 0-.72.08-.17.1-.18.31-.18.57 0 .57.17.84.3 1.03.15.18.4.34.6.47.05.02.06.03.04.1-.02.06-.04.06-.08.06-.32-.07-.76-.2-1.06-.31a72.15 72.15 0 0 0 0-3.22c0-.04.01-.05.07-.05.06 0 .07 0 .08.05.02.23.03.34.15.41.14.08.4.08.8.08h2.18c.58 0 .65 0 .79-.07.11-.06.12-.2.14-.43 0-.05.01-.06.08-.06s.08.01.08.06l-.02.85.02.85c0 .05-.01.07-.08.07s-.07-.02-.08-.06c-.02-.22-.02-.35-.14-.42-.14-.07-.41-.06-.79-.06zm0 4.37H7.78c-.6 0-.68 0-.8.06s-.13.22-.15.47c0 .04-.02.05-.08.05s-.07-.01-.07-.06l.02-.88-.02-.84c0-.04.01-.05.07-.05.06 0 .07 0 .08.04.02.23.02.36.15.43.14.08.4.07.8.07h2.18c.58 0 .65 0 .78-.06.12-.07.13-.22.15-.47 0-.03.01-.04.08-.04s.08.01.08.05l-.02.87.02.86c0 .04-.01.05-.08.05s-.07-.02-.08-.05c-.02-.23-.03-.37-.15-.44-.14-.07-.4-.06-.78-.06zm1.03 5.42a12 12 0 0 0-1.04.1c-.04 0-.06 0-.08-.05-.02-.06 0-.08.05-.1.32-.17.54-.31.72-.53.19-.22.3-.53.3-.87 0-.87-.88-1.56-2.07-1.56-1.2 0-2.08.67-2.08 1.65 0 .36.12.63.36.91.12.02.24.03.41.03.6 0 .67.01.81-.06.12-.06.13-.2.15-.46 0-.04.01-.05.08-.05.06 0 .07.01.07.05l-.02.84c0 .28 0 .5.02.78 0 .04 0 .04-.07.04-.06 0-.07 0-.08-.04-.02-.23-.02-.3-.15-.38-.14-.06-.4-.06-.73-.06-.4 0-.64 0-.88.03-.03 0-.05-.02-.05-.06.02-.13.03-.24.03-.37 0-.3-.16-.68-.16-1.3 0-1.44.92-2.36 2.28-2.36 1.35 0 2.29 1 2.29 2.37a3 3 0 0 1-.12.78c-.06.23-.07.4-.04.67zm-2.15 2.8H7.78c-.6 0-.7-.01-.8.05-.13.07-.13.23-.16.48 0 .04-.01.05-.07.05-.07 0-.07 0-.07-.06l.02-.88-.02-.84c0-.04 0-.05.06-.05s.08.01.08.05c.03.24.03.36.15.42.14.09.4.08.81.08h2.18c.58 0 .65 0 .79-.08.11-.05.12-.19.14-.44 0-.04.01-.05.08-.05s.08.01.08.05l-.02.86.02.84c0 .06-.01.07-.08.07s-.07-.01-.08-.06c-.02-.22-.02-.36-.14-.43-.14-.06-.41-.06-.79-.06h-.85a21.98 21.98 0 0 0 0 2.12h.85c.58 0 .66 0 .79-.06.12-.06.12-.21.14-.46 0-.04.01-.05.08-.05s.08.01.08.05l-.02.89.02.82c0 .06-.01.08-.08.08s-.07-.02-.08-.07c-.02-.23-.02-.35-.14-.41-.14-.09-.42-.09-.79-.09H7.78c-.6 0-.68 0-.8.08-.13.07-.13.21-.16.47 0 .03-.02.04-.08.04s-.06-.01-.06-.05l.02-.87-.02-.86c0-.04 0-.05.06-.05s.08.01.08.05c.03.24.03.35.15.42.14.07.4.07.81.07h1.06c.02-.38.02-.7.02-1.04 0-.36 0-.7-.02-1.08zm-1.06 6.02h2.18c.55 0 .65 0 .77-.06.1-.06.1-.2.1-.35 0-.27-.06-.54-.2-.71a1.86 1.86 0 0 0-.65-.43c-.03-.01-.04-.03-.03-.1.01-.06.03-.06.06-.06.31.04.74.09 1.04.11a73.66 73.66 0 0 0 0 3.96l-1.04.1c-.03 0-.05 0-.06-.06-.01-.08 0-.09.03-.1.23-.08.5-.24.65-.42.14-.17.2-.43.2-.73 0-.15.02-.27-.11-.36-.14-.08-.4-.07-.76-.07H7.78c-.6 0-.66-.01-.8.05-.12.06-.12.23-.15.46 0 .04-.01.06-.07.06-.07 0-.08-.02-.08-.06a20.33 20.33 0 0 0 0-1.7c0-.04.01-.05.07-.05.07 0 .08.01.08.05.03.21.03.35.15.42.15.07.4.05.8.05zm1.23 8.11h-.03c-.1.94-.47 1.45-1.09 1.45-.6 0-1.23-.4-1.23-1.83 0-.35.03-.75.03-1.04l-.01-.8c0-.04.01-.05.07-.05.06 0 .07.01.08.05.02.23.02.36.15.43.14.08.4.08.8.08h2.18c.58 0 .65 0 .79-.08.11-.07.12-.2.14-.46 0-.04.01-.05.08-.05s.08.01.08.06l-.02.8.03.99c0 1.24-.4 1.63-1 1.63-.43 0-.81-.27-1.05-1.18zm.95-1.02h-.88v.2c0 1 .42 1.25.94 1.25.55 0 .84-.35.84-.96 0-.19 0-.34-.13-.42-.13-.07-.4-.07-.77-.07zm-1.1 0H7.78c-.33 0-.6 0-.75.09-.15.09-.17.27-.17.52 0 .87.56 1.08 1.02 1.08.39 0 .98-.1.98-1.41v-.28zm1.1 4.77H7.78c-.6 0-.68 0-.8.06s-.13.23-.15.47c0 .04-.02.06-.08.06s-.07-.02-.07-.06l.02-.89-.02-.84c0-.03.01-.04.07-.04.06 0 .07 0 .08.04.02.23.02.36.15.43.14.07.4.07.8.07h2.18c.58 0 .65 0 .78-.06.12-.07.13-.22.15-.47 0-.03.01-.04.08-.04s.08 0 .08.04l-.02.87.02.86c0 .04-.01.06-.08.06s-.07-.02-.08-.06c-.02-.23-.03-.36-.15-.43-.14-.07-.4-.07-.78-.07zm-2.18 3.19h2.18c.55 0 .65-.01.77-.07.1-.06.1-.2.1-.34 0-.28-.06-.54-.2-.72a1.86 1.86 0 0 0-.65-.43c-.03-.01-.04-.02-.03-.1.01-.06.03-.06.06-.06.31.05.74.09 1.04.11a73.66 73.66 0 0 0 0 3.96l-1.04.11c-.03 0-.05 0-.06-.06-.01-.08 0-.1.03-.1.23-.09.5-.25.65-.43.14-.16.2-.43.2-.73 0-.15.02-.27-.11-.35-.14-.09-.4-.08-.76-.08H7.78c-.6 0-.66 0-.8.05-.12.06-.12.24-.15.47 0 .04-.01.05-.07.05-.07 0-.08-.01-.08-.06a20.33 20.33 0 0 0 0-1.7c0-.03.01-.05.07-.05.07 0 .08.02.08.06.03.2.03.35.15.41.15.07.4.06.8.06zm0 4.92h2.18c.55 0 .65 0 .77-.07.1-.06.1-.19.1-.34 0-.28-.06-.54-.2-.71a1.86 1.86 0 0 0-.65-.44c-.03 0-.04-.02-.03-.1.01-.06.03-.06.06-.06.31.05.74.1 1.04.12a73.66 73.66 0 0 0 0 3.96c-.3.02-.73.06-1.04.1-.03 0-.05 0-.06-.06-.01-.08 0-.1.03-.1.23-.09.5-.24.65-.42.14-.17.2-.44.2-.74 0-.15.02-.27-.11-.35-.14-.08-.4-.08-.76-.08H7.78c-.6 0-.66 0-.8.06-.12.06-.12.23-.15.46 0 .04-.01.05-.07.05-.07 0-.08-.01-.08-.06a20.33 20.33 0 0 0 0-1.69c0-.04.01-.05.07-.05.07 0 .08 0 .08.05.03.21.03.35.15.41.15.08.4.06.8.06zm1.09 4.6H7.78c-.25 0-.59-.01-.72.08-.17.1-.18.31-.18.58 0 .55.13.84.29 1.03.16.18.39.35.61.48.04.02.06.03.04.1-.02.07-.04.07-.08.06-.32-.07-.76-.2-1.06-.31a71.2 71.2 0 0 0 0-3.22c0-.04.01-.05.07-.05.06 0 .07.01.08.05.02.23.03.33.15.4.14.07.4.08.8.08h2.18c.58 0 .65-.01.79-.08.11-.06.12-.18.14-.43 0-.05.01-.06.08-.06s.08.01.08.06a47.55 47.55 0 0 0 0 3.13c-.3.02-.7.06-1.02.11-.03 0-.06 0-.07-.06 0-.07 0-.1.04-.1.24-.1.5-.26.62-.41.15-.17.22-.44.22-.9 0-.22-.02-.4-.15-.48-.13-.08-.4-.06-.73-.06h-.88v.33c0 .37.05.65.13.76.1.14.25.2.4.23.04 0 .06.02.06.1 0 .06-.02.06-.06.06H8.28c-.04 0-.06 0-.06-.07 0-.06.02-.08.06-.09.15-.03.35-.1.45-.24.07-.11.14-.39.14-.75v-.33zm-.12 4.43H7.8c-.6 0-.69 0-.8.07-.13.08-.13.2-.16.46 0 .04-.01.05-.08.05-.05 0-.07 0-.07-.06a20.48 20.48 0 0 0 0-1.69c0-.05.02-.06.07-.06.07 0 .08.01.08.06.03.22.03.36.16.42.13.07.4.07.8.07h2.17c.58 0 .65 0 .78-.06.12-.06.13-.24.15-.49 0-.04.02-.05.08-.05.08 0 .08.01.08.05l-.02.86c0 .23.03.61.03.99 0 1.19-.5 1.64-1.12 1.64-.45 0-.9-.3-1.08-1-.47.25-.97.54-1.49.86-.21.13-.37.24-.45.35-.06.1-.07.2-.09.37 0 .04 0 .05-.07.05s-.08-.01-.08-.05l.02-.64v-.55c.15-.05.31-.13.46-.21l1.59-.87v-.57zm1.21 0h-1c-.02.13-.03.28-.03.4 0 .8.43 1.1.97 1.1.6 0 .95-.31.95-1 0-.16.01-.35-.11-.43-.13-.08-.44-.07-.78-.07zM8.95 7.32v1.44c0 .68.05 1.66.05 2.02 0 .3-.22.44-.68.44-.3 0-.46-.12-.46-.38l.06-2.7a9.05 9.05 0 0 1-4.67 2.72c-.06.01-.13-.1-.07-.13 1.6-.77 3-2 3.94-3.41H5.06l-.12.38c-.1.23-.28.33-.61.33-.4 0-.59-.11-.59-.3 0-.07.02-.16.06-.23.28-.67.42-1.21.54-1.73.07-.32.12-.65.14-.98.57.24.65.27 1.18.57h2.2V3.95H5.12c-.23 0-.46.02-.77.1l-.13-.47c.36.07.62.1.9.1h6.32c.46-.48.55-.55.65-.55.12 0 .22.07.62.42.18.16.26.24.26.34 0 .08-.04.12-.32.37v.25c0 .65.04 1.14.04 1.29 0 .32-.2.45-.67.45-.33 0-.45-.12-.45-.4v-.21H8.95v1.4h3.07c.4-.48.5-.55.6-.55.12 0 .22.07.68.46.2.17.28.25.28.35 0 .08-.04.12-.36.3-.08.54-.17.97-.25 1.32-.15.6-.31.94-.57 1.12-.21.17-.54.22-.93.22-.16 0-.2-.04-.2-.18-.09-.5-.35-.7-1.27-1-.06-.02-.03-.19.03-.18.62.09 1.14.15 1.44.15.25 0 .38-.12.5-.59.05-.25.11-.62.17-1.14h-3.2zm0-1.96h2.61V3.95H8.95v1.41zm-1.08.28H5.5c-.08.4-.21.86-.37 1.4h2.74v-1.4zm2.22-3.89h-.5c-.44.65-.99 1.15-1.6 1.55-.05.04-.15-.04-.11-.08.42-.58.77-1.23 1.02-1.86.18-.47.31-.92.37-1.34 1.02.26 1.38.41 1.38.57 0 .14-.13.21-.5.27-.1.22-.22.42-.35.62H12c.51-.63.66-.72.74-.72.11 0 .25.1.8.5.25.2.34.29.34.37 0 .09-.03.12-.15.12h-3.32c.84.2 1.23.5 1.23.93 0 .38-.27.64-.61.64-.33 0-.44-.14-.53-.7-.07-.36-.2-.69-.42-.87zm-4.44 0h-.48a6.32 6.32 0 0 1-2.07 1.9c-.04.02-.13-.06-.1-.11a7.9 7.9 0 0 0 1.4-2.23C4.57.85 4.7.4 4.76 0c1.2.34 1.45.46 1.45.61 0 .13-.12.2-.49.24l-.36.63h1.55c.47-.54.61-.64.7-.64.1 0 .23.1.7.44.2.17.3.27.3.35 0 .09-.03.12-.15.12H5.98c.86.24 1.18.52 1.18.94 0 .37-.28.66-.64.66-.3 0-.38-.11-.49-.71-.08-.46-.17-.66-.38-.89zm.06 15.47h4.82c.63-.8.77-.89.85-.89.11 0 .24.1.87.61.29.24.38.35.38.44 0 .08-.03.12-.15.12H5.74c-.3 0-.62.02-1.03.07l-.13-.45c.46.08.8.1 1.13.1zm-1.29 6.73h7.37c.7-.84.84-.93.93-.93.1 0 .24.1.9.64.3.26.4.36.4.45 0 .08-.03.12-.15.12h-9.4c-.36 0-.7.02-1.19.07l-.13-.44c.5.07.9.1 1.27.1zm7.9 12.93h-1.44l.02 1.48h1.4c.58-.64.73-.74.81-.74.11 0 .24.1.77.52.24.19.34.3.34.38 0 .08-.04.12-.16.12H10.9l.03 2.05c0 .31-.23.46-.65.46-.32 0-.5-.1-.5-.36 0-.27.04-.93.06-2.15H7.82c-.29 0-.58.02-.96.07l-.13-.44c.43.07.77.1 1.1.1h2.02v-1.5H8.49v.19c0 .3-.2.43-.6.43-.35 0-.49-.11-.49-.37 0-.36.05-.74.05-2.2 0-.86-.01-1.73-.06-2.6.55.25.63.28 1.16.57h2.7c.3-.6.58-1.32.78-1.92.11-.32.2-.62.23-.84 1.1.47 1.4.64 1.4.8 0 .14-.08.16-.49.2-.7.87-.95 1.14-1.6 1.76h.67c.34-.44.44-.51.54-.51.12 0 .22.07.62.38.18.14.25.23.25.32 0 .11-.07.2-.3.38v.57c0 1.54.05 2.57.05 2.92 0 .27-.24.42-.61.42-.31 0-.47-.1-.47-.35v-.14zm-1.44-3.71v1.55h1.44v-1.55h-1.44zm-1.03 0H8.49v1.55h1.36v-1.55zm0 3.43V35H8.49v1.6h1.36zm1.03 0h1.44V35h-1.44v1.6zm-5.35-3h-.85c-.1.78-.22 1.55-.35 2.14h1.05c.41-.44.5-.5.6-.5.12 0 .22.06.6.4.17.14.24.24.24.34 0 .08-.03.12-.3.37a12.3 12.3 0 0 1-.62 3.7c-.13.35-.31.6-.58.75-.21.13-.5.2-.87.2-.13 0-.18-.04-.2-.26-.08-.46-.23-.58-1.16-.9-.06-.02-.06-.16 0-.16.75.08 1.1.11 1.36.11.4 0 .43-.02.57-.53.23-.76.39-1.95.42-3.25H4.27l-.1.43c-.1.2-.24.28-.59.28-.3 0-.49-.1-.49-.24a15.82 15.82 0 0 0 .59-3.7c.5.2.58.24 1.07.54h.78v-2.2h-1.5c-.18 0-.37.03-.61.1l-.14-.46c.32.07.54.1.78.1h1.38c.39-.45.48-.52.58-.52.12 0 .22.07.61.38.18.16.25.24.25.34 0 .08-.03.12-.32.4v.4c0 1.03.04 1.75.04 1.98 0 .26-.2.4-.6.4-.33 0-.47-.09-.47-.28v-.36zm5.45-1.97c0 .41-.28.72-.62.72-.32 0-.34-.05-.51-.79-.1-.48-.34-.94-.7-1.33-.03-.05.05-.13.11-.11 1.18.4 1.72.86 1.72 1.51zm-2.02.13c0 .38-.25.65-.56.65-.3 0-.39-.12-.53-.74a2.1 2.1 0 0 0-.69-1.2c-.04-.04 0-.1.06-.09 1.18.28 1.72.71 1.72 1.38zm1.92 29.56v2.72c0 1.87.05 2.5.05 2.95 0 .45-.16.74-.38.98-.23.25-.7.45-1.19.45-.18 0-.25-.08-.28-.36-.1-.53-.4-.7-1.9-1.05-.1-.02-.08-.25.02-.23 1.01.09 1.59.09 2.1.09.2 0 .3-.07.3-.29v-5.26H7.3v.15c0 .38-.26.54-.74.54-.42 0-.56-.13-.56-.43 0-.36.07-.87.07-2.87 0-.95-.02-1.45-.09-2.2.65.28.9.4 1.46.76h5.65c.54-.59.65-.66.76-.66.12 0 .23.07.77.52.27.22.34.34.34.45 0 .13-.05.2-.45.47v.8c0 1.66.04 2.38.04 2.62 0 .38-.27.54-.76.54-.38 0-.54-.13-.54-.43v-.26h-2.37zm2.37-.45v-3.15H7.3v3.15h5.96zm-2.45-5.9h3.35c.76-.94.88-1 1-1s.24.06 1.04.75c.34.3.45.41.45.52 0 .13-.06.18-.24.18H6.25c-.43 0-.76.04-1.26.1l-.18-.68c.56.1.94.13 1.44.13h3.26v-1.73c0-.32 0-.63-.07-1.24 1.76.16 1.96.3 1.96.49 0 .12-.15.25-.6.46v2.02zm4.34 12.15c-.38 0-.56-.18-.75-.83a7.77 7.77 0 0 0-2.27-3.38c-.07-.07.03-.24.14-.2 2.3.94 3.66 2.36 3.66 3.5 0 .51-.33.91-.78.91zM3.62 55.08c-.36 0-.48-.18-.75-.81a4.38 4.38 0 0 0-1.48-1.78c-.05-.04.02-.17.1-.15 1.65.24 2.76 1.03 2.76 1.95 0 .5-.3.79-.63.79zm-1.26 4.1c-.3 0-.45-.2-.68-.72-.3-.68-.7-1.2-1.48-1.76-.05-.04.02-.15.1-.15 1.65.2 2.75.98 2.75 1.86 0 .45-.3.77-.69.77zm1.46 8.25c-.09.05-.25-.13-.18-.2a12.3 12.3 0 0 0 2.5-3.37c.25-.48.45-.93.52-1.31 1.5.61 1.75.74 1.75.92 0 .16-.2.27-.72.3a12.13 12.13 0 0 1-3.87 3.66zm-1.73.73c-.48 0-.75-.32-.75-.97 0-.63.12-1.19.12-1.83 0-1-.25-1.28-1.4-1.66-.1-.04-.06-.27.05-.25.43.07.65.1.81.1.36 0 .6-.16.83-.52a64.3 64.3 0 0 0 2.92-5.9c.03-.09.27 0 .23.1-.88 2.51-1.5 4.13-2.29 6.15a3 3 0 0 0-.23 1.1c0 .79.63 1.69.63 2.53 0 .7-.4 1.15-.92 1.15z"/></svg>