<svg viewBox="0 0 285 32" xmlns="http://www.w3.org/2000/svg"><path d="M12.75 21.49v1.5c-.03 2.13-.07 2.54.27 3.32.28.68 1.36.72 2.49.82.17 0 .27.07.27.48 0 .4-.07.44-.27.44-1.26-.07-2.86-.17-4.12-.17-1.29 0-2.96.1-4.21.17-.28 0-.34-.04-.34-.44 0-.41.1-.45.34-.48.88-.1 2.04-.17 2.27-.68.38-.71.41-1.6.45-3.4v-1.53H4.35c-1.15 0-2.07.03-2.99.03-.3 0-.4-.1-.4-.88 0-.75 0-.78.33-1.36a530.1 530.1 0 0 1 9.18-15.2l2.25-.61c.13 0 .24.07.24.34-.07 2.72-.07 5.44-.14 8.57l-.07 7.82c1.16 0 2.31-.07 3.5-.17.17 0 .24.07.2.24l-.26 1.05c-.04.17-.1.2-.31.2-.99-.06-2.14-.06-3.13-.06zM9.9 20.26l.06-7.24c.04-2.52.07-3.88.17-6.15a321.37 321.37 0 0 0-7.65 12.88c-.2.34-.13.51.28.51H9.9zM23.07 31.9l-1.3-.54L34.7.27l1.3.54L23.07 31.9zM45.62 7l-1.3.41c-.33.1-.47.07-.6-.37-.1-.41-.07-.48.34-.62a53.8 53.8 0 0 0 6.56-2.92c.34 0 .54.2.54.4-.03 2.7-.13 4.63-.13 7.39v10.43c0 3.37.03 3.78.37 4.46.38.68 1.63.71 3.03.85.23.03.3.13.3.5 0 .42-.06.48-.3.48-1.5-.06-3.34-.13-4.76-.13-1.64 0-3.3.07-4.9.13-.27 0-.34-.06-.34-.47 0-.38.1-.48.34-.51 1.36-.1 2.55-.14 2.96-.85.37-.75.37-2.21.37-4.46V9.7c0-1.23-.1-2.11-.37-2.52-.17-.24-.4-.4-.88-.4a4 4 0 0 0-1.23.23zm21.2.14l-.58 6.5-.17 1.76a5.88 5.88 0 0 1 4.8-2.07c3.97 0 6.59 2.89 6.59 7.27 0 4.46-2.69 8.03-7.35 8.03-1.7 0-3.3-.48-4.38-1.16-1.1-.61-2.25-1.67-2.25-2.79 0-.71.82-1.4 2.11-1.4 1.09 0 1.5 1.64 1.9 2.46.45.98 1.3 1.83 2.62 1.83 2.83 0 4.02-3.02 4.02-6.93 0-3.85-1.9-6.06-4.05-6.06-1.97 0-3.16.96-4.08 2.45-.2.34-.4.38-.95.17-.44-.2-.44-.37-.38-.68.07-.27.1-.64.14-.95l.92-10.6c0-.18.03-.28.2-.45.17-.14.24-.2.4-.2 1.3.03 3.2.03 4.94.03 1.3 0 3.26-.03 5.44-.17.2 0 .27.1.27.3l-.85 2.49c-.03.13-.2.24-.34.24-1.4-.04-2.34-.07-3.67-.07h-5.3zm23.36 8.77v.4h-2.2v11.5h2.2v.4h-3.13V15.9h3.13zm2.08 5.6l-.31.03c-.13.01-.16 0-.17-.14-.01-.16.01-.17.14-.2.54-.11 1.45-.36 2.08-.57.08 0 .15.05.15.1l-.03 1.1a2.17 2.17 0 0 1 1.83-1.24c.74 0 1.56.33 1.86 1.29.48-.83 1.13-1.29 2.03-1.29.4 0 1.85.2 1.85 1.86l-.02 1.44v.9c0 .78 0 1.18.1 1.38.1.2.37.2.72.24.08.02.1.03.1.15 0 .13 0 .15-.1.15-.45 0-.99-.04-1.43-.04-.45 0-1 .03-1.5.04-.11 0-.12-.02-.12-.15s.02-.14.11-.14c.37-.04.58-.04.68-.25.1-.21.1-.63.1-1.38v-1.77c0-.38.02-.71-.14-1.12-.14-.39-.42-.65-.9-.65-.5 0-.88.33-1.13.75-.23.37-.27.6-.27 1v1.79c0 .78 0 1.18.1 1.38.08.2.34.2.73.24.08.02.1.04.1.16s-.02.14-.11.14c-.5 0-1.02-.04-1.43-.04-.47 0-1 .03-1.48.04-.1 0-.12-.02-.12-.15 0-.12.03-.14.12-.14.35-.03.56-.04.66-.25.1-.21.1-.63.1-1.38v-1.77c0-.38.03-.71-.14-1.12-.16-.4-.44-.65-.92-.65-.48 0-.85.33-1.1.75-.23.38-.28.62-.28 1.04v1.75c0 .78-.01 1.18.08 1.38.09.2.36.2.73.24.07.02.1.04.1.17 0 .12-.03.13-.1.13-.46 0-1-.04-1.45-.04-.45 0-.97.03-1.45.04-.1 0-.12-.02-.12-.14 0-.12.03-.14.12-.16.36-.03.57-.03.69-.24.11-.21.09-.63.09-1.38v-1.92c0-.47 0-.85-.1-1.08-.07-.22-.2-.3-.45-.28zm15.07-.92c1.76 0 3.04 1.38 3.04 3.17 0 1.74-1.21 3.16-3.04 3.16-1.8 0-3.03-1.36-3.03-3.13 0-1.74 1.23-3.2 3.03-3.2zm0 .4c-1 0-1.51 1.21-1.51 2.77 0 1.63.48 2.77 1.5 2.77 1 0 1.53-1.23 1.53-2.77 0-1.65-.48-2.78-1.52-2.78zm5.38.51l-.35.03c-.13.01-.17 0-.19-.15 0-.14.02-.16.16-.2.53-.1 1.47-.36 2.05-.56.08 0 .16.05.16.1-.03.37-.03.77-.03 1.1a2.32 2.32 0 0 1 2.02-1.23c.39 0 1.9.2 1.9 1.86l-.02 1.44v.9c0 .78.02 1.18.1 1.38.1.2.3.2.68.24.08.02.1.04.1.16s0 .14-.1.14c-.48 0-.97-.04-1.41-.04-.46 0-.99.03-1.48.04-.1 0-.1-.02-.1-.14 0-.13.02-.16.1-.16.35-.02.55-.03.66-.24.1-.21.1-.63.1-1.38v-1.77c0-.38.03-.71-.15-1.12-.17-.39-.45-.65-.95-.65-.47 0-.93.33-1.17.75a1.7 1.7 0 0 0-.28 1.04v1.75c0 .78 0 1.18.08 1.38.1.2.31.2.72.24.09.02.11.03.11.16s-.02.14-.11.14c-.46 0-.96-.04-1.4-.04-.46 0-1 .03-1.49.04-.08 0-.09-.02-.09-.14 0-.13.03-.14.1-.16.37-.03.58-.03.68-.24.1-.21.1-.63.1-1.38v-1.92c0-.49 0-.86-.1-1.1-.08-.22-.18-.28-.4-.27zm8.1-5.59h3.14v12.3h-3.13v-.4h2.2v-11.5h-2.2v-.4zm137.71 0v.4h-2.21v11.5h2.2v.4h-3.13V15.9h3.14zm2.43 5.43l-.84.02c-.11 0-.14-.03-.14-.18 0-.13.01-.17.16-.19.4-.05.86-.28 1.14-.55.26-.23.55-.63.68-.93.04-.1.08-.13.22-.13.15 0 .18.04.18.13-.01.43-.04.92-.04 1.33.59 0 1.3-.02 1.85-.04.05 0 .06.04.05.09l-.14.38c-.02.05-.07.09-.13.09-.48-.03-1.1-.05-1.65-.05l-.03 3.32c0 .73.06 1.1.25 1.34.24.32.54.35.7.35.3 0 .57-.13.83-.35.07-.05.13-.04.2.04.09.08.14.14.03.25-.39.39-.84.67-1.57.67-.6 0-1.04-.13-1.36-.44-.29-.3-.45-.71-.45-1.45 0-.63.02-1.21.03-1.84l.03-1.86zm11.25 5.04h.25c.12.02.13.05.13.16 0 .14-.03.15-.12.15-.48.02-1.5.14-2 .22a.17.17 0 0 1-.15-.16c.02-.37.03-.65.03-1.01a2.2 2.2 0 0 1-1.95 1.18c-.48 0-1.95-.18-1.95-1.84 0-.5.03-.9.03-1.4v-1.02c0-.48 0-.77-.05-1-.05-.24-.18-.35-.4-.34l-.34.01c-.13 0-.16 0-.17-.14-.01-.14 0-.18.13-.2.58-.07 1.52-.23 2.1-.36.06 0 .15.07.15.13-.04.92-.05 1.69-.05 2.27v1.37c0 .46-.02.92.14 1.25.17.41.52.62.95.62.5 0 .88-.31 1.14-.75.22-.37.27-.61.27-1.03v-1.83c0-.48-.02-.74-.07-.99-.06-.23-.17-.36-.4-.35l-.36.02c-.11.02-.14 0-.15-.15-.02-.14 0-.17.14-.18a28.1 28.1 0 0 0 2.04-.38c.07 0 .14.07.14.12-.04.95-.04 1.7-.04 2.29v1.79c0 .84 0 1.05.08 1.29.08.22.24.24.48.26zm3.56-3.11c-.02.12-.05.25-.05.47 0 1.71 1.06 2.57 1.86 2.57.85 0 1.33-.29 1.8-.93.05-.06.1-.07.14-.07.04 0 .08.03.12.05.05.04.1.1.1.13a2.58 2.58 0 0 1-2.47 1.43c-1.8 0-3-1.32-3-3.12 0-1.75 1.24-3.2 3.01-3.2 1.72 0 2.5 1.5 2.54 2.4 0 .11 0 .14-.07.23-.06.08-.11.06-.2.06a74.57 74.57 0 0 0-3.78-.02zm.07-.47c.91.03 1.52.03 2.43-.04.1-.01.12-.09.12-.2-.04-.73-.35-1.58-1.1-1.58-.7 0-1.26.75-1.45 1.82zm5.65-6.89h3.14v12.3h-3.14v-.4h2.21v-11.5h-2.2v-.4zm-100.23 5.58v1.5c-.03 2.13-.07 2.54.27 3.32.28.68 1.36.72 2.49.82.17 0 .27.07.27.48 0 .4-.07.44-.27.44-1.26-.07-2.86-.17-4.12-.17-1.29 0-2.96.1-4.21.17-.28 0-.34-.04-.34-.44 0-.41.1-.45.34-.48.88-.1 2.04-.17 2.27-.68.38-.71.41-1.6.45-3.4v-1.53h-5.55c-1.15 0-2.07.03-2.99.03-.3 0-.4-.1-.4-.88 0-.75 0-.78.33-1.36a530.1 530.1 0 0 1 9.18-15.2l2.25-.61c.13 0 .24.07.24.34-.07 2.72-.07 5.44-.14 8.57l-.07 7.82c1.16 0 2.31-.07 3.5-.17.17 0 .24.07.2.24l-.26 1.05c-.04.17-.1.2-.31.2-.99-.06-2.14-.06-3.13-.06zm-2.85-1.23l.06-7.24c.04-2.52.07-3.88.17-6.15a321.37 321.37 0 0 0-7.65 12.88c-.2.34-.13.51.28.51h7.14zm13.17 11.63l-1.3-.54L203.2.27l1.3.54-12.92 31.08zm27.04-16.86v.13c3.67.72 5.85 2.93 5.85 6.22 0 4.42-2.93 7.25-7.31 7.25a8.16 8.16 0 0 1-4.66-1.33c-1.02-.65-2.1-1.67-2.1-2.75 0-.82.84-1.47 2.17-1.47 1.02 0 1.43 1.67 1.83 2.55.41.96 1.16 1.9 2.76 1.9 2.51 0 3.97-2.37 3.97-6.25 0-2.38-1.02-5.71-4.62-5.47-.4.03-1.09.1-1.4.1-.33 0-.47-.03-.37-.65.14-.6.34-.74.68-.74s.78.1 1.16.1c1.9 0 3.98-1.57 3.98-5.24 0-2.55-.99-4.66-3.17-4.66-1.15 0-2.14.51-2.61 1.5a3.8 3.8 0 0 0-.34 1.7c0 .99-1.02 1.67-2.28 1.67-.78 0-1.22-.34-1.22-1.02 0-1.98 2.58-4.9 6.45-4.9 3.5 0 6.3 2.1 6.3 5.71 0 3.47-2.52 4.97-5.07 5.65zm20.65-11.36c4.28 0 6.97 4.86 6.97 12.41 0 7.68-2.62 12.55-6.97 12.55-4.45 0-7.04-4.66-7.04-12.35 0-7.78 2.69-12.61 7.04-12.61zm0 1.05c-2.92 0-3.7 4.53-3.7 11.46 0 6.97.78 11.4 3.7 11.4 2.86 0 3.64-4.43 3.64-11.4 0-6.93-.75-11.46-3.64-11.46zM135.5 18.5v-1h21.62v1z" fill="#FFF"/></svg>