<?xml version="1.0" encoding="utf-8"?>
<!-- Generator: Adobe Illustrator 25.1.0, SVG Export Plug-In . SVG Version: 6.00 Build 0)  -->
<svg version="1.1" id="レイヤー_1" xmlns="http://www.w3.org/2000/svg" xmlns:xlink="http://www.w3.org/1999/xlink" x="0px"
	 y="0px" viewBox="0 0 71 311" style="enable-background:new 0 0 71 311;" xml:space="preserve">
<style type="text/css">
	.st0{fill:#FFFFFF;}
</style>
<g>
	<path class="st0" d="M19.6,8.5v1.1L6.4,12.5c-0.3,0.1-0.6,0.2-0.7,0.3s-0.3,0.4-0.3,0.7H4.7v-3.3h0.7c0.1,0.5,0.2,0.8,0.6,0.8
		c0.1,0,0.2,0,0.4,0l3.7-0.7V7.5L6.6,6.9c0,0,0,0-0.1,0c-0.1,0-0.2,0-0.3-0.1c-0.1,0-0.1,0-0.2,0c-0.2,0-0.3,0.1-0.4,0.3
		C5.4,7.2,5.4,7.4,5.4,7.5H4.7V4.8h0.7c0.1,0.3,0.2,0.5,0.3,0.6C5.8,5.6,6,5.7,6.4,5.7L19.6,8.5z M17.6,8.9L11,7.6v2.5L17.6,8.9z"/>
	<path class="st0" d="M19.3,18.3v2.6L7.5,24.8v0.1h10.3c0.3,0,0.5-0.1,0.6-0.2c0.1-0.2,0.2-0.4,0.3-0.8h0.7v2.9h-0.7
		c-0.1-0.4-0.2-0.6-0.3-0.8c-0.1-0.1-0.3-0.2-0.6-0.2H4.4v-1.2l13.2-4.3v-0.1H6.3c-0.3,0-0.6,0.1-0.7,0.2c-0.1,0.1-0.2,0.4-0.2,0.8
		H4.7v-2.9h0.7c0.1,0.4,0.2,0.7,0.3,0.8c0.1,0.1,0.4,0.2,0.7,0.2h11.4c0.3,0,0.6-0.1,0.7-0.2c0.1-0.1,0.2-0.4,0.3-0.8H19.3z"/>
	<path class="st0" d="M19.3,33.8v3.7h-0.7c0-0.5-0.1-0.8-0.2-1c-0.1-0.2-0.4-0.3-0.7-0.3H6.3c-0.3,0-0.6,0.1-0.7,0.3
		c-0.1,0.1-0.2,0.4-0.2,0.9H4.7v-3.7h0.7c0.1,0.5,0.2,0.8,0.3,1C5.8,35,6,35,6.3,35h11.3c0.4,0,0.6-0.1,0.7-0.3
		c0.1-0.2,0.2-0.5,0.2-1H19.3z"/>
	<path class="st0" d="M19.3,44.8V48h-0.7c-0.1-0.6-0.3-0.8-0.6-0.8c-0.1,0-0.3,0-0.7,0.1L7.1,49.2L17.3,51c0.3,0.1,0.6,0.1,0.8,0.1
		c0.2,0,0.4-0.1,0.5-0.3c0.1-0.1,0.1-0.3,0.2-0.6h0.7V53h-0.7c-0.1-0.3-0.2-0.5-0.4-0.7c-0.3-0.2-0.6-0.3-1-0.4L4.4,49.6v-1l13-2.7
		c0.7-0.2,1.2-0.5,1.3-1.1H19.3z"/>
	<path class="st0" d="M19.3,58.3v6.9l-3.7,0.1v-0.6c1-0.1,1.7-0.3,2.2-0.6c0.4-0.3,0.6-0.7,0.6-1.3v-1.5c0-0.3-0.1-0.5-0.2-0.7
		c-0.1-0.1-0.3-0.2-0.7-0.2h-4.6v1.3c0,0.5,0.2,0.8,0.6,1c0.3,0.1,0.7,0.2,1.3,0.2v0.6h-5v-0.6c0.8,0,1.3-0.1,1.7-0.3
		c0.3-0.2,0.5-0.5,0.5-0.9v-1.3H6.5c-0.3,0-0.5,0.1-0.7,0.2c-0.1,0.1-0.2,0.4-0.2,0.7v1.2c0,0.8,0.3,1.4,0.8,1.7
		c0.4,0.3,1.2,0.5,2.2,0.6v0.6l-4-0.2v-7.1h0.7c0.1,0.4,0.2,0.7,0.3,0.8c0.1,0.1,0.3,0.2,0.6,0.2h11.4c0.3,0,0.6-0.1,0.7-0.2
		c0.1-0.1,0.2-0.4,0.3-0.8H19.3z"/>
	<path class="st0" d="M19.3,71.4v3.8c0,1-0.4,1.9-1.1,2.5c-0.7,0.6-1.6,0.9-2.7,0.9c-1,0-1.9-0.3-2.6-0.8c-0.5-0.4-0.8-1.1-0.9-1.9
		H12c-0.2,0.6-0.6,1.1-1.2,1.4c-0.6,0.3-1.9,0.7-3.9,1.2c-0.5,0.1-0.9,0.3-1.1,0.5c-0.2,0.2-0.4,0.5-0.4,0.9H4.7v-2.2
		c3.1-0.7,5.1-1.3,5.9-1.7c0.7-0.3,1.1-0.7,1.1-1.2v-1.1H6.3c-0.4,0-0.6,0.1-0.7,0.2c-0.1,0.1-0.2,0.4-0.2,0.7H4.7v-3.1h0.7
		c0.1,0.4,0.1,0.6,0.3,0.7c0.1,0.1,0.3,0.2,0.7,0.2h11.4c0.4,0,0.6-0.1,0.7-0.2c0.1-0.1,0.2-0.4,0.2-0.7H19.3z M12.6,73.6v1.1
		c0,0.8,0.3,1.4,0.8,1.8c0.5,0.5,1.2,0.7,2.2,0.7c1.9,0,2.8-0.7,2.8-2.2v-0.8c0-0.3-0.1-0.5-0.2-0.6c-0.1-0.1-0.3-0.2-0.7-0.2H12.6z
		"/>
	<path class="st0" d="M9.7,85.3V86c-2.9,0.3-4.4,1.2-4.4,2.7c0,0.6,0.3,1,0.8,1.4c0.5,0.4,1.2,0.6,2,0.6c0.7,0,1.3-0.2,1.8-0.6
		c0.5-0.3,1-0.8,1.4-1.3l1-1.1c1.3-1.5,2.8-2.3,4.3-2.3c0.9,0,1.7,0.3,2.3,0.9c0.6,0.6,0.9,1.3,0.9,2.1c0,0.7-0.3,1.3-0.9,1.9
		c-0.1,0.1-0.2,0.2-0.2,0.3c0,0.1,0.3,0.2,0.8,0.3v0.6h-4v-0.6c2.2-0.5,3.2-1.3,3.2-2.4c0-0.6-0.3-1.1-0.8-1.4
		c-0.4-0.2-0.8-0.3-1.3-0.3c-0.6,0-1.2,0.2-1.8,0.6c-0.3,0.2-0.8,0.6-1.2,1.2l-0.9,1.1c-0.8,0.9-1.4,1.5-1.8,1.8
		c-0.7,0.5-1.6,0.7-2.6,0.7c-1.2,0-2.1-0.3-2.8-1c-0.7-0.6-1-1.4-1-2.3c0-0.8,0.3-1.5,1-2.2c0.1-0.1,0.2-0.2,0.2-0.3
		c0-0.2-0.3-0.3-1-0.5v-0.6H9.7z"/>
	<path class="st0" d="M19.6,101.1v1.1l-13.2,2.9c-0.3,0.1-0.6,0.2-0.7,0.3s-0.3,0.4-0.3,0.7H4.7v-3.3h0.7c0.1,0.5,0.2,0.8,0.6,0.8
		c0.1,0,0.2,0,0.4,0L10,103v-2.8l-3.4-0.7c0,0,0,0-0.1,0c-0.1,0-0.2,0-0.3-0.1c-0.1,0-0.1,0-0.2,0c-0.2,0-0.3,0.1-0.4,0.3
		c-0.1,0.1-0.2,0.3-0.2,0.5H4.7v-2.7h0.7c0.1,0.3,0.2,0.5,0.3,0.6c0.1,0.1,0.4,0.2,0.8,0.3L19.6,101.1z M17.6,101.5l-6.7-1.3v2.5
		L17.6,101.5z"/>
	<path class="st0" d="M19.3,111.1v3.8c0,1-0.4,1.9-1.1,2.5c-0.7,0.6-1.6,0.9-2.7,0.9c-1,0-1.9-0.3-2.6-0.8c-0.5-0.4-0.8-1.1-0.9-1.9
		H12c-0.2,0.6-0.6,1.1-1.2,1.4c-0.6,0.3-1.9,0.7-3.9,1.2c-0.5,0.1-0.9,0.3-1.1,0.5c-0.2,0.2-0.4,0.5-0.4,0.9H4.7v-2.2
		c3.1-0.7,5.1-1.3,5.9-1.7c0.7-0.3,1.1-0.7,1.1-1.2v-1.1H6.3c-0.4,0-0.6,0.1-0.7,0.2c-0.1,0.1-0.2,0.4-0.2,0.7H4.7v-3.1h0.7
		c0.1,0.4,0.1,0.6,0.3,0.7c0.1,0.1,0.3,0.2,0.7,0.2h11.4c0.4,0,0.6-0.1,0.7-0.2c0.1-0.1,0.2-0.4,0.2-0.7H19.3z M12.6,113.3v1.1
		c0,0.8,0.3,1.4,0.8,1.8c0.5,0.5,1.2,0.7,2.2,0.7c1.9,0,2.8-0.7,2.8-2.2V114c0-0.3-0.1-0.5-0.2-0.6c-0.1-0.1-0.3-0.2-0.7-0.2H12.6z"
		/>
	<path class="st0" d="M19.3,124.2v3.3h-0.7c-0.1-0.6-0.2-0.9-0.5-0.9c-0.2,0-0.3,0-0.5,0.1l-5.5,1.9l5.4,1.9
		c0.2,0.1,0.4,0.1,0.6,0.1c0.4,0,0.6-0.3,0.7-0.9h0.7v2.8h-0.7c-0.1-0.3-0.2-0.5-0.4-0.6c-0.2-0.2-0.6-0.4-1-0.5l-6.5-2.4H6.3
		c-0.3,0-0.5,0.1-0.6,0.2c-0.1,0.1-0.2,0.4-0.3,0.8H4.7v-3.4h0.7c0.1,0.4,0.1,0.7,0.3,0.9c0.1,0.1,0.3,0.2,0.7,0.2h4.4l6.8-2.4
		c0.6-0.2,1-0.6,1.1-1.1H19.3z"/>
	<path class="st0" d="M19.3,151v3.8c0,1.1-0.3,1.9-1,2.5c-0.8,0.7-1.8,1.1-3.2,1.1c-1.3,0-2.4-0.4-3-1.1c-0.7-0.7-1-1.7-1-2.8v-1.2
		H6.3c-0.3,0-0.6,0.1-0.7,0.2c-0.1,0.2-0.2,0.5-0.3,0.9H4.7V151h0.7c0.1,0.4,0.1,0.7,0.3,0.8c0.1,0.1,0.4,0.2,0.7,0.2h11.4
		c0.3,0,0.6-0.1,0.7-0.2c0.1-0.2,0.2-0.4,0.3-0.8H19.3z M12,153.3v1.2c0,1.7,1.1,2.5,3.2,2.5c1.1,0,1.9-0.2,2.4-0.7
		c0.5-0.4,0.8-1,0.8-1.7v-0.6c0-0.3-0.1-0.5-0.2-0.7c-0.1-0.1-0.3-0.2-0.7-0.2H12z"/>
	<path class="st0" d="M19.3,164.6v3.6h-0.7c0-0.5-0.2-0.8-0.3-1c-0.2-0.1-0.4-0.2-0.8-0.2H6.7c-0.4,0-0.7,0.1-0.8,0.2
		c-0.1,0.1-0.2,0.4-0.2,0.7v0.7c0,1.1,1.2,1.9,3.5,2.1v0.6l-4.5-0.2v-6.5h0.7c0.1,0.4,0.2,0.7,0.3,0.9c0.1,0.1,0.4,0.2,0.8,0.2h10.9
		c0.5,0,0.8-0.1,0.9-0.2c0.1-0.1,0.2-0.4,0.3-0.9H19.3z"/>
	<path class="st0" d="M19.6,180.5v1.1l-13.2,2.9c-0.3,0.1-0.6,0.2-0.7,0.3s-0.3,0.4-0.3,0.7H4.7v-3.3h0.7c0.1,0.5,0.2,0.8,0.6,0.8
		c0.1,0,0.2,0,0.4,0l3.7-0.7v-2.8l-3.4-0.7c0,0,0,0-0.1,0c-0.1,0-0.2,0-0.3-0.1c-0.1,0-0.1,0-0.2,0c-0.2,0-0.3,0.1-0.4,0.3
		c-0.1,0.1-0.2,0.3-0.2,0.5H4.7v-2.7h0.7c0.1,0.3,0.2,0.5,0.3,0.6c0.1,0.1,0.4,0.2,0.8,0.3L19.6,180.5z M17.6,180.9l-6.7-1.3v2.5
		L17.6,180.9z"/>
	<path class="st0" d="M19.3,190.3v2.6l-11.9,3.8v0.1h10.3c0.3,0,0.5-0.1,0.6-0.2c0.1-0.2,0.2-0.4,0.3-0.8h0.7v2.9h-0.7
		c-0.1-0.4-0.2-0.6-0.3-0.8c-0.1-0.1-0.3-0.2-0.6-0.2H4.4v-1.2l13.2-4.3v-0.1H6.3c-0.3,0-0.6,0.1-0.7,0.2c-0.1,0.1-0.2,0.4-0.2,0.8
		H4.7v-2.9h0.7c0.1,0.4,0.2,0.7,0.3,0.8c0.1,0.1,0.4,0.2,0.7,0.2h11.4c0.3,0,0.6-0.1,0.7-0.2c0.1-0.1,0.2-0.4,0.3-0.8H19.3z"/>
	<path class="st0" d="M19.3,203.6v2.6l-11.9,3.8v0.1h10.3c0.3,0,0.5-0.1,0.6-0.2c0.1-0.2,0.2-0.4,0.3-0.8h0.7v2.9h-0.7
		c-0.1-0.4-0.2-0.6-0.3-0.8c-0.1-0.1-0.3-0.2-0.6-0.2H4.4v-1.2l13.2-4.3v-0.1H6.3c-0.3,0-0.6,0.1-0.7,0.2c-0.1,0.1-0.2,0.4-0.2,0.8
		H4.7v-2.9h0.7c0.1,0.4,0.2,0.7,0.3,0.8c0.1,0.1,0.4,0.2,0.7,0.2h11.4c0.3,0,0.6-0.1,0.7-0.2c0.1-0.1,0.2-0.4,0.3-0.8H19.3z"/>
	<path class="st0" d="M19.3,219.1v3.7h-0.7c0-0.5-0.1-0.8-0.2-1c-0.1-0.2-0.4-0.3-0.7-0.3H6.3c-0.3,0-0.6,0.1-0.7,0.3
		c-0.1,0.1-0.2,0.4-0.2,0.9H4.7v-3.7h0.7c0.1,0.5,0.2,0.8,0.3,1c0.1,0.2,0.4,0.2,0.7,0.2h11.3c0.4,0,0.6-0.1,0.7-0.3
		c0.1-0.2,0.2-0.5,0.2-1H19.3z"/>
	<path class="st0" d="M19.3,230v2.6l-11.9,3.8v0.1h10.3c0.3,0,0.5-0.1,0.6-0.2c0.1-0.2,0.2-0.4,0.3-0.8h0.7v2.9h-0.7
		c-0.1-0.4-0.2-0.6-0.3-0.8c-0.1-0.1-0.3-0.2-0.6-0.2H4.4v-1.2l13.2-4.3v-0.1H6.3c-0.3,0-0.6,0.1-0.7,0.2c-0.1,0.1-0.2,0.4-0.2,0.8
		H4.7V230h0.7c0.1,0.4,0.2,0.7,0.3,0.8C5.8,231,6,231,6.3,231h11.4c0.3,0,0.6-0.1,0.7-0.2c0.1-0.1,0.2-0.4,0.3-0.8H19.3z"/>
	<path class="st0" d="M4.3,250l1.9-0.4c-1.2-0.5-1.9-1.2-1.9-2.3c0-1,0.6-1.8,1.9-2.5c1.5-0.8,3.4-1.2,5.8-1.2c2.2,0,4,0.3,5.4,1
		c1.5,0.7,2.3,1.7,2.3,2.8c0,0.8-0.3,1.4-0.9,1.8c-0.2,0.1-0.3,0.2-0.3,0.3c0,0.2,0.3,0.3,0.9,0.3v0.6h-3.9V250
		c1-0.2,1.7-0.4,2.1-0.7c0.7-0.4,1.1-1,1.1-1.6c0-0.7-0.5-1.3-1.5-1.7c-1.2-0.5-3-0.8-5.1-0.8c-2.3,0-4.1,0.3-5.4,1
		c-0.8,0.4-1.2,0.8-1.2,1.3c0,0.6,0.3,1.1,1,1.5c0.6,0.4,1.4,0.5,2.1,0.5h1.6c0.4,0,0.7-0.1,0.9-0.2c0.1-0.1,0.2-0.4,0.2-0.8h0.7
		v3.2h-0.7c-0.1-0.4-0.2-0.6-0.3-0.7c-0.2-0.1-0.5-0.2-1-0.2H4.3V250z"/>
	<path class="st0" d="M18.2,271.8h0.7c0.1,1.1,0.5,2.1,0.9,2.9H6.7c-0.5,0-0.8,0.1-1,0.3c-0.2,0.2-0.3,0.6-0.3,1.2H4.7v-4.4h0.7
		c0.1,0.6,0.2,1.1,0.4,1.3c0.2,0.2,0.5,0.3,1,0.3h10.5c0.4,0,0.7,0,0.8-0.1c0.1-0.1,0.2-0.2,0.2-0.5V271.8z"/>
	<path class="st0" d="M8,284.3v0.6c-0.7,0.1-1.4,0.3-1.9,0.7c-0.6,0.4-0.9,1-0.9,1.6c0,0.5,0.2,0.9,0.6,1.2c0.3,0.3,0.7,0.4,1.2,0.4
		c0.8,0,1.5-0.5,2.2-1.6l0.4-0.5c0.6-0.8,1-1.3,1.4-1.7c0.5-0.4,1.1-0.7,1.8-0.7c0.6,0,1.2,0.2,1.6,0.5c0.6,0.5,1,1.1,1,2
		c0,0.6-0.3,1.1-0.8,1.7c-0.1,0.1-0.1,0.2-0.1,0.2c0,0.1,0.2,0.2,0.5,0.2v0.6h-2.9V289c1.6-0.5,2.4-1.1,2.4-2c0-0.4-0.2-0.8-0.5-1
		c-0.3-0.2-0.6-0.3-1-0.3c-0.5,0-0.9,0.1-1.2,0.4c-0.3,0.2-0.6,0.6-0.9,1.2l-0.4,0.6c-0.5,0.8-0.9,1.3-1.3,1.6
		c-0.6,0.5-1.3,0.7-2.1,0.7c-0.9,0-1.6-0.3-2.1-0.8c-0.5-0.5-0.7-1.1-0.7-1.9c0-0.8,0.2-1.4,0.7-1.8c0.2-0.2,0.3-0.3,0.3-0.4
		c0-0.1-0.3-0.3-1-0.4v-0.5H8z"/>
	<path class="st0" d="M14.2,297.3H15c0.1,0.7,0.3,1.2,0.5,1.5c0.2,0.3,0.7,0.5,1.3,0.7c0.3,0.1,0.9,0.2,1.6,0.2v0.7h-3.3v2.6h-0.9
		v-2.6h-7c-0.6,0-1,0-1.3,0.1c-0.3,0.1-0.4,0.3-0.4,0.7c0,0.4,0.3,0.8,1,1.2l-0.7,0.5c-1-0.6-1.5-1.2-1.5-2c0-0.6,0.2-1,0.7-1.3
		c0.4-0.2,1.1-0.4,2.1-0.4h7V297.3z"/>
</g>
<g>
	<path class="st0" d="M54.3,84.1v2h6.1l0.7-0.7c0.8,0.6,1.2,1.1,1.2,1.3c0,0.1-0.1,0.2-0.2,0.3l-0.4,0.3c-0.1,2.2-0.5,3.5-1.2,4.1
		c-0.2,0.2-0.6,0.3-1.1,0.5c-0.3,0.1-0.5,0.1-0.7,0.1c0-0.3-0.1-0.5-0.4-0.6c-0.3-0.1-1-0.3-2.2-0.5v-0.7c1,0.1,1.9,0.2,2.7,0.2
		c0.5,0,0.9-0.1,1.1-0.4c0.4-0.5,0.5-1.4,0.5-2.9h-6.2v6.2H53V88c-2.4,2.1-5.2,3.7-8.4,4.8l-0.5-0.7c3.3-1.2,6-2.9,8.2-5h-5.1l0,0.1
		c-0.1,0.3-0.2,0.6-0.4,1l-1.1-0.4c0.6-1.5,1.1-3.2,1.4-5.1c0.1,0,0.2,0.1,0.4,0.2c0.3,0.1,0.5,0.2,0.8,0.3H53v-2h-6.8l-0.3-0.9
		h13.2l0.7-0.7c0.8,0.6,1.3,1.1,1.3,1.3c0,0.1-0.1,0.2-0.2,0.3l-0.4,0.3v3.5h-1.2v-0.7H54.3z M49.5,77.4c1,0.7,1.5,1.3,1.5,1.8
		c0,0.2-0.1,0.5-0.4,0.6c-0.2,0.1-0.4,0.2-0.5,0.2c-0.2,0-0.3-0.2-0.4-0.6c-0.2-0.8-0.6-1.4-1.1-2h-1.1c-0.8,1.3-1.8,2.4-2.9,3.4
		l-0.5-0.5c1.5-1.5,2.6-3.5,3.3-5.8c1.2,0.2,1.9,0.5,1.9,0.8c0,0.2-0.3,0.3-0.8,0.5c-0.2,0.4-0.3,0.6-0.4,0.8h3.4l0.9-1.1
		c0.5,0.5,1,0.9,1.3,1.4l-0.3,0.6H49.5z M48,84.1c-0.2,0.8-0.4,1.5-0.5,2H53v-2H48z M57.2,77.4c1,0.7,1.5,1.3,1.5,1.8
		c0,0.3-0.2,0.5-0.5,0.7C58.1,80,57.9,80,57.8,80c-0.2,0-0.3-0.2-0.4-0.5c-0.1-0.8-0.4-1.5-1-2.1h-1.1c-0.7,1-1.5,1.8-2.4,2.5
		l-0.5-0.5c1.3-1.3,2.2-3,2.9-4.9c1.2,0.3,1.8,0.5,1.8,0.8c0,0.2-0.3,0.3-0.8,0.4c-0.1,0.2-0.2,0.5-0.4,0.8h4.5l0.9-1.1
		c0.5,0.4,1,0.9,1.5,1.4l-0.3,0.6H57.2z M54.3,83.2h5.1v-2h-5.1V83.2z"/>
	<path class="st0" d="M59.4,105.2l1.2-1.4c0.7,0.6,1.3,1.2,1.7,1.8l-0.4,0.7H45.1l-0.3-1.1H59.4z"/>
	<path class="st0" d="M46.5,124.1h2.7v-3.4h-4.6l-0.2-0.9h4.7l0.7-0.8c0.8,0.7,1.3,1.2,1.3,1.4c0,0.1,0,0.2-0.1,0.2l-0.5,0.3v5h-1.2
		V125h-2.7c-0.1,0.9-0.2,2.1-0.4,3.3h2.8l0.6-0.7c0.9,0.7,1.3,1.2,1.3,1.4c0,0.1-0.1,0.2-0.2,0.3l-0.4,0.3c0,2.4-0.2,4.4-0.6,5.9
		c-0.2,0.9-0.7,1.5-1.5,1.7c-0.4,0.1-0.7,0.2-1,0.2c0-0.4-0.2-0.6-0.6-0.8c-0.3-0.1-0.8-0.2-1.5-0.4v-0.7c1,0.1,1.8,0.2,2.3,0.2
		c0.6,0,0.9-0.2,1.1-0.7c0.4-0.9,0.6-2.7,0.6-5.6h-3.2c-0.1,0.6-0.2,1-0.3,1.4l-1.2-0.3c0.4-2.1,0.7-4.3,0.9-6.8
		C45.7,123.8,46.1,123.9,46.5,124.1z M57.4,130.2v2.1h3.2l1-1.1c0.5,0.4,1,0.9,1.4,1.4l-0.3,0.6h-5.3v4.2h-1.2v-4.2h-5.3l-0.3-0.9
		h5.6v-2.1h-2.8v0.8h-1.2v-8c0.4,0.1,0.8,0.3,1.3,0.5h4.8c0.8-1.4,1.5-2.9,2-4.6c1.2,0.4,1.8,0.8,1.8,1.1c0,0.2-0.3,0.4-0.9,0.5
		c-0.6,1.1-1.3,2.1-2,3h1.1l0.6-0.7c0.8,0.7,1.2,1.1,1.2,1.3c0,0.1,0,0.2-0.1,0.2l-0.4,0.3v6.2h-1.2v-0.6H57.4z M51.8,119
		c0.9,0.6,1.5,1.2,2,1.8c0.4,0.5,0.5,1,0.5,1.4c0,0.3-0.2,0.6-0.5,0.7c-0.2,0.1-0.3,0.1-0.5,0.1c-0.2,0-0.4-0.2-0.5-0.6
		c-0.2-1.1-0.7-2-1.6-2.9L51.8,119z M56.1,124.4h-2.8v1.9h2.8V124.4z M56.1,127.2h-2.8v2h2.8V127.2z M55.4,118.8
		c1.5,1.2,2.2,2.3,2.2,3.2c0,0.4-0.2,0.6-0.5,0.8c-0.2,0.1-0.3,0.1-0.5,0.1c-0.3,0-0.4-0.2-0.4-0.7c-0.1-1.1-0.5-2.1-1.3-3
		L55.4,118.8z M57.4,124.4v1.9h2.9v-1.9H57.4z M57.4,127.2v2h2.9v-2H57.4z"/>
</g>
<g>
	<path class="st0" d="M57.9,169.2v2.6h-2.1v-2.6h-7.2v2.6h-2.1v-2.6h-8.9l-0.4-1.6h9.3v-3.7c2.3,0,3.5,0.3,3.5,0.8
		c0,0.3-0.4,0.6-1.3,0.9v2h7.2v-3.7c2.3,0.1,3.4,0.4,3.4,0.9c0,0.3-0.4,0.6-1.3,0.9v1.9h6.5l1.7-1.9c0.9,0.9,1.7,1.7,2.4,2.5
		l-0.5,1.1H57.9z M47.8,179v-4.1H37.6l-0.4-1.7h26.9l1.7-1.9c0.8,0.7,1.6,1.5,2.5,2.5l-0.5,1.1H56.9v4.1h6.3l1.3-1.3
		c1.5,1.1,2.3,1.9,2.3,2.2c0,0.2-0.1,0.3-0.4,0.5l-0.8,0.5v15h-2.1v-1.7H41.7v1.7h-2.1v-17.8c0.6,0.2,1.3,0.5,1.9,0.7l0.4,0.2H47.8z
		 M63.5,192.5v-4.6h-6.2c-1.1,0-1.8-0.2-2.1-0.7c-0.2-0.3-0.4-0.9-0.4-1.6v-5H50c-0.1,2.8-0.7,4.9-2,6.5c-1,1.2-2.4,2.2-4.4,3.1
		l-0.9-1.2c1.5-0.8,2.7-1.6,3.4-2.5c1.1-1.4,1.7-3.3,1.8-5.9h-6.1v11.9H63.5z M50,179h4.9v-4.1H50V179z M63.5,186.1v-5.5h-6.6v4.2
		c0,0.6,0.1,0.9,0.4,1.1c0.2,0.1,0.5,0.2,0.9,0.2H63.5z"/>
	<path class="st0" d="M42.2,215.4v-13.1c2.2,0.1,3.3,0.4,3.3,0.9c0,0.3-0.4,0.6-1.3,1v11.2h2.7l1.5-1.8c0.7,0.7,1.4,1.5,1.9,2.3
		l-0.6,1h-3.7v10.2c1.4-0.7,2.7-1.4,4-2.2v1.5c-1.8,1.4-3.8,2.7-6,4c0,0.9-0.2,1.3-0.5,1.3c-0.5,0-1.1-0.9-1.7-2.8
		c0.8-0.3,1.6-0.6,2.3-0.9v-11.2h-1.9c-0.1,3.1-0.3,5.7-0.8,7.8c-0.7,3.3-2.1,6.1-4.2,8.6l-1.1-0.9c1.7-2.5,2.8-5.2,3.4-8.3
		c0.3-1.9,0.5-4.2,0.6-6.8l0-0.4h-3.3l-0.4-1.5H42.2z M37.8,204.7c1.9,3,2.9,5.4,2.9,7.1c0,1.1-0.5,1.7-1.5,1.7
		c-0.4,0-0.6-0.3-0.7-1c0-2.3-0.6-4.7-1.8-7.2L37.8,204.7z M45,213c1-2.8,1.7-5.7,2.2-8.7c2.1,0.6,3.1,1.1,3.1,1.5
		c0,0.3-0.4,0.6-1.2,0.8c-0.8,2.5-1.7,4.7-2.9,6.8L45,213z M59.9,224v3h4.9l1.6-1.6c0.9,0.7,1.7,1.4,2.4,2.2l-0.7,1.1h-8.2v5.2h-2.1
		v-5.2h-7.6l-0.6-1.6h8.2v-3h-4.2v1.2h-2v-12.4c0.8,0.3,1.6,0.6,2.4,1h3.8v-2.3h-7.2l-0.5-1.7h7.7v-3.5c2.3,0.1,3.4,0.4,3.4,0.9
		c0,0.3-0.4,0.6-1.3,1v1.6h4.9l1.4-1.3c0.7,0.5,1.4,1.1,2.1,1.9l-0.5,1h-8v2.3h4.2l1.2-1.2c1.5,1.1,2.2,1.8,2.2,2.2
		c0,0.2-0.1,0.4-0.4,0.5l-0.8,0.5v9.3h-2V224H59.9z M53,204h12.6l1.2-1.4c1.6,1.4,2.4,2.4,2.4,2.8c0,0.2-0.2,0.4-0.6,0.5l-1.1,0.3
		c-0.5,0.8-1.1,1.6-1.7,2.2l-1.1-0.7c0.3-0.5,0.6-1.2,0.9-2.1H53c0,1-0.2,1.7-0.4,2.3c-0.3,0.9-0.8,1.3-1.4,1.3
		c-0.3,0-0.7-0.2-1-0.5c-0.3-0.3-0.5-0.6-0.5-0.8c0-0.2,0.1-0.4,0.4-0.7c0.9-0.9,1.3-2.4,1.4-4.5l1.3,0.3l0.1,0.6L53,204z
		 M57.8,217.9v-2.5h-4.2v2.5H57.8z M57.8,222.4v-2.8h-4.2v2.8H57.8z M59.9,217.9h4.5v-2.5h-4.5V217.9z M59.9,222.4h4.5v-2.8h-4.5
		V222.4z"/>
</g>
</svg>
