<?xml version="1.0" encoding="utf-8"?>
<!-- Generator: Adobe Illustrator 25.1.0, SVG Export Plug-In . SVG Version: 6.00 Build 0)  -->
<svg version="1.1" id="レイヤー_1" xmlns="http://www.w3.org/2000/svg" xmlns:xlink="http://www.w3.org/1999/xlink" x="0px"
	 y="0px" viewBox="0 0 71 298" style="enable-background:new 0 0 71 298;" xml:space="preserve">
<style type="text/css">
	.st0{fill:#FFFFFF;}
</style>
<g>
	<path class="st0" d="M67.3,11.8v1l-12.4,2.7c-0.3,0.1-0.5,0.2-0.7,0.3C54.1,16,54,16.2,54,16.5h-0.7v-3H54c0,0.5,0.2,0.7,0.5,0.7
		c0.1,0,0.2,0,0.3,0l3.5-0.6v-2.6l-3.2-0.6c0,0,0,0-0.1,0c-0.1,0-0.2,0-0.3-0.1c-0.1,0-0.1,0-0.2,0c-0.1,0-0.3,0.1-0.4,0.3
		C54,10.6,54,10.7,54,10.9h-0.7V8.4H54c0.1,0.3,0.1,0.4,0.3,0.5c0.1,0.1,0.4,0.2,0.7,0.3L67.3,11.8z M65.4,12.2L59.2,11v2.3
		L65.4,12.2z"/>
	<path class="st0" d="M67,20.3v2.5l-11.1,3.6v0.1h9.6c0.3,0,0.5-0.1,0.6-0.2c0.1-0.2,0.2-0.4,0.3-0.8H67v2.7h-0.7
		c-0.1-0.4-0.1-0.6-0.3-0.8c-0.1-0.1-0.3-0.2-0.6-0.2H53.1v-1.1l12.3-4V22H54.9c-0.3,0-0.6,0.1-0.7,0.2C54.1,22.3,54,22.6,54,23
		h-0.7v-2.7H54c0.1,0.4,0.1,0.7,0.3,0.8c0.1,0.1,0.3,0.2,0.6,0.2h10.6c0.3,0,0.5-0.1,0.6-0.2c0.1-0.1,0.2-0.4,0.2-0.7H67z"/>
	<path class="st0" d="M67,34.1v3.5h-0.7c0-0.4-0.1-0.8-0.2-0.9c-0.1-0.2-0.3-0.2-0.7-0.2H54.9c-0.3,0-0.5,0.1-0.7,0.3
		c-0.1,0.1-0.2,0.4-0.2,0.9h-0.7v-3.5H54c0.1,0.5,0.1,0.8,0.3,0.9c0.1,0.2,0.4,0.2,0.7,0.2h10.6c0.3,0,0.6-0.1,0.7-0.2
		c0.1-0.2,0.2-0.5,0.2-0.9H67z"/>
	<path class="st0" d="M67,43.7v3h-0.7c-0.1-0.5-0.3-0.8-0.6-0.8c-0.1,0-0.3,0-0.6,0.1l-9.6,1.8l9.5,1.6c0.3,0.1,0.5,0.1,0.7,0.1
		c0.2,0,0.3-0.1,0.4-0.3c0.1-0.1,0.1-0.3,0.1-0.6H67v2.6h-0.7c-0.1-0.3-0.2-0.5-0.4-0.6c-0.2-0.2-0.6-0.3-1-0.4l-12-2.2v-0.9
		l12.2-2.5c0.7-0.1,1.1-0.5,1.2-1H67z"/>
	<path class="st0" d="M67,55.6V62l-3.5,0.1v-0.6c0.9-0.1,1.6-0.3,2-0.6c0.4-0.3,0.6-0.7,0.6-1.2v-1.4c0-0.3-0.1-0.5-0.2-0.6
		c-0.1-0.1-0.3-0.1-0.6-0.1H61v1.2c0,0.5,0.2,0.8,0.6,1c0.3,0.1,0.7,0.2,1.2,0.2v0.6h-4.7V60c0.7,0,1.3-0.1,1.6-0.3
		c0.3-0.2,0.4-0.5,0.4-0.9v-1.2H55c-0.3,0-0.5,0.1-0.6,0.2c-0.1,0.1-0.2,0.4-0.2,0.7v1.1c0,0.8,0.3,1.3,0.7,1.6
		c0.4,0.2,1.1,0.4,2.1,0.6v0.5l-3.7-0.2v-6.7H54c0.1,0.4,0.2,0.6,0.3,0.7c0.1,0.1,0.3,0.2,0.6,0.2h10.6c0.3,0,0.5-0.1,0.6-0.2
		c0.1-0.1,0.2-0.4,0.2-0.7H67z"/>
	<path class="st0" d="M67,67.1v3.5c0,1-0.3,1.8-1,2.4c-0.6,0.6-1.5,0.8-2.5,0.8c-1,0-1.8-0.3-2.4-0.8c-0.5-0.4-0.8-1-0.9-1.8h-0.1
		c-0.2,0.6-0.5,1-1.1,1.3c-0.6,0.3-1.8,0.6-3.6,1.1c-0.5,0.1-0.8,0.3-1,0.4c-0.2,0.2-0.3,0.4-0.4,0.8h-0.6v-2
		c2.9-0.7,4.7-1.2,5.5-1.5c0.7-0.3,1-0.7,1-1.1v-1.1h-5c-0.3,0-0.6,0.1-0.7,0.2C54.1,69.4,54,69.7,54,70h-0.7v-2.9H54
		c0.1,0.3,0.1,0.6,0.2,0.7c0.1,0.1,0.3,0.2,0.6,0.2h10.6c0.3,0,0.6-0.1,0.7-0.2c0.1-0.1,0.2-0.3,0.2-0.7H67z M60.7,69.2v1
		c0,0.7,0.2,1.3,0.7,1.7c0.5,0.4,1.2,0.7,2.1,0.7c1.8,0,2.6-0.7,2.6-2v-0.7c0-0.3-0.1-0.5-0.2-0.6c-0.1-0.1-0.3-0.1-0.6-0.1H60.7z"
		/>
	<path class="st0" d="M58.1,79.5v0.6c-2.7,0.2-4.1,1.1-4.1,2.5c0,0.5,0.2,1,0.7,1.3c0.5,0.3,1.1,0.5,1.9,0.5c0.6,0,1.2-0.2,1.7-0.5
		c0.5-0.3,0.9-0.7,1.3-1.2l0.9-1.1c1.2-1.4,2.6-2.1,4-2.1c0.8,0,1.5,0.3,2.1,0.8c0.5,0.5,0.8,1.2,0.8,1.9c0,0.6-0.3,1.2-0.8,1.8
		c-0.1,0.1-0.1,0.2-0.1,0.3c0,0.1,0.3,0.2,0.8,0.3v0.6h-3.8v-0.6c2-0.5,3-1.2,3-2.3c0-0.6-0.2-1-0.7-1.3c-0.3-0.2-0.7-0.3-1.3-0.3
		c-0.6,0-1.1,0.2-1.6,0.5c-0.3,0.2-0.7,0.6-1.2,1.1l-0.9,1c-0.7,0.8-1.3,1.4-1.7,1.7c-0.7,0.5-1.5,0.7-2.4,0.7c-1.1,0-2-0.3-2.7-0.9
		c-0.6-0.6-1-1.3-1-2.1c0-0.8,0.3-1.4,0.9-2c0.1-0.1,0.1-0.2,0.1-0.2c0-0.2-0.3-0.3-1-0.4v-0.6H58.1z"/>
	<path class="st0" d="M67.3,93.6v1l-12.4,2.7c-0.3,0.1-0.5,0.2-0.7,0.3C54.1,97.8,54,98,54,98.3h-0.7v-3H54c0,0.5,0.2,0.7,0.5,0.7
		c0.1,0,0.2,0,0.3,0l3.5-0.6v-2.6L55.1,92c0,0,0,0-0.1,0c-0.1,0-0.2,0-0.3-0.1c-0.1,0-0.1,0-0.2,0c-0.1,0-0.3,0.1-0.4,0.3
		C54,92.3,54,92.5,54,92.7h-0.7v-2.5H54c0.1,0.3,0.1,0.4,0.3,0.5c0.1,0.1,0.4,0.2,0.7,0.3L67.3,93.6z M65.4,93.9l-6.2-1.2v2.3
		L65.4,93.9z"/>
	<path class="st0" d="M67,102.2v3.5c0,1-0.3,1.8-1,2.4c-0.6,0.6-1.5,0.8-2.5,0.8c-1,0-1.8-0.3-2.4-0.8c-0.5-0.4-0.8-1-0.9-1.8h-0.1
		c-0.2,0.6-0.5,1-1.1,1.3c-0.6,0.3-1.8,0.6-3.6,1.1c-0.5,0.1-0.8,0.3-1,0.4c-0.2,0.2-0.3,0.4-0.4,0.8h-0.6v-2
		c2.9-0.7,4.7-1.2,5.5-1.5c0.7-0.3,1-0.7,1-1.1v-1.1h-5c-0.3,0-0.6,0.1-0.7,0.2c-0.1,0.1-0.2,0.3-0.2,0.7h-0.7v-2.9H54
		c0.1,0.3,0.1,0.6,0.2,0.7c0.1,0.1,0.3,0.2,0.6,0.2h10.6c0.3,0,0.6-0.1,0.7-0.2c0.1-0.1,0.2-0.3,0.2-0.7H67z M60.7,104.2v1
		c0,0.7,0.2,1.3,0.7,1.7c0.5,0.4,1.2,0.7,2.1,0.7c1.8,0,2.6-0.7,2.6-2v-0.7c0-0.3-0.1-0.5-0.2-0.6c-0.1-0.1-0.3-0.1-0.6-0.1H60.7z"
		/>
	<path class="st0" d="M67,113.7v3h-0.7c-0.1-0.5-0.2-0.8-0.5-0.8c-0.2,0-0.3,0-0.5,0.1l-5.2,1.8l5,1.8c0.2,0.1,0.4,0.1,0.5,0.1
		c0.3,0,0.5-0.3,0.6-0.8H67v2.6h-0.7c-0.1-0.3-0.2-0.5-0.3-0.6c-0.2-0.2-0.5-0.3-1-0.5l-6.1-2.2h-4.1c-0.3,0-0.5,0.1-0.6,0.2
		c-0.1,0.1-0.2,0.4-0.3,0.8h-0.7V116H54c0,0.4,0.1,0.7,0.3,0.8c0.1,0.1,0.3,0.2,0.6,0.2H59l6.4-2.2c0.6-0.2,0.9-0.5,1-1H67z"/>
	<path class="st0" d="M67,137.4v3.6c0,1-0.3,1.8-1,2.4c-0.7,0.7-1.7,1-3,1c-1.3,0-2.2-0.3-2.8-1c-0.7-0.7-1-1.6-1-2.6v-1.2h-4.4
		c-0.3,0-0.5,0.1-0.6,0.2c-0.1,0.1-0.2,0.4-0.2,0.9h-0.7v-3.2H54c0,0.4,0.1,0.7,0.2,0.8c0.1,0.1,0.3,0.2,0.6,0.2h10.6
		c0.3,0,0.5-0.1,0.6-0.2c0.1-0.1,0.2-0.4,0.2-0.8H67z M60.2,139.6v1.1c0,1.6,1,2.3,3,2.3c1,0,1.8-0.2,2.3-0.6
		c0.5-0.4,0.7-0.9,0.7-1.6v-0.5c0-0.3-0.1-0.5-0.2-0.6c-0.1-0.1-0.3-0.1-0.6-0.1H60.2z"/>
	<path class="st0" d="M67,149.5v3.3h-0.7c0-0.5-0.1-0.8-0.3-0.9c-0.1-0.1-0.4-0.2-0.8-0.2H55.2c-0.4,0-0.7,0.1-0.8,0.2
		c-0.1,0.1-0.2,0.4-0.2,0.7v0.6c0,1.1,1.1,1.7,3.3,2v0.6l-4.2-0.2v-6.1H54c0,0.4,0.1,0.7,0.3,0.8c0.1,0.1,0.4,0.2,0.8,0.2h10.2
		c0.4,0,0.7-0.1,0.9-0.2c0.1-0.1,0.2-0.4,0.2-0.8H67z"/>
	<path class="st0" d="M67.3,163.7v1l-12.4,2.7c-0.3,0.1-0.5,0.2-0.7,0.3c-0.1,0.1-0.2,0.4-0.3,0.7h-0.7v-3H54c0,0.5,0.2,0.7,0.5,0.7
		c0.1,0,0.2,0,0.3,0l3.5-0.6v-2.6l-3.2-0.6c0,0,0,0-0.1,0c-0.1,0-0.2,0-0.3-0.1c-0.1,0-0.1,0-0.2,0c-0.1,0-0.3,0.1-0.4,0.3
		c-0.1,0.1-0.1,0.3-0.2,0.4h-0.7v-2.5H54c0.1,0.3,0.1,0.4,0.3,0.5c0.1,0.1,0.4,0.2,0.7,0.3L67.3,163.7z M65.4,164l-6.2-1.2v2.3
		L65.4,164z"/>
	<path class="st0" d="M67,172.1v2.5l-11.1,3.6v0.1h9.6c0.3,0,0.5-0.1,0.6-0.2c0.1-0.2,0.2-0.4,0.3-0.8H67v2.7h-0.7
		c-0.1-0.4-0.1-0.6-0.3-0.8c-0.1-0.1-0.3-0.2-0.6-0.2H53.1v-1.1l12.3-4v-0.1H54.9c-0.3,0-0.6,0.1-0.7,0.2c-0.1,0.1-0.2,0.4-0.2,0.7
		h-0.7v-2.7H54c0.1,0.4,0.1,0.7,0.3,0.8c0.1,0.1,0.3,0.2,0.6,0.2h10.6c0.3,0,0.5-0.1,0.6-0.2c0.1-0.1,0.2-0.4,0.2-0.7H67z"/>
	<path class="st0" d="M67,183.8v2.5l-11.1,3.6v0.1h9.6c0.3,0,0.5-0.1,0.6-0.2c0.1-0.2,0.2-0.4,0.3-0.8H67v2.7h-0.7
		c-0.1-0.4-0.1-0.6-0.3-0.8c-0.1-0.1-0.3-0.2-0.6-0.2H53.1v-1.1l12.3-4v-0.1H54.9c-0.3,0-0.6,0.1-0.7,0.2c-0.1,0.1-0.2,0.4-0.2,0.7
		h-0.7v-2.7H54c0.1,0.4,0.1,0.7,0.3,0.8c0.1,0.1,0.3,0.2,0.6,0.2h10.6c0.3,0,0.5-0.1,0.6-0.2c0.1-0.1,0.2-0.4,0.2-0.7H67z"/>
	<path class="st0" d="M67,197.6v3.5h-0.7c0-0.4-0.1-0.8-0.2-0.9c-0.1-0.2-0.3-0.2-0.7-0.2H54.9c-0.3,0-0.5,0.1-0.7,0.3
		c-0.1,0.1-0.2,0.4-0.2,0.9h-0.7v-3.5H54c0.1,0.5,0.1,0.8,0.3,0.9c0.1,0.2,0.4,0.2,0.7,0.2h10.6c0.3,0,0.6-0.1,0.7-0.2
		c0.1-0.2,0.2-0.5,0.2-0.9H67z"/>
	<path class="st0" d="M67,207.2v2.5l-11.1,3.6v0.1h9.6c0.3,0,0.5-0.1,0.6-0.2c0.1-0.2,0.2-0.4,0.3-0.8H67v2.7h-0.7
		c-0.1-0.4-0.1-0.6-0.3-0.8c-0.1-0.1-0.3-0.2-0.6-0.2H53.1V213l12.3-4v-0.1H54.9c-0.3,0-0.6,0.1-0.7,0.2c-0.1,0.1-0.2,0.4-0.2,0.7
		h-0.7v-2.7H54c0.1,0.4,0.1,0.7,0.3,0.8c0.1,0.1,0.3,0.2,0.6,0.2h10.6c0.3,0,0.5-0.1,0.6-0.2c0.1-0.1,0.2-0.4,0.2-0.7H67z"/>
	<path class="st0" d="M53,225.1l1.7-0.4c-1.2-0.5-1.7-1.2-1.7-2.1c0-0.9,0.6-1.7,1.8-2.3c1.4-0.7,3.2-1.1,5.4-1.1c2,0,3.7,0.3,5.1,1
		c1.4,0.7,2.1,1.6,2.1,2.7c0,0.7-0.3,1.3-0.9,1.7c-0.2,0.1-0.3,0.2-0.3,0.3c0,0.2,0.3,0.3,0.8,0.3v0.5h-3.6v-0.6
		c0.9-0.2,1.6-0.4,2-0.6c0.7-0.4,1-0.9,1-1.5c0-0.7-0.5-1.2-1.4-1.6c-1.2-0.5-2.8-0.8-4.8-0.8c-2.2,0-3.9,0.3-5.1,0.9
		c-0.8,0.4-1.1,0.8-1.1,1.3c0,0.6,0.3,1,0.9,1.4c0.6,0.3,1.3,0.5,2,0.5h1.5c0.4,0,0.7-0.1,0.8-0.2c0.1-0.1,0.2-0.3,0.2-0.8h0.7v3
		h-0.7c-0.1-0.3-0.2-0.6-0.3-0.7c-0.1-0.1-0.4-0.2-0.9-0.2H53V225.1z"/>
	<path class="st0" d="M53.3,242.9h1c1.1,0.3,2,0.6,2.7,1c0.5,0.3,1.2,0.8,2,1.4l0.1,0.1l0.4,0.4c0.7,0.6,1.3,1.1,1.9,1.3
		c0.7,0.3,1.5,0.5,2.4,0.5c0.8,0,1.3-0.1,1.7-0.4c0.6-0.3,0.8-0.8,0.8-1.5c0-0.4-0.1-0.7-0.3-1c-0.2-0.3-0.4-0.4-0.7-0.5
		c-0.2,0.4-0.5,0.6-0.9,0.6c-0.2,0-0.4,0-0.6-0.1c-0.3-0.2-0.4-0.4-0.4-0.7c0-0.3,0.1-0.6,0.4-0.8c0.2-0.1,0.4-0.2,0.7-0.2
		c0.6,0,1.1,0.2,1.5,0.5c0.8,0.5,1.2,1.3,1.2,2.3c0,1-0.4,1.8-1.1,2.4c-0.6,0.5-1.4,0.8-2.5,0.8c-1.2,0-2.2-0.3-3-0.9
		c-0.5-0.3-1-0.8-1.6-1.5l-0.3-0.4c-1.1-1.2-2.5-2-4.1-2.4v3.1c0,0.6,0.2,1,0.5,1.3c0.3,0.2,0.8,0.3,1.6,0.5v0.6l-3.5-0.3V242.9z"/>
	<path class="st0" d="M53.3,254.2H54c0.1,0.4,0.2,0.7,0.3,0.8c0.1,0.1,0.4,0.2,0.7,0.2h6.6c0.3,0,0.5-0.1,0.6-0.2
		c0.1-0.2,0.2-0.4,0.2-0.8h0.7c0,0.7,0.1,1.4,0.4,2.1h-1.5c0.4,0.2,0.8,0.4,1,0.8c0.3,0.4,0.5,0.8,0.5,1.3c0,0.9-0.6,1.6-1.7,1.9
		c-0.6,0.2-1.4,0.3-2.3,0.3h-4.4c-0.4,0-0.7,0.1-0.8,0.2c-0.1,0.1-0.2,0.4-0.3,0.8h-0.7v-2.9H54c0.1,0.3,0.1,0.5,0.3,0.6
		c0.2,0.1,0.4,0.2,0.8,0.2h4.5c1.9,0,2.9-0.4,2.9-1.3c0-0.3-0.2-0.6-0.5-0.9c-0.4-0.4-0.9-0.7-1.6-0.9h-5.3c-0.4,0-0.7,0.1-0.8,0.2
		c-0.1,0.1-0.2,0.3-0.3,0.6h-0.7V254.2z"/>
	<path class="st0" d="M53.3,271l0.9-0.1c-0.9-0.4-1.3-1.1-1.3-1.9c0-0.9,0.5-1.6,1.5-2.2c1-0.5,2.3-0.8,3.9-0.8c1.6,0,2.8,0.3,3.8,1
		c0.9,0.6,1.3,1.2,1.3,1.9c0,0.5-0.2,0.9-0.6,1.3c-0.2,0.2-0.5,0.4-0.8,0.6h3.1c0.5,0,0.9-0.1,1-0.2c0.2-0.1,0.3-0.4,0.3-0.9H67
		c0,0.8,0.1,1.5,0.4,2.2H55.2c-0.4,0-0.7,0.1-0.9,0.2c-0.2,0.1-0.3,0.4-0.3,0.8h-0.7V271z M62.4,269.2c0-0.4-0.3-0.8-0.9-1.1
		c-0.8-0.5-1.9-0.7-3.2-0.7c-1.5,0-2.7,0.2-3.6,0.7c-0.6,0.3-0.8,0.7-0.8,1.1c0,1.2,1.5,1.8,4.5,1.8c1.6,0,2.7-0.2,3.3-0.6
		C62.2,269.9,62.4,269.6,62.4,269.2z"/>
</g>
<g>
	<path class="st0" d="M23.5,93.3v2.2H30l0.7-0.7c0.9,0.7,1.3,1.1,1.3,1.4c0,0.1-0.1,0.2-0.2,0.3l-0.5,0.3c-0.1,2.3-0.5,3.8-1.2,4.4
		c-0.2,0.2-0.6,0.4-1.2,0.5c-0.3,0.1-0.5,0.1-0.7,0.1c0-0.3-0.1-0.5-0.4-0.6c-0.3-0.1-1.1-0.3-2.4-0.5v-0.8c1,0.1,2,0.2,2.9,0.2
		c0.6,0,1-0.1,1.2-0.4c0.4-0.5,0.6-1.5,0.6-3.1h-6.6v6.6h-1.3v-5.6c-2.5,2.2-5.5,3.9-9,5.1l-0.6-0.7c3.5-1.3,6.4-3.1,8.8-5.4h-5.5
		l-0.1,0.1c-0.1,0.3-0.2,0.6-0.4,1l-1.2-0.4c0.7-1.6,1.2-3.5,1.5-5.5c0.1,0,0.2,0.1,0.4,0.2c0.3,0.1,0.6,0.2,0.8,0.4h5.1v-2.2h-7.3
		l-0.3-1h14.2l0.8-0.7c0.9,0.7,1.4,1.2,1.4,1.4c0,0.1-0.1,0.2-0.2,0.3l-0.4,0.3v3.7h-1.3v-0.8H23.5z M18.4,86.1
		c1.1,0.7,1.6,1.3,1.6,1.9c0,0.3-0.1,0.5-0.4,0.7c-0.2,0.1-0.4,0.2-0.5,0.2c-0.2,0-0.4-0.2-0.5-0.6c-0.2-0.8-0.6-1.5-1.2-2.2h-1.1
		c-0.9,1.4-1.9,2.6-3.1,3.6l-0.5-0.5c1.6-1.6,2.8-3.7,3.5-6.2c1.3,0.3,2,0.5,2,0.8c0,0.2-0.3,0.3-0.9,0.5c-0.2,0.4-0.3,0.7-0.4,0.9
		h3.6l0.9-1.2c0.6,0.5,1,1,1.4,1.5l-0.3,0.6H18.4z M16.7,93.3c-0.2,0.9-0.4,1.6-0.5,2.2h5.9v-2.2H16.7z M26.6,86.1
		c1.1,0.8,1.6,1.4,1.6,2c0,0.3-0.2,0.5-0.6,0.7c-0.2,0.1-0.3,0.1-0.5,0.1c-0.2,0-0.3-0.2-0.4-0.5c-0.1-0.8-0.5-1.6-1.1-2.3h-1.2
		c-0.7,1-1.6,1.9-2.5,2.7l-0.5-0.5c1.4-1.4,2.4-3.2,3-5.3c1.3,0.3,1.9,0.6,1.9,0.8c0,0.2-0.3,0.3-0.9,0.4c-0.1,0.2-0.3,0.5-0.4,0.9
		h4.8l1-1.2c0.6,0.5,1.1,1,1.6,1.5l-0.3,0.6H26.6z M23.5,92.3h5.4v-2.2h-5.4V92.3z"/>
	<path class="st0" d="M29.1,123.4l1.3-1.5c0.7,0.6,1.3,1.2,1.9,1.8l-0.4,0.8H13.5l-0.4-1.1H29.1z M26.9,111.9l1.2-1.4
		c0.6,0.5,1.2,1.1,1.8,1.8l-0.4,0.7H15.3l-0.3-1.1H26.9z"/>
	<path class="st0" d="M15.1,138.1H18v-3.6H13l-0.2-1h5l0.8-0.9c0.9,0.7,1.3,1.2,1.3,1.5c0,0.1,0,0.2-0.1,0.3l-0.5,0.3v5.4H18v-0.9
		h-2.9c-0.1,1-0.2,2.2-0.4,3.6h3l0.7-0.8c0.9,0.8,1.4,1.2,1.4,1.5c0,0.1-0.1,0.2-0.2,0.3l-0.4,0.3c0,2.6-0.2,4.7-0.6,6.3
		c-0.2,1-0.8,1.6-1.6,1.9c-0.4,0.1-0.8,0.2-1.1,0.2c0-0.4-0.2-0.7-0.7-0.8c-0.3-0.1-0.8-0.3-1.6-0.4v-0.8c1.1,0.1,1.9,0.2,2.5,0.2
		c0.6,0,1-0.2,1.2-0.7c0.4-0.9,0.6-2.9,0.6-6h-3.4c-0.1,0.6-0.2,1.1-0.3,1.5l-1.2-0.3c0.4-2.2,0.8-4.6,0.9-7.3
		C14.3,137.7,14.7,137.9,15.1,138.1z M26.8,144.6v2.2h3.4l1.1-1.2c0.6,0.5,1.1,1,1.5,1.5l-0.4,0.6h-5.6v4.5h-1.3v-4.5h-5.6l-0.3-1
		h5.9v-2.2h-3v0.8h-1.3v-8.6c0.4,0.1,0.9,0.3,1.4,0.5h5.1c0.9-1.5,1.6-3.1,2.2-4.9c1.3,0.5,2,0.8,2,1.2c0,0.2-0.3,0.4-1,0.5
		c-0.7,1.2-1.4,2.3-2.2,3.3h1.2l0.7-0.8c0.8,0.7,1.3,1.2,1.3,1.4c0,0.1,0,0.2-0.1,0.3l-0.5,0.3v6.6h-1.3v-0.6H26.8z M20.9,132.6
		c0.9,0.6,1.6,1.3,2.1,2c0.4,0.6,0.6,1,0.6,1.5c0,0.4-0.2,0.6-0.5,0.8c-0.2,0.1-0.4,0.1-0.5,0.1c-0.3,0-0.4-0.2-0.5-0.6
		c-0.2-1.1-0.8-2.2-1.7-3.1L20.9,132.6z M25.4,138.3h-3v2h3V138.3z M25.4,141.4h-3v2.2h3V141.4z M24.7,132.4
		c1.6,1.3,2.4,2.5,2.4,3.4c0,0.4-0.2,0.7-0.5,0.8c-0.2,0.1-0.3,0.1-0.5,0.1c-0.3,0-0.4-0.2-0.5-0.7c-0.1-1.2-0.6-2.2-1.4-3.2
		L24.7,132.4z M26.8,138.3v2h3.1v-2H26.8z M26.8,141.4v2.2h3.1v-2.2H26.8z"/>
</g>
<g>
	<path class="st0" d="M17.3,204c-1.7,3.2-4.1,5.8-7.3,7.7l-0.9-1c1.4-0.9,2.6-2.1,3.7-3.4c1.2-1.5,2.2-3,2.9-4.6
		c0,0-0.1-0.1-0.2-0.2c-1-0.8-2.1-1.5-3.4-2.3l-0.2,0.6c-0.2,0.8-0.4,1.5-0.7,2.2l-2-0.6c1.3-4.2,2.3-8.5,3.1-12.9H9l-0.5-1.6h4.3
		l0.2-1.2c0.4-2.2,0.7-4.2,0.9-6.2c2.2,0.2,3.3,0.6,3.3,1.1c0,0.3-0.5,0.6-1.4,0.9c-0.3,2.3-0.6,4.1-0.8,5.4h3.4l1.2-1.4
		c1.5,1.2,2.2,2,2.2,2.4c0,0.2-0.1,0.3-0.3,0.5l-0.8,0.5c-0.6,4.7-1.4,8.8-2.5,12.3c2.7,1.7,4,3,4,3.9c0,0.4-0.2,0.8-0.6,1.2
		c-0.3,0.3-0.5,0.4-0.8,0.4c-0.2,0-0.5-0.2-0.7-0.5C19.3,206,18.4,205,17.3,204z M16.4,201c0-0.1,0.1-0.2,0.1-0.3
		c0.9-3.1,1.6-6.8,2-11.3h-3.9l-0.2,1c-0.5,2.7-1.2,5.6-2,8.5C13.4,199.4,14.7,200.1,16.4,201z M30.5,197.3c-0.6,3.2-1.8,6-3.5,8.4
		c-1.7,2.3-4,4.4-6.9,6.1l-1-1.1c1.3-0.9,2.3-1.7,3-2.3c3.7-3.4,5.9-7.8,6.5-13.2h-7.1l-0.5-1.6h7.7c0-0.5,0-0.9,0-1.3v-6.7
		c-2.4,0.6-4.6,1.1-6.5,1.4l-0.6-1.4c5.3-0.9,9.8-2.5,13.6-4.8c1.5,1,2.3,1.7,2.3,2.2c0,0.3-0.2,0.4-0.7,0.4c-0.2,0-0.6,0-1.1-0.1
		c-1.1,0.4-2.4,0.9-3.9,1.3l-0.9,0.3v7.4c0,0.3,0,0.7,0,1.2h4.8l1.8-2.2c1,0.9,1.8,1.8,2.5,2.7l-0.6,1.1h-8c0.5,2.3,1.2,4.4,2.1,6.2
		c1.6,3.2,3.9,5.9,7.1,8c-0.9,0.6-1.6,1.3-2.1,2.1c-2.8-2.5-4.9-5.5-6.3-9C31.3,200.8,30.8,199,30.5,197.3z"/>
	<path class="st0" d="M22,233.1l1.3-1.1c0.1,0.1,0.2,0.1,0.2,0.1c0.6,0.4,1.3,0.9,2.1,1.6l-0.4,0.9H8.8l-0.4-1.6H22z M17.9,247.1
		c0.6-1.3,1.1-2.7,1.5-4.4c1.8,0.6,2.7,1.1,2.7,1.5c0,0.3-0.4,0.5-1.3,0.7c-0.3,0.5-0.7,1.2-1.3,2c2.1-0.3,3.9-0.6,5.6-0.9v1.5
		c-5.1,1-9.8,1.8-14.3,2.4c-0.2,0.8-0.4,1.2-0.7,1.2c-0.5,0-1-1-1.5-3.1C11.2,247.8,14.3,247.6,17.9,247.1z M23.9,231.4H9.6v-9.6
		c0.5,0.2,1,0.4,1.6,0.7l0.4,0.2h2.1v-3.1c1.8,0.1,2.8,0.3,2.8,0.7c0,0.2-0.3,0.5-1,0.8v1.5h2.3v-3.1c1.9,0,2.9,0.3,2.9,0.7
		c0,0.3-0.4,0.6-1.1,0.9v1.4h2.2l1.1-1.1c1.3,1,1.9,1.7,1.9,2c0,0.2-0.1,0.3-0.3,0.4l-0.6,0.5V231.4z M23,242.4H10.5v-6.7l0.3,0.1
		c0,0,0.6,0.2,1.6,0.6h8.5l0.9-0.9c1.4,1,2.1,1.6,2.1,1.9c0,0.2-0.1,0.3-0.3,0.5l-0.6,0.4V242.4z M13.8,226.2v-2h-2.3v2H13.8z
		 M13.8,229.9v-2.2h-2.3v2.2H13.8z M12.7,243.1c1.8,1.1,2.7,2.1,2.7,3c0,0.4-0.2,0.8-0.6,1c-0.3,0.2-0.6,0.3-0.9,0.3
		c-0.4,0-0.6-0.3-0.6-0.8c-0.2-1.2-0.6-2.1-1.4-2.7L12.7,243.1z M12.4,240.8h8.7V238h-8.7V240.8z M17.9,226.2v-2h-2.3v2H17.9z
		 M17.9,229.9v-2.2h-2.3v2.2H17.9z M19.7,226.2h2.4v-2h-2.4V226.2z M19.7,227.7v2.2h2.4v-2.2H19.7z M28.3,239.2v7.8
		c0,0.6,0.2,0.9,0.6,1c0.5,0.2,1.8,0.2,3.9,0.2c2,0,3.3-0.1,3.8-0.3c0.4-0.1,0.7-0.6,0.8-1.3c0.3-1.1,0.4-2.4,0.4-3.9l1.3,0.4
		c0,0.5,0,0.9,0,1.1c0,1.5,0.1,2.5,0.4,2.9c0.2,0.3,0.6,0.4,1.1,0.4c0,0.8-0.1,1.3-0.4,1.6c-0.3,0.3-0.8,0.5-1.6,0.6
		c-1.5,0.2-3.3,0.3-5.5,0.3c-3.1,0-5-0.2-5.7-0.5c-0.7-0.3-1-1.1-1-2.2v-17.6c-0.3,0.4-0.7,0.9-1.1,1.4l-1-0.8
		c2.4-3.2,4-6.9,4.9-11.2c2.1,0.4,3.1,0.8,3.1,1.3c0,0.3-0.5,0.5-1.4,0.8c-0.2,0.6-0.3,1-0.4,1.2h3.3l1-1.2c1.4,1.2,2.1,2,2.1,2.5
		c0,0.2-0.1,0.3-0.4,0.4l-0.8,0.3c-0.6,1.3-1.4,2.6-2.3,4.1h2.9l1-1.2c1.4,1.2,2.1,1.9,2.1,2.3c0,0.1-0.1,0.3-0.2,0.4l-0.7,0.5v10.3
		h-2v-1.6H28.3z M28.7,228.7h3c0.9-1.7,1.6-3.2,1.9-4.5h-3.9c-0.6,1.3-1.3,2.6-2.2,4C27.9,228.3,28.2,228.5,28.7,228.7z M28.3,230.3
		v7.3h3v-7.3H28.3z M33.3,230.3v7.3h3.1v-7.3H33.3z"/>
</g>
</svg>
