<svg viewBox="0 0 30 30" xmlns="http://www.w3.org/2000/svg"><g fill="none" fill-rule="evenodd"><path d="M0 0h30v30H0z"/><path d="M11.521 20.384c7.076 0 10.946-5.002 10.946-9.34 0-.142 0-.283-.011-.424a7.301 7.301 0 0 0 1.919-1.7 8.732 8.732 0 0 1-2.21.517c.804-.41 1.405-1.055 1.692-1.815a8.555 8.555 0 0 1-2.443.797c-1.192-1.082-3.087-1.347-4.622-.646-1.534.7-2.327 2.193-1.934 3.64-3.093-.133-5.975-1.38-7.928-3.43-1.021 1.5-.5 3.418 1.191 4.382a4.331 4.331 0 0 1-1.746-.411v.041c0 1.563 1.291 2.909 3.086 3.218a4.483 4.483 0 0 1-1.737.056c.504 1.337 1.948 2.253 3.594 2.28-1.362.913-3.045 1.41-4.777 1.408-.306 0-.612-.017-.916-.048 1.76.964 3.806 1.475 5.896 1.472" fill="#000" fill-rule="nonzero"/></g></svg>