<svg viewBox="0 0 60 96" xmlns="http://www.w3.org/2000/svg"><path d="M23.78 3.31h.02l7.15 20.18-.01.01h-15.3l-.02-.01L23.78 3.3zm1.92-1.15h6.81c3.88 0 5.33.09 7.64 1.12 3.62 1.7 5.78 5.36 5.78 9.78-.05 4.59-1.94 7.77-5.62 9.44-1.7.66-3.92 1-6.39 1h-.68L25.68 2.17s0-.02.02-.02zm19.44 24.97c4.76 2.24 7.6 7.04 7.6 12.84-.03 3.17-.76 5.87-2.16 8.01a12.1 12.1 0 0 1-5.25 4.4 16.08 16.08 0 0 1-1.67.52l-9.65-27.22s0-.02.02-.02h1.17c5.03 0 6.91.12 9.94 1.47zm-3.61 26.23c-1.4.22-2.92.33-4.52.33h-11.4l-9.92-28v-.03h16.02l.02.01 9.8 27.67v.02zm-33.18 2.5l.02-.02V41.43L14 27.47c0-.02.02-.01.03 0L24.1 55.84l.01.01h12.9c3.5 0 6.65-.5 9.12-1.46l.06-.02c3.91-1.78 8.6-5.7 8.7-14.39 0-6.68-3.31-12.22-8.86-14.8l-.01-.02c-1.36-.6-2.6-.96-3.81-1.2v-.07c2.9-1.6 5.8-4.75 5.87-10.82 0-5.3-2.63-9.69-7.03-11.75h-.02C38.23.04 36.39 0 32.51 0H22.8L8.4 35.7h-.03V0H6.22v55.83l.01.01h2.12zm48.29-2.8l.71 2 .72-2h.79v2.8h-.51V53.6l-.77 2.25h-.45l-.77-2.25v2.25h-.51v-2.79h.8zm-3.56.47v-.47h2.37v.47h-.91v2.32h-.55v-2.32h-.91zM8.75 94.3a1.36 1.36 0 0 1-1.9-.14c-.29-.3-.43-.68-.43-1.15 0-.46.14-.84.4-1.14.27-.3.61-.46 1.03-.46.27 0 .54.08.79.22.25.16.43.37.55.64h.54v-1.35H9.2v.39c-.37-.3-.83-.45-1.37-.45a2 2 0 0 0-1.5.59c-.4.4-.59.92-.59 1.59 0 .6.2 1.11.58 1.53.38.41.89.61 1.52.61.48 0 .91-.12 1.28-.38s.62-.61.74-1.08l-.54-.3c-.11.38-.3.67-.56.88m4.89-2.85h.49v1.2h-1.82v-1.2h.5v-.53h-1.6v.53h.47v3.14h-.47v.53h1.6v-.53h-.5v-1.41h1.82v1.41h-.5v.53h1.6v-.53h-.47v-3.14h.48v-.53h-1.6zm2.85 0h.54v3.14h-.54v.53h3.47v-1.29h-.52v.76h-1.78v-1.37h1.55v-.52h-1.55v-1.25h1.78v.74h.52v-1.27H16.5zm4.76 0h.54v3.14h-.54v.53h3.47v-1.29h-.52v.76h-1.78v-1.37h1.55v-.52h-1.55v-1.25h1.78v.74h.52v-1.27h-3.47zm7.12 1.41a4.52 4.52 0 0 0-.8-.27 4.89 4.89 0 0 1-.57-.17.58.58 0 0 1-.24-.19.5.5 0 0 1-.09-.3c0-.14.06-.27.18-.38.13-.1.3-.16.53-.16.37 0 .67.17.88.5v.28h.51V90.9h-.5v.28c-.3-.21-.6-.33-.94-.33-.35 0-.64.11-.87.32-.24.21-.36.5-.36.84a1.06 1.06 0 0 0 .6.98c.18.09.45.18.83.28.32.09.54.18.66.26.11.1.17.23.17.43 0 .2-.07.37-.21.5a.77.77 0 0 1-.53.2c-.4 0-.73-.24-.98-.7v-.36h-.52v1.52h.52v-.35c.3.28.65.42 1.03.42.37 0 .68-.12.93-.36.25-.23.38-.52.38-.88 0-.26-.06-.48-.18-.68a1.1 1.1 0 0 0-.43-.41m1.77-1.41h.54v3.14h-.54v.53h3.47v-1.29h-.5v.76h-1.8v-1.37h1.56v-.52h-1.55v-1.25h1.78v.74h.51v-1.27h-3.47zm6.22 1.07h.52v-1.07h.86v3.15h-.53v.52h1.7v-.52h-.54v-3.15h.86v1.07h.51v-1.6h-3.38zm5.63.63l.58-1.75h.05l.56 1.75H42zm1.14-1.75h.52v-.48h-2.13v.48h.5l-1.14 3.2h-.5v.52h1.64v-.53h-.5l.31-.95h1.51l.3.95h-.51v.53h1.63v-.53h-.46l-1.17-3.2zm4.09 1.23h-.5v-1.18h.54c.22 0 .39.01.5.04.1.02.19.08.26.17.08.1.11.21.11.35 0 .16-.03.3-.1.39a.54.54 0 0 1-.28.19c-.12.03-.3.04-.53.04zm.7.44c.58-.15.87-.5.87-1.05 0-.26-.07-.48-.21-.66a.94.94 0 0 0-.52-.35c-.2-.06-.48-.09-.84-.09h-1.7v.53h.58v3.14h-.57v.53h1.73v-.53h-.53v-1.43h.59l.95 1.96h.9v-.53h-.5l-.74-1.52zm2.15-.55h.52v-1.07h.86v3.15h-.54v.52h1.71v-.52h-.54v-3.15h.86v1.07h.52v-1.6h-3.4zM7.8 82.67c-.56.2-1.16.23-1.71.23H3.9c-.21 0-.43-.02-.61-.15-.22-.17-.26-.46-.28-.7v-2.97c0-.26.05-.45.17-.59.11-.13.3-.2.49-.2h2.77c.36 0 .78.03 1.19.16.78.25 1.36 1.13 1.37 2.1 0 1.08-.43 1.83-1.21 2.12zM3.02 72.9c0-.44.27-.71.73-.72h2.4a3.68 3.68 0 0 1 1.28.22c.33.18.58.42.75.72.17.31.24.72.21 1.25-.03.33-.1.6-.2.8-.21.39-.53.67-.96.82-.4.15-.82.16-1.2.16H3.7c-.09 0-.68-.02-.68-.86V72.9zM12 80.26c-.13-1.95-1.69-3.26-1.69-3.26-.4-.33 0-.66 0-.66.63-.59.88-1.66.88-1.66a4.78 4.78 0 0 0-.39-3.37c-.22-.39-.56-.73-.94-.95-.39-.23-.81-.4-1.23-.49-.48-.1-1-.16-1.56-.16H.17a.17.17 0 0 0-.17.16v15.36c0 .09.07.16.16.16h6.7c.8 0 1.45-.08 2.03-.27.8-.25 1.46-.63 1.99-1.12a4.16 4.16 0 0 0 1.15-2.85c.01-.29 0-.59-.03-.89zm11.4-1.09a.55.55 0 0 1-.43.25l-.5.02h-1.72c-.17 0-.33 0-.5-.02a.54.54 0 0 1-.42-.25.68.68 0 0 1-.07-.54c.02-.04 1.38-4.38 1.52-4.58.12-.23.28-.25.32-.25h.02c.05 0 .2.02.33.27.14.18 1.5 4.52 1.51 4.56.05.2.03.4-.06.54m5.04 6.22c.08-.01.14-.1.13-.18v-.01l-5.4-15.36c-.04-.12-.12-.13-.15-.14H20.2c-.03 0-.1.02-.15.14l-5.4 15.35v.02c0 .09.05.17.13.18h2.64c.03 0 .1-.01.15-.13l.95-2.92c.04-.15.15-.36.3-.49.17-.12.38-.18.66-.18h4.27c.28 0 .49.06.65.18.15.13.26.34.3.5l.95 2.91c.04.12.12.13.15.13h2.64m16.5-.21l-5.55-8.48-.08-.13-.09-.15c-.17-.3-.12-.66.14-.97l5.04-5.49a.16.16 0 0 0 .03-.1.16.16 0 0 0-.16-.15H41.1c-.05 0-.1.02-.13.06l-5.13 5.86-.2.21a.47.47 0 0 1-.32.13.37.37 0 0 1-.35-.23 1.11 1.11 0 0 1-.07-.43v-5.44c0-.1-.08-.16-.17-.16h-2.58c-.1 0-.16.07-.16.16v15.36c0 .09.07.16.16.16h2.58c.1 0 .16-.07.17-.16v-4.1c0-.19 0-.37.04-.55.09-.3.21-.44.38-.63l.55-.62.39-.43c.12-.14.26-.28.44-.33.18-.06.37 0 .52.15.06.05.1.12.15.18l.05.07 3.96 6.34c.04.07.1.08.12.08h3.3c.1-.01.15-.1.14-.18l-.01-.03m14.11-2.5h-7c-.2 0-.47 0-.67-.14a.67.67 0 0 1-.27-.53v-2.77c0-.28.13-.5.34-.6.15-.08.33-.09.47-.09h6.25c.1 0 .17-.07.17-.16v-2.17c0-.1-.08-.16-.17-.16h-6.25c-.14 0-.32-.01-.47-.08-.21-.11-.34-.33-.34-.61v-2.29c0-.2.1-.4.27-.52.2-.15.47-.15.66-.15h6.79c.09 0 .16-.07.16-.16v-2.38a.17.17 0 0 0-.16-.16H48.23a.17.17 0 0 0-.13.16v15.36c0 .09.07.16.16.16h10.77c.1 0 .17-.07.17-.16v-2.38c0-.1-.07-.17-.16-.17" fill="#FEFEFE" fill-rule="evenodd"/></svg>