<svg viewBox="0 0 294 26" xmlns="http://www.w3.org/2000/svg"><path d="M7.85 13.74v5.67c0 3.2 0 3.65.38 4.32.35.64 1.12.67 2.43.8.23.03.3.1.3.38 0 .35-.07.39-.33.39a118.9 118.9 0 0 0-9.25 0c-.22 0-.28-.04-.28-.36 0-.35.06-.38.25-.41 1.28-.13 1.89-.13 2.24-.8.39-.74.39-2.15.39-4.32V7.79c0-3.07 0-3.49-.39-4.19-.32-.6-1.12-.64-2.43-.77-.22-.03-.29-.06-.29-.41 0-.39.07-.45.29-.45 2.82.06 5.98.13 8.58.13 2.62 0 5.53-.04 8.35-.13.13 1.63.35 3.74.57 5.47.04.2 0 .29-.32.35-.35.03-.44-.03-.5-.22-.55-1.31-1.35-2.82-2.18-3.43-.96-.7-2.34-1.02-4.96-1.02-1.12 0-2.15.06-2.53.8-.35.67-.32 2.14-.32 3.87v4.77c.51.03 1.25.03 1.79.03 2.05 0 3.55-.25 4.16-.7.7-.55.96-1.31 1.18-2.11.07-.26.1-.36.45-.36.39 0 .42.1.42.39-.03 1.12-.07 2.2-.07 3.33 0 1.18.04 2.56.07 3.7 0 .26-.07.36-.39.36-.35 0-.41-.13-.48-.35-.22-.8-.5-1.83-1.21-2.37-.64-.38-2.11-.77-4.13-.77-.54 0-1.28 0-1.8.03zm27.5 6.79v-4.58c0-1.21-.04-2.11-.17-2.72-.16-.51-.48-.7-1.18-.64l-.83.07c-.32.03-.39.03-.42-.36-.03-.38 0-.41.35-.48 1.25-.28 3.68-.96 5.19-1.47.22 0 .38.13.38.32-.1 2.34-.13 4.13-.13 5.67v4.19c0 1.92 0 2.91.23 3.42.25.48.8.48 1.82.55.2.03.23.12.23.41 0 .32-.04.39-.23.39-1.15-.04-2.46-.1-3.55-.1-1.06 0-2.53.06-3.62.1-.25 0-.32-.07-.32-.39 0-.29.07-.41.3-.41.92-.07 1.43-.1 1.69-.55.32-.54.25-1.57.25-3.42zm1.4-19.1a2.28 2.28 0 0 1 2.11 2.14c0 1.12-1.08 2.17-2.1 2.17-1.13 0-2.22-1.05-2.22-2.17 0-1.12 1.1-2.15 2.21-2.15zM55.96 12.5l-.8.06c-.35.03-.42 0-.45-.35-.03-.35.03-.42.39-.48a45.3 45.3 0 0 0 5.12-1.44c.22 0 .41.13.41.29-.03.9-.1 1.85-.1 3.13.97-1.73 2.31-3.52 4.13-3.52 1.1 0 1.76.42 1.76 1 0 1.27-.96 2.4-1.72 2.4-.7 0-1.16-.71-1.8-.71-.38 0-.83.16-1.47.96-.6.74-.9 1.6-.9 2.82v3.9c0 1.92 0 2.94.23 3.4.26.5.77.5 1.89.6.19 0 .22.06.22.42 0 .28-.06.32-.22.32-1.22-.04-2.56-.1-3.62-.1-1.09 0-2.56.06-3.74.1-.2 0-.26-.04-.26-.32 0-.36.07-.39.26-.42.96-.1 1.47-.1 1.7-.6.28-.55.31-1.54.31-3.4v-4.74c0-1.15-.06-2.01-.25-2.62-.16-.58-.55-.74-1.09-.7zm29.64 6.65l-1.09-.51c-2.33-1.09-3.71-1.86-3.71-4.6 0-1.8 1.5-3.85 5.06-3.85.8 0 1.72.2 2.3.32.64.13 1.28.13 2.11.03.07 1.12.16 2.66.29 3.72 0 .19-.06.25-.35.28-.32.07-.39-.06-.48-.22-.87-1.76-2.21-3.23-3.75-3.23-1.79 0-2.5.96-2.5 2.27 0 .9.71 1.57 2.4 2.27l1.13.48c2.78 1.22 4.38 2.18 4.38 5.03 0 2.2-1.66 4.64-5.63 4.64-1.8 0-3.23-.36-4.54-.9-.3-1-.58-2.46-.7-3.49 0-.22.02-.25.31-.29.32-.03.35-.03.45.2 1.06 2.08 2.82 3.55 4.48 3.55 1.89 0 2.78-1.19 2.78-2.85 0-1.38-1.08-1.95-2.94-2.85zm22.4-7.07l-2.04.03c-.29 0-.35-.06-.35-.45 0-.32.03-.41.38-.44 1-.13 2.11-.7 2.82-1.38a7.18 7.18 0 0 0 1.66-2.27c.1-.26.2-.32.55-.32.38 0 .44.1.44.32-.03 1.05-.1 2.27-.1 3.26 1.45 0 3.2-.03 4.55-.1.13 0 .16.1.13.23l-.35.93c-.03.13-.16.22-.32.22a78.63 78.63 0 0 0-4.07-.13l-.06 8.2c0 1.79.16 2.68.6 3.3.62.76 1.35.86 1.74.86.73 0 1.4-.32 2.04-.87.16-.13.32-.1.52.1.19.19.32.35.06.6a5.1 5.1 0 0 1-3.87 1.67c-1.5 0-2.56-.32-3.36-1.09-.7-.77-1.09-1.76-1.09-3.58 0-1.54.03-2.98.06-4.51l.07-4.58zm50.17-3.36v4a5.15 5.15 0 0 1 4.25-2.56c4.13 0 6.92 3.17 6.92 7.74 0 4.48-2.76 7.9-7.33 7.9-2.3 0-3.2-.95-4.23-1.78-.22-.16-.54-.16-.73 0l-1.41 1.24c-.22.16-.29.2-.64.2-.35 0-.42-.07-.38-.3a89 89 0 0 0 .25-7.06V6.2c0-1.22-.03-2.09-.16-2.76-.13-.54-.51-.67-1.05-.64l-.8.06c-.32.04-.39 0-.42-.38-.03-.35.03-.38.29-.48 1.37-.26 3.68-.83 5.25-1.38.19 0 .35.13.35.26a177 177 0 0 0-.16 7.84zm0 7.14v4.12c0 1.16-.03 1.92.48 2.82.67 1.15 1.57 1.95 2.91 1.95 2.37 0 3.94-2.78 3.94-6.81 0-4-1.76-6.21-3.94-6.21-1.22 0-2.14.64-2.85 1.63-.57.86-.54 1.47-.54 2.5zm28.33 4.67v-4.58c0-1.21-.04-2.11-.16-2.72-.16-.51-.48-.7-1.19-.64l-.83.07c-.32.03-.38.03-.42-.36-.03-.38 0-.41.36-.48 1.24-.28 3.68-.96 5.18-1.47.22 0 .38.13.38.32-.1 2.34-.12 4.13-.12 5.67v4.19c0 1.92 0 2.91.22 3.42.26.48.8.48 1.82.55.2.03.23.12.23.41 0 .32-.03.39-.23.39-1.15-.04-2.46-.1-3.55-.1-1.05 0-2.53.06-3.61.1-.26 0-.32-.07-.32-.39 0-.29.06-.41.28-.41.93-.07 1.44-.1 1.7-.55.32-.54.26-1.57.26-3.42zm1.4-19.1a2.28 2.28 0 0 1 2.12 2.14c0 1.12-1.1 2.17-2.12 2.17-1.12 0-2.2-1.05-2.2-2.17 0-1.12 1.08-2.15 2.2-2.15zm19.98 10.65l-2.05.03c-.29 0-.35-.06-.35-.45 0-.32.03-.41.38-.44 1-.13 2.12-.7 2.82-1.38a7.18 7.18 0 0 0 1.66-2.27c.1-.26.2-.32.55-.32.38 0 .45.1.45.32-.04 1.05-.1 2.27-.1 3.26 1.44 0 3.2-.03 4.54-.1.13 0 .16.1.13.23l-.35.93c-.03.13-.16.22-.32.22a78.63 78.63 0 0 0-4.06-.13l-.07 8.2c0 1.79.16 2.68.61 3.3.6.76 1.34.86 1.73.86.73 0 1.4-.32 2.05-.87.16-.13.32-.1.5.1.2.19.33.35.07.6a5.1 5.1 0 0 1-3.87 1.67c-1.5 0-2.56-.32-3.36-1.09-.7-.77-1.09-1.76-1.09-3.58 0-1.54.03-2.98.07-4.51l.06-4.58zm23.88 0l-2.05.03c-.29 0-.35-.06-.35-.45 0-.32.03-.41.38-.44 1-.13 2.12-.7 2.82-1.38a7.18 7.18 0 0 0 1.66-2.27c.1-.26.2-.32.55-.32.38 0 .45.1.45.32-.04 1.05-.1 2.27-.1 3.26 1.44 0 3.2-.03 4.54-.1.13 0 .16.1.13.23l-.35.93c-.03.13-.16.22-.32.22a78.63 78.63 0 0 0-4.06-.13l-.07 8.2c0 1.79.16 2.68.61 3.3.6.76 1.34.86 1.73.86.73 0 1.4-.32 2.05-.87.16-.13.32-.1.5.1.2.19.33.35.07.6a5.1 5.1 0 0 1-3.87 1.67c-1.5 0-2.56-.32-3.36-1.09-.7-.77-1.09-1.76-1.09-3.58 0-1.54.03-2.98.07-4.51l.06-4.58zm26.18 4.74c-.06.28-.12.6-.12 1.15 0 4.22 2.59 6.33 4.57 6.33 2.08 0 3.27-.7 4.45-2.3.1-.13.22-.16.32-.16s.2.06.29.13c.13.1.25.22.25.32a1 1 0 0 1-.16.35c-1.47 2.27-3.26 3.17-5.92 3.17-4.41 0-7.39-3.27-7.39-7.68 0-4.32 3.07-7.9 7.43-7.9 4.22 0 6.14 3.7 6.24 5.95 0 .25 0 .32-.16.54-.16.2-.3.16-.48.16-3.24-.1-6.47-.13-9.32-.06zm.16-1.16c2.24.07 3.75.07 5.99-.1.25-.02.29-.22.29-.5-.1-1.8-.87-3.88-2.72-3.88-1.73 0-3.08 1.86-3.56 4.48zm25.23-3.16l-.8.06c-.35.03-.42 0-.45-.35-.03-.35.03-.42.38-.48a45.3 45.3 0 0 0 5.12-1.44c.23 0 .42.13.42.29-.03.9-.1 1.85-.1 3.13.96-1.73 2.3-3.52 4.13-3.52 1.09 0 1.76.42 1.76 1 0 1.27-.96 2.4-1.73 2.4-.7 0-1.15-.71-1.79-.71-.38 0-.83.16-1.47.96-.6.74-.9 1.6-.9 2.82v3.9c0 1.92 0 2.94.23 3.4.25.5.77.5 1.89.6.19 0 .22.06.22.42 0 .28-.06.32-.22.32-1.22-.04-2.56-.1-3.62-.1-1.09 0-2.56.06-3.74.1-.2 0-.26-.04-.26-.32 0-.36.06-.39.26-.42.96-.1 1.47-.1 1.7-.6.28-.55.31-1.54.31-3.4v-4.74c0-1.15-.06-2.01-.25-2.62-.16-.58-.55-.74-1.1-.7z" fill="#FFF"/></svg>