<svg viewBox="0 0 189 25" xmlns="http://www.w3.org/2000/svg"><path d="M65.81 10.17v.15c3.54.72 5.52 2.64 5.52 5.58 0 3.99-2.67 6.51-6.87 6.51-2.22 0-3.36-.57-4.41-1.17-.96-.6-1.95-1.56-1.95-2.52 0-.72.78-1.29 2.16-1.29 1.17 0 1.56 1.44 1.92 2.28.33.87.87 1.77 2.28 1.77 2.1 0 3.27-2.19 3.27-5.67 0-2.16-.93-5.1-3.93-4.89-.39.03-1.05.09-1.35.09-.27 0-.42-.06-.3-.6.09-.57.24-.69.57-.69.27 0 .78.09 1.14.09 1.65 0 3.33-1.32 3.33-4.68 0-2.28-.87-4.2-2.52-4.2-1.05 0-1.8.45-2.25 1.35-.21.51-.24.99-.24 1.5 0 .99-.96 1.56-2.25 1.56-.93 0-1.38-.3-1.38-.96 0-1.71 2.34-4.38 6.12-4.38 3.42 0 5.94 1.89 5.94 5.16 0 3.12-2.25 4.41-4.8 5.01zm12.209 8.73h5.31c2.52 0 3.12-.18 3.72-.72.69-.63 1.14-1.32 1.65-2.31.12-.21.21-.24.48-.15s.33.18.3.39c-.36 1.53-1.11 4.2-1.62 5.76-2.04-.06-3.63-.06-5.79-.06-2.19 0-3.96 0-5.94.06-.3 0-.39-.03-.39-.51s.03-.54.18-.84c1.56-2.82 2.73-4.44 5.25-7.68 2.55-3.27 3.99-4.86 3.99-7.65 0-2.49-.87-4.29-2.58-4.29-1.44 0-2.13.81-2.49 1.74-.18.45-.27 1.23-.27 2.19 0 .84-1.14 1.41-2.25 1.41-.84 0-1.44-.24-1.44-1.14 0-1.92 2.43-5.1 6.45-5.1 4.05 0 6.21 2.4 6.21 5.31 0 3.84-2.76 5.28-5.79 8.1-3.33 3.03-4.08 3.96-4.98 5.49zM100.338 0c4.17 0 6.66 4.32 6.66 11.16 0 6.9-2.49 11.25-6.66 11.25-4.32 0-6.72-4.14-6.72-11.07 0-7.02 2.46-11.34 6.72-11.34zm0 .93c-2.58 0-3.21 4.05-3.21 10.32 0 6.24.63 10.23 3.21 10.23 2.49 0 3.15-3.99 3.15-10.23 0-6.27-.6-10.32-3.15-10.32zm14.049 13.72v8.56c0 .5-.44.74-1.22.74-.62 0-.86-.18-.86-.68 0-1.8.12-3.6.12-10.82 0-2.08-.02-4.16-.12-6.26 1.04.5 1.2.58 2.26 1.1h11.3c.74-.84.9-.96 1.06-.96.2 0 .36.12 1.14.76.34.3.46.44.46.6 0 .18-.12.3-.52.6v2.2c0 9.74.06 10.12.06 11.28 0 1-.26 1.46-.94 1.78-.3.14-.98.3-1.32.3-.34 0-.42-.14-.48-.54-.1-.68-.5-1.18-2.36-1.58-.1-.02-.08-.24.02-.24 1.06.04 2.04.06 2.68.06.28 0 .34-.08.34-.36v-6.54h-11.62zm0-.46h4.72V7.75h-4.72v6.44zm11.62 0V7.75h-4.92v6.44h4.92zM2.12 14.61H14.3c1.16-1.44 1.4-1.6 1.54-1.6.18 0 .4.16 1.56 1.1.54.44.7.62.7.76s-.06.2-.26.2H2.16c-.58 0-1.16.04-1.94.12L0 14.45c.84.12 1.48.16 2.12.16zm31.3-2.52v2.9h.44c.48-.6.64-.72.8-.72.2 0 .38.12.94.56.24.18.36.32.36.48 0 .16-.08.26-.44.52v.7c0 1.82.02 3.08.02 3.48 0 .44-.26.64-.86.64-.48 0-.72-.14-.72-.52v-.72H31.3v.74c0 .42-.32.62-.92.62-.48 0-.66-.16-.66-.56 0-.78.04-1.58.04-4.76 0-.4-.02-.82-.02-1.24.78.34.9.38 1.64.78h.44v-2.9H30.1c-.26 0-.52.04-.86.12l-.22-.74c.44.12.76.16 1.08.16h1.72v-.74c0-1.04-.04-1.82-.1-2.36 2.08.22 2.28.42 2.28.62 0 .12-.2.28-.58.46v2.02h.42c.7-.84.94-1 1.08-1 .18 0 .4.16 1.08.72.28.22.44.4.44.54s-.06.2-.26.2h-2.76zm.54 6.86v-3.5H31.3v3.5h2.66zm-5.34 3.66v.48c0 .54-.32.78-1.1.78-.52 0-.74-.2-.74-.7 0-1.62.08-3.26.08-9.78 0-2.36-.02-4.72-.12-7.1 1.04.42 1.18.5 2.06 1.02h7.78c.7-.8.86-.92 1.02-.92.2 0 .36.12 1.12.78.34.32.46.46.46.62 0 .2-.18.36-.66.64v2.4c0 6.38.1 10.76.1 12.22 0 .52-.34.78-1.04.78-.56 0-.8-.2-.8-.64v-.58h-8.16zm8.16-.46V7.77h-8.16v14.38h8.16zM22.9 18.03v-4.7c-.6.86-1.24 1.66-1.9 2.34-.08.08-.24-.14-.2-.22 1.16-2.1 2.08-4.42 2.64-6.6.3-1.12.5-2.2.58-3.22 2.22.6 2.46.72 2.46 1 0 .22-.08.28-.62.48-.48 1.62-1.2 3.28-2.06 4.78 1.28.2 1.46.26 1.46.5 0 .16-.12.28-.54.46v10.36c0 .58-.34.84-1.08.84-.64 0-.88-.2-.88-.76 0-.52.14-2.1.14-5.26zM142.248 7.032a.29.29 0 0 1 .162-.054c.054 0 .09.036.09.09s-.018.09-.054.126c-2.43 2.466-3.492 5.274-3.492 8.478 0 3.204 1.062 6.012 3.474 8.46.054.054.09.09.09.144 0 .054-.036.108-.09.108a.29.29 0 0 1-.162-.054c-1.512-1.152-2.664-2.466-3.474-3.96a9.772 9.772 0 0 1-1.17-4.698c0-1.62.36-3.186 1.17-4.698.81-1.494 1.962-2.808 3.456-3.942zm6.803 8.154v.9c0 3.51.036 5.778.036 7.2 0 .468-.342.666-.972.666-.504 0-.72-.162-.72-.54 0-.702.144-4.068.18-7.056-.846 1.764-1.782 2.97-2.736 3.744-.072.054-.216-.072-.162-.144 1.242-2.07 2.142-4.41 2.574-6.714h-1.242c-.27 0-.522.036-.882.108l-.198-.666c.414.108.738.144 1.044.144h1.512v-2.88c-.738.126-1.512.234-2.34.288-.09 0-.126-.144-.036-.18 1.476-.486 2.682-1.026 3.654-1.638.486-.306.9-.63 1.278-.972 1.296.954 1.566 1.188 1.566 1.368 0 .234-.288.306-.792.18-.558.234-1.134.432-1.764.594v3.24h.414c.522-.792.738-.936.864-.936.162 0 .36.126.882.666.216.216.342.378.342.504s-.054.18-.234.18h-2.268v1.584c1.53.504 2.214 1.116 2.214 1.944 0 .468-.342.828-.792.828-.306 0-.504-.198-.576-.558-.18-.864-.396-1.35-.846-1.854zm8.802.99v5.544c0 .378.09.432.99.432.612 0 .864-.036 1.116-.306.324-.36.594-1.062.936-2.196.018-.09.252-.072.252.018a41.495 41.495 0 0 0-.126 1.854c0 .162.072.252.342.396.378.198.45.306.45.63 0 .396-.306.666-.936.846-.522.126-1.278.216-2.268.216-1.71 0-2.322-.378-2.322-1.458 0-.18.036-.378.036-1.17v-4.806h-2.988v.36c0 .432-.342.63-.954.63-.45 0-.684-.162-.684-.522 0-.936.054-2.664.054-3.978 0-.828-.018-1.404-.054-2.178.828.36.99.414 1.782.846h2.934c.36-.648.684-1.404.972-2.178.216-.576.378-1.152.504-1.674 1.818.81 2.088.954 2.088 1.188 0 .216-.18.27-.72.288a19.344 19.344 0 0 1-2.142 2.376h1.314c.558-.666.738-.828.9-.828.198 0 .432.198.882.612.288.252.414.414.414.558 0 .144-.126.27-.468.504v.684c0 1.44.072 2.232.072 3.582 0 .45-.324.648-1.008.648-.432 0-.666-.162-.666-.504v-.414h-.702zm.702-.414v-4.014h-5.22v4.014h5.22zm-3.402-5.814c0 .63-.396 1.116-.918 1.116-.468 0-.684-.342-.774-1.116-.09-.738-.504-1.494-.954-1.998-.054-.072.054-.234.144-.198 1.656.612 2.502 1.332 2.502 2.196zm.612 7.326c0 .144-.108.27-.522.396-.45 3.402-2.016 5.148-5.508 6.138-.09.018-.162-.198-.09-.234 2.214-1.188 3.402-2.628 3.798-4.86.108-.63.18-1.314.18-2.07 1.962.342 2.142.396 2.142.63zm15.57-8.622h2.52c.504-.54.648-.648.792-.648.18 0 .324.108.756.486.18.162.288.288.288.432 0 .216-.324.468-.9.684.198 2.358.846 4.32 1.926 5.832 1.026 1.458 2.448 2.538 4.266 3.222.09.036.09.18 0 .216-.612.288-.882.63-1.206 1.476-.108.342-.144.396-.288.396s-.432-.18-.774-.486c-.504-.414-1.116-1.08-1.566-1.692a11.244 11.244 0 0 1-2.178-5.094c-.792 2.952-2.952 5.49-5.94 6.984-.072.036-.162-.162-.09-.216 2.97-2.61 4.626-6.21 5.022-11.178h-2.574a7.804 7.804 0 0 0-.99.126l-.198-.738c.468.162.72.198 1.134.198zm-3.006 1.692c0 .612-.36 1.08-.99 1.08-.414 0-.63-.216-.882-1.116-.198-.684-.612-1.566-1.152-2.106-.072-.072.054-.18.144-.162 2.106.522 2.88 1.386 2.88 2.304zm0 5.49v4.05c.54.936.882 1.242 1.71 1.53.882.252 2.232.396 4.086.396 2.232 0 3.438-.072 6.93-.432.09-.018.072.144 0 .18-.522.288-.666.54-.738 1.368-.036.216-.144.288-.378.306-.972.09-3.078.126-4.374.126-3.168 0-4.986-.252-6.138-1.098-.774-.54-1.242-1.332-1.602-2.466-.378.684-1.206 1.89-1.998 2.88.054.666-.054.81-.306.81-.27 0-.648-.648-1.332-2.178a7.064 7.064 0 0 0 1.278-.576 8.982 8.982 0 0 0 1.188-.774V15.33h-1.242a3.03 3.03 0 0 0-.972.162l-.198-.72c.468.108.81.144 1.17.144h1.152c.612-.738.756-.846.9-.846.18 0 .324.108.99.666.306.252.414.378.414.522 0 .126-.054.18-.54.576zm15.083-8.802c1.494 1.134 2.646 2.448 3.456 3.942a9.772 9.772 0 0 1 1.17 4.698c0 1.62-.36 3.186-1.17 4.698-.81 1.494-1.962 2.808-3.474 3.96a.29.29 0 0 1-.162.054c-.054 0-.09-.054-.09-.108s.036-.09.09-.144c2.412-2.448 3.474-5.256 3.474-8.46 0-3.204-1.062-6.012-3.492-8.478a.163.163 0 0 1-.054-.126c0-.054.036-.09.09-.09a.29.29 0 0 1 .162.054z" fill="#FFF"/></svg>