<svg viewBox="0 0 601 601" xmlns="http://www.w3.org/2000/svg"><path d="M599.99 300.27c0 165.53-134.19 299.72-299.72 299.72C134.74 599.99.55 465.79.55 300.27.55 134.74 134.74.54 300.27.54c165.53 0 299.72 134.2 299.72 299.73zM165.33 165.33V32.57M146.05 43.2v102.85m-19.27-19.28V55.83M107.5 107.5V70.76m173.51 210.25V1.18m-19.28 1.86v258.7m-19.28-19.29V6.15M203.9 203.9V16.4m-19.29 7.3v160.9m38.56 38.57V10.6M300.27.55v299.72m-190.83 0l-93.88-93.88m-6.11 21.15l72.73 72.73m-27.27 0L4.75 250.1m22.9 50.17L1.68 274.3m271.36 25.97L75.17 102.4m-12.32 14.94l182.92 182.93m-27.27 0L51.42 133.17m112.55 167.1L31.41 167.7m-8.49 18.78l113.79 113.79m54.53 0L40.92 149.95m47.41-61.62l211.94 211.94M165.33 435.2H32.57m10.63 19.28h102.85m-19.28 19.28H55.83m51.67 19.28H70.76m210.25-173.52H1.18m1.86 19.28h258.7m-19.29 19.28H6.15m197.75 38.56H16.4m7.3 19.28h160.9m38.57-38.56H10.6M.55 300.27h299.72m0 190.83l-93.88 93.87m21.15 6.11l72.73-72.72m0 27.26L250.1 595.8m50.17-22.91l-25.97 25.97m25.97-271.36L102.39 525.37m14.95 12.32l182.93-182.93m0 27.27l-167.1 167.1m167.1-112.57L167.7 569.13m18.78 8.48l113.79-113.79m0-54.52L149.95 559.6m-61.62-47.4l211.94-211.93M435.2 435.2v132.77m19.28-10.64V454.48m19.28 19.28v70.94m19.28-51.66v36.72M319.52 319.52v279.84m19.28-1.86V338.8m19.28 19.28v236.3m38.56-197.74v187.48m19.28-7.28V415.92m-38.56-38.56v212.58m-77.09 10.05V300.27m190.83 0l93.87 93.88m6.11-21.15l-72.72-72.73m27.26 0l50.17 50.16m-22.9-50.16l25.97 25.97M327.5 300.27l197.87 197.87m12.32-14.94L354.76 300.26m27.27.01l167.1 167.09M436.56 300.27l132.57 132.57m8.48-18.79L463.83 300.27m-54.53 0l150.3 150.32m-47.4 61.61L300.27 300.27M435.2 165.33h132.77m-10.64-19.28H454.48m19.28-19.28h70.94m-51.66-19.27h36.72M319.52 281.01h279.84m-1.86-19.28H338.8m19.28-19.28h236.3M396.64 203.9h187.48m-7.28-19.29H415.92m-38.56 38.56h212.58m10.05 77.1H300.27m0-190.83l93.88-93.88M373 9.45l-72.73 72.73m0-27.27l50.16-50.16m-50.16 22.9l25.97-25.97m-25.97 271.36L498.14 75.17M483.2 62.85L300.26 245.77m.01-27.27l167.1-167.09m-167.1 112.56L432.84 31.41m-18.79-8.49L300.27 136.71m0 54.53L450.59 40.92m61.61 47.41L300.27 300.27" stroke="#EBF3D8" fill="none"/></svg>