<svg viewBox="0 0 285 32" xmlns="http://www.w3.org/2000/svg"><g fill="none" fill-rule="evenodd"><path d="M12.752 21.486v1.496c-.034 2.142-.068 2.55.272 3.332.272.68 1.36.714 2.482.816.17 0 .272.068.272.476s-.068.442-.272.442c-1.258-.068-2.856-.17-4.114-.17-1.292 0-2.958.102-4.216.17-.272 0-.34-.034-.34-.442 0-.408.102-.442.34-.476.884-.102 2.04-.17 2.278-.68.374-.714.408-1.598.442-3.4v-1.53H4.354c-1.156 0-2.074.034-2.992.034-.306 0-.408-.102-.408-.884 0-.748 0-.782.34-1.36a530.09 530.09 0 0 1 9.18-15.198l2.244-.612c.136 0 .238.068.238.34-.068 2.72-.068 5.44-.136 8.568l-.068 7.82c1.156 0 2.312-.068 3.502-.17.17 0 .238.068.204.238l-.272 1.054c-.034.17-.102.204-.306.204-.986-.068-2.142-.068-3.128-.068zm-2.856-1.224l.068-7.242c.034-2.516.068-3.876.17-6.154-2.584 4.182-5.236 8.534-7.65 12.886-.204.34-.136.51.272.51h7.14zm13.17 11.628l-1.291-.544L34.695.27l1.292.544-12.92 31.076zM45.622 7.002l-1.292.408c-.34.102-.476.068-.612-.374-.102-.408-.068-.476.34-.612A53.648 53.648 0 0 0 50.619 3.5c.34 0 .544.204.544.408-.034 2.686-.136 4.624-.136 7.378v10.438c0 3.366.034 3.774.374 4.454.374.68 1.632.714 3.026.85.238.034.306.136.306.51 0 .408-.068.476-.306.476-1.496-.068-3.332-.136-4.76-.136-1.632 0-3.298.068-4.896.136-.272 0-.34-.068-.34-.476 0-.374.102-.476.34-.51 1.36-.102 2.55-.136 2.958-.85.374-.748.374-2.21.374-4.454V9.688c0-1.224-.102-2.108-.374-2.516-.17-.238-.408-.408-.884-.408-.306 0-.714.068-1.224.238zm21.194.136l-.578 6.494c-.034.51-.102 1.088-.17 1.768 1.19-1.394 2.72-2.074 4.794-2.074 3.978 0 6.596 2.89 6.596 7.276 0 4.454-2.686 8.024-7.344 8.024-1.7 0-3.298-.476-4.386-1.156-1.088-.612-2.244-1.666-2.244-2.788 0-.714.816-1.394 2.108-1.394 1.088 0 1.496 1.632 1.904 2.448.442.986 1.292 1.836 2.618 1.836 2.822 0 4.012-3.026 4.012-6.936 0-3.842-1.904-6.052-4.046-6.052-1.972 0-3.162.952-4.08 2.448-.204.34-.408.374-.952.17-.442-.204-.442-.374-.374-.68.068-.272.102-.646.136-.952l.918-10.608c0-.17.034-.272.204-.442.17-.136.238-.204.408-.204 1.292.034 3.196.034 4.93.034 1.292 0 3.264-.034 5.44-.17.204 0 .272.102.272.306l-.85 2.482c-.034.136-.204.238-.34.238-1.394-.034-2.346-.068-3.672-.068h-5.304zm23.365 8.773v.39h-2.21v11.518h2.21v.39H87.05V15.911h3.132zm2.08 5.603l-.312.026c-.13.013-.156 0-.17-.143-.012-.156.014-.169.144-.195a25.745 25.745 0 0 0 2.08-.572c.078 0 .142.052.142.104-.012.377-.025.767-.025 1.092.415-.793 1.156-1.235 1.832-1.235.742 0 1.56.325 1.86 1.287.48-.832 1.13-1.287 2.028-1.287.403 0 1.846.208 1.846 1.859 0 .481-.014 1.131-.014 1.443v.897c0 .78 0 1.183.092 1.378.104.195.377.208.728.247.078.013.103.026.103.143 0 .13-.013.156-.103.156-.456 0-.989-.039-1.43-.039-.456 0-1.001.026-1.508.039-.105 0-.117-.026-.117-.156s.026-.143.117-.143c.364-.039.572-.039.675-.247.105-.208.105-.624.105-1.378v-1.768c0-.377.013-.715-.144-1.118-.142-.39-.415-.65-.91-.65-.493 0-.87.325-1.117.741-.234.377-.273.611-.273 1.014v1.781c0 .78 0 1.183.09 1.378.091.195.352.208.742.247.078.013.09.039.09.156 0 .117-.012.143-.103.143-.495-.013-1.014-.039-1.43-.039-.468 0-1.001.026-1.482.039-.104 0-.117-.026-.117-.156 0-.117.025-.143.117-.143.35-.026.559-.039.663-.247.104-.208.104-.624.104-1.378v-1.768c0-.377.026-.715-.143-1.118-.157-.403-.443-.65-.924-.65-.48 0-.844.325-1.091.741-.234.39-.287.624-.287 1.04v1.755c0 .78-.013 1.183.079 1.378.09.208.364.208.728.247.078.013.103.039.103.169 0 .117-.025.13-.103.13-.456-.013-1.001-.039-1.444-.039-.454 0-.974.026-1.456.039-.09 0-.116-.026-.116-.143 0-.117.026-.143.117-.156.364-.039.572-.039.689-.247.117-.208.09-.624.09-1.378v-1.924c0-.468 0-.845-.09-1.079-.078-.221-.208-.299-.455-.273zm15.066-.923c1.767 0 3.041 1.378 3.041 3.172 0 1.742-1.208 3.159-3.041 3.159-1.794 0-3.03-1.365-3.03-3.133 0-1.742 1.236-3.198 3.03-3.198zm0 .39c-1.001 0-1.508 1.222-1.508 2.782 0 1.625.48 2.769 1.508 2.769 1 0 1.52-1.235 1.52-2.769 0-1.651-.48-2.782-1.52-2.782zm5.38.52l-.35.026c-.13.013-.17 0-.182-.143-.013-.143.013-.169.156-.195a17.575 17.575 0 0 0 2.053-.572c.079 0 .157.052.157.104-.026.364-.026.767-.026 1.105.454-.78 1.183-1.235 2.014-1.235.39 0 1.899.208 1.899 1.859 0 .481-.013 1.131-.013 1.443v.897c0 .78.013 1.183.103 1.378.091.195.3.208.677.247.078.013.104.039.104.156 0 .117-.014.143-.105.143-.48-.013-.975-.039-1.416-.039-.456 0-.989.026-1.483.039-.09 0-.103-.026-.103-.143 0-.13.026-.156.104-.156.35-.026.558-.039.662-.247.105-.208.105-.624.105-1.378v-1.768c0-.377.025-.715-.156-1.118-.17-.39-.442-.65-.95-.65-.467 0-.922.325-1.17.741-.234.39-.273.624-.273 1.04v1.755c0 .78-.012 1.183.079 1.378.103.208.311.208.715.247.09.013.117.026.117.156s-.026.143-.117.143c-.456-.013-.963-.039-1.392-.039-.467 0-1 .026-1.494.039-.078 0-.091-.026-.091-.143 0-.13.025-.143.09-.156.377-.039.585-.039.69-.247.103-.208.09-.624.09-1.378v-1.924c0-.481 0-.858-.09-1.092-.079-.221-.183-.286-.404-.273zm8.112-5.59h3.133v12.298h-3.133v-.39h2.21V16.301h-2.21v-.39zm137.698 0v.39h-2.21v11.518h2.21v.39h-3.133V15.911h3.133zm2.43 5.434l-.832.013c-.118 0-.144-.026-.144-.182 0-.13.014-.169.156-.182.404-.052.858-.286 1.144-.559.26-.221.546-.624.676-.923.04-.104.079-.13.221-.13.156 0 .183.039.183.13-.014.429-.04.923-.04 1.326.586 0 1.3-.013 1.847-.039.051 0 .065.039.051.091l-.142.377c-.014.052-.065.091-.13.091a31.943 31.943 0 0 0-1.651-.052l-.026 3.328c0 .728.065 1.092.247 1.339a.872.872 0 0 0 .702.351c.298 0 .572-.13.832-.351.065-.052.13-.039.207.039.079.078.13.143.026.247-.39.39-.844.676-1.572.676-.611 0-1.04-.13-1.365-.442-.286-.312-.442-.715-.442-1.456 0-.624.013-1.209.026-1.833l.026-1.859zm11.257 5.031l.246.013c.118.013.13.039.13.156 0 .13-.025.143-.116.143-.481.026-1.508.143-2.002.221a.168.168 0 0 1-.156-.156c.026-.377.038-.65.038-1.014-.454.806-1.183 1.183-1.95 1.183-.48 0-1.95-.182-1.95-1.846 0-.494.026-.897.026-1.391v-1.027c0-.481 0-.767-.052-1.001-.051-.234-.182-.351-.402-.338l-.339.013c-.13 0-.156 0-.168-.143-.014-.143 0-.182.13-.195a28.151 28.151 0 0 0 2.092-.364c.065 0 .156.065.156.13-.038.923-.051 1.69-.051 2.275V24.4c0 .455-.014.923.142 1.248.17.416.52.624.95.624.493 0 .884-.312 1.144-.754.22-.364.272-.611.272-1.027v-1.833c0-.481-.025-.741-.077-.988-.053-.234-.17-.364-.404-.351l-.35.026c-.117.013-.143-.013-.156-.156-.014-.143 0-.169.142-.182a28.09 28.09 0 0 0 2.041-.377c.065 0 .143.065.143.117-.038.949-.038 1.703-.038 2.288v1.794c0 .845 0 1.053.078 1.287.077.221.233.247.48.26zm3.56-3.107a1.937 1.937 0 0 0-.052.468c0 1.716 1.054 2.574 1.86 2.574.844 0 1.325-.286 1.807-.936a.158.158 0 0 1 .13-.065c.038 0 .077.026.116.052.053.039.105.091.105.13a.403.403 0 0 1-.066.143c-.597.923-1.325 1.287-2.404 1.287-1.794 0-3.003-1.326-3.003-3.12 0-1.755 1.248-3.211 3.015-3.211 1.716 0 2.497 1.508 2.536 2.418 0 .104 0 .13-.065.221-.065.078-.118.065-.195.065a74.567 74.567 0 0 0-3.784-.026zm.065-.468c.91.026 1.522.026 2.431-.039.105-.013.118-.091.118-.208-.04-.728-.351-1.573-1.106-1.573-.702 0-1.248.754-1.442 1.82zm5.654-6.89h3.134v12.298h-3.134v-.39h2.21V16.301h-2.21v-.39zm-100.231 5.575v1.496c-.034 2.142-.068 2.55.272 3.332.272.68 1.36.714 2.482.816.17 0 .272.068.272.476s-.068.442-.272.442c-1.258-.068-2.856-.17-4.114-.17-1.292 0-2.958.102-4.216.17-.272 0-.34-.034-.34-.442 0-.408.102-.442.34-.476.884-.102 2.04-.17 2.278-.68.374-.714.408-1.598.442-3.4v-1.53h-5.542c-1.156 0-2.074.034-2.992.034-.306 0-.408-.102-.408-.884 0-.748 0-.782.34-1.36a530.09 530.09 0 0 1 9.18-15.198l2.244-.612c.136 0 .238.068.238.34-.068 2.72-.068 5.44-.136 8.568l-.068 7.82c1.156 0 2.312-.068 3.502-.17.17 0 .238.068.204.238l-.272 1.054c-.034.17-.102.204-.306.204-.986-.068-2.142-.068-3.128-.068zm-2.856-1.224l.068-7.242c.034-2.516.068-3.876.17-6.154-2.584 4.182-5.236 8.534-7.65 12.886-.204.34-.136.51.272.51h7.14zm13.17 11.628l-1.291-.544L203.195.27l1.292.544-12.92 31.076zm27.043-16.864v.136c3.672.714 5.848 2.924 5.848 6.222 0 4.42-2.924 7.242-7.31 7.242-2.142 0-3.536-.612-4.658-1.326-1.02-.646-2.108-1.666-2.108-2.754 0-.816.85-1.462 2.176-1.462 1.02 0 1.428 1.666 1.836 2.55.408.952 1.156 1.904 2.754 1.904 2.516 0 3.978-2.38 3.978-6.256 0-2.38-1.02-5.712-4.624-5.474-.408.034-1.088.102-1.394.102-.34 0-.476-.034-.374-.646.136-.612.34-.748.68-.748s.782.102 1.156.102c1.904 0 3.978-1.564 3.978-5.236 0-2.55-.986-4.658-3.162-4.658-1.156 0-2.142.51-2.618 1.496-.272.578-.34 1.122-.34 1.7 0 .986-1.02 1.666-2.278 1.666-.782 0-1.224-.34-1.224-1.02 0-1.972 2.584-4.896 6.46-4.896 3.502 0 6.29 2.108 6.29 5.712 0 3.468-2.516 4.964-5.066 5.644zm20.65-11.356c4.284 0 6.97 4.862 6.97 12.41 0 7.684-2.618 12.546-6.97 12.546-4.454 0-7.038-4.658-7.038-12.342 0-7.786 2.686-12.614 7.038-12.614zm0 1.054c-2.924 0-3.706 4.522-3.706 11.458 0 6.97.782 11.39 3.706 11.39 2.856 0 3.638-4.42 3.638-11.39 0-6.936-.748-11.458-3.638-11.458z" fill="#FFF" fill-rule="nonzero"/><path d="M136 18h20.62" stroke="#FFF" stroke-linecap="square"/></g></svg>