<svg viewBox="0 0 95 531" xmlns="http://www.w3.org/2000/svg" xmlns:xlink="http://www.w3.org/1999/xlink"><defs><path id="a" d="M.8.34h30v29.44H.8z"/><path id="c" d="M.42.22H8.6V8H.43z"/><path id="e" d="M0 .71h29.74v29.12H0z"/></defs><g fill="none" fill-rule="evenodd"><g transform="translate(63 -.34)"><mask id="b" fill="#fff"><use xlink:href="#a"/></mask><path d="M20.1 14.93c.97-.9 1.13-1.02 1.33-1.02.22 0 .41.13 1.7 1.15.45.35.58.58.58.77 0 .42-.35.54-1.41.58a23.93 23.93 0 0 1-4.51 2.17c.22.1.29.2.29.35 0 .3-.23.48-1.13.84v.64H25c1.48-1.76 1.74-1.92 1.93-1.92.2 0 .45.16 1.97 1.4.74.58.87.8.87 1 0 .19-.1.32-.42.32h-12.4v1.44c0 3.23.1 3.68.1 4.32 0 1.02-.39 1.63-.94 2.1-.48.4-1.32.71-2.12.71-.52 0-.58-.19-.7-.77-.14-.86-1.2-1.28-3.74-1.82-.2-.03-.2-.48 0-.45 1.93.2 3.22.26 4.57.26.35 0 .48-.16.48-.51V21.2H4.14c-.74 0-1.29.03-2.16.19l-.32-1.22c.96.16 1.58.23 2.41.23H14.6c0-1.16 0-1.48-.13-2.47 1.13.16 1.9.3 2.45.39a13 13 0 0 0 3.06-2.6H9.87c-.77 0-1.29.07-2.2.23l-.31-1.25c.96.2 1.51.22 2.44.22h10.3zm-3.08-6.75c1.83 1.7 3.6 2.88 5.63 3.75a26.06 26.06 0 0 0 8.05 2.05c.13 0 .13.28 0 .31-.77.23-1.03.52-1.39 1.44-.19.61-.32.7-.6.7-.33 0-.81-.12-1.49-.38a28.24 28.24 0 0 1-5.7-2.9 20.83 20.83 0 0 1-4.86-4.42c.1 2.81.16 3.77.16 4.16 0 .73-.48 1.02-1.45 1.02-.7 0-.96-.26-.96-.86 0-.68.03-1.6.13-3.97-3.58 3.94-7.99 6.33-13.5 7.77-.22.07-.35-.41-.15-.5 4.6-1.86 8.82-4.62 11.52-8.17H4.04c-.7 0-1.19.07-2.06.2l-.32-1.22c.96.2 1.54.22 2.35.22h10.46V4.41c-3.31.35-6.86.51-10.53.51-.22 0-.25-.48-.03-.51 6.47-.58 12.01-1.54 15.81-2.75a11.6 11.6 0 0 0 3-1.32c2.02 1.41 2.57 1.92 2.57 2.21 0 .39-.55.51-1.83.26a53.2 53.2 0 0 1-6.73 1.34v3.23h8.62c1.42-1.7 1.68-1.82 1.87-1.82.23 0 .45.13 1.93 1.34.68.58.84.8.84 1 0 .19-.13.28-.45.28H17.02z" fill="#0E0E0E" mask="url(#b)"/></g><path d="M83.24 60.8c0 3.84.03 7.87.03 11.26 0 .74-.45 1.06-1.42 1.06-.7 0-.97-.2-.97-.87 0-1.72.1-7.51.1-13.56 0-3.97-.03-5.06-.16-6.6 1.13.49 1.61.7 2.67 1.29h5.28c.97-1.1 1.13-1.22 1.32-1.22.23 0 .42.13 1.42.96.52.45.64.64.64.83 0 .26-.12.42-.87.9v3.17c0 7.52.1 8.25.1 9.05 0 1.19-.48 1.73-1.22 2.18a3.6 3.6 0 0 1-1.61.38c-.36 0-.49-.16-.55-.67-.1-.77-.51-1.22-2.87-1.73-.16-.03-.16-.41 0-.41 1.55.1 2.61.16 3.39.16.38 0 .51-.13.51-.52V54.18h-5.8v6.62zm5.63-13.38c1.26-1.56 1.48-1.72 1.67-1.72.23 0 .46.16 1.9 1.3.65.52.78.71.78.9 0 .2-.1.32-.42.32h-8.21c1.8.87 2.67 1.76 2.67 2.85 0 .77-.58 1.38-1.26 1.38-.6 0-.8-.26-1.03-1.44a5.46 5.46 0 0 0-1.25-2.79H81.5a18.52 18.52 0 0 1-3.8 3.88c-.13.1-.42-.13-.32-.26a20.75 20.75 0 0 0 3.02-5.5c.39-1.06.68-2.02.74-2.79 1.97.55 3.16 1.03 3.16 1.41 0 .29-.3.51-1.26.64a24.3 24.3 0 0 1-1.03 1.82h6.86zm-19.6 14.53h6.14v-3.61h-6.15v3.61zm0-4.41h6.14V54.2h-6.15v3.33zm0 11.42c1.99-.26 4.02-.67 5.95-1.22-.48-.99-1.2-1.95-2.1-2.84-.09-.1.1-.32.23-.26 3.16 1.38 5.12 3.52 5.12 5.31 0 .8-.55 1.44-1.22 1.44-.74 0-1-.51-1.32-1.86-.1-.38-.23-.76-.39-1.15a46.84 46.84 0 0 1-9.34 3.27c-.19.8-.35 1.02-.64 1.02-.32 0-.61-.35-1.29-3.26 1.13.03 1.87-.04 2.8-.13v-9.5c0-3.04 0-5.38-.13-7.65 1.13.48 1.55.7 2.61 1.28h5.6c.97-1.06 1.13-1.19 1.32-1.19.23 0 .4.13 1.36.93.48.42.6.6.6.8 0 .23-.12.39-.86.87v1.95c0 4.1.1 5.76.1 6.27 0 .67-.42 1-1.32 1-.62 0-.94-.23-.94-.78v-.5h-6.15v6.2zm5.79-21.54c1.1-1.34 1.32-1.5 1.51-1.5.23 0 .45.16 1.64 1.18.49.42.68.61.68.8 0 .2-.1.32-.45.32H72c1.9.93 2.77 1.96 2.77 3.04 0 .7-.58 1.35-1.23 1.35-.64 0-.87-.26-1.06-1.44a6.22 6.22 0 0 0-1.22-2.95h-1.77a20.6 20.6 0 0 1-5.03 5c-.19.12-.54-.2-.38-.36a21.98 21.98 0 0 0 4.09-6.24c.51-1.12.87-2.17 1.06-3.13 2.35.7 3.25 1.09 3.25 1.47 0 .32-.32.51-1.35.64-.35.64-.7 1.25-1.1 1.82h5.03zm-4.09 49.12a9.94 9.94 0 0 0-2.8 6.92c0 1.37.25 2.17.7 2.97.36.64.88 1.09 1.52 1.09.68 0 1.32-.58 2.25-1.83 1.9-2.5 3.67-5.72 4.6-8.31.4-1.06.46-1.86.46-2.53 0-.77-.26-1.22-.52-1.47-2.86.48-4.9 1.85-6.21 3.16m8.11-.76c0 1.02-.42 2.62-.83 3.74a32.13 32.13 0 0 1-4.6 8.29c-.91 1.15-1.9 2.08-3.26 2.08-.94 0-1.74-.42-2.42-1.28-.9-1.12-1.48-2.5-1.48-4.74a11.6 11.6 0 0 1 3.03-7.55c2.1-2.27 5.6-4.2 10.3-4.2 3.32 0 5.9 1.2 7.47 2.47a9.11 9.11 0 0 1 3.58 7.27c0 3.61-1.39 5.66-3.48 7.48-2.38 2.05-6.8 3.4-10.72 3.59-.23 0-.45-.2-.45-.39 0-.25.16-.35.58-.45 3.34-.64 6.76-2.1 8.75-4.06 1.74-1.76 2.9-3.8 2.9-6.62 0-1.86-.7-4.51-2.7-6.11a9.36 9.36 0 0 0-6-2.08c-.67 0-1.15 0-1.7.06a3.73 3.73 0 0 1 1.03 2.5m3.19 39.36c-.8.99-1.7 1.92-2.74 2.65 2.22.42 3.54 1.38 3.54 2.53 0 .67-.45 1.22-1 1.22-.5 0-.9-.26-1.15-.96a5.1 5.1 0 0 0-1.8-2.5c-.87.64-1.87 1.22-3.06 1.8-.17.09-.42-.26-.26-.4a19.28 19.28 0 0 0 5.28-6.42c.45-.84.77-1.63.93-2.4 2.58.77 3.19 1.05 3.19 1.4 0 .3-.32.45-1.26.61-.35.61-.74 1.15-1.1 1.67h4.94c1-1.03 1.15-1.12 1.35-1.12.22 0 .45.1 1.58 1.15.51.48.6.67.6.86 0 .29-.25.45-1.35.77-3.5 5.7-7.75 8.93-14.13 10.88-.2.06-.32-.35-.16-.45 5.5-2.75 9.08-5.89 12.14-11.3h-5.54zm2.77 11.3a25 25 0 0 1-2.7 2.65c2.12.5 3.44 1.6 3.44 2.72 0 .73-.45 1.3-1.06 1.3-.58 0-.9-.22-1.13-.98a5.43 5.43 0 0 0-1.64-2.72 26.46 26.46 0 0 1-7.05 3.9c-.23.1-.49-.32-.3-.41 3.52-1.96 7-4.97 9.02-8a13.4 13.4 0 0 0 1.61-2.85c2.29.8 3.03 1.15 3.03 1.47 0 .41-.36.57-1.32.64-.39.51-.8 1-1.2 1.47h4.74c1.06-1.12 1.22-1.22 1.45-1.22.2 0 .38.1 1.6 1.16.46.44.56.64.56.83 0 .32-.2.48-1.1.8-4.12 7.2-9.24 10.81-18.25 12.64-.23.03-.42-.42-.2-.48 7.8-2.56 12.82-6.75 16.04-12.93h-5.54zm-14-3.14c2.6.83 4.11 2.27 4.11 3.42 0 .83-.48 1.31-1.09 1.31-.42 0-.74-.22-.97-.93a7.02 7.02 0 0 0-2.06-3.2v3.88c0 4.7.07 9.47.07 11.26 0 .67-.49 1.02-1.48 1.02-.65 0-.97-.25-.97-.83 0-1.02.26-5.25.35-13.66-1.54 3.26-2.92 5.34-5.28 7.58-.12.13-.48-.13-.38-.29a35.01 35.01 0 0 0 5.25-11.9H66.3c-.61 0-1.03.06-1.8.2l-.32-1.22c.83.19 1.35.22 2.06.22h2.6v-5.34c-1.28.28-2.7.5-4.28.67-.2.03-.32-.35-.13-.42 2.7-.73 5.09-1.85 6.96-2.91a9.99 9.99 0 0 0 1.93-1.4c1.96 1.34 2.38 1.69 2.38 2 0 .3-.32.62-1.48.3-1 .48-2.06.86-3.19 1.21v5.89h1.23c1.06-1.31 1.28-1.44 1.48-1.44.22 0 .45.13 1.58 1.09.45.41.6.64.6.86 0 .2-.09.29-.41.29h-4.48v2.34zm1.83 47.16c3.57-2.9 6.63-3.68 9.05-3.68 1.67 0 3.18.39 4.54 1.16a5.87 5.87 0 0 1 3.12 5.11c0 3.1-1.84 5.22-4.7 6.76-3 1.6-7.57 2.27-10.08 2.3-.55 0-.87 0-1.06-.03-.36-.03-.48-.2-.48-.42 0-.29.19-.45.64-.5 2.57-.3 6.08-.94 8.98-2.57 2.32-1.25 4.12-3.26 4.12-6.02a4.2 4.2 0 0 0-1.64-3.48 6.4 6.4 0 0 0-3.93-1.1c-3.67 0-6.82 2.18-9.66 4.78-.77.7-1.41 1.53-1.9 2.17-.29.45-.64.67-1 .67-.6 0-1.02-.7-1.02-1.44 0-.57.25-1.05.8-1.56.2-.2.7-.58 1.22-1.1 1.74-1.78 3.74-3.77 5.83-6.1 2.03-2.24 3.48-3.97 5.6-6.66.13-.16.2-.29.2-.48 0-.13-.13-.22-.3-.22-.15 0-.31.03-.5.1-.56.15-2.55.95-4.1 1.6-.93.38-1.28.57-1.6.8-.36.28-.71.47-1.04.47-.45 0-.9-.22-1.38-.76-.61-.7-1.16-1.6-1.16-2.28 0-.28 0-.5.1-.83.06-.22.22-.35.32-.35.13 0 .26.1.42.35.8 1.19 1.28 1.47 1.86 1.47.36 0 1.45-.25 2.68-.6l2.77-.87c.45-.16.64-.32.86-.54.23-.23.49-.32.8-.32.27 0 .56.03.88.22.74.42 1.45.93 2.1 1.54.31.32.41.6.41.93 0 .32-.16.5-.55.7-.58.29-1.03.45-1.45.86-1.51 1.57-2.9 2.92-4.92 5a175.1 175.1 0 0 1-4.9 4.83l.07.1zM86.71 228c1.48.96 2.7 2.27 3.51 3.74a8.88 8.88 0 0 1 1.2 4.07c0 .83-.17 1.47-.49 1.88-.32.36-.58.52-.93.52-.39 0-.65-.16-.87-.52-.23-.35-.58-.7-1.26-.9-.55-.15-1.22-.31-2-.5-.38-.1-.51-.2-.51-.42 0-.16.26-.22.58-.26.9-.1 1.64-.12 2.35-.25.48-.1.65-.26.65-.74 0-1.05-.78-2.72-1.62-3.97-.86-1.3-2-2.27-3.54-3.23-.19-.13-.29-.22-.29-.45 0-.16.13-.28.36-.28.45 0 1.83.64 2.86 1.3m-15.16 13.38c-1.48-1.21-2.6-3.39-3.12-6.2a29.42 29.42 0 0 1-.4-5.32c0-1.3.07-2.68-.09-4.06-.13-.77-.48-1.38-1.29-2.08-.19-.16-.22-.22-.22-.32 0-.16.26-.2.51-.2.52 0 1.39.49 2.1 1.06.8.7 1.51 1.57 1.51 2.5 0 .26-.16.74-.29 1-.32.7-.48 2.87-.48 4.57 0 1.5.32 3.26.77 4.41.58 1.44 1.22 2.02 1.68 2.02.25 0 .48-.16.77-.6.96-1.58 2.35-3.91 3.7-6.06.16-.25.42-.41.55-.41.16 0 .38.2.38.35 0 .13-.06.29-.12.42-1 2.04-2.16 4.57-2.68 5.88-.29.77-.45 1.16-.45 1.57 0 .23.03.51.2.8.16.35.32.61.32.93.03.51-.33.96-1.07.96-.6 0-1.44-.51-2.28-1.22m3.83 31.65c-.16-1.66-.2-4.03-.32-6.72-.03-.7-.07-.92-.3-1.18-.22-.22-.5-.32-.9-.42-.35-.06-.48-.06-.77-.1-.16-.02-.22-.06-.22-.18 0-.2.22-.45.39-.55.41-.29.74-.45 1.19-.45.93 0 2.06.58 2.8 1.22.42.38.6.7.6 1.15 0 .35-.18.55-.34.77-.1.16-.2.38-.23.77-.16 1.85-.23 3.9-.1 6.14.07.83.3 1.38.8 1.38.23 0 .78-.1 1.07-.23 1.39-.6 3.1-1.37 4.48-2.1.29-.17.41-.26.41-.49 0-.35-.48-.86-1.03-1.21-.19-.13-.29-.16-.29-.26 0-.13.33-.38.68-.38.7 0 1.6.64 2.35 1.3.68.62 1.1 1.22 1.1 1.74 0 .57-.49.83-1 .95a57.52 57.52 0 0 0-6.96 2.21 20.07 20.07 0 0 0-4.8 2.63c-1.48 1.12-2.18 2.33-2.18 3.74 0 1.06.64 1.89 1.6 2.4 1.13.6 2.78.77 5.16.77 1.67 0 3.31-.2 4.83-.48.51-.1 1.06-.35 1.6-.35.46 0 .94.1 1.4.28.7.32 1.05.7 1.05 1.22 0 .64-.38.93-1.77 1.15-1.57.23-3.25.29-6.02.32-2.44.03-5.15-.38-6.7-1.18-1.64-.87-2.6-2.08-2.6-3.94 0-1.5.64-2.65 1.58-3.74 1.09-1.25 2.8-2.43 4.66-3.49-.7-.54-1.1-1.15-1.22-2.69m12.2 59.43c-1.6-2.85-3.38-4.52-6.37-6.44-.13-.1.03-.35.19-.32 5.47 1.44 9.18 4.23 9.18 6.63 0 .8-.49 1.57-1.26 1.57-.55 0-1.1-.36-1.74-1.44zm-12.75-9.7h7.12v-9.02h-7.12v9.02zm-10.3 11.1c2.7-1.5 5.22-3.61 6.8-5.44a13.2 13.2 0 0 0 2.05-3.1c2.7 1.25 3.22 1.54 3.22 1.95 0 .35-.38.55-1.51.51a22.27 22.27 0 0 1-10.27 6.53c-.23.07-.48-.35-.3-.45zm24.28-11.1c1.44-1.7 1.67-1.89 1.86-1.89.23 0 .49.16 1.97 1.41.67.54.8.77.8.96 0 .22-.1.32-.42.32H66.78c-.74 0-1.32.06-2.19.2l-.32-1.22c1 .19 1.64.22 2.51.22h5.73v-9.02h-4.34c-.68 0-1.23.03-2.06.16l-.36-1.19c1 .16 1.61.23 2.42.23h4.34v-3.2c0-2.18-.03-3.5-.19-4.61 3.25.32 3.64.58 3.64.93 0 .22-.23.45-1.13.83v6.05h7.12v-3.23c0-2.15-.03-3.46-.13-4.58 3.22.32 3.6.54 3.6.9 0 .25-.25.5-1.09.86v6.05h3.25c1.39-1.67 1.61-1.83 1.8-1.83.23 0 .46.16 1.9 1.38.68.54.8.74.8.93 0 .22-.09.32-.44.32h-7.31v9.02h4.48zm-6.96 33.76c-1.74.35-3.38.9-4.5 1.41-.2.1-.4.16-.49.16-.2 0-.39-.13-.39-.35 0-.23.13-.35.4-.51 1.02-.7 2.73-1.44 4.34-1.92 1.6-.42 3.09-.61 4.86-.61 2.22 0 2.67.7 2.67 1.4 0 .8-.45.97-1.29.97-.45 0-1.32-.1-1.83-.1-.87 0-1.45.13-2.06.35-.87.32-1.9 1.18-3.42 2.56-.16.16-.25.2-.38.2s-.32-.17-.32-.3c0-.12.03-.22.19-.41.61-.74 1.32-1.63 2.45-2.69.1-.1.06-.22-.23-.16m-5.28 7.78c.13-.23.23-.32.39-.32.2 0 .35.1.35.28 0 .2-.32 1.06-.32 2.12 0 1.21.26 2.2 1.2 3 1.31 1.12 3.63 1.32 5.5 1.32 1.03 0 1.57-.04 2.28-.13.61-.1.97-.2 1.2-.26.32-.1.86-.16 1.22-.16.25 0 .9.1 1.32.26.58.22.87.7.87 1.09 0 .5-.3.8-.8.96-.97.28-2.65.41-4.48.41-2.68 0-5.83-.19-7.76-1.92a4.87 4.87 0 0 1-1.61-3.74c0-.87.2-1.95.64-2.91m-3.67-1.31c.16 0 .39.15.39.35 0 .1-.04.19-.07.32-.77 2.56-1.38 4.57-1.67 5.82a9.68 9.68 0 0 0-.32 2.05c0 .57.1 1.63.1 2.08 0 .64-.36.9-.78.9-.58 0-1-.36-1.48-1.51a17.37 17.37 0 0 1-1.06-6.05c0-2.85.7-6.46 1.44-9.4.3-1.19.49-2.08.49-2.63 0-.86-.3-1.47-.97-2.27-.13-.13-.16-.22-.16-.32 0-.13.13-.22.3-.22.76 0 1.73.83 2.34 1.7.52.76.87 1.46.87 2.2 0 .48-.2.8-.45 1.06-.26.28-.45.7-.74 1.4-.7 1.8-1.61 5.38-1.61 8.26 0 1.15.06 1.98.23 2.59.03.16.12.22.22.22.07 0 .16-.06.23-.22.74-1.89 1.5-3.97 2.28-5.95.1-.29.26-.38.42-.38m16.52 42.62a12.96 12.96 0 0 0-4.54-3.8c-.13-.07-.03-.42.13-.4 4.83 1.06 7.24 2.6 7.24 4.4 0 .66-.42 1.27-1.16 1.27-.48 0-.87-.32-1.67-1.47zm-4.6-5.7a22.73 22.73 0 0 0 3.7-4c.64-.9 1.12-1.66 1.41-2.36 2.26 1.47 2.7 1.92 2.7 2.2 0 .3-.28.45-1.31.32a26.18 26.18 0 0 1-6.25 4.26c-.2.1-.42-.29-.26-.42zm-9.22 5.19h6.09v-3.87H75.6v3.87zm0-4.67h6.09v-3.68H75.6v3.68zm0 6.17c0 .64-.41.96-1.35.96-.64 0-.93-.25-.93-.77 0-.8.13-2.14.13-6.81 0-2.5-.03-3.71-.16-5.28 1.1.48 1.54.7 2.54 1.25h1.32c.2-.87.29-1.57.39-2.28.1-.64.13-1.24.1-1.88 3.02.7 3.3.9 3.3 1.28 0 .28-.25.48-1.15.64-.51.76-1.03 1.53-1.67 2.24h3.4c.88-.96 1.04-1.06 1.26-1.06.2 0 .4.1 1.33.9.45.44.54.6.54.8 0 .22-.1.35-.8.8v2.27c0 4.13.06 6.14.06 6.75 0 .64-.45.9-1.25.9-.68 0-.97-.23-.97-.74v-.67H75.6v.7zm-6.82-8a10.84 10.84 0 0 0-3.45-4c-.16-.13.04-.48.23-.41 3.67 1.05 5.76 2.75 5.76 4.41 0 .77-.54 1.4-1.22 1.4-.52 0-.74-.18-1.32-1.4zm-4.22 6.43c.68-.12 1.32-.32 1.93-.5 1.84-.62 4-1.51 6.22-2.66.13-.07.29.28.16.38-1.8 1.7-3.6 3.07-6.12 4.6-.03.94-.2 1.26-.51 1.26-.26 0-.62-.58-1.68-3.08zm15.4 6.08a19.53 19.53 0 0 0 5.79 3.94 26.19 26.19 0 0 0 8.01 1.98c.13 0 .1.29-.03.32-1.1.39-1.29.58-1.83 1.92a.58.58 0 0 1-.55.39c-.23 0-.61-.13-1.2-.32a24.58 24.58 0 0 1-4.89-2.37 22.73 22.73 0 0 1-5.86-5.5c.17 5.12.3 7.8.3 8.67 0 .7-.49 1.02-1.52 1.02-.61 0-1-.26-1-.86 0-.64.13-3.3.23-7.71-3.74 3.7-8.02 5.98-13.2 7.35-.2.07-.32-.38-.16-.44 4.7-2.12 8.69-4.87 11.59-8.39H67.3c-.77 0-1.42.07-2.32.23l-.32-1.25c.96.2 1.7.22 2.57.22h10.08v-.48c0-1.5-.03-2.04-.16-3 2.93.25 3.41.48 3.41.86 0 .26-.22.48-1.03.77v1.85h8.66c1.52-1.66 1.74-1.79 1.94-1.79.22 0 .45.13 1.93 1.35.64.54.8.76.8.96 0 .19-.1.28-.42.28H79.95zM72.35 457c0-2.03.13-5.06.26-8.17.1-2.53.16-5.02.23-7.58.03-1.19-.13-1.67-.62-1.99a5.2 5.2 0 0 0-1.12-.5c-.26-.1-.39-.14-.39-.3 0-.16.13-.32.39-.41.35-.13.7-.2 1.16-.2.67 0 1.74.55 2.6 1.22.62.51 1.16 1.09 1.16 1.73 0 .38-.22.67-.45.9-.22.22-.35.41-.45 1.02a143.4 143.4 0 0 0-.87 13.82c0 1.6.26 2.53.8 3.04.59.48 1.58.68 2.8.68 1.9 0 4.84-.84 7.22-2.08a22.1 22.1 0 0 0 5.05-3.78c.17-.16.3-.26.42-.26.2 0 .33.13.36.29.03.2-.1.45-.26.64-1.7 2.27-3.7 4-5.89 5.25a15.3 15.3 0 0 1-7.34 2.01c-3.1 0-5.06-1.5-5.06-5.34m-3.02 38.18c0 1.53.87 2.17 1.96 2.17 1.22 0 1.9-1.18 1.9-2.4 0-1.34-.64-2.24-1.64-2.24-1.22 0-2.22.93-2.22 2.47M74.7 494c.04.36.07.68.07.96 0 1.6-.68 2.92-1.7 3.52a8.07 8.07 0 0 0-1.33 3.72c0 .86.52 1.53 1.77 1.88 1.06.36 2.51.45 4.22.45 2.77 0 5-.64 6.15-1.28a2.07 2.07 0 0 0 1.22-2.05c0-.38-.03-.73-.1-1.12-.6-4.32-.93-6.97-.93-9.18 0-2.46 1.03-3.33 2.51-3.33 1.58 0 2.87.93 3.77 1.92a5.7 5.7 0 0 1 1.55 3.52c0 .9-.39 1.41-1.03 1.41a1.6 1.6 0 0 1-.9-.35 1.4 1.4 0 0 0-.81-.23c-.39 0-1.64.16-2 .16-.22 0-.32-.12-.32-.28 0-.13.07-.26.39-.39.7-.25 1.19-.5 1.64-.77.35-.19.55-.41.55-.6 0-.61-.36-1.54-1.26-2.44-.61-.6-1.29-1.05-1.96-1.05-.77 0-1.13.67-1.13 2.24 0 2.11.74 6.65 2.16 9.85.32.74.38 1.25.35 1.9-.03 1.18-.8 1.88-1.67 2.4-1.26.76-3.87 1.56-7.21 1.56-2.45 0-4.83-.2-6.22-.9-1.35-.64-2.12-1.7-2.12-2.97 0-1.06.54-2.6 1.1-3.59-.14 0-.3 0-.43-.03-1.41-.13-2.9-1.12-2.9-3.45 0-2.34 1.78-3.65 3.2-3.65.96 0 1.54.25 1.9.6.06-1.24.09-2.9.12-4.15-1.06.16-2.12.28-3.06.28-1.45 0-2.96-.22-3.83-1.98-.1-.2-.16-.35-.16-.48 0-.16.16-.29.29-.29.13 0 .26.07.52.32.7.7 1.38.96 2.5.96 1.36 0 2.55-.22 3.77-.48.04-1.28.04-2.2.04-3.48 0-.58-.07-1-.3-1.22-.22-.23-.51-.26-.8-.32a5.16 5.16 0 0 0-.74-.07c-.13 0-.2-.12-.2-.22 0-.16.23-.35.43-.48.45-.25.87-.32 1.19-.32.64 0 1.45.32 2.06.7.54.36 1.12.8 1.12 1.44 0 .26-.19.52-.41.7-.23.2-.33.46-.42 1-.13.6-.2 1.15-.23 1.89 1.2-.32 2.26-.83 3.13-1.28.35-.2.86-.42 1.19-.45.32-.03.67 0 1.03.1.42.12.64.48.64.8 0 .44-.22.64-.87.92a36.6 36.6 0 0 1-5.21 1.67c-.13 1.8-.23 4-.33 6.01" fill="#0E0E0E"/><g transform="translate(85 522.66)"><mask id="d" fill="#fff"><use xlink:href="#c"/></mask><path d="M6.51 2.66c1.51 1.24 2.1 2.4 2.1 3.58 0 1-.68 1.76-1.68 1.76-.87 0-1.22-.6-1.58-1.37A10.75 10.75 0 0 0 .6.93C.46.83.43.7.43.55c0-.2.12-.33.35-.33C3 .61 5.06 1.47 6.51 2.66" fill="#0E0E0E" mask="url(#d)"/></g><path d="M22.42 20.67c-.48 1.8-1.12 3.9-1.7 5.57-2.29-.07-4.28-.07-6.54-.07-2.32 0-4.35 0-6.53.07-.33 0-.42-.07-.42-.58 0-.48.03-.54.22-.83a67.91 67.91 0 0 1 6.22-8.13l.67-.77c3.16-3.58 4.06-5.02 4.06-7.23 0-2.97-1.45-4.44-3.58-4.44-1.57 0-2.7.64-3.25 1.79a5.95 5.95 0 0 0-.32 2.3c0 .77-.96 1.47-2.25 1.47-.9 0-1.3-.35-1.3-1.15 0-2.43 3.26-5.4 7.1-5.4 4.08 0 6.85 2.3 6.85 5.56 0 2.63-.9 4.26-4.9 7.4l-.96.8c-2.8 2.42-4.93 4.6-6.25 6.58h5.9c2.93 0 3.63-.16 4.31-.7.8-.6 1.29-1.38 1.8-2.56.1-.16.17-.22.3-.22.25 0 .6.19.6.35l-.03.2zm4.77 37.51c0 3.32-2.1 5.5-4.93 7.1-3.31 1.85-7.79 2.78-11.59 3-.38.04-.64-.22-.64-.44 0-.2.2-.35.67-.45 3.51-.67 6.83-1.76 9.44-3.36 2.7-1.66 4.57-3.84 4.57-6.37 0-3.64-2.64-5.76-6.21-5.76-1.8 0-3.7.58-5.67 1.6a43.25 43.25 0 0 0-4.9 3.08 8.2 8.2 0 0 0-1.83 1.56c-.32.42-.55.64-1.03.64-.55 0-1.61-.44-2.54-1.44-.58-.6-1.03-1.47-1.03-2.01 0-.32.19-.61.38-.61.16 0 .3.13.52.35.54.55 1.12.87 1.51.87.45 0 .97-.13 1.9-.61 2.64-1.38 4.41-2.27 6.05-3.01a16.13 16.13 0 0 1 6.73-1.66c4.5 0 8.6 2.65 8.6 7.52M6.97 96.54a9.94 9.94 0 0 0-2.8 6.92c0 1.37.25 2.17.7 2.97.36.64.88 1.09 1.52 1.09.68 0 1.32-.58 2.25-1.83 1.9-2.5 3.67-5.72 4.6-8.31.4-1.06.46-1.86.46-2.53 0-.77-.26-1.22-.52-1.47-2.86.48-4.9 1.85-6.21 3.16m8.11-.76c0 1.02-.42 2.62-.84 3.74a32.13 32.13 0 0 1-4.6 8.29c-.9 1.15-1.9 2.08-3.25 2.08-.93 0-1.74-.42-2.41-1.28-.9-1.12-1.49-2.5-1.49-4.74a11.6 11.6 0 0 1 3.03-7.55c2.1-2.27 5.6-4.2 10.3-4.2 3.32 0 5.9 1.2 7.47 2.47a9.11 9.11 0 0 1 3.58 7.27c0 3.61-1.39 5.66-3.48 7.48-2.38 2.05-6.8 3.4-10.72 3.59-.23 0-.45-.2-.45-.39 0-.25.16-.35.58-.45 3.34-.64 6.76-2.1 8.75-4.06 1.74-1.76 2.9-3.8 2.9-6.62 0-1.86-.7-4.51-2.7-6.11a9.36 9.36 0 0 0-6-2.08c-.67 0-1.15 0-1.7.06a3.73 3.73 0 0 1 1.03 2.5m4.9 49.05a17.01 17.01 0 0 0 4.02 5.92 15.07 15.07 0 0 0 6.15 3.62c.13.03.1.28-.03.32-.71.1-1.26.7-1.64 1.85-.07.23-.17.32-.36.32-.2 0-.58-.22-1.1-.57a17.95 17.95 0 0 1-4.34-4.45 25.99 25.99 0 0 1-3.25-6.69c.2 7.23.29 12.67.29 13.86 0 .73-.48 1.12-1.45 1.12-.77 0-1.06-.3-1.06-.93 0-1.25.16-6.08.25-11.07-2.44 3.9-5.92 7-9.62 8.67-.2.1-.48-.32-.3-.45a26.77 26.77 0 0 0 9.09-11.52h-3.25c-.75 0-1.36.03-2.32.16l-.32-1.21c1.06.19 1.73.25 2.64.25h3.96v-5.98h-3.96c-.78 0-1.36.06-2.32.19l-.36-1.25a17 17 0 0 0 2.64.26h4v-1.09c0-3.26-.07-4.32-.2-5.28 3.35.32 3.54.45 3.54.86 0 .32-.22.52-1.09.84v4.67h5.63c1.32-1.7 1.55-1.86 1.74-1.86.23 0 .42.16 1.87 1.38.61.57.74.8.74.99 0 .2-.1.29-.42.29H19.6v5.98h4.8c1.32-1.7 1.54-1.85 1.73-1.85.23 0 .46.16 1.84 1.37.61.55.77.77.77.96 0 .23-.13.32-.42.32h-8.33zm-13.3 2.02c0 8.06.06 9.18.06 10.5 0 .89-.32 1.53-.74 1.94-.45.48-1.16.77-2.12.77-.3 0-.42-.16-.45-.6-.1-.93-.49-1.29-2.97-1.9-.16-.03-.16-.41 0-.41 1.71.16 2.68.26 3.45.26.39 0 .48-.13.48-.52v-9.02c-.74.35-1.48.67-2.28.96-.13.87-.3 1.12-.61 1.12-.33 0-.49-.29-1.39-3.1.68-.07 1.32-.2 2.06-.32.77-.16 1.48-.32 2.22-.51v-7.27H2.33c-.58 0-1.03.07-1.8.16l-.32-1.18c.83.16 1.35.22 2.12.22H4.4v-1.05c0-4.2 0-4.9-.16-6.08 2.87.28 3.51.44 3.51.92 0 .3-.22.52-1.06.84v5.37h.77c.97-1.28 1.2-1.44 1.39-1.44.22 0 .41.16 1.45 1.09.38.38.54.64.54.83 0 .23-.13.32-.42.32H6.68v6.63c1-.32 2.06-.7 3.28-1.16.16-.06.3.3.16.39-1.25.8-2.38 1.47-3.44 2.05v.19z" fill="#0E0E0E"/><g transform="translate(0 173.66)"><mask id="f" fill="#fff"><use xlink:href="#e"/></mask><path d="M22.97 26.37a16.82 16.82 0 0 0-4.31-5.3c-.13-.1.1-.4.25-.33C23.4 22.6 26 24.97 26 26.98c0 .93-.45 1.47-1.23 1.47-.77 0-.96-.22-1.8-2.08zm-7.6-7.68c0 6.15.13 9.16.13 10.08 0 .68-.48 1.06-1.48 1.06-.8 0-1.1-.29-1.1-.9 0-.73.17-3.16.17-9.12V18.7H7.13c-.68 0-1.2.04-2.1.2l-.35-1.22c1 .16 1.65.22 2.48.22h5.93c0-2.55-.07-3.52-.2-4.7 3.16.45 3.48.54 3.48.96 0 .22-.2.45-1 .77v2.97h4.1c1.02-1.34 1.28-1.5 1.47-1.5.2 0 .48.16 1.74 1.18.55.42.7.61.7.8 0 .23-.09.32-.41.32h-7.6zM1.11 28.81a20.2 20.2 0 0 0 4.96-5.64c.58-.99 1-1.92 1.22-2.78 2.6.93 3.19 1.25 3.19 1.63 0 .32-.26.55-1.29.61-2.03 3-4.6 5.09-7.76 6.5-.16.06-.48-.2-.32-.32zm18.7-23.43l.07 2.18c0 .64-.45.93-1.38.93-.75 0-1-.23-1-.77 0-.2.03-.77.03-2.34h-6.47l.06 2.15c0 .64-.45.93-1.38.93-.71 0-.97-.23-.97-.84 0-.19.07-.86.1-2.24H2.78c-.7 0-1.28.07-2.12.2L.34 4.36c.96.2 1.6.22 2.44.22h6.09v-.41c0-1.92 0-2.34-.2-3.46 3.13.32 3.52.48 3.52.87 0 .22-.2.44-1.13.73v2.27h6.47c0-2.3 0-2.78-.13-3.87 2.96.32 3.41.48 3.41.87 0 .22-.16.41-1 .73v2.27h5.06c1.29-1.53 1.51-1.7 1.7-1.7.23 0 .49.17 1.94 1.32.64.51.8.7.8.9 0 .19-.13.28-.45.28h-9.04zm.97 7.72a25.85 25.85 0 0 0 8.86 2.78c.16.03.12.32-.04.35-.8.13-1.19.51-1.57 1.73-.13.41-.3.57-.58.57-.23 0-.68-.12-1.26-.38-1.8-.7-4.15-2.01-6.12-3.4a23.11 23.11 0 0 1-5.4-5.5C11.27 13.64 6.16 17.1.3 18.93c-.22.06-.41-.42-.22-.51 3.6-1.64 7.63-4.61 10.33-7.68a11.18 11.18 0 0 0 2.42-3.88c2.83.97 3.41 1.25 3.41 1.57 0 .26-.1.36-1.06.45a19.39 19.39 0 0 0 5.6 4.23z" fill="#0E0E0E" mask="url(#f)"/></g><path d="M6.04 243.61c0-.22.19-.38.54-.57a33.73 33.73 0 0 0 9.56-8.2c2.3-2.9 3.7-5.5 5.03-8.34.16-.32.26-.55.26-.74 0-.13-.13-.16-.33-.16a231.7 231.7 0 0 0-11.3 1.31c-.93.13-1.22.26-1.51.45-.3.2-.48.25-.84.25-.51 0-1.32-.54-2.1-1.6-.57-.73-.86-1.34-.86-1.82 0-.54.23-.7.35-.7.17 0 .39.25.65.5.93.9 1.45 1.13 2.32 1.13.77 0 1.57-.03 2.8-.13 3.25-.29 6.53-.58 9.69-.9.51-.03.9-.16 1.16-.38.26-.22.51-.45.77-.45.45 0 .97.26 1.77.96.77.68 1.22 1.19 1.22 1.73 0 .39-.35.58-.74.74-.51.22-.8.57-1.06 1.05a41.4 41.4 0 0 1-5.54 8.35 28.74 28.74 0 0 1-10.69 7.78c-.29.13-.58.2-.7.2-.23 0-.45-.23-.45-.46m20.89 29.76c.23.04.39.2.39.39 0 .13-.16.35-.36.6-1.87 2.18-4.57 4.2-7.47 6.15a59.87 59.87 0 0 1-9.4 5 1.4 1.4 0 0 0-.55.5c-.22.3-.41.52-.67.52-.45 0-.87-.32-1.61-1.38a2.91 2.91 0 0 1-.61-1.54c0-.19.1-.44.22-.6.13-.2.2-.42.2-1.25.06-3.46.06-8.2.06-11.68 0-1.12-.1-1.6-.48-1.92a8.15 8.15 0 0 0-1.45-.77c-.2-.1-.3-.13-.3-.29 0-.22.55-.57 1.2-.57.61 0 1.77.35 2.83.96.77.45 1.2.9 1.2 1.44 0 .29-.1.5-.43.86-.22.23-.38.6-.41 1.82-.13 3.3-.23 7.5-.2 11.24 0 .22.07.32.16.32.1 0 .3-.04.45-.1a42.59 42.59 0 0 0 8.57-3.94c2.7-1.56 5.5-3.45 7.98-5.44.3-.25.52-.35.68-.32M13.7 310.98c0-1.38-.13-1.83-.42-2.15a4 4 0 0 0-1.35-.9c-.23-.1-.36-.19-.36-.31 0-.1.2-.3.42-.39.32-.13.61-.16.9-.16.26 0 .87.13 1.77.6 1.74.94 2.13 1.55 2.13 2.12 0 .42-.2.64-.42.9-.26.25-.39.7-.42 1.12-.06.6-.06 1.28-.06 1.76l-.04 5.72c-.03 2.98 0 6.02.04 8.1 0 2.08.03 2.69.03 3.17 0 .96-.39 1.4-1.03 1.4-.45 0-.84-.25-1.2-.86a5.27 5.27 0 0 1-.5-2.33c0-.2.09-.55.19-.84.13-.35.22-1.15.25-1.98.07-2.43.07-5 .07-8v-6.97zm10.91 40.22c.87.22 1.68.6 2.58 1.25.77.54 1.48 1.28 1.48 2.01 0 .64-.39 1.03-.87 1.03-.42 0-.68-.16-1.03-.77a9.77 9.77 0 0 0-2.96-3c-.13-.07-.23-.2-.23-.33 0-.16.13-.32.32-.32.16 0 .42.07.71.13m-2.8 2.14c.87.26 1.84.74 2.8 1.6.77.68 1.23 1.25 1.23 1.92 0 .52-.33.96-.9.96-.42 0-.78-.28-1.07-.86a11.12 11.12 0 0 0-2.7-3.07c-.13-.1-.23-.23-.23-.32 0-.16.13-.32.36-.32.19 0 .42.06.51.1m3.48 14.07c-.68 0-1.1-.45-1.45-1.21a18.73 18.73 0 0 0-2.74-4.51 17.42 17.42 0 0 0-3.31-3.01c-.39-.26-.58-.45-.58-.61 0-.26.2-.38.38-.38.23 0 .49.1.9.25 1.87.77 3.64 1.9 5.22 3.3 1.42 1.25 2.93 3.23 2.93 4.51 0 1.09-.39 1.66-1.35 1.66m-16.32-8.25c-.33-.23-.4-.29-.4-.42 0-.22.46-.38.81-.38.45 0 1.07.22 1.87.77.97.67 1.9 1.56 1.9 2.4 0 .5-.26.76-.8.96-.26.1-.52.32-.87.67a38.73 38.73 0 0 1-4.38 3.8 27.17 27.17 0 0 1-5.77 3.33c-.41.2-.64.26-.8.26a.4.4 0 0 1-.42-.42c0-.19.16-.32.48-.5a42.7 42.7 0 0 0 5.32-4.07 34.1 34.1 0 0 0 3.22-3.46c.6-.8.9-1.28.9-1.7 0-.31-.3-.7-1.06-1.24m4.73 38.85c0-1.38-.13-1.83-.42-2.15a4 4 0 0 0-1.35-.9c-.23-.09-.36-.19-.36-.31 0-.1.2-.3.42-.39.32-.13.61-.16.9-.16.26 0 .87.13 1.77.61 1.74.93 2.13 1.54 2.13 2.11 0 .42-.2.64-.42.9-.26.25-.39.7-.42 1.12-.06.6-.06 1.28-.06 1.76l-.04 5.73c-.03 2.97 0 6.01.04 8.09 0 2.08.03 2.69.03 3.17 0 .96-.39 1.4-1.03 1.4-.45 0-.84-.25-1.2-.86a5.27 5.27 0 0 1-.5-2.33c0-.2.09-.55.19-.84.13-.35.22-1.15.25-1.98.07-2.43.07-5 .07-8v-6.97z" fill="#0E0E0E"/></g></svg>