<svg viewBox="0 0 254 32" xmlns="http://www.w3.org/2000/svg"><g fill="none" fill-rule="evenodd"><path d="M4.046 7.138l-.578 6.494c-.034.51-.102 1.088-.17 1.768 1.19-1.394 2.72-2.074 4.794-2.074 3.978 0 6.596 2.89 6.596 7.276 0 4.454-2.686 8.024-7.344 8.024-1.7 0-3.298-.476-4.386-1.156C1.87 26.858.714 25.804.714 24.682c0-.714.816-1.394 2.108-1.394 1.088 0 1.496 1.632 1.904 2.448.442.986 1.292 1.836 2.618 1.836 2.822 0 4.012-3.026 4.012-6.936 0-3.842-1.904-6.052-4.046-6.052-1.972 0-3.162.952-4.08 2.448-.204.34-.408.374-.952.17-.442-.204-.442-.374-.374-.68.068-.272.102-.646.136-.952l.918-10.608c0-.17.034-.272.204-.442.17-.136.238-.204.408-.204 1.292.034 3.196.034 4.93.034 1.292 0 3.264-.034 5.44-.17.204 0 .272.102.272.306l-.85 2.482c-.034.136-.204.238-.34.238-1.394-.034-2.346-.068-3.672-.068H4.046zM22.385 31.89l-1.292-.544L34.013.27l1.292.544-12.92 31.076zM44.939 7.002l-1.292.408c-.34.102-.476.068-.612-.374-.102-.408-.068-.476.34-.612A53.648 53.648 0 0 0 49.937 3.5c.34 0 .544.204.544.408-.034 2.686-.136 4.624-.136 7.378v10.438c0 3.366.034 3.774.374 4.454.374.68 1.632.714 3.026.85.238.034.306.136.306.51 0 .408-.068.476-.306.476-1.496-.068-3.332-.136-4.76-.136-1.632 0-3.298.068-4.896.136-.272 0-.34-.068-.34-.476 0-.374.102-.476.34-.51 1.36-.102 2.55-.136 2.958-.85.374-.748.374-2.21.374-4.454V9.688c0-1.224-.102-2.108-.374-2.516-.17-.238-.408-.408-.884-.408-.306 0-.714.068-1.224.238zm22.53 8.909v.39h-2.21v11.518h2.21v.39h-3.133V15.911h3.133zm7.305 6.734l.61 1.768c.144.429.235.689.339 1.066.143-.364.22-.689.364-1.183l.494-1.638c.22-.728.286-1.066.195-1.274-.091-.182-.377-.247-.663-.273-.078-.013-.104-.026-.104-.156 0-.143.026-.156.104-.156.312.013.819.039 1.183.039.35 0 .767-.026 1.118-.039.078 0 .09.026.09.156s-.025.143-.103.156c-.247.026-.507.104-.702.312-.234.234-.364.494-.611 1.235l-.806 2.379c-.247.741-.338 1.027-.52 1.547-.676.299-.715.312-.767.312-.04 0-.078-.026-.104-.104-.117-.39-.221-.767-.533-1.677l-.52-1.495c-.143-.416-.195-.676-.273-.91-.078.234-.13.442-.273.858l-.546 1.495c-.312.871-.377 1.118-.533 1.534-.676.286-.728.299-.78.299-.052 0-.078-.026-.104-.091a49.196 49.196 0 0 0-.533-1.69l-.845-2.457c-.247-.728-.39-1.092-.546-1.3-.17-.195-.325-.221-.663-.247-.078 0-.104-.013-.104-.169 0-.13.026-.143.117-.143.48.013 1.014.039 1.43.039.48 0 .962-.026 1.469-.039.065 0 .09.013.09.156 0 .13-.025.156-.077.156-.351.026-.598.039-.65.182-.078.195.065.676.299 1.365l.624 1.833c.117.364.195.689.286 1.027.13-.338.22-.676.364-1.105l.468-1.365c.143-.442.208-.585.299-.832-.117-.39-.247-.741-.416-.923-.156-.143-.351-.169-.663-.182-.065 0-.091-.026-.091-.156s.026-.156.104-.156c.48.013.975.039 1.39.039.43 0 .95-.026 1.418-.039.078 0 .104.026.104.156s-.026.156-.104.156c-.364.026-.572.039-.637.182-.078.169.065.65.312 1.352zm6.68.624a1.937 1.937 0 0 0-.051.468c0 1.716 1.053 2.574 1.859 2.574.845 0 1.326-.286 1.807-.936a.158.158 0 0 1 .13-.065c.039 0 .078.026.117.052.052.039.104.091.104.13a.403.403 0 0 1-.065.143c-.598.923-1.326 1.287-2.405 1.287-1.794 0-3.003-1.326-3.003-3.12 0-1.755 1.248-3.211 3.016-3.211 1.716 0 2.496 1.508 2.535 2.418 0 .104 0 .13-.065.221-.065.078-.117.065-.195.065a74.567 74.567 0 0 0-3.783-.026zm.066-.468c.91.026 1.52.026 2.43-.039.105-.013.118-.091.118-.208-.04-.728-.351-1.573-1.105-1.573-.702 0-1.248.754-1.443 1.82zm10.36-1.56V18.94c0-.494.013-.858-.052-1.118-.052-.208-.247-.273-.468-.26l-.312.026c-.156.013-.182.013-.195-.143-.013-.156.026-.169.156-.195.546-.117 1.56-.377 2.132-.585.065.013.156.065.156.13a54.2 54.2 0 0 0-.078 3.159v4.875c0 .767-.013 1.118.09 1.352.092.195.235.195.404.208l.299.013c.09 0 .117.026.117.143 0 .13-.026.156-.117.169-.52.026-1.443.117-2.028.221-.091 0-.13-.039-.13-.156.013-.312.026-.559.026-.884-.43.715-1.066 1.04-1.703 1.04-1.781 0-2.808-1.287-2.808-3.12 0-1.885 1.144-3.237 2.977-3.237.65 0 1.157.273 1.534.663zm0 3.328v-1.677c0-.442 0-.689-.247-1.144-.221-.403-.637-.741-1.118-.741-1.014 0-1.612 1.118-1.612 2.756 0 1.638.65 2.548 1.599 2.548.442 0 .793-.247 1.118-.689.247-.351.26-.598.26-1.053zm3.652-8.658h3.133v12.298h-3.133v-.39h2.21V16.301h-2.21v-.39zm136.448 0v.39h-2.21v11.518h2.21v.39h-3.133V15.911h3.133zm4.003 5.421v3.432c0 .806.013 1.196.104 1.378.091.182.468.221.858.26.065.013.104.039.104.156 0 .117-.039.156-.104.156-.52-.013-1.17-.039-1.599-.039-.455 0-1.092.026-1.573.039-.104 0-.13-.039-.13-.156 0-.117.026-.143.13-.156.351-.026.676-.065.767-.26.117-.221.117-.598.117-1.378v-1.885c0-.572 0-1.079-.013-1.521-.312 0-.65.013-1.092.039-.052 0-.078-.026-.078-.091l.104-.377c.013-.052.065-.078.13-.078.351.013.637.013.936.013 0-.26-.013-.494-.013-.663 0-1.17.52-2.002 1.079-2.6.533-.585 1.196-.897 2.002-.897.468 0 .767.104.767.416 0 .611-.325 1.001-.585 1.001-.286 0-.377-.13-.546-.325-.208-.234-.377-.416-.546-.39-.403.065-.624.442-.728 1.365-.078.637-.078 1.547-.078 2.08.494 0 1.053-.013 1.586-.039.065 0 .091.026.091.078l-.117.39c-.013.052-.065.091-.104.091-.494-.039-.949-.039-1.469-.039zm3.639.182l-.325.026c-.143.013-.169 0-.182-.143-.013-.143.013-.169.156-.195a18.4 18.4 0 0 0 2.08-.585c.091 0 .169.052.169.117-.013.364-.039.754-.039 1.274.39-.702.936-1.43 1.677-1.43.442 0 .715.169.715.403 0 .52-.39.975-.702.975-.286 0-.468-.286-.728-.286-.156 0-.338.065-.598.39-.247.299-.364.65-.364 1.144v1.586c0 .78 0 1.196.091 1.378.104.208.312.208.767.247.078 0 .091.026.091.169 0 .117-.026.13-.091.13-.494-.013-1.04-.039-1.469-.039-.442 0-1.04.026-1.521.039-.078 0-.104-.013-.104-.13 0-.143.026-.156.104-.169.39-.039.598-.039.689-.247.117-.221.13-.624.13-1.378v-1.924c0-.468-.026-.819-.104-1.066-.065-.234-.221-.299-.442-.286zm6.616 3.263v-1.859c0-.494-.013-.858-.065-1.105-.065-.208-.195-.286-.481-.26l-.338.026c-.13.013-.156.013-.169-.143-.013-.156 0-.169.143-.195a26.98 26.98 0 0 0 2.106-.598c.091 0 .156.052.156.13a55.172 55.172 0 0 0-.052 2.301v1.703c0 .78 0 1.183.091 1.391.104.195.325.195.741.221.078.013.091.052.091.169 0 .13-.013.156-.091.156-.468-.013-1.001-.039-1.443-.039-.429 0-1.027.026-1.469.039-.104 0-.13-.026-.13-.156 0-.117.026-.169.117-.169.377-.026.585-.039.689-.221.13-.221.104-.637.104-1.391zm.572-7.761c.416 0 .858.416.858.871s-.442.884-.858.884c-.455 0-.897-.429-.897-.884s.442-.871.897-.871zm3.21-1.105h3.133v12.298h-3.133v-.39h2.21V16.301h-2.21v-.39zM148.228 7.138l-.578 6.494c-.034.51-.102 1.088-.17 1.768 1.19-1.394 2.72-2.074 4.794-2.074 3.978 0 6.596 2.89 6.596 7.276 0 4.454-2.686 8.024-7.344 8.024-1.7 0-3.298-.476-4.386-1.156-1.088-.612-2.244-1.666-2.244-2.788 0-.714.816-1.394 2.108-1.394 1.088 0 1.496 1.632 1.904 2.448.442.986 1.292 1.836 2.618 1.836 2.822 0 4.012-3.026 4.012-6.936 0-3.842-1.904-6.052-4.046-6.052-1.972 0-3.162.952-4.08 2.448-.204.34-.408.374-.952.17-.442-.204-.442-.374-.374-.68.068-.272.102-.646.136-.952l.918-10.608c0-.17.034-.272.204-.442.17-.136.238-.204.408-.204 1.292.034 3.196.034 4.93.034 1.292 0 3.264-.034 5.44-.17.204 0 .272.102.272.306l-.85 2.482c-.034.136-.204.238-.34.238-1.394-.034-2.346-.068-3.672-.068h-5.304zm18.339 24.752l-1.292-.544L178.195.27l1.292.544-12.92 31.076zm27.042-16.864v.136c3.672.714 5.848 2.924 5.848 6.222 0 4.42-2.924 7.242-7.31 7.242-2.142 0-3.536-.612-4.658-1.326-1.02-.646-2.108-1.666-2.108-2.754 0-.816.85-1.462 2.176-1.462 1.02 0 1.428 1.666 1.836 2.55.408.952 1.156 1.904 2.754 1.904 2.516 0 3.978-2.38 3.978-6.256 0-2.38-1.02-5.712-4.624-5.474-.408.034-1.088.102-1.394.102-.34 0-.476-.034-.374-.646.136-.612.34-.748.68-.748s.782.102 1.156.102c1.904 0 3.978-1.564 3.978-5.236 0-2.55-.986-4.658-3.162-4.658-1.156 0-2.142.51-2.618 1.496-.272.578-.34 1.122-.34 1.7 0 .986-1.02 1.666-2.278 1.666-.782 0-1.224-.34-1.224-1.02 0-1.972 2.584-4.896 6.46-4.896 3.502 0 6.29 2.108 6.29 5.712 0 3.468-2.516 4.964-5.066 5.644zm17.148-8.024l-1.292.408c-.34.102-.476.068-.612-.374-.102-.408-.068-.476.34-.612a53.648 53.648 0 0 0 6.562-2.924c.34 0 .544.204.544.408-.034 2.686-.136 4.624-.136 7.378v10.438c0 3.366.034 3.774.374 4.454.374.68 1.632.714 3.026.85.238.034.306.136.306.51 0 .408-.068.476-.306.476-1.496-.068-3.332-.136-4.76-.136-1.632 0-3.298.068-4.896.136-.272 0-.34-.068-.34-.476 0-.374.102-.476.34-.51 1.36-.102 2.55-.136 2.958-.85.374-.748.374-2.21.374-4.454V9.688c0-1.224-.102-2.108-.374-2.516-.17-.238-.408-.408-.884-.408-.306 0-.714.068-1.224.238z" fill="#FFF" fill-rule="nonzero"/><path d="M112 18h20.62" stroke="#FFF" stroke-linecap="square"/></g></svg>