<svg viewBox="0 0 129 263" xmlns="http://www.w3.org/2000/svg"><path d="M117.173 12.53h4.8V8.977h-4.8v3.553zm3.528-8.785c.024 1.295.048 2.183.048 2.543 0 .552-.456.888-1.272.888-.744 0-1.008-.192-1.008-.768 0-.288.072-1.176.096-2.664h-3.193c-.527 0-1.056.048-1.752.144l-.264-.887c.768.143 1.368.192 1.945.192h3.288v-.72c0-1.033-.024-1.44-.144-2.305 2.832.264 3.024.311 3.024.623 0 .241-.24.457-.768.624v1.777h3.048c1.033-1.224 1.32-1.416 1.489-1.416.215 0 .48.192 1.44.984.432.36.624.577.624.745 0 .167-.073.24-.312.24h-6.29zm3.336 8.785h.648c.889-1.08 1.177-1.273 1.345-1.273.215 0 .48.193 1.392.888.407.335.6.527.6.697 0 .167-.072.239-.312.239h-5.137v5.736c0 .505.312.648 1.368.648.816 0 1.465-.12 1.752-.311.384-.264.864-1.537 1.368-2.953.049-.12.265-.072.265.049-.072.816-.192 2.111-.192 2.567 0 .288.024.337.6.529.288.096.456.456.456.816 0 .408-.312.744-.961.96-.743.215-1.92.36-3.624.36-2.472 0-3.264-.456-3.264-1.8 0-.288.024-.72.024-1.152v-5.45h-6.433c-.432 0-.84.049-1.416.146l-.264-.89a7.673 7.673 0 0 0 1.68.194h1.225V8.977h-1.153c-.528 0-1.055.047-1.776.143l-.264-.887c.768.143 1.368.191 1.945.191h1.248V6.938c0-.6-.048-1.176-.097-1.753 2.593.216 2.833.433 2.833.648 0 .216-.24.385-.72.529v2.064h4.8v-1.49c0-.575-.048-1.127-.096-1.752 2.616.216 2.856.433 2.856.648 0 .216-.24.385-.696.529v2.064h.672c1.009-1.2 1.296-1.393 1.465-1.393.215 0 .456.192 1.367.985.385.335.576.552.576.72 0 .168-.071.24-.312.24h-3.768v3.553zm-5.76 2.591c-.936 3.984-3.193 5.952-7.873 6.937-.12.023-.216-.264-.096-.311 2.856-1.346 4.537-3.026 5.329-5.33.288-.864.432-1.8.48-2.833 2.592.505 2.928.6 2.928.962 0 .24-.168.36-.768.575zm-6.625-9.073c.144-.455.264-.936.36-1.44 1.608.6 2.136.937 2.136 1.272 0 .288-.288.457-.816.457-.816.912-1.344 1.392-2.52 2.232-.072 2.711-.24 4.128-.648 5.64 2.04.577 3.097 1.585 3.097 2.832 0 .817-.337 1.369-1.033 1.369-.528 0-.816-.337-.984-1.08-.216-1.176-.696-2.208-1.176-2.736-.792 2.856-2.04 4.775-4.296 6.743-.096.073-.312-.12-.24-.215 1.416-2.137 2.088-3.744 2.664-6.336.576-2.569.648-3.89.648-10.13 0-2.783-.024-3.263-.144-4.512 2.616.311 2.88.383 2.88.744 0 .215-.12.336-.672.624 0 2.208-.048 4.392-.072 6.6.36-.768.624-1.44.816-2.064zm-3.792 1.848c0 1.609-.504 2.954-1.68 2.954-.576 0-.937-.434-.937-1.057 0-.384.145-.672.529-1.08.912-.888 1.392-2.088 1.416-3.504 0-.12.192-.12.24 0 .264.84.432 1.8.432 2.688zm5.376 34.152c-.36.312-.696.696-.888 1.032a1.89 1.89 0 0 0-.24.864c0 .408.312.624 1.128.624 1.417 0 2.688-.312 4.104-.768-.383-.96-.6-1.536-1.056-2.808-1.056.312-1.464.408-2.256.6-.48.24-.696.36-.792.456m-2.928-.6c-.864-.36-1.488-.84-1.848-1.512-.048-.096-.096-.168-.096-.264s.048-.192.168-.192c.12 0 .192.024.312.12.888.624 1.512.768 2.28.768.936 0 3-.336 4.704-.912-.144-.504-.432-1.56-.672-2.377-.144-.504-.384-.648-.72-.743a4.02 4.02 0 0 0-.696-.12c-.12 0-.24-.024-.312-.024-.072 0-.168-.049-.168-.168 0-.144.072-.217.144-.312a1.796 1.796 0 0 1 1.393-.697c.48 0 1.104.12 1.679.336.625.24.96.6.96 1.01 0 .19-.048.382-.143.574-.12.24-.097.456-.097.72 0 .241.073.768.144 1.272.6-.192.984-.359 1.633-.67.144-.073.24-.122.504-.29.12-.07.216-.144.36-.264.192-.168.552-.287.936-.287.912 0 1.512.215 1.512.72 0 .455-.192.648-1.104 1.056a44.02 44.02 0 0 1-3.505 1.368c.24.912.553 1.776.985 2.808.864-.336 1.464-.6 1.752-.816.144-.096.168-.144.168-.264 0-.12-.264-.528-.888-1.128-.12-.12-.168-.192-.168-.288 0-.072.072-.144.168-.144.096 0 .192.072.48.216.648.36 1.176.432 1.608.432.144 0 .456-.024.6-.048a1.73 1.73 0 0 1 .648-.048c.336.048.696.36.72.744.024.264-.12.6-.576.888-1.008.624-2.184 1.128-3.864 1.8.624 1.152 1.44 2.52 2.256 3.192.624.504.96 1.177.96 1.993 0 .624-.408 1.2-1.008 1.2-.384 0-.648-.24-.984-.528a4.241 4.241 0 0 0-1.392-.816c-1.01-.336-2.377-.672-3.576-.672-1.321 0-2.257.263-2.785.551-.576.312-1.176.865-1.176 1.61 0 .84.6 1.655 2.088 1.943a15.31 15.31 0 0 0 2.76.24c.744 0 1.273-.12 1.704-.12.529 0 .913.096 1.369.312.528.264.72.576.72 1.08 0 .264-.12.528-.456.768s-1.032.288-1.777.288c-1.776 0-3.552-.24-4.776-.672-2.208-.792-3.024-1.992-3.024-3.312 0-1.224.696-2.184 1.92-2.857.936-.504 2.448-.792 3.792-.792.937 0 2.208.05 3.697.217a33.47 33.47 0 0 1-1.656-3.145c-1.608.504-3 .792-4.225.792-1.512 0-2.712-.768-2.712-1.728 0-.648.312-1.008.672-1.512.264-.336.672-.696 1.032-.96a5.528 5.528 0 0 1-2.424-.336m9.312 37.177a8.329 8.329 0 0 0-2.735.936.335.335 0 0 1-.216.072c-.144 0-.216-.072-.216-.216 0-.096.072-.192.168-.312.648-.576 1.368-1.104 2.208-1.464.816-.36 2.064-.576 3.048-.576 1.056 0 2.137.264 2.664.528.553.264.816.624.816 1.176 0 .432-.383.72-.84.72a4.17 4.17 0 0 1-.936-.12 5.539 5.539 0 0 0-.888-.072c-.6 0-1.656.384-3.384 1.368-.144.096-.216.12-.36.12-.12 0-.096-.096-.096-.168.024-.168 1.176-1.032 2.304-2.016a6.659 6.659 0 0 0-1.536.024m-2.544 5.088c-.168.48-.216 1.009-.216 1.465 0 1.296 1.128 2.28 3.648 2.28 1.272 0 2.04-.072 2.424-.192.36-.12.672-.168 1.249-.168.359 0 .887.144 1.199.312.337.192.6.528.6 1.008 0 .624-.575.912-1.296 1.032-.696.12-1.848.12-2.64.12-.936 0-2.064-.096-3.192-.408-1.872-.528-2.88-1.872-2.88-3.41 0-1.03.312-1.68.672-2.327.12-.216.312-.408.432-.408s.144.072.144.192c0 .12-.096.336-.144.504m.456-10.008c.336 0 .648 0 1.08.215.288.144.528.36.528.72s-.24.672-.744.865c-1.008.408-2.736.888-3.984 1.224-.384 1.008-1.152 3.168-1.681 4.608-.576 1.56-1.416 3.72-2.688 6.96-.36.913-.792 1.225-1.392 1.225-.216 0-.504-.168-.696-.36-.192-.192-.264-.408-.264-.864 0-.432.24-.888.648-1.68 1.704-3.313 3.096-6.385 4.272-9.577-1.296.24-2.016.336-2.616.336-1.056 0-1.584-.168-2.304-.936-.432-.456-.648-1.008-.648-1.248 0-.144.048-.216.12-.216.144 0 .24.096.408.216.6.408 1.008.624 1.968.624 1.176 0 2.448-.264 3.672-.576.529-1.777.744-2.761.744-3.145 0-.408-.168-.696-.503-.84a5.538 5.538 0 0 0-.89-.288c-.167-.048-.263-.096-.263-.192 0-.144.072-.264.336-.408a2.433 2.433 0 0 1 1.129-.288c.648 0 1.775.384 2.472.96.216.192.36.408.36.672 0 .24-.168.552-.336.72-.432.432-.6.888-1.152 2.353.599-.192 1.128-.456 1.464-.697.288-.215.744-.383.96-.383m.887 35.664c-3.384.888-5.688 1.68-6.984 2.232-.312.144-.6.288-.912.552a.98.98 0 0 1-.697.264c-.48.024-1.032-.288-1.824-1.176-.384-.456-.888-1.056-.888-1.728 0-.384.096-.744.24-.744.096 0 .168-.024.384.24.84.864 1.032.96 1.752.936.36-.024 1.633-.216 4.01-.792 3.071-.72 5.471-1.368 7.295-1.896a7.26 7.26 0 0 0 1.32-.456c.312-.168.456-.192.912-.216.53 0 1.416.048 2.21.384.407.192.766.432.766.936 0 .48-.215.84-.887.864-.505.048-1.032 0-2.377.12-2.232.192-3.984.936-5.496 2.592-1.176 1.32-1.728 2.784-1.728 4.657 0 1.439.6 2.784 1.752 3.576 1.2.816 2.472 1.152 3.84 1.248.77.048 1.37.072 1.85.336.574.288.935.672.935 1.224 0 .648-.432 1.152-1.56 1.152-1.489 0-3.24-.456-4.657-1.128-1.632-.768-3.528-2.76-3.528-5.52 0-1.56.336-2.857.936-4.032.6-1.177 1.92-2.497 3.336-3.505v-.12zM85.423 10.537c.72 1.776 1.68 2.928 2.833 3.936 1.343 1.152 3.023 2.064 4.92 2.64.12.025.12.264 0 .264-.625.048-1.296.865-1.608 1.993-.048.167-.145.264-.289.264s-.48-.192-.888-.504c-1.296-.961-2.328-2.233-3.192-3.601a15.73 15.73 0 0 1-1.92-4.248c.096 5.16.192 9.121.192 9.721 0 .672-.432 1.008-1.368 1.008-.72 0-1.008-.24-1.008-.84 0-.841.168-4.393.216-7.585-1.825 2.76-4.68 5.089-7.033 5.929-.12.047-.264-.192-.168-.265 2.497-1.799 4.945-5.112 6.385-8.712H80.6c-.552 0-1.129.048-1.873.144l-.263-.888c.84.144 1.487.192 2.112.192h2.64V5.496h-2.592c-.553 0-1.129.048-1.872.145l-.265-.889c.84.144 1.49.192 2.113.192h2.616V3.288c0-1.488-.072-2.424-.192-3.24 3.072.288 3.144.312 3.144.696 0 .288-.216.456-.792.624v3.576h3.336c1.13-1.512 1.417-1.704 1.585-1.704.215 0 .456.192 1.56 1.176.48.456.671.672.671.84 0 .168-.07.24-.312.24h-6.84v4.489h2.712c1.128-1.512 1.417-1.704 1.585-1.704.215 0 .456.192 1.536 1.176.48.456.672.672.672.84 0 .168-.072.24-.312.24h-6.145zm-9.745.216c.672-.192 1.416-.432 2.256-.696.12-.048.193.216.096.288-.84.576-1.608 1.08-2.352 1.536v2.328c0 3.336.024 4.248.024 5.401 0 .624-.096 1.128-.336 1.512-.384.624-1.104.912-2.256.912-.24 0-.36-.144-.384-.504-.048-.96-.408-1.224-2.256-1.776-.12-.025-.12-.312 0-.312 1.056.072 1.92.119 2.712.119.312 0 .336-.047.336-.359v-6.121c-.456.216-.912.432-1.344.6-.072.6-.24.864-.504.864-.288 0-.36-.216-1.176-2.784.672-.048 1.296-.168 1.872-.264l1.152-.216V5.976h-1.392c-.384 0-.744.048-1.248.144l-.264-.888c.6.144 1.056.192 1.512.192h1.392V2.832c0-1.488-.024-1.968-.12-2.832 2.376.216 3.048.36 3.048.768 0 .264-.24.48-.768.648v4.008h.12c.744-1.056 1.032-1.248 1.2-1.248.217 0 .432.192 1.104.864.264.289.456.528.456.696 0 .168-.072.24-.312.24h-2.568v4.777zm13.033 44.688c-.792 0-.936-.168-1.848-2.208-.6-1.249-1.536-2.424-2.712-3.433-.096-.07.072-.239.192-.192 3.792 1.416 5.568 2.833 5.568 4.417 0 .84-.48 1.416-1.2 1.416zm-6.648-7.369c.023 3.865.12 6.53.12 7.441 0 .624-.456.936-1.32.936-.793 0-1.105-.24-1.105-.816 0-.72.12-2.856.12-7.2v-.36h-4.104c-.504 0-.984.047-1.656.143l-.264-.888c.768.144 1.368.192 1.944.192h4.08c0-1.872-.047-2.592-.144-3.6 2.81.384 3.025.432 3.025.768 0 .216-.216.384-.696.576v2.256h2.328c.864-1.104 1.152-1.296 1.32-1.296.216 0 .504.192 1.488.912.456.336.648.528.648.696 0 .17-.072.24-.312.24h-5.472zm-4.609 3.193c-1.608 2.112-3.552 3.624-6.048 4.656-.12.048-.336-.144-.24-.216 1.368-1.248 2.592-2.76 3.408-4.2.456-.793.792-1.537.984-2.232 2.232.768 2.856 1.08 2.856 1.392 0 .336-.264.527-.96.6zM85.4 38.111c0 .792.024 1.345.024 1.584 0 .53-.408.768-1.32.768-.648 0-.936-.168-.936-.647 0-.145.024-.577.024-1.44v-.265h-4.32c.024.792.024 1.345.024 1.56 0 .577-.433.792-1.32.792-.649 0-.937-.19-.937-.719 0-.193.048-.697.048-1.633h-4.272c-.456 0-.912.048-1.512.144l-.264-.888c.72.144 1.248.193 1.776.193h4.296v-.577c0-1.44 0-1.656-.12-2.424 2.785.288 3.048.384 3.048.696 0 .216-.216.384-.768.6v1.705h4.321c0-1.969 0-2.257-.072-3 2.568.263 2.952.383 2.952.72 0 .191-.144.335-.696.575v1.705h3.048c1.08-1.273 1.37-1.465 1.537-1.465.215 0 .503.192 1.607 1.033.504.383.697.575.697.744 0 .168-.073.24-.312.24H85.4zm-14.857 10.13c-.12.023-.265-.289-.144-.337 2.736-1.248 5.712-3.672 7.56-5.952.816-.984 1.417-1.945 1.68-2.76 2.448.791 3.05 1.032 3.05 1.32 0 .263-.097.312-.914.36 1.153 1.152 2.545 2.088 4.201 2.832 1.896.864 4.153 1.464 6.65 1.752.12.024.12.288 0 .312-.698.096-1.105.576-1.44 1.704-.12.432-.218.576-.41.576-.24 0-.67-.144-1.224-.384-1.224-.528-2.976-1.536-4.176-2.4-1.512-1.104-2.952-2.592-3.913-4.008-2.423 3.048-6.408 5.592-10.92 6.984zm14.833 22.631c.792.528 1.128.937 1.128 1.392 0 .408-.216.696-.864.768a4.376 4.376 0 0 0-.672.144c-1.44.432-3.144.936-5.21 1.417-2.255.528-4.367.792-5.327.816-.288 0-.432-.048-.432-.216 0-.144.096-.169.408-.264 2.04-.529 3.624-1.033 4.848-1.513 1.68-.624 2.785-1.2 3.697-1.728.383-.216.504-.384.504-.504 0-.144-.36-.408-.696-.6-.144-.072-.24-.12-.24-.216 0-.12.359-.312.696-.312.552 0 1.512.384 2.16.816m1.296 6.577c.408-.048.576-.168.912-.36.168-.096.456-.192.912-.192s1.152.216 1.8.576c.456.24.696.672.696.984 0 .456-.312.696-.744.696-.264 0-.455 0-1.008-.072-1.152-.144-1.92-.192-2.496-.192-.552 0-2.232.048-3.576.144-.216 2.76-.937 4.896-1.944 6.576-1.248 2.089-2.953 3.553-5.281 4.513-.36.144-.48.192-.6.192-.192 0-.264-.048-.264-.168 0-.168.096-.216.6-.6 1.92-1.465 2.928-2.808 3.84-4.585.888-1.752 1.32-3.576 1.44-5.808-2.784.336-4.248.552-5.208.816-.336.096-.6.168-.816.336a1.17 1.17 0 0 1-.72.24c-.408 0-1.008-.36-1.704-1.08-.504-.528-.624-.936-.624-1.392 0-.288.072-.456.216-.456.096 0 .216.096.456.288.504.408.912.672 1.536.672.168 0 .792-.024 1.344-.096 1.32-.144 3.024-.312 5.592-.6.025-.552.025-.888.025-1.272s-.05-.673-.337-.841a2.163 2.163 0 0 0-.816-.239c-.215-.024-.288-.073-.288-.144 0-.12.073-.217.264-.361.312-.215.697-.287 1.033-.287.672 0 1.655.144 2.208.456.408.216.528.48.528.768 0 .192-.072.36-.192.552a1.31 1.31 0 0 0-.192.504c-.024.216-.024.336-.048.768 2.064-.168 2.784-.24 3.456-.336m-6.265 30.816c0-1.272-.048-1.656-.408-1.968-.264-.216-.504-.408-.888-.6-.144-.072-.192-.12-.192-.216 0-.12.096-.288.336-.384a2.08 2.08 0 0 1 .816-.145c.288 0 .696.097 1.585.553 1.272.648 1.51 1.08 1.51 1.536 0 .264-.094.48-.311.72-.192.192-.288.48-.336.84-.048.504-.048.96-.048 1.512v4.368c0 2.617 0 5.04.024 7.08 0 .697.024 1.249.024 1.44 0 .6-.504 1.057-1.008 1.057-.336 0-.744-.192-1.008-.672-.312-.552-.456-1.176-.456-1.92 0-.096 0-.408.144-.816.096-.24.144-.864.168-1.416.048-2.136.048-3.505.048-5.81v-5.16zm10.249 31.223c.504.288.864.696.864 1.224s-.336.888-.744.888c-.36 0-.624-.096-.888-.528-.504-.84-1.008-1.368-1.68-1.872-.096-.072-.288-.192-.288-.288a.19.19 0 0 1 .192-.192c.144 0 .408.024.624.072.696.12 1.296.336 1.92.696m-2.232 1.68c.648.504.888.936.888 1.44 0 .384-.264.84-.792.84-.264 0-.552-.072-.816-.552-.504-.912-.888-1.464-1.512-2.112-.097-.096-.265-.216-.265-.312 0-.144.12-.168.289-.168.216 0 .48.072.552.096.696.192 1.152.384 1.656.768m-2.88 10.25c.912.48 1.656.96 2.304 1.463 1.44 1.104 2.016 2.041 2.016 2.736 0 .745-.504 1.297-1.104 1.297-.624 0-1.056-.169-1.488-.817-.84-1.248-1.68-2.544-2.784-3.576-.936-.864-1.584-1.344-2.401-1.848-1.8 1.92-3.816 3.456-5.88 4.705-1.584.936-3.12 1.584-4.105 1.896-.192.071-.36.12-.528.12-.12 0-.24-.049-.24-.217 0-.095.072-.215.168-.263 2.833-1.536 4.849-3.097 7.513-5.809 1.896-1.944 3.12-3.624 4.872-6.36.097-.145.144-.24.144-.289 0-.072-.071-.095-.312-.072-1.68.192-3.84.553-5.736.96-.624.144-.912.265-1.104.385-.216.12-.408.263-.84.263-.456 0-.936-.287-1.608-1.128-.456-.576-.504-.936-.504-1.536 0-.456.167-.624.312-.624.072 0 .167.097.335.288.673.745.937.913 1.657.913.288 0 .888-.048 1.824-.145 1.968-.215 3.576-.432 5.28-.67.456-.074.744-.17.96-.362.216-.192.384-.263.696-.263.457 0 .769.215 1.273.648.72.624 1.008 1.007 1.008 1.343 0 .24-.072.481-.792.72-.216.073-.36.265-.576.577-1.033 1.512-1.92 2.808-3.265 4.32a31.14 31.14 0 0 1 2.905 1.344m-.121 26.015c.384-.096.48-.168.648-.336a.906.906 0 0 1 .648-.264c.216 0 .576.168.912.408.864.648 1.25 1.128 1.25 1.56 0 .192-.074.48-.506.696a1.46 1.46 0 0 0-.648.552c-1.248 2.04-2.088 3.264-2.952 4.393 1.608 1.128 1.992 2.04 1.992 2.784 0 .576-.432 1.176-1.056 1.176-.336 0-.744-.216-1.032-.6-.408-.576-.648-1.008-1.2-1.632-2.785 3.12-6.264 5.761-10.297 7.104-.096.024-.288.097-.408.097-.096 0-.24-.073-.24-.217 0-.119.072-.216.288-.336 3.216-1.944 5.785-3.72 9.241-7.992-.889-.768-1.657-1.248-2.64-1.8-.24-.144-.36-.217-.36-.312 0-.169.12-.24.336-.217.168.024.36.048.576.097.768.12 1.752.36 3.072.888 1.056-1.465 1.992-3.097 2.76-4.585a.544.544 0 0 0 .072-.288c0-.048-.048-.096-.24-.072-.864.12-1.584.312-2.208.432-.648.12-.96.168-1.176.168-.408 0-.769-.096-1.225-.288-1.175 1.608-2.496 3.216-3.67 4.321-1.37 1.272-2.522 2.064-3.29 2.448-.144.072-.216.12-.336.12-.192 0-.264-.096-.264-.216s.048-.168.192-.312c.96-.985 1.896-2.04 2.784-3.169.936-1.224 1.824-2.496 2.593-3.816.84-1.416 1.055-2.04 1.055-2.352a.675.675 0 0 0-.168-.408 2.954 2.954 0 0 0-.815-.6c-.168-.096-.24-.144-.24-.24 0-.168.455-.408.792-.408.768 0 1.416.288 2.16.72.84.48 1.152.84 1.152 1.224 0 .312-.048.528-.36.696-.288.168-.408.264-.504.384-.144.192-.264.384-.528.792 1.368-.096 2.664-.336 3.84-.6m-4.704 35.4c-.12-.312-.504-.624-1.104-.864-.192-.072-.288-.096-.288-.264s.432-.528 1.008-.528c.576 0 1.32.288 2.184.84.432.264.96.672.96 1.224 0 .288-.12.456-.336.672-.095.096-.168.264-.192.576-.047 1.608-.072 3.072-.12 5.425v1.775c0 .217.024.312.12.312.097 0 .265-.047.577-.191 2.64-1.128 4.992-2.281 7.92-4.657.288-.24.432-.384.6-.384.144 0 .24.072.24.216 0 .096-.096.216-.192.336-1.608 2.208-4.32 4.489-8.473 6.937a1.208 1.208 0 0 0-.48.504.637.637 0 0 1-.551.336c-.29 0-.793-.288-1.201-.768-.456-.552-.672-1.104-.672-1.44 0-.097.024-.24.072-.409.072-.239.12-.887.12-1.463 0-1.921 0-3.553-.024-6.601 0-.72-.048-1.296-.168-1.584m-5.472 1.536c-.192-.072-.312-.096-.312-.216 0-.144.456-.504.936-.504.624 0 1.68.384 2.544.936.6.384.72.72.72 1.032 0 .216-.048.384-.336.624-.168.144-.264.36-.408.816-.504 1.512-1.056 3.072-1.968 4.464-1.176 1.801-2.761 3.433-4.85 4.465-.24.12-.383.192-.48.192-.143 0-.215-.072-.215-.24 0-.144.049-.168.24-.336 1.489-1.296 2.425-2.497 3.385-4.201.768-1.368 1.272-2.808 1.656-4.176.192-.72.288-1.224.288-1.704 0-.504-.552-.888-1.2-1.152M85.4 251.496c1.44.6 2.231 1.344 2.231 2.424 0 .769-.552 1.273-1.032 1.273-.432 0-.864-.145-1.32-.697-.576-.67-1.128-1.27-1.728-1.752-.768-.624-1.584-1.103-2.496-1.368v4.178c0 1.006.048 3.215.095 5.807 0 .913-.407 1.129-.888 1.129-.336 0-.768-.12-1.008-.553a4.067 4.067 0 0 1-.528-1.896c0-.12.048-.551.12-.695.073-.144.12-.264.12-.409.024-.312.073-.983.097-5.377.024-2.28 0-4.32 0-6.576 0-.624 0-1.704-.097-2.04-.07-.216-.264-.407-.504-.551-.36-.216-.647-.337-.84-.385-.168-.049-.24-.12-.24-.216 0-.144.168-.264.312-.36.192-.12.456-.216.672-.216.553 0 1.272.12 2.425.648.648.288.96.672.96 1.129 0 .287-.144.526-.409.768-.095.096-.143.24-.168.48-.07.671-.119 2.087-.119 4.32 1.44.071 3 .383 4.344.935M47.162 46.851c-1.475-4.249-3.658-7.671-7.435-11.093-.236-.236.118-.767.473-.649 7.552 3.068 11.978 7.73 11.978 11.447 0 1.711-1.062 3.009-2.538 3.009-1.239 0-1.829-.59-2.478-2.714zM23.914 29.09h19.531V18.764H23.914V29.09zm11.742 10.385c0 6.137.177 8.202.177 9.677 0 1.475-.531 2.419-1.239 3.186-.767.826-2.302 1.475-3.894 1.475-.591 0-.827-.235-.945-1.179-.295-1.712-1.298-2.302-6.195-3.423-.355-.059-.295-.826.059-.767 3.304.295 5.192.295 6.844.295.65 0 1.004-.236 1.004-.944v-17.23h-7.553v.473c0 1.239-.826 1.77-2.419 1.77-1.357 0-1.83-.414-1.83-1.416 0-1.181.236-2.833.236-9.382 0-3.128-.059-4.78-.295-7.199 2.124.885 2.951 1.298 4.78 2.478h18.527c1.771-1.947 2.125-2.183 2.479-2.183.413 0 .767.236 2.537 1.711.885.708 1.121 1.121 1.121 1.475 0 .413-.177.649-1.475 1.534v2.655c0 5.429.118 7.789.118 8.557 0 1.239-.885 1.77-2.478 1.77-1.239 0-1.77-.414-1.77-1.416v-.827h-7.789v8.91zM46.395 9.736c2.478-3.068 2.891-3.304 3.245-3.304.413 0 .826.236 3.422 2.478 1.121 1.003 1.476 1.358 1.476 1.712 0 .413-.177.589-.767.589H20.492c-1.417 0-2.479.119-4.131.354l-.59-2.242c1.829.296 3.068.413 4.721.413h10.679V4.072c0-1.062 0-2.065-.236-4.072 5.783.532 6.432 1.003 6.432 1.594 0 .413-.472.826-1.947 1.534v6.608h10.975zm-34.46 40.183c3.482-3.245 6.373-7.376 8.203-11.034.825-1.593 1.475-3.068 1.711-4.307 4.897 2.006 5.723 2.419 5.723 3.009 0 .531-.649.885-2.36 1.003-3.658 5.074-7.14 8.674-12.686 11.978-.295.178-.826-.413-.591-.649zM9.398 7.435C8.395 5.252 6.979 3.364 4.56 1.594c-.177-.118.059-.532.295-.472 5.429.767 9.087 3.363 9.087 6.372 0 1.652-1.003 2.596-2.066 2.596-1.179 0-1.592-.59-2.478-2.655zM5.504 21.184C4.501 18.941 3.203 17.23.665 15.401c-.176-.118.059-.472.295-.472 5.429.649 9.029 3.186 9.029 6.077 0 1.475-1.004 2.538-2.243 2.538-1.003 0-1.475-.65-2.242-2.36zM4.383 49.801c0-2.065.413-3.894.413-6.018 0-3.245-.826-4.19-4.603-5.429-.354-.118-.177-.885.177-.826 1.417.236 2.125.354 2.656.354 1.18 0 1.947-.531 2.714-1.711 2.124-3.658 5.782-10.739 9.559-19.354.118-.295.885 0 .767.354a547.374 547.374 0 0 1-7.494 20.121c-.472 1.239-.767 2.36-.767 3.6 0 2.596 2.065 5.546 2.065 8.319 0 2.302-1.298 3.777-3.009 3.777-1.593 0-2.478-1.062-2.478-3.187z" fill="#FFF" fill-rule="evenodd"/></svg>