<svg viewBox="0 0 130 263" xmlns="http://www.w3.org/2000/svg"><path d="M21.515 4.437c0 4.662-1.711 8.025-4.425 7.966-1.18 0-2.066-.885-2.066-2.242 0-1.062.472-1.653 1.653-2.537 2.537-1.712 3.658-3.895 3.658-7.14 0-.354.767-.413.826-.059.177.885.295 1.711.354 2.537h25.49C48.658 1.015 48.952.72 49.247.72c.354 0 1.004.177 3.482 2.478.944.826 1.003 1.18 1.003 1.652 0 .708-.531 1.062-2.006 1.003-.708 0-1.062.177-1.652.767-1.24 1.239-2.478 2.242-3.954 3.305-.236.177-.649-.177-.531-.413 1.003-1.948 1.593-3.423 2.007-5.075h-7.317v10.149c0 1.77.649 2.242 4.012 2.242 2.891 0 3.777-.295 4.485-1.003.944-.885 1.416-2.301 2.124-4.956.059-.295.649-.236.649.059-.059 1.298-.177 3.009-.177 3.776 0 .649.177.885.885 1.18.708.295 1.062.885 1.062 1.594 0 1.002-.708 1.71-2.183 2.183-1.535.413-3.718.649-7.376.649-5.724 0-7.434-1.24-7.434-4.898 0-.826.117-2.301.117-4.484V4.437h-4.838c-.295 9.972-4.779 15.046-15.282 17.879-.413.118-.65-.708-.296-.885 8.025-3.599 11.388-8.143 11.566-16.994h-6.078zm13.984 24.605c2.243 3.718 4.839 6.255 8.025 8.438 3.54 2.36 7.907 3.895 11.978 4.721.236.059.236.59 0 .649-1.534.472-2.183 1.18-2.655 3.009-.236.826-.354 1.121-.767 1.121-.413 0-1.003-.236-2.125-.767-3.067-1.593-6.195-3.835-8.673-6.431-2.36-2.361-4.426-5.252-6.668-9.913.177 12.273.472 19 .472 20.475 0 1.239-.944 1.829-2.655 1.829-1.357 0-1.947-.472-1.947-1.417 0-1.416.295-7.257.59-17.642-5.252 6.844-11.152 11.034-18.941 14.22-.354.177-.826-.59-.472-.826 6.727-4.13 13.04-9.972 17.289-17.466h-9.914c-1.238 0-2.124.119-3.54.354l-.649-2.242c1.711.295 2.773.413 4.249.413h11.742v-1.416c0-3.835 0-4.484-.236-6.49 5.251.649 6.018.943 6.018 1.711 0 .413-.236.708-1.829 1.475v4.72h10.503c2.478-2.891 2.95-3.186 3.304-3.186.354 0 .827.295 3.423 2.301 1.18 1.004 1.475 1.358 1.475 1.712 0 .471-.236.648-.826.648H35.499zM8.947 6.325C7.944 3.965 6.94 2.549 4.344.602c-.177-.118.059-.531.295-.472 5.724.885 8.91 3.186 8.91 6.077 0 1.476-1.121 2.538-2.301 2.538-1.003 0-1.357-.354-2.301-2.42zM5.878 21.254c-1.475-3.422-2.419-4.78-5.192-6.786-.177-.118.059-.531.295-.472 5.488.708 8.969 3.245 8.969 6.019 0 1.475-1.062 2.714-2.301 2.714-.767 0-1.299-.413-1.771-1.475zM4.58 48.632c0-1.888.295-3.835.295-5.546 0-4.19-.944-5.192-4.661-6.255-.354-.118-.236-.885.118-.826.885.118 1.711.236 2.242.236 1.416 0 2.183-.413 2.95-1.593 2.302-3.599 5.724-9.913 9.795-18.587.118-.295.826 0 .708.295-2.655 6.963-5.015 13.1-7.553 19.118-.471 1.239-.648 2.42-.648 3.776 0 2.892 2.124 5.606 2.124 8.615 0 2.242-1.239 3.718-3.068 3.718-1.476 0-2.302-.885-2.302-2.951zM26.825 95.53c-.472-2.538-1.475-4.957-2.773-6.49-.177-.178.177-.532.413-.414 4.071 1.653 6.431 4.425 6.431 6.55 0 1.652-.885 2.714-2.124 2.714-1.062 0-1.534-.53-1.947-2.36zm11.565 1.24c.118 7.316.354 13.217.354 15.695 0 1.593-.53 2.596-1.357 3.422-.826.826-2.124 1.416-3.659 1.416-1.12 0-1.357-.236-1.475-1.357-.295-1.593-2.006-2.479-5.959-3.363-.354-.059-.354-.826 0-.826 3.068.235 5.37.413 7.08.413.767 0 1.063-.296 1.063-1.062v-9.913c-3.305 2.891-5.842 4.72-10.208 7.198-.059 1.594-.354 2.183-.826 2.183-.532 0-.767-.53-2.715-5.25-.354.176-.649.235-1.062.235-1.18 0-1.534-.649-1.652-3.127-.236-2.36-.708-4.308-2.065-6.668-.118-.177.295-.413.472-.295 3.481 2.183 5.547 4.897 5.547 7.434 0 .768-.237 1.476-.59 1.948a34.504 34.504 0 0 0 2.065-.53c4.366-1.418 7.611-2.715 11.034-4.427V85.263H25.94c-1.475 0-2.42.06-4.012.354l-.59-2.242c1.828.295 3.008.413 4.602.413h16.108l.354-7.199h-12.98c-1.476 0-2.597.06-4.19.354l-.59-2.242c1.947.295 3.245.413 4.72.413H42.52l.354-6.845H28.241c-1.829 0-2.89.118-4.308.354l-.53-2.242c1.651.354 2.714.413 4.838.413h14.161c1.83-2.006 2.125-2.183 2.538-2.183.413 0 .767.177 2.478 1.593.885.826 1.121 1.121 1.121 1.475 0 .531-.118.768-1.593 1.77l-.767 14.34h2.006c2.065-2.775 2.537-3.07 2.95-3.07.354 0 .71.295 2.892 2.361.884.826 1.18 1.24 1.18 1.593 0 .354-.177.59-.767.59H38.685c.708 4.012 1.83 8.025 3.717 11.624 1.24-1.357 2.655-3.186 3.66-5.016.707-1.357 1.297-2.655 1.651-3.717 4.012 2.36 4.78 2.951 4.78 3.541 0 .708-.532.943-2.302.943-3.009 2.48-4.425 3.6-7.258 5.311.65 1.062 1.3 2.006 2.066 2.892 2.832 3.304 6.313 5.9 10.385 7.611.236.118.118.472-.119.59-1.416.65-2.005 1.24-2.655 3.01-.354.944-.472 1.061-.885 1.061-.295 0-.826-.294-1.77-1.002-2.714-2.36-5.252-5.606-7.14-8.969-2.006-3.777-3.48-8.497-4.66-15.46l.235 9.087zM10.48 79.48c0 1.534-.826 2.596-2.065 2.596-1.003 0-1.239-.295-2.006-2.478-.826-2.419-1.947-4.307-4.249-6.49-.235-.177.12-.649.414-.53a22.02 22.02 0 0 1 4.071 1.828c1.357-2.538 2.183-4.838 2.891-7.199.413-1.475.768-2.89.944-4.07 4.603 1.71 5.724 2.241 5.724 2.95 0 .53-.53.884-2.242.943-2.892 4.19-4.013 5.783-6.314 8.025 1.888 1.357 2.832 2.832 2.832 4.425zm-.059 11.625c-1.71.354-3.717.708-6.313 1.18-.472 1.298-.767 1.652-1.24 1.652-.589 0-.943-.767-1.829-5.488 1.3.118 1.83.118 2.656.118 1.298 0 2.42 0 3.481-.059 2.42-3.127 4.72-6.962 6.727-11.034 1.062-2.36 2.006-4.366 2.42-6.077 4.13 2.006 5.31 2.714 5.31 3.363 0 .472-.413.944-2.243.885-3.717 5.488-6.254 8.674-10.62 12.863 3.126-.118 6.254-.354 9.381-.59a18.001 18.001 0 0 0-2.124-4.602c-.118-.177.295-.413.472-.295 3.717 2.183 5.9 5.133 5.9 7.493 0 1.416-.825 2.537-2.006 2.537-1.12 0-1.357-.47-1.77-2.89l-.177-1.063c-1.416.473-2.832.827-4.248 1.181v11.446c0 6.491.236 12.451.236 14.221 0 1.24-.885 1.77-2.479 1.77-1.297 0-1.829-.354-1.829-1.475 0-1.062.295-4.898.295-12.214V91.105zM.154 112.82c1.24-2.95 2.36-6.845 3.246-10.74.413-2.242.65-4.366.65-6.077 4.542 1.357 5.427 1.711 5.427 2.42 0 .471-.472.825-1.77 1.12-1.71 5.37-3.599 9.854-6.786 13.69-.236.295-.885-.059-.767-.413zM118.173 12.53h4.8V8.977h-4.8v3.553zm3.528-8.785c.024 1.296.048 2.184.048 2.544 0 .552-.456.888-1.272.888-.744 0-1.008-.192-1.008-.768 0-.288.072-1.176.096-2.664h-3.193c-.527 0-1.056.048-1.752.144l-.264-.888c.768.143 1.368.192 1.945.192h3.288v-.72c0-1.033-.024-1.44-.144-2.305 2.832.265 3.024.312 3.024.624 0 .241-.24.456-.768.624v1.777h3.048c1.033-1.224 1.32-1.416 1.489-1.416.215 0 .48.192 1.44.984.432.36.624.576.624.744 0 .168-.073.24-.312.24h-6.289zm3.336 8.785h.648c.889-1.08 1.177-1.273 1.345-1.273.215 0 .48.193 1.392.888.407.336.6.528.6.697 0 .168-.072.239-.312.239h-5.137v5.737c0 .504.312.648 1.368.648.816 0 1.465-.12 1.752-.312.384-.264.864-1.536 1.368-2.952.049-.12.265-.072.265.048-.072.816-.192 2.112-.192 2.568 0 .288.024.336.6.528.288.096.456.456.456.816 0 .408-.312.744-.961.961-.743.215-1.92.359-3.624.359-2.472 0-3.264-.456-3.264-1.8 0-.288.024-.72.024-1.152v-5.449h-6.433c-.432 0-.84.048-1.416.145l-.264-.889a7.673 7.673 0 0 0 1.68.193h1.225V8.977h-1.153c-.528 0-1.055.048-1.776.144l-.264-.888c.768.144 1.368.192 1.945.192h1.248V6.937c0-.6-.048-1.176-.097-1.752 2.593.216 2.833.432 2.833.648 0 .216-.24.384-.72.528v2.064h4.8V6.937c0-.576-.048-1.128-.096-1.752 2.616.216 2.856.432 2.856.648 0 .216-.24.384-.696.528v2.064h.672c1.009-1.2 1.296-1.392 1.465-1.392.215 0 .456.192 1.367.984.385.336.576.552.576.72 0 .168-.071.24-.312.24h-3.768v3.553zm-5.76 2.592c-.936 3.984-3.193 5.952-7.873 6.937-.12.023-.216-.265-.096-.312 2.856-1.345 4.537-3.025 5.329-5.329.288-.864.432-1.8.48-2.833 2.592.505 2.928.6 2.928.961 0 .24-.168.36-.768.576zm-6.625-9.073c.144-.456.264-.936.36-1.44 1.608.6 2.136.936 2.136 1.272 0 .288-.288.456-.816.456-.816.912-1.344 1.392-2.52 2.232-.072 2.712-.24 4.129-.648 5.64 2.04.577 3.097 1.585 3.097 2.833 0 .816-.337 1.368-1.033 1.368-.528 0-.816-.336-.984-1.08-.216-1.176-.696-2.208-1.176-2.736-.792 2.856-2.04 4.776-4.296 6.744-.096.072-.312-.12-.24-.215 1.416-2.137 2.088-3.745 2.664-6.337.576-2.568.648-3.889.648-10.129 0-2.784-.024-3.264-.144-4.513 2.616.312 2.88.384 2.88.745 0 .215-.12.336-.672.624 0 2.208-.048 4.392-.072 6.6.36-.768.624-1.44.816-2.064zm-3.792 1.848c0 1.608-.504 2.953-1.68 2.953-.576 0-.937-.433-.937-1.057 0-.384.145-.672.529-1.08.912-.888 1.392-2.088 1.416-3.504 0-.12.192-.12.24 0 .264.84.432 1.8.432 2.688zm5.376 34.152c-.36.312-.696.696-.888 1.032a1.89 1.89 0 0 0-.24.864c0 .408.312.624 1.128.624 1.417 0 2.688-.312 4.104-.768-.383-.96-.6-1.536-1.056-2.808-1.056.312-1.464.408-2.256.6-.48.24-.696.36-.792.456m-2.928-.6c-.864-.36-1.488-.84-1.848-1.512-.048-.096-.096-.168-.096-.264s.048-.192.168-.192c.12 0 .192.024.312.12.888.624 1.512.768 2.28.768.936 0 3-.336 4.704-.912-.144-.504-.432-1.56-.672-2.377-.144-.504-.384-.648-.72-.743a4.02 4.02 0 0 0-.696-.121c-.12 0-.24-.023-.312-.023-.072 0-.168-.05-.168-.168 0-.144.072-.217.144-.312a1.796 1.796 0 0 1 1.393-.697c.48 0 1.104.12 1.68.336.624.24.96.6.96 1.009 0 .19-.049.383-.144.575-.12.24-.097.456-.097.72 0 .24.073.768.144 1.272.601-.192.984-.36 1.633-.671.144-.072.24-.121.504-.29.12-.07.216-.143.36-.263.192-.168.552-.287.936-.287.912 0 1.512.215 1.512.719 0 .456-.192.649-1.104 1.057a44.02 44.02 0 0 1-3.505 1.368c.241.912.553 1.776.985 2.808.864-.336 1.464-.6 1.752-.816.144-.096.168-.144.168-.264 0-.12-.264-.528-.888-1.128-.12-.12-.168-.192-.168-.288 0-.072.072-.144.168-.144.096 0 .192.072.48.216.648.36 1.176.432 1.608.432.144 0 .456-.024.6-.048a1.73 1.73 0 0 1 .648-.048c.336.048.696.36.72.744.024.264-.12.6-.576.888-1.008.624-2.184 1.128-3.864 1.8.624 1.152 1.44 2.52 2.256 3.192.624.504.96 1.177.96 1.993 0 .624-.408 1.2-1.008 1.2-.384 0-.648-.24-.984-.528a4.241 4.241 0 0 0-1.392-.816c-1.009-.336-2.377-.672-3.576-.672-1.32 0-2.257.263-2.785.55-.576.313-1.176.866-1.176 1.61 0 .84.6 1.656 2.088 1.944a15.31 15.31 0 0 0 2.76.24c.744 0 1.273-.12 1.704-.12.53 0 .913.096 1.37.312.527.264.72.576.72 1.08 0 .264-.12.528-.457.768-.336.24-1.032.288-1.777.288-1.776 0-3.552-.24-4.776-.672-2.208-.792-3.024-1.992-3.024-3.312 0-1.224.696-2.184 1.92-2.857.936-.504 2.448-.792 3.792-.792.937 0 2.208.049 3.697.217a33.47 33.47 0 0 1-1.656-3.145c-1.608.504-3 .792-4.225.792-1.512 0-2.712-.768-2.712-1.728 0-.648.312-1.008.672-1.512.264-.336.672-.696 1.032-.96a5.528 5.528 0 0 1-2.424-.336m9.312 37.176a8.329 8.329 0 0 0-2.735.936.335.335 0 0 1-.216.072c-.144 0-.216-.072-.216-.216 0-.096.072-.192.168-.312.648-.576 1.368-1.104 2.208-1.464.816-.36 2.064-.576 3.048-.576 1.056 0 2.137.264 2.664.528.553.264.816.624.816 1.176 0 .432-.383.72-.84.72a4.17 4.17 0 0 1-.936-.12 5.539 5.539 0 0 0-.888-.072c-.6 0-1.656.384-3.384 1.368-.144.096-.216.12-.36.12-.12 0-.096-.096-.096-.168.024-.168 1.176-1.032 2.304-2.016a6.659 6.659 0 0 0-1.536.024m-2.544 5.088c-.168.48-.216 1.01-.216 1.465 0 1.296 1.128 2.28 3.648 2.28 1.272 0 2.04-.072 2.424-.192.36-.12.672-.168 1.249-.168.359 0 .887.144 1.199.312.337.192.6.528.6 1.008 0 .624-.575.912-1.296 1.032-.696.12-1.848.12-2.64.12-.936 0-2.064-.096-3.192-.408-1.872-.528-2.88-1.872-2.88-3.409 0-1.03.312-1.68.672-2.328.12-.216.312-.408.432-.408s.144.072.144.192c0 .12-.096.336-.144.504m.456-10.008c.336 0 .648 0 1.08.215.288.144.528.361.528.721s-.24.671-.744.864c-1.008.408-2.736.888-3.984 1.224-.384 1.008-1.152 3.168-1.681 4.608-.576 1.56-1.416 3.721-2.688 6.961-.36.912-.792 1.224-1.392 1.224-.216 0-.504-.168-.696-.36-.192-.192-.264-.408-.264-.864 0-.432.24-.888.648-1.68 1.704-3.313 3.096-6.385 4.272-9.577-1.296.24-2.016.336-2.616.336-1.056 0-1.584-.168-2.304-.936-.432-.456-.648-1.008-.648-1.248 0-.144.048-.216.12-.216.144 0 .24.096.408.216.6.408 1.008.624 1.968.624 1.176 0 2.448-.264 3.672-.576.529-1.777.744-2.76.744-3.145 0-.408-.168-.696-.503-.84a5.538 5.538 0 0 0-.89-.288c-.167-.048-.263-.096-.263-.192 0-.144.072-.264.336-.408a2.433 2.433 0 0 1 1.129-.288c.648 0 1.775.384 2.472.96.216.192.36.408.36.672 0 .24-.168.552-.336.721-.432.431-.6.887-1.152 2.352.599-.192 1.128-.456 1.464-.697.288-.215.744-.383.96-.383m.887 35.665c-3.383.887-5.687 1.68-6.983 2.231-.312.144-.6.288-.912.552a.98.98 0 0 1-.697.264c-.48.024-1.032-.288-1.824-1.176-.384-.456-.888-1.056-.888-1.728 0-.384.096-.744.24-.744.096 0 .168-.024.384.24.84.864 1.032.96 1.752.936.36-.024 1.633-.216 4.009-.792 3.072-.72 5.472-1.368 7.296-1.896a7.26 7.26 0 0 0 1.32-.456c.312-.168.456-.192.912-.216.529 0 1.416.048 2.209.384.408.192.767.432.767.936 0 .48-.215.84-.887.864-.505.048-1.032 0-2.377.12-2.232.192-3.984.936-5.496 2.592-1.176 1.32-1.728 2.784-1.728 4.657 0 1.44.6 2.784 1.752 3.576 1.2.816 2.472 1.152 3.84 1.248.769.048 1.369.072 1.849.336.575.288.936.672.936 1.224 0 .648-.432 1.152-1.56 1.152-1.49 0-3.241-.456-4.657-1.128-1.632-.768-3.528-2.76-3.528-5.52 0-1.56.336-2.857.936-4.032.6-1.177 1.92-2.497 3.336-3.505v-.12zM86.424 10.538c.72 1.776 1.68 2.928 2.833 3.936 1.343 1.152 3.023 2.063 4.92 2.64.12.025.12.264 0 .264-.625.048-1.296.865-1.608 1.993-.048.167-.145.264-.29.264-.143 0-.48-.192-.887-.505-1.296-.96-2.328-2.232-3.192-3.6a15.73 15.73 0 0 1-1.92-4.248c.096 5.16.192 9.12.192 9.72 0 .673-.432 1.009-1.368 1.009-.72 0-1.008-.24-1.008-.84 0-.841.168-4.393.216-7.585-1.825 2.76-4.68 5.089-7.033 5.929-.12.047-.264-.192-.168-.265 2.497-1.8 4.945-5.112 6.385-8.712H81.6c-.552 0-1.13.048-1.873.144l-.263-.888c.839.144 1.487.192 2.112.192h2.64v-4.49h-2.592c-.553 0-1.13.049-1.872.146l-.265-.89c.84.145 1.489.193 2.113.193h2.616V3.289c0-1.488-.072-2.424-.192-3.24 3.072.288 3.144.312 3.144.696 0 .288-.216.456-.792.624v3.576h3.336c1.129-1.512 1.417-1.704 1.585-1.704.215 0 .456.192 1.56 1.176.48.456.67.672.67.84 0 .168-.07.24-.311.24h-6.84v4.489h2.712c1.128-1.512 1.417-1.704 1.585-1.704.215 0 .456.192 1.536 1.176.48.456.672.672.672.84 0 .168-.072.24-.312.24h-6.145zm-9.745.216c.672-.192 1.416-.432 2.256-.696.12-.048.193.216.096.288a55.72 55.72 0 0 1-2.352 1.536v2.328c0 3.336.024 4.248.024 5.4 0 .625-.096 1.129-.336 1.513-.384.623-1.104.912-2.256.912-.24 0-.36-.144-.384-.504-.048-.96-.408-1.224-2.256-1.776-.12-.025-.12-.312 0-.312 1.056.072 1.92.119 2.712.119.312 0 .336-.047.336-.36v-6.12c-.456.216-.912.432-1.344.6-.072.6-.24.864-.504.864-.288 0-.36-.216-1.176-2.784.672-.048 1.296-.168 1.872-.264l1.152-.216V5.977h-1.392c-.384 0-.744.048-1.248.144l-.264-.888c.6.144 1.056.192 1.512.192h1.392V2.833c0-1.488-.024-1.968-.12-2.833 2.376.217 3.048.36 3.048.769 0 .264-.24.48-.768.648v4.008h.12c.744-1.056 1.032-1.248 1.2-1.248.217 0 .432.192 1.104.864.264.289.456.528.456.696 0 .168-.072.24-.312.24h-2.568v4.777zm13.033 44.688c-.792 0-.936-.168-1.848-2.208-.6-1.25-1.536-2.424-2.712-3.433-.096-.071.072-.24.192-.192 3.792 1.416 5.568 2.833 5.568 4.417 0 .84-.48 1.416-1.2 1.416zm-6.648-7.37c.023 3.866.12 6.53.12 7.442 0 .624-.456.936-1.321.936-.792 0-1.104-.24-1.104-.816 0-.72.12-2.856.12-7.201v-.36h-4.104c-.504 0-.984.048-1.656.144l-.264-.888c.768.144 1.368.192 1.944.192h4.08c0-1.872-.047-2.592-.144-3.6 2.809.384 3.025.432 3.025.768 0 .216-.216.384-.696.576v2.256h2.328c.864-1.104 1.152-1.296 1.32-1.296.216 0 .504.192 1.488.912.456.336.648.528.648.696 0 .169-.072.24-.312.24h-5.472zm-4.61 3.194c-1.607 2.112-3.551 3.624-6.047 4.656-.12.048-.336-.144-.24-.216 1.368-1.248 2.592-2.76 3.408-4.201.456-.792.792-1.536.984-2.231 2.232.768 2.856 1.08 2.856 1.392 0 .336-.264.527-.96.6zM86.4 38.112c0 .792.024 1.345.024 1.584 0 .529-.408.768-1.32.768-.648 0-.936-.168-.936-.647 0-.145.024-.577.024-1.44v-.265H79.87c.025.792.025 1.345.025 1.56 0 .577-.433.792-1.321.792-.648 0-.936-.191-.936-.72 0-.192.048-.696.048-1.632h-4.272c-.456 0-.912.048-1.512.144l-.264-.888c.72.144 1.248.193 1.776.193h4.296v-.577c0-1.44 0-1.656-.12-2.424 2.785.288 3.048.384 3.048.696 0 .216-.216.384-.768.6v1.705h4.32c0-1.97 0-2.257-.071-3.001 2.568.264 2.952.384 2.952.72 0 .192-.144.336-.696.576v1.705h3.048c1.08-1.273 1.369-1.465 1.537-1.465.215 0 .503.192 1.607 1.033.504.383.697.575.697.744 0 .168-.073.239-.312.239H86.4zM71.543 48.24c-.121.024-.265-.288-.144-.336 2.736-1.248 5.712-3.672 7.56-5.952.816-.984 1.417-1.945 1.68-2.761 2.448.792 3.049 1.033 3.049 1.32 0 .264-.096.313-.913.36 1.153 1.153 2.545 2.089 4.2 2.833 1.897.864 4.154 1.464 6.65 1.752.12.024.12.288 0 .312-.697.096-1.104.576-1.44 1.704-.12.432-.217.576-.41.576-.24 0-.67-.144-1.223-.384-1.224-.528-2.976-1.536-4.176-2.4-1.512-1.104-2.952-2.592-3.913-4.008-2.423 3.048-6.408 5.592-10.92 6.984zm14.833 22.633c.792.528 1.128.936 1.128 1.391 0 .409-.216.697-.864.769a4.376 4.376 0 0 0-.672.144c-1.44.431-3.144.935-5.21 1.416-2.255.528-4.367.793-5.327.817-.288 0-.432-.048-.432-.216 0-.144.096-.17.408-.264 2.04-.53 3.624-1.034 4.848-1.514 1.68-.623 2.785-1.2 3.697-1.727.383-.216.504-.384.504-.504 0-.144-.36-.409-.696-.6-.144-.072-.24-.12-.24-.216 0-.12.359-.313.696-.313.552 0 1.512.385 2.16.817m1.296 6.576c.408-.047.576-.167.912-.36.168-.096.456-.191.912-.191s1.152.216 1.8.576c.456.24.696.671.696.983 0 .457-.312.697-.744.697-.264 0-.455 0-1.008-.072-1.152-.144-1.92-.192-2.496-.192-.552 0-2.232.047-3.576.144-.216 2.76-.937 4.895-1.944 6.575-1.248 2.09-2.953 3.554-5.281 4.514-.36.144-.48.191-.6.191-.192 0-.264-.047-.264-.167 0-.169.096-.216.6-.6 1.92-1.465 2.928-2.808 3.84-4.585.888-1.752 1.32-3.576 1.44-5.808-2.784.336-4.248.552-5.208.816-.336.096-.6.168-.816.336a1.17 1.17 0 0 1-.72.24c-.408 0-1.008-.36-1.704-1.08-.504-.528-.624-.936-.624-1.392 0-.288.072-.456.216-.456.096 0 .216.096.456.288.504.407.912.671 1.536.671.168 0 .792-.023 1.344-.096 1.32-.143 3.024-.311 5.592-.6.025-.552.025-.888.025-1.272 0-.383-.05-.672-.337-.84a2.163 2.163 0 0 0-.816-.24c-.215-.023-.288-.072-.288-.143 0-.12.073-.217.264-.361.312-.216.697-.288 1.033-.288.672 0 1.655.145 2.208.457.408.216.528.48.528.767 0 .193-.072.36-.192.553a1.31 1.31 0 0 0-.192.504c-.024.216-.024.335-.048.767 2.064-.167 2.784-.24 3.456-.335m-6.265 30.815c0-1.272-.048-1.656-.408-1.968-.264-.216-.504-.408-.888-.6-.144-.072-.192-.12-.192-.216 0-.12.096-.288.336-.384a2.08 2.08 0 0 1 .816-.145c.288 0 .696.097 1.585.553 1.272.648 1.511 1.08 1.511 1.536 0 .264-.095.48-.312.72-.192.192-.288.48-.336.84-.048.504-.048.96-.048 1.512v4.368c0 2.617 0 5.041.024 7.081 0 .696.024 1.248.024 1.44 0 .6-.504 1.056-1.008 1.056-.336 0-.744-.192-1.008-.672-.312-.552-.456-1.176-.456-1.92 0-.096 0-.408.144-.816.096-.24.144-.864.168-1.416.048-2.136.048-3.505.048-5.809v-5.16zm10.249 31.224c.504.288.864.696.864 1.224s-.336.888-.744.888c-.36 0-.624-.096-.888-.528-.504-.84-1.008-1.368-1.68-1.872-.096-.072-.288-.192-.288-.288a.19.19 0 0 1 .192-.192c.144 0 .408.024.624.072.696.12 1.296.336 1.92.696m-2.232 1.68c.648.504.888.936.888 1.44 0 .384-.264.84-.792.84-.264 0-.552-.072-.816-.552-.504-.912-.888-1.464-1.512-2.112-.097-.096-.265-.216-.265-.312 0-.144.121-.168.29-.168.215 0 .48.072.551.096.696.192 1.152.384 1.656.768m-2.88 10.249c.912.48 1.656.96 2.304 1.464 1.44 1.104 2.016 2.04 2.016 2.736 0 .745-.504 1.297-1.104 1.297-.624 0-1.056-.17-1.488-.817-.84-1.248-1.68-2.544-2.784-3.576-.936-.864-1.584-1.344-2.4-1.848-1.8 1.92-3.817 3.456-5.88 4.705-1.585.936-3.12 1.584-4.106 1.896-.192.07-.36.12-.528.12-.12 0-.24-.05-.24-.217 0-.095.072-.215.168-.263 2.833-1.536 4.85-3.097 7.513-5.81 1.896-1.943 3.12-3.623 4.872-6.36.097-.144.144-.24.144-.288 0-.072-.07-.095-.312-.072-1.68.192-3.84.553-5.736.96-.624.144-.912.265-1.104.385-.216.12-.408.263-.84.263-.456 0-.936-.287-1.608-1.128-.456-.576-.504-.936-.504-1.536 0-.456.167-.624.312-.624.072 0 .167.097.335.288.673.745.937.913 1.657.913.288 0 .888-.048 1.824-.145 1.968-.215 3.576-.432 5.28-.671.456-.073.744-.17.961-.361.215-.192.383-.263.695-.263.457 0 .77.215 1.273.648.72.624 1.008 1.007 1.008 1.343 0 .24-.072.48-.792.72-.216.073-.36.265-.576.577-1.033 1.512-1.92 2.808-3.265 4.32a31.14 31.14 0 0 1 2.905 1.344m-.12 26.015c.384-.096.48-.168.648-.336a.906.906 0 0 1 .648-.264c.216 0 .576.168.912.408.864.648 1.249 1.128 1.249 1.56 0 .192-.073.48-.505.696a1.46 1.46 0 0 0-.648.552c-1.248 2.04-2.088 3.264-2.952 4.393 1.608 1.128 1.992 2.04 1.992 2.784 0 .576-.432 1.176-1.056 1.176-.336 0-.744-.216-1.032-.6-.408-.576-.648-1.008-1.2-1.632-2.785 3.12-6.264 5.76-10.297 7.104-.096.024-.288.097-.408.097-.096 0-.24-.073-.24-.217 0-.12.072-.216.288-.336 3.216-1.944 5.785-3.72 9.24-7.992-.888-.768-1.656-1.248-2.64-1.8-.24-.144-.36-.217-.36-.312 0-.17.12-.24.337-.217.168.024.359.048.576.097.768.12 1.752.36 3.072.888 1.056-1.465 1.992-3.097 2.76-4.585a.544.544 0 0 0 .072-.288c0-.048-.048-.096-.24-.072-.864.12-1.584.312-2.208.432-.648.12-.96.168-1.176.168-.408 0-.77-.096-1.225-.288-1.175 1.608-2.496 3.216-3.671 4.32-1.37 1.273-2.521 2.065-3.29 2.449-.143.072-.215.12-.335.12-.192 0-.264-.096-.264-.216s.048-.168.192-.312c.96-.985 1.896-2.04 2.784-3.17.936-1.223 1.824-2.495 2.593-3.815.84-1.416 1.055-2.04 1.055-2.352a.675.675 0 0 0-.168-.408 2.954 2.954 0 0 0-.815-.6c-.168-.096-.241-.144-.241-.24 0-.168.456-.408.793-.408.768 0 1.416.288 2.16.72.84.48 1.152.84 1.152 1.224 0 .312-.048.528-.36.696-.288.168-.408.264-.504.384-.144.192-.264.384-.528.792 1.368-.096 2.664-.336 3.84-.6m-4.704 35.399c-.12-.311-.505-.624-1.105-.864-.192-.072-.288-.095-.288-.263 0-.169.432-.529 1.008-.529.576 0 1.321.288 2.184.84.432.264.96.672.96 1.225 0 .287-.119.455-.336.671-.095.096-.168.264-.192.576-.047 1.608-.072 3.072-.12 5.425v1.775c0 .218.024.313.12.313.097 0 .265-.048.577-.192 2.64-1.127 4.992-2.28 7.92-4.657.288-.24.432-.383.6-.383.144 0 .24.071.24.215 0 .096-.096.216-.192.336-1.608 2.208-4.32 4.49-8.473 6.938a1.208 1.208 0 0 0-.48.503.637.637 0 0 1-.55.337c-.29 0-.794-.289-1.202-.769-.456-.552-.672-1.104-.672-1.44 0-.097.024-.24.072-.409.072-.238.12-.887.12-1.463 0-1.92 0-3.553-.024-6.6 0-.72-.048-1.297-.168-1.585m-5.472 1.536c-.192-.072-.312-.096-.312-.216 0-.143.456-.504.936-.504.624 0 1.68.385 2.544.936.6.384.72.72.72 1.032 0 .216-.048.384-.336.624-.168.144-.264.36-.408.816-.504 1.512-1.056 3.072-1.968 4.464-1.176 1.801-2.76 3.433-4.849 4.465-.24.12-.384.192-.48.192-.144 0-.216-.072-.216-.24 0-.144.05-.168.24-.336 1.49-1.296 2.425-2.496 3.385-4.2.768-1.369 1.272-2.809 1.656-4.177.192-.72.288-1.224.288-1.703 0-.505-.552-.888-1.2-1.153M86.4 251.497c1.44.6 2.232 1.344 2.232 2.424 0 .768-.552 1.272-1.032 1.272-.432 0-.864-.144-1.32-.696-.576-.671-1.128-1.271-1.728-1.752-.768-.624-1.584-1.104-2.496-1.368v4.177c0 1.007.048 3.216.095 5.808 0 .912-.407 1.128-.888 1.128-.336 0-.768-.12-1.008-.552a4.067 4.067 0 0 1-.528-1.896c0-.12.048-.552.12-.696.073-.144.12-.264.12-.408.024-.312.073-.984.097-5.377.024-2.28 0-4.32 0-6.576 0-.624 0-1.704-.097-2.04-.071-.217-.264-.408-.504-.552-.36-.216-.647-.336-.84-.384-.168-.049-.24-.12-.24-.217 0-.144.168-.264.312-.359.192-.121.456-.217.672-.217.553 0 1.272.12 2.425.649.648.288.96.672.96 1.128 0 .288-.144.527-.41.768-.094.096-.142.24-.167.48-.071.672-.12 2.088-.12 4.32 1.44.072 3 .384 4.345.936" fill="#FFF" fill-rule="evenodd"/></svg>