<svg viewBox="0 0 123 43" xmlns="http://www.w3.org/2000/svg" xmlns:xlink="http://www.w3.org/1999/xlink"><defs><path id="a" d="M.5.62h4.12V5.1H.5z"/><path id="c" d="M.42.63h3.91V5.1H.42z"/><path id="e" d="M.28.62h4.11V5.1H.28z"/><path id="g" d="M.64.22h30V31.1h-30z"/></defs><g fill="none" fill-rule="evenodd"><path d="M35.01 39.58a6.64 6.64 0 0 0-.2-.07c-.67-.24-1-.52-1-.85 0-.2.08-.37.23-.5.16-.12.36-.19.61-.19.27 0 .48.06.63.18.15.12.24.3.27.55l.22-.04a3.32 3.32 0 0 1-.1-.87 4.98 4.98 0 0 0-.96-.16c-.39 0-.71.12-.97.35a1.1 1.1 0 0 0-.38.86c0 .3.08.53.24.72.17.19.44.35.82.48l.18.06c.55.18.82.44.82.77 0 .24-.09.43-.26.58-.18.15-.4.22-.68.22-.32 0-.56-.07-.73-.23-.16-.15-.26-.39-.29-.72l-.25.07a3.91 3.91 0 0 1 .09.83v.19a3.05 3.05 0 0 0 1.04.2c.47 0 .84-.13 1.13-.38.28-.25.43-.57.43-.97a1 1 0 0 0-.22-.65 1.53 1.53 0 0 0-.67-.43m7.5 2.16c-.14 0-.24-.05-.3-.15-.05-.1-.07-.31-.07-.64v-2.31c0-.32.02-.53.07-.63.06-.1.16-.14.3-.14h.08v-.2a9.37 9.37 0 0 1-1.44 0v.2h.07c.16 0 .26.05.31.14.06.1.09.34.09.74v.83a52.05 52.05 0 0 1-2.2 0v-.88c0-.38.04-.6.09-.7.05-.08.16-.13.31-.13h.08v-.2a8.34 8.34 0 0 1-1.44 0v.2a.48.48 0 0 0 .07 0c.15 0 .25.05.3.15.06.1.08.33.08.67v2.26c0 .33-.02.54-.08.64-.05.1-.15.15-.3.15h-.09v.2a16.97 16.97 0 0 1 1.49 0v-.2h-.1c-.16 0-.26-.04-.32-.13-.05-.1-.08-.34-.08-.72v-.95h.6a25.76 25.76 0 0 1 1.55 0h.04v1.02c0 .34-.03.56-.09.65-.05.09-.15.13-.3.13h-.11v.2a15.39 15.39 0 0 1 1.5 0v-.2h-.11" fill="#FEFEFE"/><g transform="translate(44.46 36.95)"><mask id="b" fill="#fff"><use xlink:href="#a"/></mask><path d="M3.62 4.27c-.26.33-.59.5-1 .5-.43 0-.78-.2-1.07-.58a2.4 2.4 0 0 1-.42-1.47c0-.53.12-.96.37-1.28a1.2 1.2 0 0 1 1-.48c.43 0 .79.18 1.07.56.28.37.42.85.42 1.43 0 .55-.12.99-.37 1.32m.32-3.11a1.77 1.77 0 0 0-.61-.4 2.14 2.14 0 0 0-1.53 0A2.17 2.17 0 0 0 .67 1.95a2.48 2.48 0 0 0 .38 2.45 1.96 1.96 0 0 0 2.23.56 2 2 0 0 0 .63-.4c.23-.22.4-.48.53-.77a2.59 2.59 0 0 0 .01-1.87 2.25 2.25 0 0 0-.5-.76" fill="#FEFEFE" mask="url(#b)"/></g><g transform="translate(51.02 36.95)"><mask id="d" fill="#fff"><use xlink:href="#c"/></mask><path d="M3.6 3.06a11.14 11.14 0 0 1-.8-.02v.2h.05c.24 0 .4.04.47.1.07.08.1.28.1.62a10.23 10.23 0 0 1 0 .66c-.13.05-.25.08-.36.1a1.55 1.55 0 0 1-1.56-.5 2.15 2.15 0 0 1-.47-1.45c0-.57.14-1 .41-1.31.28-.31.66-.47 1.15-.47.37 0 .65.07.85.2.2.15.33.36.38.64l.22-.05a6.25 6.25 0 0 1-.1-.92A3.86 3.86 0 0 0 2.7.63c-.67 0-1.22.2-1.64.62A2.2 2.2 0 0 0 .42 2.9c0 .66.2 1.2.59 1.6.4.4.92.61 1.57.61a5.25 5.25 0 0 0 1.4-.24 5.04 5.04 0 0 1-.03-.6v-.31c0-.34.02-.54.07-.6.05-.07.15-.1.31-.1v-.21a9.42 9.42 0 0 1-.73.02" fill="#FEFEFE" mask="url(#d)"/></g><path d="M60.4 37.69a6.32 6.32 0 0 1-.58-.02v.2h.04c.1 0 .18.01.23.04.05.02.07.06.07.1 0 .05-.08.22-.23.5l-.7 1.22-.68-1.29-.06-.1a1 1 0 0 1-.14-.33c0-.05.03-.08.08-.1a.66.66 0 0 1 .24-.04h.04v-.2a8.5 8.5 0 0 1-1.42 0v.2h.07l.03-.01c.14 0 .3.15.46.45l.07.11.91 1.64-.01 1.07c0 .25-.04.41-.1.5-.05.07-.16.11-.33.11h-.11v.2a16.49 16.49 0 0 1 1.63 0v-.2h-.1c-.17 0-.28-.04-.34-.1-.05-.07-.08-.25-.09-.53v-1.07l.7-1.15.2-.34c.27-.46.49-.68.66-.68h.03a.2.2 0 0 1 .03 0v-.2a5.9 5.9 0 0 1-.6.02" fill="#FEFEFE"/><g transform="translate(62.68 36.95)"><mask id="f" fill="#fff"><use xlink:href="#e"/></mask><path d="M3.39 4.27c-.25.33-.58.5-1 .5-.42 0-.78-.2-1.06-.58A2.4 2.4 0 0 1 .9 2.72c0-.53.13-.96.38-1.28a1.2 1.2 0 0 1 1-.48c.42 0 .78.18 1.06.56.29.37.43.85.43 1.43 0 .55-.13.99-.38 1.32m.33-3.11a1.76 1.76 0 0 0-.62-.4 2.15 2.15 0 0 0-1.52.01A2.18 2.18 0 0 0 .44 1.95a2.5 2.5 0 0 0-.03 1.73c.1.27.23.5.41.72a1.95 1.95 0 0 0 2.23.56 2 2 0 0 0 .64-.4 2.42 2.42 0 0 0 .7-1.7c0-.34-.06-.65-.17-.94a2.24 2.24 0 0 0-.5-.76" fill="#FEFEFE" mask="url(#f)"/></g><path d="M70.25 38c.05-.09.17-.13.34-.13h.04v-.2a7.99 7.99 0 0 1-1.06.01c-.13 0-.25 0-.39-.02v.21h.08c.15 0 .25.05.3.15.05.1.08.33.08.67a41.02 41.02 0 0 1 0 .7v.8a23.25 23.25 0 0 0 0 .65c0 .38-.03.63-.08.74-.05.1-.15.16-.3.16h-.1v.2a14.03 14.03 0 0 1 1.5 0v-.2h-.09c-.16 0-.27-.04-.33-.13-.05-.09-.08-.33-.08-.72V38.7c0-.37.03-.6.09-.7" fill="#FEFEFE"/><path d="M72.98 41.74h-.05c-.17 0-.43-.2-.8-.59L72 41l-1.3-1.38 1.4-1.42.04-.03c.2-.2.4-.3.62-.3h.02v-.2a8.58 8.58 0 0 1-1.33 0v.2h.07c.08 0 .14 0 .17.03a.1.1 0 0 1 .06.1c0 .04-.1.17-.29.38l-.2.23-1.09 1.25.89.95a4.32 4.32 0 0 1 .9 1.12v.02a7.84 7.84 0 0 1 .94 0h.1v-.21h-.03m5.69-4.05c-.11 0-.3 0-.56-.02H78v.2h.05c.12 0 .21.02.27.05.05.04.1.1.12.2a41.76 41.76 0 0 1 .06 1.84c0 .4-.02.7-.06.86-.05.18-.12.33-.22.45a.93.93 0 0 1-.37.26c-.14.06-.3.1-.5.1a1.2 1.2 0 0 1-.65-.18 1.05 1.05 0 0 1-.41-.5c-.04-.1-.08-.22-.1-.37l-.02-.72v-1.1c0-.39.02-.64.08-.74.05-.1.15-.16.3-.16h.04a.5.5 0 0 0 .05 0v-.2a8.45 8.45 0 0 1-1.07.02l-.39-.01v.2h.05c.16 0 .26.04.32.12.05.08.08.3.08.64v.09a58.47 58.47 0 0 1-.01 1.47c0 .38.03.67.1.87a1.4 1.4 0 0 0 .86.87c.2.08.42.12.67.12.35 0 .65-.08.91-.23.26-.15.44-.36.55-.63.05-.13.09-.28.1-.44.03-.17.04-.41.04-.73v-.3c0-.55 0-.95.02-1.2 0-.24.02-.4.04-.46a.25.25 0 0 1 .12-.14.54.54 0 0 1 .25-.05h.04v-.2h-.1l-.56.02m5.84 3.78c-.15.1-.47.14-.94.14a8.19 8.19 0 0 1-.72-.03 45.46 45.46 0 0 1 0-1.7h.7c.35 0 .57.03.66.1.1.05.14.17.14.34v.02h.18a4.95 4.95 0 0 1 .02-1.12l-.18-.02c0 .15-.05.25-.14.3a1.2 1.2 0 0 1-.54.08h-.84l.01-.68.02-.89h.7c.42 0 .68.03.8.12.13.08.2.25.22.49l.19-.02a20.97 20.97 0 0 1-.05-.94 20.13 20.13 0 0 1-1.96.03l-.9-.03v.2h.03c.16 0 .26.04.32.1.06.07.1.19.1.36a121.46 121.46 0 0 1-.01 1.06l-.01.82v.44c-.01.75-.14 1.12-.39 1.12a.9.9 0 0 1-.1 0v.19h.1a46.01 46.01 0 0 1 2.89 0 8.3 8.3 0 0 1 .26-.97l-.2-.07c-.1.28-.21.46-.36.56m6.73-3.78c-.1 0-.3 0-.56-.02h-.1v.2h.08c.13 0 .23.02.28.06.06.03.1.1.12.19.02.08.04.65.05 1.7l.02 1.2-2.33-2.92a2.4 2.4 0 0 1-.27-.43 4.77 4.77 0 0 1-.98 0v.2h.07c.16 0 .27.03.33.1.07.07.1.19.1.36a123.03 123.03 0 0 1 0 1.06l-.02.8v.44c0 .74-.14 1.11-.39 1.11h-.09v.2a9.34 9.34 0 0 1 1.2 0h.13v-.2h-.09a.54.54 0 0 1-.28-.06.3.3 0 0 1-.12-.19c-.02-.1-.04-1.1-.05-2.97v-.07l2.43 3.03.02.04c.2.24.31.4.35.48h.31a13.9 13.9 0 0 1-.03-1.77l.01-.8v-.44c.01-.75.14-1.12.4-1.12a.96.96 0 0 1 .08 0v-.2h-.08l-.59.02M82.1 24.57a.49.49 0 0 0-.53-.41c-2.4.33-4.76.43-5.42.36l-4.32-.41-6.82-.55c-.05-.38-.09-2.16-.09-2.58l-.04-2.26c0-.76-.04-1.58.04-2.37 1.12-.04.87-.07 1.99-.07l4.93.24c3.02.28 4.03-2.03 4.66-3.48.81-1.88-3.85-.24-6.8-.5l-4.9-.15v-1.77L65.05 7c0-.17.04-.62.16-.76.09-.06 3.93-.15 7.22.24 2.84.34 4.5-2.92 4.31-3.83-.16-.82-3.68.25-6.05.17 0 0-2.45.08-4.25.08-1.66 0-5.23.05-7.44.08-5.47.08-5.91-.67-7.35-.08-1.29.52-1.96 1.39-2.54 2.64-.32 1.12-.42 1.77.74 1.77.2 0 2.18-.34 2.39-.38l5.02-.48c.3 0 2.47-.17 2.68-.17.62 0 .7.41.74.9 0 .4.16 2.5.16 2.94l-.04 2.34-3.25.17-4.68.16c-1.3 0-2.47 1.36-2.7 2.61-.25 1.44-.31 2.55.66 2.21 2.12-.73 5.4-1.13 6.14-1.17l3.88-.14c.08.35.08.42.08.76v2.95l-.17 3.44s-2.33.15-5.26.51c-2.8.35-4.82.5-6.54.66-1.34.13-2.11.12-2.7.32-1.05.38-1.81 1.37-1.97 2.84-.24 2.15.51 2.64 2.46 2.07 1.87-.55 3.52-1.4 5.97-1.96 2.45-.58 7.26-1.2 9.96-1.2 5.97 0 8.64.9 9.97 1.43 1.33.53 3.97 1.43 4.96 1.43 2.06 0 4.74-3.48 4.5-4.99m-67.56-6.18c.69 0 2.3-.9 2.3-1.5 0-.22-.18-.45-.57-.71l-2.55-1.65c-.57-.38-1.26-1.16-1.26-1.35 0-.08 2.08-2.67 3.2-3.42.35-.26.74-.48.74-1.01 0-1.35-2.2-2.48-3.07-2.48-.3 0-1.65.34-1.95.34 0-.56.26-3.34.26-3.97 0-1.2-.56-1.66-1.6-1.66C9.27.97 6.9.95 6.9 2.22c0 .53.74 1.26 1.05 2.62.08.34.12.83-.03 1.76-.52.04-2.83.46-4.63.01-.17-.04-1.25.82-1.25 2.73 0 1.58 1.47 1.61 1.51 1.61.1 0 1.82-.33 2-.37l3.8-.75h.26c.1 0 1.13-.15 1.22-.15l.3.07c-.04.87-2.15 4.36-8.43 6.45-1.73.57-2.7.06-2.7.51 0 1.09 1.76 4 3.19 4 .56 0 .78-.1 2.72-1.35.3-.18 1.7-1.35 2.08-1.53l.05.15.04 3.15-.13 3.19a7.8 7.8 0 0 1-.42 2.51c-.54 1.3-1.03 1.96-1.03 2.75 0 1.73 2.03 2.12 2.94 2.12 1.73 0 1.78-1.58 1.82-3.22l.13-4.2v-4.1l.04-3.64.04-.1h.13c.83.55 1.39 1.04 1.48 1.12.78.67.95.82 1.47.82m89.4-2.02c-.33 0-3.17.3-3.55.3-.57 0-.3-.51-.3-1.54.05-.25.1-.45.28-.52.19-.08 1.06-.12 1.72-.19.66-.07 3.71-.14 4.72-.1 1.04.04 2.34-.07 2.36.39.01.41.18 1.83-.31 1.86-.5.03-1.99-.2-4.92-.2m10.71 6.47c-.67-.2-3-.68-4-1.26 0 0 1.28-.9 3.6-1.16 1.24-.18 1.5-.59 1.32-1.2-.16-.53-2.51-.76-3.1-.7-.59.07-.32.3-.75.53-.44.21-1.89 1.05-2.71 1.43-.2-.17-1.03-.78-1.2-1.01-.22-.3.33-.7-.58-.7-.5 0-.9.3-1.18.67 0-.16.02-.31.05-.5.04-.38.16-.45.57-.45.42 0 3.88-.16 4.33-.16.75 0 .81.35 1.43-.62.33-.51.08-1.3.12-2.12.06-1.15.58-1.21.58-1.55 0-.38.04-.7-.25-.9-1.2-.83-2.15-.54-3.51-.54-.17 0-1.18.02-1.39-.02l-3.5-.07-1.4.07-3.59.2c-1.48-.13-2.84-.01-2.63 1.13.08.44.33 1.09.28 1.52-.01.16-.04 2.32.05 2.5.57 1.05 2.82.43 3.3.53-.32.55-2.82 2.96-4.28 3.59-1.2.5-3.4-.49-3.62.26-.22.15.53 1.57.56 1.66.32.9 1.28 1.53 2.24 1.55 2.37.05 7.18-4.46 7.7-5.04a6.9 6.9 0 0 1-.08 2.03c-.09.17-.46 1-.46 1.2 0 .28.11 1.4 1.16 1.83.2.08-.24.27.34.27.5 0 2.17-.28 2.17-1.3 0-.45-.2-2.79-.2-2.93v-.4c.1.05.21.1.35.12.41.1.45.14.62.31 2.88 2.85 5.82 3.61 6.63 3.74 2.17.35 3.24-1.66 3.24-2.34 0-.69-.72.12-2.21-.17" fill="#FEFEFE"/><g transform="translate(12.39 .5)"><mask id="h" fill="#fff"><use xlink:href="#g"/></mask><path d="M26.02 17.96c-2.25-.05-3.66-.16-4.59-.19-1.06-.03-5.02-.4-5.02-.4-.04-.79-.07-1.75-.04-2.63 0-.24.34-.18.9-.14l4.94.37c1.7.11 2.86-3.08 2.94-3.25.38-.8-1.28-.15-2.65-.1-1.37.05-3.71-.18-3.71-.18l-2.38-.03c.04-.72-.04-2.2.22-2.25.25-.06 2.42.03 2.42.03l3.51.38c1.23.09 1.54.25 2.16-.23.36-.27 1.4-2.43 1.58-3.23.2-.88-1.15-.2-2.18-.2l-2.05-.05s-3.79.01-4.46-.02c.28-.34 1.81-1.39 3.86-2.86.4-.28 2.14-1.1 2.14-1.96 0-.9-1.71-.8-4.3-.8-1 0-1.43-.04-2.12 1.13a7.93 7.93 0 0 0-.62 1.7s-.53 2.7-1 2.69c-.47-.02-2.04.09-2.04.09-.04-.23-.04-.27-.17-.64a33.33 33.33 0 0 0-1.68-2.86C10.34.64 10.12.38 7.88.38c-.4 0-2.34.4-2.34 1.2 0 .78.47 1.09 1.2 1.5 1.05.56 2.29 1.17 3.8 2.82l-2.38.12c-.43.03-1.94.14-2.2.29-.87.4-1.35 2.18-1.46 2.66-.2.84-.52 1.58.74.98 1.12-.54 5.2-.63 5.2-.63.12-.04 1.45-.08 1.58-.08.48 0 .4.18.4 2.1 0 .33-.94.28-1.72.31 0 0-2.51.1-2.86.14-.36.03-1.42.05-1.84.41-.42.36-.6 1.02-.9 1.87-.42 1.19-.42 1.97.22 1.6.39-.21 2.07-.56 2.55-.6.52-.07 3.47-.33 3.99-.33.3 0 .57-.12.57.18 0 .22-.06 2.5-.1 2.64-.87.12-5.32.64-5.54.68-2.5.38-3.4.29-4.1.52-1.05.34-1.54 1.29-1.86 2.48-.24.89-.43 2.66.62 2.22a35.42 35.42 0 0 1 5.2-1.73c1.15-.25 5.7-1.05 5.68-.9l-.26 2.88a82.7 82.7 0 0 1-.82 5.26c-.52 1.88 1.36 2.13 2.83 2.13 2.56 0 3.31-1.46 3.1-4.54l-.5-3.3s-.13-1.88-.13-2.12c0-.36.12-.35.12-.35 1.51 0 3.77.54 5.63.8l3.22.65a6 6 0 0 0 2.58-.2c1.87-.8 2.54-3.91 2.54-4.51 0-.5-3.18.47-4.62.43" fill="#FEFEFE" mask="url(#h)"/></g><path d="M74.64 17.62c-.46 0-1.53.28-1.57.76-.08.96-.12 1.44-1.94 3.2-.4.4-1.24 1-1.1 1.38.15.39.98.33 1.35.33 1.11 0 6.26-2 6.26-3.09 0-.86-1.6-2.58-3-2.58m43.32-9.07l-.13 2.96-.08 1.03-.25 3.74.05 6.62s.37 2.64-.5 2.79c-1.7.27-3.33.41-5.02.41-.33 0-1.98.07-2.35.07l-4.86-.07-4.62.03-3.58-.06c-1.03-.04-3.19 0-3.54 0-1.03-.03-1.44-.85-1.32-3.3.1-1.83.37-3.88.37-3.88L91.97 16l-.04-2.13-.33-3.78-.08-1.61V7.46c0-1.41.49-1.43 1.35-1.67.85-.25 9.97-.96 9.97-.96.08.27.08 1.46 0 1.87-.37.04-1.88.19-2.66.21-1.3.04-1.6-.15-1.84-.16-1-.05-1.3.48-1.72 1.27-.41.79-.78 1.55.5 1.35l5.84-.54.09 1.03-2.76.17-3.5.28h-.21c-1.4 0-2.82-.04-3.34 2.16-.15.63-.03 1.6 1.03.93a11 11 0 0 1 1.77-.72c1.73-.52 4.22-.94 6.22-1.07l4.08-.03 3.5.27 1.32.2 3.43.7c1 .17 2.12-1.74 2.14-2.32.04-1.02-2.37-.25-3.23-.33l-1.92-.14-5.48-.13-.09-.04.05-.96.12-.1c.62 0 3.32-.06 4.01.06 1.43.25 1.95.2 2.62-.32.36-.3 1.55-1.97.78-2.25-.78-.29-3.55.37-4.79.37 0 0-2.28-.09-2.86-.09-.04-.36 0-1.8.2-1.81 1.85-.07 3.73-.15 5.28.02 0 0 5.95.34 6.41.9.47.54.13 2.5.13 2.94m1.06-6.38s-2.37.1-4.54 0c-2.06-.1-6.29-.5-9.78-.5-3.49 0-7.7.6-8.9.73-1.52.15-2.83.36-4.4.39-1.65.02-2.21-1.23-3.8 0-1.74 1.33-.86 2.64-.86 3.19 0 .17 1.06 1.14 1.1 1.34l.2 1.61.18 8.69s-.03 5.06-.38 6c-.55 1.51-.61 3.2-.61 4.42 0 1.23 1.05 1.84 2.57 1.84.29 0 3.7-.28 4.02-.28l4.94-.48s2.97-.34 6.1-.34c3.13 0 6.16.2 6.16.2 1.18 0 3.31.55 3.64.55.17 0 1.13.19 1.54.2.16 0 2.44.17 3.31.03 1.67-.27 2.08-.7 2.46-1.47.7-1.48-.9-3.54-.99-5.64-.12-3.07.07-6.13.07-6.13l.53-5.35.25-2.58c.04-.55.25-.96.54-1.48.37-.58.53-.92.53-1.06 0-.28.82-3.67-3.88-3.88" fill="#FEFEFE"/></g></svg>