<svg viewBox="0 0 67 175" xmlns="http://www.w3.org/2000/svg" xmlns:xlink="http://www.w3.org/1999/xlink"><defs><path id="a" d="M0 174.56h14.49V0H0z"/><path id="c" d="M0 0h32.02v173.77H0z"/></defs><g fill="none" fill-rule="evenodd"><path d="M8.44 7.77c.39.92.96 1.73 1.68 2.4.54-.73.96-1.54 1.23-2.4H8.44zm2.86-.37c.4-.45.51-.51.6-.51.1 0 .23.06.68.48.2.16.25.24.25.34 0 .15-.07.23-.5.4-.4 1-.9 1.87-1.55 2.59a8.68 8.68 0 0 0 3.37 1.33c.08.01.06.14-.01.17-.4.13-.5.34-.63.82-.03.14-.1.2-.21.2-.12 0-.3-.06-.54-.17a9.5 9.5 0 0 1-2.58-1.75 8.87 8.87 0 0 1-3.1 1.75c-.08.03-.17-.12-.1-.16a10.76 10.76 0 0 0 2.69-2.15c-.7-.88-1.19-1.9-1.58-2.97-.34 0-.58.03-.96.1l-.15-.58c.5.09.8.1 1.25.1h3.07zM3.68 4.05h7V2.69h-7v1.36zm0-1.74h7V.93h-7v1.38zm-.64 9.02c.87-.12 1.74-.29 2.6-.5V9.59h-2.6v1.74zm0-2.12h2.6V7.85h-2.6V9.2zm0-1.74h2.6V6.09h-2.6v1.38zm.64-2.95c0 .3-.2.43-.63.43-.33 0-.46-.1-.46-.37s.04-.72.04-2.33c0-1-.01-1.54-.06-2.25.51.2.75.3 1.23.56h6.77c.43-.47.52-.53.61-.53.1 0 .18.06.7.47.22.19.28.27.28.37 0 .12-.1.23-.42.4v.8l.01 2.45c0 .31-.2.45-.63.45-.31 0-.45-.11-.45-.36v-.18H3.68v.09zM1.61 6.09c-.36 0-.63.03-1.05.09l-.15-.55c.48.07.78.09 1.2.09h10.41c.59-.71.7-.78.8-.78.1 0 .2.06.87.57.3.24.37.34.37.43 0 .1-.06.15-.2.15h-7.2v3.23c0 1.72.05 3.25.05 3.72 0 .3-.2.46-.66.46-.36 0-.46-.15-.46-.36 0-.18.04-.8.04-1.96-1.47.58-2.34.88-4.17 1.32-.09.34-.16.45-.28.45-.14 0-.27-.26-.53-1.43.44 0 .83-.01 1.19-.04l.2-.02V6.09H1.6zm10.43 20.69c0 2.04.03 3.73.03 4.26 0 .31-.24.48-.7.48-.32 0-.47-.12-.47-.41 0-.3.06-1.36.06-3.58v-4.44H9.02c-.04 1.65-.2 2.74-.45 3.79a7.08 7.08 0 0 1-2.79 4.35c-.09.06-.25-.09-.2-.16a8.7 8.7 0 0 0 2.12-4.73c.2-1.18.27-2.52.27-4.45 0-1.44-.01-1.8-.09-2.52a11 11 0 0 1 1.3.58c.92-.34 1.69-.84 2.44-1.42.22-.18.43-.38.64-.63.93.58 1.25.87 1.25 1.02 0 .13-.17.22-.72.12a12.12 12.12 0 0 1-3.74 1.27v1.29l-.01 1.11h3.34c.59-.72.7-.8.8-.8.1 0 .2.08.82.62.27.23.35.32.35.4 0 .11-.06.16-.21.16h-2.1v3.69zm-9.86-4.7a3.85 3.85 0 0 0-.46-1.45c-.03-.06.06-.12.12-.1.82.41 1.36 1.06 1.36 1.6 0 .4-.24.69-.54.69-.31 0-.4-.11-.48-.74zm3.45-2.28c.45-.6.56-.67.65-.67.1 0 .2.07.73.5.23.19.3.3.3.4 0 .09-.04.15-.2.15h-5.3c-.3 0-.53.01-.9.09l-.17-.57c.42.07.7.1 1.04.1h1.5v-.97c0-.35-.02-.62-.06-1.1 1.38.15 1.57.26 1.57.4 0 .11-.1.23-.48.38v1.29h1.32zm.12 3.32c.54-.66.65-.72.74-.72.1 0 .2.06.78.52.25.23.33.33.33.42 0 .1-.05.15-.2.15H1.45c-.3 0-.53.03-.92.09l-.15-.57c.42.08.7.1 1.07.1h2.73c.3-.68.5-1.27.66-1.78.09-.34.15-.67.18-.97.96.3 1.38.52 1.38.69 0 .16-.12.22-.53.25-.5.78-.82 1.23-1.35 1.82h1.23zm-1.5 3.31c1.41.38 2.18 1.04 2.18 1.67 0 .36-.2.58-.48.58-.26 0-.38-.13-.57-.58a3.63 3.63 0 0 0-1.13-1.38v.5c0 2.83.05 3.59.05 3.85 0 .36-.2.49-.66.49-.33 0-.45-.12-.45-.43 0-.45.09-2.24.12-3.77A8.95 8.95 0 0 1 .25 30.3c-.1.06-.21-.12-.14-.2a10.8 10.8 0 0 0 2.99-4.33H1.5a6 6 0 0 0-.94.09l-.15-.58c.42.1.7.12 1.07.12h1.8v-.18c0-.65-.03-.95-.08-1.4 1.16.12 1.47.23 1.47.4 0 .11-.09.2-.42.35v.83h1.37c.5-.62.6-.68.69-.68.1 0 .2.06.76.5.23.22.3.33.3.42 0 .09-.04.13-.2.13H4.26v.66zm-.69 13.7a4.68 4.68 0 0 0-1.3 3.24c0 .64.12 1.02.33 1.39.16.3.4.51.7.51.32 0 .62-.27 1.05-.85a15.94 15.94 0 0 0 2.15-3.9c.18-.5.2-.87.2-1.19 0-.36-.11-.57-.23-.69a5.3 5.3 0 0 0-2.9 1.49m3.78-.36a6 6 0 0 1-.39 1.75 15.1 15.1 0 0 1-2.14 3.89c-.42.54-.89.97-1.52.97-.43 0-.8-.2-1.12-.6a3.3 3.3 0 0 1-.7-2.22c0-1.15.49-2.52 1.42-3.54a6.41 6.41 0 0 1 4.8-1.96c1.54 0 2.74.55 3.48 1.15a4.28 4.28 0 0 1 1.66 3.4c0 1.7-.64 2.66-1.62 3.52-1.1.95-3.16 1.59-5 1.68-.1 0-.2-.1-.2-.18 0-.12.07-.17.27-.21a8.33 8.33 0 0 0 4.08-1.91 4.24 4.24 0 0 0 1.35-3.1c0-.87-.33-2.12-1.26-2.87-.7-.55-1.6-.97-2.8-.97-.3 0-.53 0-.79.03.32.34.48.76.48 1.17" fill="#FFF"/><mask id="b" fill="#fff"><use xlink:href="#a"/></mask><path d="M5.05 66.18h6.2v-3.5h-6.2v3.5zm0 .78c0 .38-.2.56-.66.56-.36 0-.5-.13-.5-.48 0-.3.08-.86.08-2.72 0-1.15 0-1.81-.08-2.62.56.22.78.34 1.3.61h1.9v-3.59c0-1.02-.02-1.62-.08-2.08 1.5.15 1.71.29 1.71.45 0 .13-.13.26-.55.43v1.63h2.73c.67-.77.8-.84.88-.84.1 0 .21.07.9.64.29.22.38.33.38.42 0 .1-.08.15-.21.15H8.17v2.79h2.95c.47-.54.54-.6.63-.6.1 0 .23.06.74.51.2.2.28.29.28.38 0 .1-.09.19-.42.43v.96c0 1.83.06 2.68.06 2.94 0 .38-.2.57-.63.57-.39 0-.52-.15-.52-.5v-.44H5.05v.4zm6.8-11.2c.68-.8.76-.86.86-.86.1 0 .2.06.93.63.35.27.4.36.4.45 0 .1-.07.15-.22.15h-11v.99c-.02 2.98-.16 4.77-.5 6.16a9.05 9.05 0 0 1-2.03 3.98c-.06.07-.25-.02-.2-.1.77-1.47 1.12-2.7 1.33-4.07a36 36 0 0 0 .27-5.15c0-1.38-.03-1.95-.1-2.89.58.24.83.38 1.39.7h4.08v-1.09c0-.3-.02-.52-.08-.99 1.53.16 1.71.28 1.71.47 0 .12-.13.23-.55.43v1.19h3.7zm.17 17.44a2.8 2.8 0 0 0-.82-1.06c-.06-.05 0-.17.07-.15 1 .15 1.53.54 1.53 1.03 0 .32-.2.51-.42.51-.16 0-.25-.07-.36-.33zm.36 7.79v-2.13h-1.9l.01 2.13h1.9zm-1.9-2.5h1.9v-1.97h-1.9v1.96zm-1 2.5v-2.13H7.7v2.13h1.77zm-1.78-2.5h1.8v-1.97H7.7v1.96zm1.79-4.12H7.5c-.33 0-.57.03-.98.09l-.15-.58c.44.09.74.12 1.13.12h1.98c0-1.43-.02-1.9-.06-2.3 1.42.18 1.57.24 1.57.44 0 .13-.1.24-.52.4V74h1.96c.53-.63.63-.7.72-.7.1 0 .21.07.74.53.22.2.3.32.3.4 0 .1-.05.14-.2.14h-3.52v1.77h1.74c.48-.5.57-.55.66-.55.1 0 .2.06.66.43.2.18.27.27.27.38 0 .13-.08.24-.4.43v2.01c0 4.24.04 4.95.04 5.32 0 .5-.12.71-.35.9-.2.18-.58.33-.85.33-.18 0-.21-.04-.24-.28-.06-.45-.26-.6-1-.85-.07-.04-.07-.2 0-.18.56.06.86.08 1.13.08.17 0 .24-.07.24-.28v-2.52H10.5c0 1.92.02 2.92.02 3.36 0 .34-.2.48-.6.48-.36 0-.48-.1-.48-.42l.04-3.42H7.7c0 2.11.02 3.01.02 3.69 0 .34-.2.53-.6.53-.35 0-.5-.14-.5-.44 0-.63.08-1.71.08-4.74 0-2.5 0-3.69-.08-4.86.54.2.75.32 1.22.6h1.65v-1.77zm-7.35 9.6h2.38v-3.02H2.14v3.02zm0 .99c0 .3-.2.42-.62.42-.27 0-.39-.1-.39-.32 0-.37.05-.96.05-3.07 0-.87 0-1.33-.08-1.94.47.2.68.3 1.14.53h2.18c.37-.4.45-.46.54-.46.1 0 .18.06.61.37.21.18.27.25.27.36 0 .12-.06.2-.36.4v.83c0 1.64.05 2.45.05 2.68 0 .3-.17.46-.57.46-.33 0-.44-.12-.44-.4v-.47H2.14v.61zm-.2-8.11c-.27 0-.46.03-.82.09l-.15-.59c.42.1.67.12 1.03.12h.89v-.48c0-.52-.03-.9-.08-1.4 1.37.13 1.52.26 1.52.41 0 .1-.1.21-.47.38v1.1l.63-.01c.4-.52.51-.6.6-.6.1 0 .2.08.72.51.15.14.23.24.23.33 0 .1-.05.14-.2.14H3.86v1.87h.86c.45-.55.55-.63.67-.63.1 0 .2.08.7.48.2.17.28.29.28.38 0 .1-.05.15-.2.15H1.25c-.27 0-.5.03-.84.09l-.16-.57c.42.07.7.1 1.08.1h1.56v-1.87h-.95zm1.86-4.17c1.5.5 2.3 1.14 2.3 1.77 0 .33-.21.6-.47.6-.25 0-.31-.05-.61-.7a4.19 4.19 0 0 0-1.32-1.5A9.28 9.28 0 0 1 .16 76.3c-.1.05-.21-.12-.14-.2a11 11 0 0 0 2.37-3c.24-.47.42-.94.53-1.39.99.35 1.47.56 1.47.7 0 .13-.15.19-.56.23l-.03.05zm2.76 27.29h4.67v-1.31H6.56v1.31zm0-1.69h4.67v-1.36H6.56v1.36zm0 2.07l.03 2.72c0 .36-.2.49-.66.49-.33 0-.45-.12-.45-.39 0-.56.05-1.45.05-3.98 0-1.6 0-2.42-.06-3.22.5.22.72.31 1.2.57h4.47c.42-.44.5-.48.58-.48.1 0 .2.05.66.44.23.19.27.27.27.36 0 .11-.04.16-.39.4v1.27c0 2.84.05 3.26.05 3.65 0 .54-.17.81-.47 1.02-.24.18-.58.28-.84.28-.18 0-.24-.06-.27-.22-.04-.5-.24-.69-1.42-.93-.08-.02-.08-.2 0-.2.84.05 1.27.08 1.72.08.14 0 .2-.07.2-.24v-1.62H6.56zm5.75-5.38c.54-.64.66-.72.76-.72.1 0 .2.08.77.53.24.23.3.32.3.41 0 .1-.05.15-.2.15h-8.6c-.26 0-.47.03-.82.09l-.15-.57c.4.1.65.1 1 .1h2.96v-1.39H6.31c-.26 0-.44.03-.77.09l-.16-.58c.36.09.58.11.9.11h2.05v-1.28h-2.6c-.3 0-.49.03-.82.09l-.15-.59c.36.09.59.12.93.12h2.64v-.06c0-.78-.01-1.26-.06-1.77 1.44.17 1.62.29 1.62.45 0 .1-.1.21-.5.39v1h2.66c.53-.69.63-.76.74-.76.09 0 .2.08.8.57.26.23.32.33.32.42 0 .09-.04.14-.2.14H9.4v1.28h2.07c.48-.6.6-.67.69-.67.09 0 .2.08.75.54.22.16.28.29.28.38 0 .09-.04.13-.2.13h-3.6v1.4h2.92zm-8.2-1.05a3.43 3.43 0 0 0-.43-1.5c-.03-.05.06-.11.1-.08.76.5 1.2 1.11 1.2 1.62 0 .32-.2.6-.47.6-.29 0-.4-.17-.4-.64zm-.79.23c0 5.73.05 8.13.05 8.91 0 .32-.24.5-.7.5-.32 0-.47-.12-.47-.44 0-.56.07-2.9.07-8.45 0-3.32 0-4.3-.07-5 1.42.18 1.6.24 1.6.44 0 .11-.09.22-.48.39v3.66zM.16 95.5c0-.25.09-.42.31-.58.62-.45.84-1 .9-2.06 0-.06.15-.06.17 0 .09.45.13.87.13 1.26 0 1.16-.37 2-1 2-.3 0-.51-.25-.51-.62zm9.49 18.58a9.5 9.5 0 0 0 1.53 3.46c.51-1.1.89-2.28 1.08-3.47h-2.6zm-.93 0l.02 6.97c0 .34-.21.5-.66.5-.33 0-.47-.13-.47-.41 0-.64.08-3.31.08-8.5 0-3.02-.02-3.81-.08-4.53.53.2.74.3 1.25.58h3.54c.45-.48.52-.54.61-.54.12 0 .21.06.66.42.21.18.27.29.27.38 0 .13-.07.22-.42.43-.12 1.32-.2 1.88-.36 2.34-.13.39-.36.61-.64.8-.2.1-.5.15-.75.15-.17 0-.24-.05-.26-.19-.06-.45-.24-.6-1.27-.84-.08-.01-.06-.17.01-.17.77.07 1.28.11 1.5.11.23 0 .35-.08.45-.4.12-.39.2-.99.27-2.12H8.72v4.64h3.48c.45-.51.53-.56.62-.56.1 0 .2.05.7.47.23.2.27.28.27.38 0 .15-.06.19-.46.37a13.32 13.32 0 0 1-1.55 3.89 8.78 8.78 0 0 0 2.67 1.86c.06.03.03.13-.03.14-.37.11-.48.2-.69.75-.04.13-.1.17-.18.17-.07 0-.2-.08-.43-.23a8.42 8.42 0 0 1-1.9-1.9c-.6.8-1.3 1.44-2.08 1.92-.09.06-.24-.09-.16-.16.67-.68 1.27-1.52 1.8-2.44a12.4 12.4 0 0 1-1.44-4.28h-.62zm-6.66.48a3.03 3.03 0 0 0-.48-1.53c-.03-.05.03-.11.1-.1.85.35 1.39 1 1.39 1.52 0 .34-.23.61-.54.61-.29 0-.44-.12-.47-.5zm2.13 4.21c0 1.38.06 2.03.06 2.28 0 .27-.2.47-.67.47-.35 0-.48-.14-.48-.38 0-.25.06-.96.06-2.39V118H1.64c-.3 0-.5.03-.88.1l-.15-.57c.4.08.64.1 1 .1h1.55v-2H1.28c-.31 0-.54.02-.91.1l-.15-.59c.4.09.64.12 1.03.12h2.91c.21-.53.38-.96.51-1.44.1-.38.18-.69.2-1 1.03.34 1.4.49 1.4.69 0 .11-.08.19-.52.22-.45.64-.76 1.05-1.21 1.53h1.14c.43-.57.55-.65.64-.65.1 0 .2.08.72.5.2.17.27.28.27.38 0 .1-.04.15-.2.15H4.2v1.99h1.22c.46-.57.58-.64.67-.64.1 0 .21.07.72.49.23.18.29.3.29.39 0 .09-.05.13-.2.13H4.2v.77zm1.5-6.45c.45-.58.56-.66.65-.66.1 0 .2.08.73.51.21.18.29.3.29.39 0 .09-.05.13-.2.13H1.24c-.32 0-.53.03-.89.1l-.16-.6c.4.09.64.13 1.03.13h1.94v-1.98H1.75c-.3 0-.51.03-.89.09l-.15-.58c.4.09.63.12 1 .12h1.45v-.64c0-.56-.02-1.02-.08-1.54 1.43.14 1.6.26 1.6.4 0 .13-.11.23-.49.38v1.4h1.19c.46-.58.57-.65.66-.65.1 0 .2.08.7.51.2.17.29.29.29.38 0 .09-.06.13-.21.13H4.19v1.98h1.5zm1.19 20.64c0-.85-.21-1.21-.75-1.21-.62 0-1.25.45-1.85 1.05-.48.49-.82.99-1.18 1.5-.12.16-.32.36-.51.36-.29 0-.5-.18-.5-.6 0-.23.17-.44.47-.74a16.21 16.21 0 0 0 2.56-3.5c-.4.07-.82.1-1.29.1-.75 0-1.35-.26-1.74-.96a.36.36 0 0 1-.06-.2c0-.09.06-.13.12-.13.05 0 .12.04.18.12.36.39.9.49 1.49.49.43 0 1.03-.09 1.7-.24.19-.39.38-.91.49-1.27.04-.17.07-.3.07-.4 0-.19-.1-.28-.3-.34-.2-.06-.39-.09-.61-.12-.08-.01-.12-.04-.12-.09 0-.04.06-.12.12-.16.2-.15.37-.2.58-.2.33 0 .78.15 1.13.35.36.2.5.4.5.58a.4.4 0 0 1-.17.35c-.12.09-.27.22-.38.4l-.37.69a6.3 6.3 0 0 0 1.3-.52c.24-.14.48-.26.77-.26.33 0 .57.18.57.45s-.21.36-.5.47c-.8.28-1.56.49-2.62.75-.47.78-.93 1.57-1.44 2.29.6-.43 1.27-.72 1.8-.72.8 0 1.3.48 1.38 1.28.03.18.03.45.04.7a35.1 35.1 0 0 0 3-1.87c.15-.11.23-.23.23-.32 0-.07-.06-.13-.18-.21-.12-.07-.3-.12-.45-.16-.1-.03-.15-.06-.15-.11 0-.06.1-.15.22-.2.1-.04.23-.05.38-.05.28 0 .75.15 1.14.37.45.24.69.5.69.8 0 .25-.2.37-.4.39-.11.01-.3.04-.58.16-.73.32-1.48.66-2.52 1.2-.43.23-.93.53-1.35.75v2.1c0 .42-.16.63-.46.63-.3 0-.51-.16-.51-.54 0-.36.03-.99.06-1.72-1.32.75-2.1 1.33-2.1 2.26 0 .62.54 1.1 1.93 1.1.89 0 1.5-.03 2.1-.11.38-.06.66-.12.89-.18.2-.04.36-.09.5-.09.53 0 1.04.3 1.04.66 0 .24-.16.39-.75.48-.46.09-1.62.15-2.83.15-2.04 0-3.42-.5-3.42-1.92 0-1.3 1.03-2.16 2.64-3.12v-.72zm-2.84 19.02h6.02v-2.2H4.04v2.2zm0-2.58h6.02v-2.01H4.04v2.01zm0-2.38h6.02V145H4.04v2zm4.76 8.38c0 .69.15.76 1.51.76 1.53 0 2.06-.07 2.3-.43.18-.25.3-.63.61-1.65.03-.09.2-.06.2.03l-.03 1.33c0 .22.06.28.24.35.2.09.28.25.28.45 0 .3-.27.52-.7.66-.48.15-1.34.24-3.05.24-2.04 0-2.49-.28-2.49-1.3 0-.17.03-.44.03-1.2v-2.28H4.04v.31c0 .32-.2.47-.69.47-.34 0-.48-.11-.48-.41 0-.54.08-1.33.08-4.68 0-1.98 0-3.02-.08-4.05.56.22.78.33 1.3.63h5.77c.5-.5.57-.55.66-.55.1 0 .2.06.7.46.23.21.27.29.27.38 0 .13-.06.22-.4.48v1.95c0 3.28.09 4.74.09 5.2 0 .34-.24.51-.66.51-.38 0-.54-.12-.54-.4v-.3H8.8v3.04zm-8.37 1.83c2.05-.58 3.54-1.66 4.21-3.06.24-.46.36-.99.4-1.59 1.33.31 1.54.42 1.54.57 0 .15-.05.24-.51.36-.68 2.24-2.52 3.56-5.57 3.93-.09.02-.16-.18-.07-.21zm5.46 14.85c-.54 0-.83.33-.83.69 0 .61.8 1.03 2 1.03.25 0 .46-.01.6-.04-.23-.86-1.04-1.68-1.77-1.68zm-.86-2.88a5.17 5.17 0 0 1 3.15-1.18c2.2 0 3.42 1.37 3.42 3 0 2.26-2.04 3.53-4.24 3.53-1.64 0-2.8-.67-2.8-1.69 0-.81.68-1.25 1.5-1.25 1.4 0 2.3 1.23 2.53 1.92a2.68 2.68 0 0 0 1.89-2.59c0-1.67-1.1-2.39-2.37-2.39a4.8 4.8 0 0 0-3.4 1.53c-.52.54-.85.89-1.16 1.32-.08.11-.23.2-.38.2-.28 0-.54-.24-.54-.59 0-.15.05-.31.26-.54 1.15-1.24 2.4-2.53 3.48-3.85.64-.8 1.26-1.54 2-2.54.11-.13.07-.16 0-.16-.05 0-.19.05-.28.08-.67.22-1.44.5-2.04.75-.27.1-.37.16-.5.31a.56.56 0 0 1-.41.17c-.2 0-.51-.17-.75-.44-.27-.29-.54-.67-.54-1.1 0-.15.09-.31.18-.31.06 0 .12.06.2.16.32.44.53.59.79.59.2 0 .45-.03.78-.1.67-.17 1.3-.35 1.98-.58a.95.95 0 0 0 .45-.27c.1-.1.22-.14.34-.14.24 0 .62.22.95.46.3.21.45.4.45.64 0 .15-.12.26-.4.32-.14.03-.28.1-.6.43-.5.5-1.12 1.15-2 2.18-.56.64-1.37 1.43-1.97 2.1l.03.03z" fill="#FFF" mask="url(#b)"/><g transform="translate(35)"><mask id="d" fill="#fff"><use xlink:href="#c"/></mask><path d="M11.58 27.58h12.81v-7.65H11.58v7.65zm6.82-8.4h5.76c1.13-1.3 1.4-1.5 1.66-1.5.33 0 .6.2 1.82 1.2.53.46.73.69.73.95 0 .27-.23.5-.86 1v1.36c0 3.57.16 6.02.16 6.81 0 1.07-.56 1.6-1.75 1.6-1.13 0-1.53-.4-1.53-1.43v-.83H11.58v.8c0 1.06-.53 1.49-1.85 1.49-1.1 0-1.43-.23-1.43-1.36 0-.96.17-1.95.17-5.86 0-1.95-.04-3.9-.1-5.9 1.65.73 1.92.83 3.48 1.66h3.44v-8.21c-.03-2.22-.03-3.68-.1-4.4 4 .36 4.4.72 4.4 1.09 0 .33-.43.66-1.19 1.03v3.5h5.17c1.55-1.82 1.95-2.08 2.18-2.08.3 0 .66.26 2.12 1.46.63.53.9.82.9 1.05 0 .24-.1.34-.43.34H18.4v6.22zm7.1-14.42c1.72-1.99 1.98-2.19 2.25-2.19.33 0 .63.2 2.32 1.5.8.62.99.85.99 1.12 0 .23-.13.33-.5.33H6.65v1.32c-.1 6.73-.4 11.13-1.23 14.47-.9 3.51-2.35 5.96-4.8 8.88-.1.13-.43-.1-.36-.27a34.83 34.83 0 0 0 2.65-9.17c.4-2.78.52-6.03.52-10.46 0-3.05-.06-5.04-.23-7.39 1.8.73 2.06.86 3.78 1.86h8.24V1.95c0-.6-.06-1.26-.16-1.95 4 .4 4.4.76 4.4 1.13 0 .3-.43.63-1.16.99v2.65h7.19zm1.8 47.13c-.45 0-.69-.2-.98-.93a6.06 6.06 0 0 0-1.56-2.18c-.13-.1 0-.4.16-.37 2.32.27 3.55 1 3.55 2.15 0 .73-.57 1.33-1.16 1.33zm-.29 16.62v-4.87h-3.54l.03 4.87h3.51zm-3.54-5.63H27v-4.47h-3.54v4.47zm-2.78.76h-3.25v4.87h3.21l.04-4.87zm0-.76c0-2.65.03-3.57.03-4.47h-3.28v4.47h3.25zm2.81 13.38c0 .96-.5 1.32-1.62 1.32-1 0-1.33-.26-1.33-1.16 0-1.16.04-3.47.07-7.15h-3.18v7.68c0 .96-.5 1.43-1.55 1.43-.93 0-1.43-.37-1.43-1.16 0-1.62.2-3.25.2-9.8 0-3.78-.03-7.58-.23-11.4 1.65.64 1.92.74 3.38 1.63h2.9V53.7h-4.26c-.63 0-1.23.07-2.06.2l-.36-1.23c.96.2 1.69.27 2.42.27h4.27v-1.52c0-2.3-.03-2.62-.13-3.65 3.74.47 4.04.53 4.04 1.06 0 .3-.33.57-1.16.9v3.2h3.64c1.16-1.38 1.56-1.65 1.79-1.65.3 0 .63.27 1.72 1.2.43.36.7.66.7.89 0 .23-.1.33-.44.33h-7.41v3.94h3.14c1.26-1.32 1.53-1.52 1.8-1.52.32 0 .59.2 1.75 1.19.5.43.7.66.7.93 0 .4-.24.66-.97 1.09v2.55c0 10.23.1 12.28.1 12.85 0 1.15-.1 1.62-.53 2.15a3.7 3.7 0 0 1-2.58 1.16c-.53 0-.6-.1-.66-.83-.14-1.26-.6-1.66-2.19-2.39-.17-.06-.17-.43 0-.4 1.06.14 1.79.2 2.52.2.36 0 .46-.16.46-.6v-4.76H23.5v6.99zm-18.31-1.3h4.44v-6.71H5.19v6.72zm0 .77v1.22c0 .8-.5 1.1-1.69 1.1-.73 0-1.1-.27-1.1-.77 0-1.25.1-2.51.1-7.54 0-1.2-.02-2.39-.16-3.61 1.43.6 1.66.7 3.08 1.35H9.4c.87-1.02 1.13-1.22 1.4-1.22.33 0 .6.2 1.62 1 .46.39.66.62.66.89 0 .26-.17.46-.8.86v1.26c0 3.27.1 5.53.1 6.25 0 .83-.4 1.16-1.45 1.16-.96 0-1.3-.3-1.3-1.06v-.9H5.2zm3.54-12.38h1.3c1.05-1.3 1.45-1.56 1.68-1.56.3 0 .67.26 1.66 1.1.43.36.7.65.7.89 0 .23-.1.33-.44.33H2.61c-.53 0-1.03.06-1.72.2l-.37-1.23c.93.2 1.66.27 2.35.27h3.11V59.1H4.2c-.53 0-1.03.06-1.72.2l-.37-1.23c.93.2 1.66.27 2.35.27h1.52v-1.6c0-.52-.06-1.38-.16-2.58 3.54.33 3.87.67 3.87.96 0 .27-.33.53-.96.86v2.36h.83c.93-1.2 1.33-1.46 1.56-1.46.3 0 .63.26 1.59 1.06.36.3.63.6.63.83 0 .23-.1.33-.44.33H8.73v4.24zM8.67 50.3c3.2.86 4.76 1.99 4.76 3.48 0 .86-.62 1.62-1.35 1.62-.73 0-.8-.1-1.6-1.86a7.89 7.89 0 0 0-2.11-2.84 21.78 21.78 0 0 1-8.08 7.38c-.13.07-.36-.23-.27-.36a27.36 27.36 0 0 0 4.77-6.66c.53-1.1.93-2.18 1.2-3.24 2.8.92 4 1.45 4 1.82 0 .33-.33.46-1.26.53l-.06.13zm6.29 67.91h9.53v-3.01h-9.53v3.01zm0-3.77h9.53v-3.02h-9.53v3.02zm0 4.53c.03 2.85.03 4.34.03 5.83 0 .96-.56 1.33-1.85 1.33-.9 0-1.26-.37-1.26-1.1 0-1.45.13-3.04.13-8.94 0-2.31-.03-4.63-.13-6.98 1.59.72 1.82.82 3.28 1.55h9.14c.95-1.06 1.22-1.26 1.48-1.26.34 0 .63.2 1.83 1.13.53.43.73.66.73.93 0 .26-.14.36-.9.92v1.7c0 6.78.1 7.7.1 8.54 0 1.35-.27 2.02-.96 2.58-.7.56-1.59.83-2.42.83-.46 0-.63-.14-.7-.47-.13-1.42-.66-2.02-3.27-2.68-.17-.03-.17-.4 0-.4 1.62.1 2.75.14 3.97.14.23 0 .33-.14.33-.47v-3.18h-9.53zm6.22-15.72h3.58c1.16-1.43 1.55-1.7 1.79-1.7.3 0 .66.27 1.85 1.2.5.4.76.7.76.93 0 .23-.1.33-.43.33h-7.55v3.14h5.4c1.36-1.59 1.76-1.85 1.99-1.85.3 0 .63.26 1.88 1.29.53.46.8.76.8 1 0 .22-.1.33-.43.33h-19c-.5 0-1 .06-1.66.2l-.37-1.23c.83.2 1.46.26 2.09.26h6.29v-3.14h-4.34c-.43 0-.86.06-1.46.2l-.36-1.23c.66.2 1.2.27 1.69.27h4.47v-2.89h-5.63c-.46 0-.9.07-1.49.2l-.36-1.22c.7.2 1.19.26 1.72.26h5.76v-.8c0-1.28-.07-2.34-.13-3.27 3.84.36 4.2.7 4.2 1.03 0 .23-.33.56-1.06.92v2.12h4.8c1.3-1.68 1.7-1.95 1.92-1.95.3 0 .67.27 2.02 1.36.6.5.86.8.86 1.02 0 .24-.1.33-.43.33h-9.17v2.89zm-11.16 2.94c-.89 0-1.15-.43-1.15-1.95 0-1.2-.27-2.45-.7-3.11-.1-.14.03-.27.17-.2 1.98 1.12 3 2.41 3 3.84 0 .83-.52 1.42-1.32 1.42zm-2.28-4.33c0 12.02.06 20.2.06 22.94 0 .9-.62 1.33-1.85 1.33-.86 0-1.29-.33-1.29-1.16 0-1.92.17-9.77.17-21.43 0-4.6-.04-6.35-.17-8.08 3.7.44 4.1.53 4.1 1 0 .33-.3.6-1.02.86v4.54zm-3.78 4c0 2.19-.76 3.88-2.28 3.88-.83 0-1.4-.7-1.4-1.7 0-.72.24-1.19.87-1.62 1.4-.96 1.79-1.72 1.89-4 0-.17.33-.23.36-.07.37 1.2.56 2.42.56 3.51zm17.32 51.29a18.5 18.5 0 0 0 3.38 7.15 32.94 32.94 0 0 0 2.02-7.15h-5.4zm-1.75 15.3c0 1-.57 1.32-1.76 1.32-.96 0-1.36-.33-1.36-1.05 0-.87.2-6.86.2-19.5 0-5.74-.03-7.49-.2-9.35 1.63.63 1.9.73 3.45 1.6h6.95c1.16-1.23 1.43-1.43 1.69-1.43.33 0 .63.2 1.75 1.06.53.4.73.63.73.9 0 .36-.16.56-.96.95-.36 3.61-.5 4.34-.92 5.27a3.43 3.43 0 0 1-1.66 1.62 4.6 4.6 0 0 1-1.82.37c-.4 0-.53-.1-.56-.47-.17-1.26-.6-1.62-2.69-2.28-.16-.07-.1-.43.07-.4 1.4.17 2.78.3 3.18.3.43 0 .7-.13.9-.8.2-.7.36-1.98.52-4.33h-7.51v10.16h6.98c1.16-1.39 1.43-1.59 1.7-1.59.32 0 .59.2 1.85 1.2.56.46.76.69.76.95 0 .43-.17.57-1.16 1a29.19 29.19 0 0 1-3.28 8.24 22.76 22.76 0 0 0 5.53 3.58c.17.06.13.3-.03.33-1.1.33-1.4.66-1.99 2.32-.13.36-.26.5-.5.5-.16 0-.53-.24-.99-.6a18.72 18.72 0 0 1-3.67-3.74 13.94 13.94 0 0 1-4.7 3.9c-.17.07-.34-.06-.24-.2a22.37 22.37 0 0 0 3.74-5.53c-1.62-2.78-2.35-5.46-2.91-9.6h-1.1v15.3zM5.43 159.6c-.84 0-1.17-.43-1.23-1.52a6.99 6.99 0 0 0-.83-3.25c-.07-.13 0-.26.16-.2 2.16.83 3.35 2 3.35 3.38 0 .9-.6 1.6-1.46 1.6zm4.13 5.53h1.89c1.06-1.39 1.45-1.65 1.69-1.65.3 0 .66.26 1.75 1.16.46.4.73.7.73.92 0 .23-.1.33-.43.33H9.56v1.8c0 2.87.1 4.1.1 4.8 0 .62-.46 1.18-1.86 1.18-.96 0-1.32-.33-1.32-.95 0-.63.1-2 .1-5.07v-1.76H3.37c-.53 0-1.06.07-1.79.2l-.36-1.22c.82.2 1.42.26 2.05.26h3.31v-4.47H2.64c-.53 0-1.06.07-1.79.2l-.36-1.22c.83.2 1.42.26 2.05.26h6.4c.39-1.2.69-2.09.92-2.95.23-.86.36-1.62.43-2.51 2.45.7 3.54 1.19 3.54 1.62 0 .33-.2.43-1.19.53a16.7 16.7 0 0 1-2.72 3.31h2.06c1.02-1.32 1.42-1.59 1.65-1.59.3 0 .63.27 1.7 1.13.42.36.69.66.69.9 0 .22-.1.32-.43.32H9.56v4.47zm0-11.75h2.48c1.03-1.33 1.43-1.6 1.66-1.6.3 0 .66.27 1.69 1.13.43.37.7.67.7.9 0 .23-.1.33-.44.33H2.51c-.53 0-1.06.07-1.79.2l-.36-1.23c.82.2 1.42.27 2.05.27h4.17V149H3.73c-.56 0-1.09.06-1.82.2l-.36-1.23c.82.2 1.42.27 2.05.27h2.98v-2a36 36 0 0 0-.17-2.9c3.81.36 4.18.7 4.18 1.02 0 .27-.37.56-1.03.83v3.05h1.72c1.03-1.33 1.43-1.6 1.66-1.6.3 0 .63.27 1.65 1.13.43.37.7.66.7.9 0 .23-.1.33-.43.33h-5.3v4.37z" fill="#FFF" mask="url(#d)"/></g></g></svg>